<?xml version="1.0" encoding="UTF-8"?>
<svg width="170px" height="65px" viewBox="0 0 170 65" version="1.1" xmlns="http://www.w3.org/2000/svg" xmlns:xlink="http://www.w3.org/1999/xlink">
    <!-- Generator: Sketch 53 (72520) - https://sketchapp.com -->
    <title>3</title>
    <desc>Created with Sketch.</desc>
    <defs>
        <path d="M6.98234554,5.25247445 L6.98234554,13.8534792 L6.98234554,18.9683428 L6.98234554,30.0465063 C6.98234554,31.4532495 6.66150966,32.4967983 6.0198379,33.1773166 C5.37816615,33.8576711 4.55483886,34.1979303 3.54980664,34.1979303 C2.52931543,34.1979303 1.69825042,33.8539032 1.05657866,33.1658491 C0.414906906,32.4776311 0.0940710285,31.438014 0.0940710285,30.0465063 L0.0940710285,4.1743591 C0.0940710285,3.19584778 0.240956173,2.39688584 0.534742926,1.77763709 C0.828513215,1.15822451 1.28849651,0.70722139 1.91470927,0.424300069 C2.54092203,0.141378749 3.34106906,0 4.31516682,0 L6.98234554,5.25247445 Z" id="path-1"></path>
        <path d="M12.671305,5.25247445 L6.95881955,5.25247445 L6.95881955,13.8534792 L18.3001242,13.8534792 C19.3515334,13.8534792 20.1362049,14.0865985 20.6541883,14.5530009 C21.1721716,15.0194033 21.431155,15.6425838 21.431155,16.4223786 C21.431155,17.2021733 21.1683027,17.821422 20.6425981,18.2801248 C20.1168771,18.7388276 19.3360744,18.9683428 18.3001242,18.9683428 L6.95881955,18.9683428 L6.95881955,30.0465063 C6.95881955,31.4532495 6.63800013,32.4967983 5.99632838,33.1773166 C5.35465662,33.8576711 4.53131287,34.1979303 3.52628066,34.1979303 C2.50580591,34.1979303 1.67472443,33.8539032 1.03305267,33.1658491 C0.391380917,32.4776311 0.070561503,31.438014 0.070561503,30.0465063 L0.070561503,4.1743591 C0.070561503,3.19584778 0.217446648,2.39688584 0.511216937,1.77763709 C0.805003689,1.15822451 1.26498698,0.70722139 1.89119974,0.424300069 C2.51739604,0.141378749 3.31754307,0 4.29165729,0 L12.671305,0 L12.671305,5.25247445 Z" id="path-3"></path>
        <path d="M6.98234554,28.9454559 L4.31516682,34.1979303 C3.34106906,34.1979303 2.54092203,34.0565516 1.91470927,33.7736302 C1.28849651,33.4907089 0.828513215,33.0397058 0.534742926,32.4202932 C0.240956173,31.8010445 0.0940710285,31.0020825 0.0940710285,30.0235712 L0.0940710285,4.15142396 C0.0940710285,2.75991632 0.414906906,1.72029924 1.05657866,1.03208125 C1.69825042,0.344027083 2.52931543,0 3.54980664,0 C4.55483886,0 5.37816615,0.340259168 6.0198379,1.02061368 C6.66150966,1.70113202 6.98234554,2.74468084 6.98234554,4.15142396 L6.98234554,15.2295875 L6.98234554,20.3444511 L6.98234554,28.9454559 Z" id="path-5"></path>
        <path d="M0.0352807515,0 L3.60800424,0 L3.29421464,0 L8.53570286,0 C9.94943534,0 10.9981775,0.319289898 11.6819952,0.957705871 C12.3657964,1.59628567 12.7077052,2.41556159 12.7077052,3.41569747 C12.7077052,4.43106883 12.3619605,5.25804441 11.6704709,5.89662421 C10.9789649,6.53504018 9.93405866,6.85433008 8.53570286,6.85433008 L0.0352807515,6.85433008 L0.0352807515,0 Z" id="path-7"></path>
        <path d="M0.0352807515,0.0819112103 L3.59559095,0.0819112103 L3.28180135,0.0819112103 L18.6389379,0.0819112103 C20.0526539,0.0819112103 21.1014125,0.401201108 21.7852138,1.03961708 C22.4690314,1.67819688 22.8109238,2.4974728 22.8109238,3.49760868 C22.8109238,4.51298004 22.4651955,5.33995562 21.7736895,5.97853542 C21.0821999,6.61695139 20.0372937,6.93624129 18.6389379,6.93624129 L0.0352807515,6.93624129 L0.0352807515,0.0819112103 Z" id="path-9"></path>
        <path d="M0.964367822,5.42356583 C0.0285306599,3.78042695 0.608547532,1.69349313 2.25984475,0.76216267 C3.91114197,-0.169003969 6.00841225,0.408142419 6.94424941,2.0512813 C8.24399032,4.33349144 9.79301781,6.46875287 11.5604962,8.41676527 C13.0425018,10.0500748 14.6722815,11.545282 16.4281369,12.8817453 C22.1374943,17.2271351 29.0228219,19.7845669 36.361745,20.167256 C43.7631462,20.5532217 50.9376508,18.6913799 57.1057239,14.9006929 C58.9020294,13.7968574 60.5985676,12.5372268 62.1746278,11.1380195 C64.1626315,9.37316057 65.9496682,7.39467719 67.4997493,5.24008472 C68.6046312,3.70441334 70.7514065,3.35072074 72.2947048,4.450133 C73.8380195,5.54954527 74.1934282,7.68578963 73.0885628,9.221461 C71.2430486,11.7865925 69.116128,14.1415398 66.7503585,16.2417432 C64.8748483,17.9068343 62.8557949,19.4058094 60.7174653,20.7199929 C53.3690758,25.2359217 44.8110652,27.4568623 36.0020065,26.9975042 C27.267411,26.5419141 19.0543221,23.4915406 12.2522821,18.3142606 C10.1620746,16.7233811 8.22243992,14.943942 6.45884686,13.000189 C4.35548517,10.6821017 2.51184777,8.1407245 0.964367822,5.42356583 Z" id="path-11"></path>
        <path d="M59.01556,5.25548402 C57.120442,5.36016655 55.498861,3.91639956 55.3936608,2.03047585 C55.288477,0.144715966 56.7394988,-1.46893488 58.6346168,-1.5736174 L74.1271307,-2.42926191 C75.9561816,-2.53034034 77.543371,-1.18601356 77.7353819,0.62684535 L79.475202,17.0534833 C79.674144,18.9317073 78.3052245,20.6148189 76.4176466,20.8128802 C74.5300688,21.0107777 72.8386012,19.6485943 72.6396593,17.7703702 L71.2426206,4.58020801 L59.01556,5.25548402 Z" id="path-13"></path>
    </defs>
    <g id="3" stroke="none" stroke-width="1" fill="none" fill-rule="evenodd">
        <g id="Group-13" transform="translate(45.000000, 6.000000)">
            <g id="Group-Copy-5" transform="translate(0.366159, 0.000000)">
                <g id="Group-19" transform="translate(0.000000, 24.245718)"></g>
                <g id="Group-22" transform="translate(54.987266, 21.624560)"></g>
                <g id="Group-25" transform="translate(41.816663, 0.000000)">
                    <mask id="mask-2" fill="white">
                        <use xlink:href="#path-1"></use>
                    </mask>
                    <g id="Clip-24"></g>
                    <polygon id="Fill-23" fill="#B3B3B3" mask="url(#mask-2)" points="-1.55225429 35.8361545 8.62866591 35.8361545 8.62866591 -1.63822421 -1.55225429 -1.63822421"></polygon>
                </g>
                <g id="Group-28" transform="translate(18.274211, 0.000000)">
                    <mask id="mask-4" fill="white">
                        <use xlink:href="#path-3"></use>
                    </mask>
                    <g id="Clip-27"></g>
                    <polygon id="Fill-26" fill="#B3B3B3" mask="url(#mask-4)" points="-1.57576381 35.8361545 23.0774803 35.8361545 23.0774803 -1.63822421 -1.57576381 -1.63822421"></polygon>
                </g>
                <g id="Group-31" transform="translate(41.816663, 0.000000)">
                    <mask id="mask-6" fill="white">
                        <use xlink:href="#path-5"></use>
                    </mask>
                    <g id="Clip-30"></g>
                    <polygon id="Fill-29" fill="#B3B3B3" mask="url(#mask-6)" points="-1.55225429 35.8361545 8.62866591 35.8361545 8.62866591 -1.63822421 -1.55225429 -1.63822421"></polygon>
                </g>
                <g id="Group-34" transform="translate(24.200982, 0.000000)">
                    <mask id="mask-8" fill="white">
                        <use xlink:href="#path-7"></use>
                    </mask>
                    <g id="Clip-33"></g>
                    <polygon id="Fill-32" fill="#B3B3B3" mask="url(#mask-8)" points="-1.61104456 8.49255429 14.3540273 8.49255429 14.3540273 -1.63826844 -1.61104456 -1.63826844"></polygon>
                </g>
                <g id="Group-37" transform="translate(24.200982, 13.597261)">
                    <mask id="mask-10" fill="white">
                        <use xlink:href="#path-9"></use>
                    </mask>
                    <g id="Clip-36"></g>
                    <polygon id="Fill-35" fill="#B3B3B3" mask="url(#mask-10)" points="-1.61104456 8.5744655 24.4572656 8.5744655 24.4572656 -1.55635723 -1.61104456 -1.55635723"></polygon>
                </g>
            </g>
            <g id="Group-15" transform="translate(0.000000, 24.080688)">
                <mask id="mask-12" fill="white">
                    <use xlink:href="#path-11"></use>
                </mask>
                <g id="Clip-18"></g>
                <polygon id="Fill-17" fill="#B3B3B3" mask="url(#mask-12)" points="-0.856138711 -1.57885972 75.6384573 2.41038004 74.1523524 30.6274814 -2.34224365 26.6382417"></polygon>
                <mask id="mask-14" fill="white">
                    <use xlink:href="#path-13"></use>
                </mask>
                <g id="Clip-21"></g>
                <polygon id="Fill-20" fill="#B3B3B3" mask="url(#mask-14)" points="51.9872655 -0.369850257 73.6939825 -11.3754405 88.1915068 16.937497 66.4847898 27.9430872"></polygon>
            </g>
        </g>
    </g>
</svg>