<?xml version="1.0" encoding="UTF-8"?>
<svg width="170px" height="65px" viewBox="0 0 170 65" version="1.1" xmlns="http://www.w3.org/2000/svg" xmlns:xlink="http://www.w3.org/1999/xlink">
    <!-- Generator: Sketch 53 (72520) - https://sketchapp.com -->
    <title>5</title>
    <desc>Created with Sketch.</desc>
    <defs>
        <path d="M8.64432808,4.94556255 C5.45357766,4.94556255 3.84502166,6.38733041 3.84502166,9.08757787 L3.84502166,10.660447 L11.8878133,10.660447 L11.8878133,13.5440979 L3.84502166,13.5440979 L3.84502166,20.5697641 L0.416947305,20.5697641 L0.416947305,9.08757787 C0.416947305,4.63094265 3.44948176,1.95696152 8.48610052,1.95696152 C10.569316,1.95696152 12.4679423,2.40268264 13.8391744,3.29400969 L12.7580127,6.07282572 C11.5713698,5.26006724 10.0946681,4.94556255 8.64432808,4.94556255 Z M17.725425,4.2639053 C16.5124089,4.2639053 15.6158363,3.39884458 15.6158363,2.29784774 C15.6158363,1.1967357 16.5124089,0.331674979 17.725425,0.331674979 C18.9384295,0.331674979 19.8350021,1.14431825 19.8350021,2.21916397 C19.8350021,3.37257826 18.9648027,4.2639053 17.725425,4.2639053 Z M16.0641226,20.5697641 L16.0641226,6.57084909 L19.3603426,6.57084909 L19.3603426,20.5697641 L16.0641226,20.5697641 Z M27.0702074,8.61570563 C28.0195264,7.14755623 29.7335636,6.41359674 32.0804762,6.41359674 L32.0804762,9.53318379 C31.7904059,9.48076634 31.5530819,9.45450002 31.3157464,9.45450002 C28.8106178,9.45450002 27.228435,10.9225342 27.228435,13.780034 L27.228435,20.5697641 L23.9322034,20.5697641 L23.9322034,6.57084909 L27.0702074,6.57084909 L27.0702074,8.61570563 Z M45.4861736,1.11816713 L48.7824749,1.11816713 L48.7824749,20.5697641 L45.6180396,20.5697641 L45.6180396,18.7609589 C44.5105279,20.0978919 42.8755523,20.7532828 40.9506108,20.7532828 C36.8633458,20.7532828 33.8307765,17.9220493 33.8307765,13.5703642 C33.8307765,9.21856389 36.8633458,6.41359674 40.9506108,6.41359674 C42.7701523,6.41359674 44.3786619,7.01657021 45.4861736,8.30108573 L45.4861736,1.11816713 Z M41.3462087,17.9482005 C43.7194481,17.9482005 45.5389897,16.2442301 45.5389897,13.5703642 C45.5389897,10.8963831 43.7194481,9.19241277 41.3462087,9.19241277 C38.9728532,9.19241277 37.1533117,10.8963831 37.1533117,13.5703642 C37.1533117,16.2442301 38.9728532,17.9482005 41.3462087,17.9482005 Z M60.0522568,17.9744668 C61.6344164,17.9744668 62.8474441,17.4763282 63.8757898,16.4540151 L65.6162815,18.4724902 C64.3769038,19.9667907 62.3991462,20.7532828 59.9730908,20.7532828 C55.252962,20.7532828 52.1940428,17.7385307 52.1940428,13.5703642 C52.1940428,9.40208257 55.252962,6.41359674 59.445743,6.41359674 C63.374792,6.41359674 66.5392272,9.03504522 66.5655772,13.4129967 L55.7803099,15.5102707 C56.4659897,17.1094061 57.9953333,17.9744668 60.0522568,17.9744668 Z M59.445743,9.03504522 C57.0460375,9.03504522 55.384828,10.7128644 55.384828,13.3868455 L55.384828,13.4129967 L63.348442,11.892545 C62.9001441,10.1885747 61.4235005,9.03504522 59.445743,9.03504522 Z M80.6041965,20.5697641 L75.7257357,14.5665262 L73.2733303,16.8734699 L73.2733303,20.5697641 L69.9771451,20.5697641 L69.9771451,1.11816713 L73.2733303,1.11816713 L73.2733303,12.8625558 L80.1031987,6.57084909 L84.0585976,6.57084909 L78.1781411,12.443101 L84.6124115,20.5697641 L80.6041965,20.5697641 Z M94.9855977,6.41359674 C98.3609489,6.41359674 100.866054,8.32723685 100.866054,12.5479359 L100.866054,20.5697641 L97.5698691,20.5697641 L97.5698691,12.9673907 C97.5698691,10.4769283 96.3304914,9.27098134 94.2208679,9.27098134 C91.8739785,9.27098134 90.2918189,10.6865981 90.2918189,13.4916804 L90.2918189,20.5697641 L86.9955176,20.5697641 L86.9955176,1.11816713 L90.2918189,1.11816713 L90.2918189,8.19625083 C91.3729806,7.04272133 93.0341902,6.41359674 94.9855977,6.41359674 Z M111.766704,20.7532828 C107.442057,20.7532828 104.277622,17.7646818 104.277622,13.5703642 C104.277622,9.37593145 107.442057,6.41359674 111.766704,6.41359674 C116.144051,6.41359674 119.28202,9.37593145 119.28202,13.5703642 C119.28202,17.7646818 116.144051,20.7532828 111.766704,20.7532828 Z M111.766704,17.9482005 C114.166294,17.9482005 115.959485,16.2442301 115.959485,13.5703642 C115.959485,10.8963831 114.166294,9.19241277 111.766704,9.19241277 C109.393349,9.19241277 107.600273,10.8963831 107.600273,13.5703642 C107.600273,16.2442301 109.393349,17.9482005 111.766704,17.9482005 Z" id="path-1"></path>
        <path d="M-49.1101733,5.07205565 L-49.1101733,-4.46768972 C-49.1101733,-5.23125643 -48.4865377,-5.85012794 -47.7172228,-5.85012794 L-38.1048313,-5.85012794 L-27.0994894,-5.85012794 L-17.4871096,-5.85012794 C-16.7177946,-5.85012794 -16.0941591,-5.23125643 -16.0941591,-4.46768972 L-16.0941591,5.07205565 L-27.0994894,5.07205565 L-27.0994894,15.9943544 L-38.1048313,15.9943544 L-38.1048313,26.9166532 L-47.7172228,26.9166532 C-48.4865377,26.9166532 -49.1101733,26.2977817 -49.1101733,25.534215 L-49.1101733,15.9943544 L-49.1101733,5.07205565 Z" id="path-3"></path>
        <linearGradient x1="10.9876556%" y1="11.2071605%" x2="10.9876556%" y2="137.626914%" id="linearGradient-5">
            <stop stop-color="#FFEA00" offset="0%"></stop>
            <stop stop-color="#FFD000" offset="100%"></stop>
        </linearGradient>
        <path d="M-49.1101733,5.07205565 L-49.1101733,-4.46768972 C-49.1101733,-5.23125643 -48.4865377,-5.85012794 -47.7172228,-5.85012794 L-38.1048313,-5.85012794 L-27.0994894,-5.85012794 L-17.4871096,-5.85012794 C-16.7177946,-5.85012794 -16.0941591,-5.23125643 -16.0941591,-4.46768972 L-16.0941591,5.07205565 L-27.0994894,5.07205565 L-27.0994894,15.9943544 L-38.1048313,15.9943544 L-38.1048313,26.9166532 L-47.7172228,26.9166532 C-48.4865377,26.9166532 -49.1101733,26.2977817 -49.1101733,25.534215 L-49.1101733,15.9943544 L-49.1101733,5.07205565 Z" id="path-6"></path>
        <polygon id="path-8" points="-27.0981197 5.07274687 -16.0920929 5.07274687 -16.0920929 15.9957369 -27.0981197 15.9957369"></polygon>
        <path d="M-23.9338818,-0.56379938 C-23.9338818,3.92728159 -27.7219526,7.56804786 -32.3947675,7.56804786 C-37.067594,7.56804786 -40.8556532,3.92728159 -40.8556532,-0.56379938 C-40.8556532,-0.994889699 -40.4920002,-1.34441616 -40.0434121,-1.34441616 C-39.594824,-1.34441616 -39.2311711,-0.994889699 -39.2311711,-0.56379938 C-39.2311711,3.06498575 -36.1704062,6.00681429 -32.3947675,6.00681429 C-28.6191404,6.00681429 -25.5583754,3.06498575 -25.5583754,-0.56379938 C-25.5583754,-0.994889699 -25.1947225,-1.34441616 -24.7461344,-1.34441616 C-24.2975463,-1.34441616 -23.9338818,-0.994889699 -23.9338818,-0.56379938 Z" id="path-10"></path>
        <path d="M0.034394269,0.0213125893 L11.0404211,0.0213125893 L11.0404211,9.56186438 C11.0404211,10.3253159 10.4167739,10.9443026 9.64747058,10.9443026 L0.034394269,10.9443026 L0.034394269,0.0213125893 Z" id="path-12"></path>
        <polygon id="path-14" points="0.0558921382 0.0213125893 11.0619189 0.0213125893 11.0619189 10.9443026 0.0558921382 10.9443026"></polygon>
    </defs>
    <g id="5" stroke="none" stroke-width="1" fill="none" fill-rule="evenodd">
        <g id="Group-24" transform="translate(0.000000, 15.000000)">
            <g id="Group-9" transform="translate(49.401709, 6.510638)">
                <mask id="mask-2" fill="white">
                    <use xlink:href="#path-1"></use>
                </mask>
                <g id="Clip-16"></g>
                <polygon id="Fill-15" fill="#B3B3B3" mask="url(#mask-2)" points="-0.743844765 21.9053147 120.442847 21.9053147 120.442847 -0.820333833 -0.743844765 -0.820333833"></polygon>
                <mask id="mask-4" fill="white">
                    <use xlink:href="#path-3"></use>
                </mask>
                <g id="Clip-51"></g>
                <polygon id="Fill-50" fill="url(#linearGradient-5)" mask="url(#mask-4)" points="-83.5470085 159.863203 229.86685 159.863203 229.86685 -26.7659574 -83.5470085 -26.7659574"></polygon>
                <mask id="mask-7" fill="white">
                    <use xlink:href="#path-6"></use>
                </mask>
                <use id="Clip-54" fill="#CFCFCF" xlink:href="#path-6"></use>
                <mask id="mask-9" fill="white">
                    <use xlink:href="#path-8"></use>
                </mask>
                <g id="Clip-45"></g>
                <polygon id="Fill-44" fill="#E5E5E5" mask="url(#mask-9)" points="-28.2589118 17.1477687 -14.9313008 17.1477687 -14.9313008 3.92073805 -28.2589118 3.92073805"></polygon>
                <mask id="mask-11" fill="white">
                    <use xlink:href="#path-10"></use>
                </mask>
                <g id="Clip-58"></g>
                <polygon id="Fill-57" fill="#A8A8A8" mask="url(#mask-11)" points="-42.0164452 8.72007971 -22.7730897 8.72007971 -22.7730897 -2.49651599 -42.0164452 -2.49651599"></polygon>
                <path d="M-23.9338841,-0.563824725 C-23.9338841,3.9272839 -27.7219502,7.56804786 -32.3947698,7.56804786 C-37.067587,7.56804786 -40.8556532,3.9272839 -40.8556532,-0.563824725 C-40.8556532,-0.994970341 -40.4919986,-1.34448298 -40.0434082,-1.34448298 C-39.5948178,-1.34448298 -39.2311634,-0.994970341 -39.2311634,-0.563824725 C-39.2311634,3.06499267 -36.1704062,6.00672835 -32.3947698,6.00672835 C-28.6191334,6.00672835 -25.5583731,3.06499267 -25.5583731,-0.563824725 C-25.5583731,-0.994970341 -25.1947202,-1.34448298 -24.7461298,-1.34448298 C-24.2975393,-1.34448298 -23.9338841,-0.994970341 -23.9338841,-0.563824725 Z" id="Stroke-60" stroke="#A8A8A8" stroke-width="0.5" mask="url(#mask-11)"></path>
            </g>
            <g id="Group-2" transform="translate(0.214146, 0.596457)">
                <g id="Group">
                    <g id="Group-17" transform="translate(49.565821, 6.220972)"></g>
                    <g id="Group-56">
                        <g id="Group-52"></g>
                        <g id="Group-55"></g>
                    </g>
                </g>
                <g id="Group-43" transform="translate(22.055049, 21.888605)">
                    <mask id="mask-13" fill="white">
                        <use xlink:href="#path-12"></use>
                    </mask>
                    <g id="Clip-42"></g>
                    <polygon id="Fill-41" fill="#F2F2F2" mask="url(#mask-13)" points="-1.1263978 12.0963345 12.2012131 12.0963345 12.2012131 -1.13069622 -1.1263978 -1.13069622"></polygon>
                </g>
                <g id="Group-46" transform="translate(22.055049, 10.944303)"></g>
                <g id="Group-49" transform="translate(11.027525, 21.888605)">
                    <mask id="mask-15" fill="white">
                        <use xlink:href="#path-14"></use>
                    </mask>
                    <g id="Clip-48"></g>
                    <polygon id="Fill-47" fill="#E5E5E5" mask="url(#mask-15)" points="-1.10489993 12.0963345 12.222711 12.0963345 12.222711 -1.13069622 -1.10489993 -1.13069622"></polygon>
                </g>
                <g id="Group-59" transform="translate(8.241624, 4.492924)"></g>
            </g>
        </g>
    </g>
</svg>