<?xml version="1.0" encoding="UTF-8"?>
<svg width="170px" height="65px" viewBox="0 0 170 65" version="1.1" xmlns="http://www.w3.org/2000/svg" xmlns:xlink="http://www.w3.org/1999/xlink">
    <!-- Generator: Sketch 53 (72520) - https://sketchapp.com -->
    <title>6</title>
    <desc>Created with Sketch.</desc>
    <g id="6" stroke="none" stroke-width="1" fill="none" fill-rule="evenodd">
        <g id="Group" transform="translate(63.875647, 6.975664)" fill="#B3B3B3" fill-rule="nonzero">
            <path d="M40.1456404,15.9988083 C41.8024946,15.9988083 43.1456404,17.3419541 43.1456404,18.9988083 C43.1456404,20.6556626 41.8024946,21.9988083 40.1456404,21.9988083 L19.7260479,21.9988083 C18.2603277,21.9988083 17.0721267,23.1870093 17.0721267,24.6527295 C17.0721267,26.1184498 18.2603277,27.3066508 19.7260479,27.3066508 L33.8541441,27.3066508 C38.9856958,27.3066508 43.1456404,31.4665954 43.1456404,36.5981471 C43.1456404,41.7296987 38.9856958,45.8896433 33.8541441,45.8896433 L13,45.8896433 C5.82029825,45.8896433 7.81597009e-14,40.0693451 7.81597009e-14,32.8896433 L7.81597009e-14,3 C7.81597009e-14,1.34314575 1.34314575,0 3,0 C4.65685425,0 6,1.34314575 6,3 L6,32.8896433 C6,36.7556366 9.13400675,39.8896433 13,39.8896433 L33.8541441,39.8896433 C35.6719873,39.8896433 37.1456404,38.4159903 37.1456404,36.5981471 C37.1456404,34.7803039 35.6719873,33.3066508 33.8541441,33.3066508 L19.7260479,33.3066508 C14.9466192,33.3066508 11.0721267,29.4321583 11.0721267,24.6527295 C11.0721267,19.8733008 14.9466192,15.9988083 19.7260479,15.9988083 L40.1456404,15.9988083 Z" id="Path-9"></path>
            <path d="M16.6243531,47.7783504 C16.6243531,49.4352047 15.2812073,50.7783504 13.6243531,50.7783504 C11.9674988,50.7783504 10.6243531,49.4352047 10.6243531,47.7783504 L10.6243531,43.0243361 C10.6243531,41.3674819 11.9674988,40.0243361 13.6243531,40.0243361 C15.2812073,40.0243361 16.6243531,41.3674819 16.6243531,43.0243361 L16.6243531,47.7783504 Z" id="Path-9-Copy" transform="translate(13.624353, 45.401343) scale(1, -1) translate(-13.624353, -45.401343) "></path>
            <path d="M35.6243531,47.7783504 C35.6243531,49.4352047 34.2812073,50.7783504 32.6243531,50.7783504 C30.9674988,50.7783504 29.6243531,49.4352047 29.6243531,47.7783504 L29.6243531,43.0243361 C29.6243531,41.3674819 30.9674988,40.0243361 32.6243531,40.0243361 C34.2812073,40.0243361 35.6243531,41.3674819 35.6243531,43.0243361 L35.6243531,47.7783504 Z" id="Path-9-Copy" transform="translate(32.624353, 45.401343) scale(1, -1) translate(-32.624353, -45.401343) "></path>
        </g>
    </g>
</svg>