<svg xmlns="http://www.w3.org/2000/svg" width="71" height="70" viewBox="0 0 71 70">
  <g transform="translate(7 11)">
    <path d="M47.247793,46.9208496 L43.0260059,34.4407434 C42.8846387,34.0231858 42.427666,33.7973097 42.0051758,33.9375929 C41.582793,34.0772389 41.3547363,34.5289912 41.4961035,34.9466549 L45.3626465,46.3763894 L38.8962793,46.3763894 L34.7041406,33.3054159 C34.5979004,32.9740885 34.2869141,32.7490619 33.9353223,32.7490619 L21.0646777,32.7490619 C20.7130859,32.7490619 20.4020996,32.9740885 20.2958594,33.3054159 L18.1106836,40.1191858 C17.976084,40.5389735 18.211123,40.987115 18.6358691,41.1202832 C19.060293,41.2531327 19.5138281,41.020885 19.6485352,40.6010973 L21.6552832,34.3437876 L33.3451465,34.3437876 L37.5371777,47.4147611 C37.643418,47.7460885 37.9544043,47.971115 38.3059961,47.971115 L46.4830566,47.971115 C46.7424805,47.971115 46.9860059,47.847823 47.1375781,47.6396814 C47.2891504,47.4315398 47.3301855,47.1640354 47.247793,46.9208496 Z"/>
    <path d="M18.625127 17.2938053C18.2024219 17.1539469 17.7456641 17.3795044 17.6042969 17.7969558L7.75209961 46.9208496C7.66981445 47.1641416 7.71095703 47.4315398 7.86242188 47.6397876 8.01399414 47.847823 8.25751953 47.9712212 8.51694336 47.9712212L16.6941113 47.9712212C17.0457031 47.9712212 17.3566895 47.7461947 17.4629297 47.4148673L18.6385547 43.7492389C18.7731543 43.3293451 18.5382227 42.8812035 18.1134766 42.7480354 17.6887305 42.6148673 17.2354102 42.8473274 17.1008105 43.2672212L16.1036133 46.3764956 9.63724609 46.3764956 19.1341992 18.3029735C19.2755664 17.8850973 19.0475098 17.4333451 18.625127 17.2938053zM32.4207812 26.2195752L28.267959 13.4668673C28.1606445 13.1371327 27.8505176 12.9138053 27.5002148 12.9138053 27.1499121 12.9138053 26.8397852 13.1372389 26.7324707 13.4668673L22.5796484 26.2195752C22.5006934 26.4621239 22.5437695 26.7273982 22.6955566 26.9335221 22.8472363 27.1394336 23.0894727 27.2613451 23.3472852 27.2613451L31.6530371 27.2613451C31.9108496 27.2613451 32.1530859 27.1395398 32.3049805 26.9335221 32.4566602 26.7275044 32.4998437 26.4621239 32.4207812 26.2195752zM24.4541602 25.6665133L27.5 16.3132035 30.5458398 25.6665133 24.4541602 25.6665133z"/>
    <path d="M54.1933691,26.4929204 L52.3973828,26.4929204 C52.2143359,20.635115 49.9429004,15.0526726 45.9518555,10.6992212 C43.3542871,7.86573451 40.164502,5.69543363 36.6403125,4.31628319 L48.3343652,4.31628319 C48.7224805,5.71932743 50.0226074,6.75387611 51.563252,6.75387611 C53.4091895,6.75387611 54.9109473,5.26927434 54.9109473,3.44442478 C54.9109473,1.61957522 53.4091895,0.134973451 51.563252,0.134973451 C49.9685742,0.134973451 48.631709,1.24332743 48.2969824,2.72145133 L30.8042969,2.72145133 L30.8042969,0.82619469 C30.8042969,0.38580531 30.4431445,0.0287787611 29.997666,0.0287787611 L24.9132813,0.0287787611 C24.4678027,0.0287787611 24.1066504,0.38580531 24.1066504,0.82619469 L24.1066504,2.72155752 L6.61396484,2.72155752 C6.2793457,1.24343363 4.94237305,0.135079646 3.34769531,0.135079646 C1.50175781,0.135079646 0,1.61968142 0,3.44453097 C0,5.26938053 1.50175781,6.7539823 3.34769531,6.7539823 C4.88833984,6.7539823 6.1884668,5.71943363 6.57658203,4.31638938 L18.2706348,4.31638938 C14.7463379,5.69553982 11.5565527,7.86584071 8.9590918,10.6993274 C4.96804688,15.0527788 2.69661133,20.635115 2.51356445,26.4930265 L0.806630859,26.4930265 C0.361152344,26.4930265 0,26.8499469 0,27.2904425 L0,32.3167434 C0,32.7571327 0.361152344,33.1141593 0.806630859,33.1141593 L5.89101563,33.1141593 C6.33649414,33.1141593 6.69764648,32.7571327 6.69764648,32.3167434 L6.69764648,27.2904425 C6.69764648,26.8499469 6.33649414,26.4930265 5.89101563,26.4930265 L4.12757813,26.4930265 C4.31008789,21.0319646 6.43285156,15.8298053 10.1542676,11.7701947 C13.8205762,7.77100885 18.7470508,5.18421239 24.106543,4.42247788 L24.106543,5.05529204 L22.4955371,5.05529204 C22.1485645,5.05529204 21.8405859,5.27458407 21.7305859,5.59975221 L18.6272754,14.7731681 C18.4859082,15.1908319 18.7139648,15.6425841 19.1363477,15.7823363 C19.5589453,15.9219823 20.0158105,15.6966372 20.1571777,15.2790796 L23.0762598,6.65012389 L24.9131738,6.65012389 L29.9975586,6.65012389 L31.9236328,6.65012389 L40.4712988,31.9172389 C40.5841992,32.2510088 40.8988379,32.4619115 41.2361426,32.4619115 C41.3210059,32.4619115 41.4072656,32.4486372 41.4921289,32.4206018 C41.9146191,32.2809558 42.1425684,31.8292035 42.0012012,31.4114336 L33.2694141,5.59953982 C33.1594141,5.27426549 32.8514355,5.05507965 32.5044629,5.05507965 L30.8042969,5.05507965 L30.8042969,4.42226549 C36.1637891,5.184 41.0903711,7.77090265 44.7565723,11.7701947 C48.4780957,15.8296991 50.6008594,21.0318584 50.7832617,26.4929204 L49.108877,26.4929204 C48.6633984,26.4929204 48.3022461,26.8498407 48.3022461,27.2903363 L48.3022461,32.3166372 C48.3022461,32.7570265 48.6633984,33.1140531 49.108877,33.1140531 L54.1932617,33.1140531 C54.6387402,33.1140531 54.9998926,32.7570265 54.9998926,32.3166372 L54.9998926,27.2903363 C55,26.8499469 54.6388477,26.4929204 54.1933691,26.4929204 Z M51.563252,1.7299115 C52.5196289,1.7299115 53.297793,2.49907965 53.297793,3.44453097 C53.297793,4.3899823 52.5197363,5.15915044 51.563252,5.15915044 C50.606875,5.15915044 49.8288184,4.3899823 49.8288184,3.44453097 C49.8288184,2.49918584 50.606875,1.7299115 51.563252,1.7299115 Z M3.34769531,5.15925664 C2.39131836,5.15925664 1.6131543,4.3900885 1.6131543,3.44463717 C1.6131543,2.49918584 2.39121094,1.7299115 3.34769531,1.7299115 C4.30407227,1.7299115 5.08212891,2.49907965 5.08212891,3.44453097 C5.08212891,4.3899823 4.30407227,5.15925664 3.34769531,5.15925664 Z M5.08438477,28.0877522 L5.08438477,31.5193274 L1.6131543,31.5193274 L1.6131543,28.0877522 L5.08438477,28.0877522 Z M29.1911426,3.51589381 C29.1911426,3.51684956 29.1911426,3.51780531 29.1911426,3.51876106 L29.1911426,5.05529204 L25.7199121,5.05529204 L25.7199121,3.51982301 C25.7199121,3.51823009 25.7199121,3.51653097 25.7199121,3.51493805 L25.7199121,1.62361062 L29.1911426,1.62361062 L29.1911426,3.51589381 Z M53.3868457,31.5193274 L49.9156152,31.5193274 L49.9156152,28.0877522 L53.3868457,28.0877522 L53.3868457,31.5193274 Z"/>
  </g>
</svg>
