<svg xmlns="http://www.w3.org/2000/svg" width="71" height="70" viewBox="0 0 71 70">
  <g fill="none" fill-rule="evenodd" transform="translate(11 11)">
    <polygon fill="#FFF" points="32.725 5.865 38.494 8.963 32.378 12.951"/>
    <g fill="#000" fill-rule="nonzero">
      <path d="M23.707,40.2931 C23.521,40.1071 23.263,40 23,40 C22.737,40 22.479,40.107 22.293,40.2931 C22.107,40.479 22,40.737 22,41 C22,41.2641 22.107,41.521 22.293,41.707 C22.479,41.894 22.737,42 23,42 C23.263,42 23.521,41.894 23.707,41.707 C23.893,41.521 24,41.2631 24,41 C24,40.737 23.8929,40.479 23.707,40.2931 Z"/>
      <path d="M28.0436776 31.8651422L28.0436776 24.9409542C28.0436776 24.6283485 27.8889122 24.3360688 27.6306885 24.1611338 27.3724647 23.9861988 27.0444559 23.9513812 26.7552791 24.0680673L10.5928004 30.5984398 5.38705519 30.5984398C2.41668513 30.5984398 0 33.0229689 0 36.0031683 0 38.9833677 2.41668513 41.4078968 5.38724278 41.4078968L6.00714854 41.4078968 6.00714854 47.0588894C6.00714854 47.5785187 6.42707866 47.9999059 6.94512065 47.9999059L10.774298 47.9999059C11.29234 47.9999059 11.7122701 47.5785187 11.7122701 47.0588894L11.7122701 41.8618432 26.7557481 47.9319645C26.8685861 47.9775097 26.9874272 48 27.1056117 48 27.2902046 48 27.4734843 47.9453269 27.630876 47.8387098 27.889006 47.6637748 28.0436776 47.3714951 28.0436776 47.0589835L28.0436776 40.1348896C29.9246868 39.7055038 31.3333333 38.0152499 31.3333333 36.0000629 31.3333333 33.984876 29.9246868 32.294528 28.0436776 31.8651422zM9.83623207 46.1178728L7.88309275 46.1178728 7.88309275 41.4078027 9.83632586 41.4078027 9.83632586 46.1178728 9.83623207 46.1178728zM9.83641966 39.5257696L5.38724278 39.5257696C3.45108076 39.5257696 1.87594421 37.9455205 1.87594421 36.0031683 1.87594421 34.060722 3.45108076 32.4804729 5.38724278 32.4804729L9.83679485 32.4804729 9.83641966 39.5257696zM26.1678272 45.6660908L26.1678272 45.6660908 11.7127391 39.8333879 11.7127391 32.1748307 21.9766864 28.0277708 21.9766864 37.366419C21.9766864 37.8860483 22.3966165 38.3074355 22.9146585 38.3074355 23.4327005 38.3074355 23.8526306 37.8860483 23.8526306 37.366419L23.8526306 27.269782 26.1678272 26.3343174 26.1678272 45.6660908zM28.0436776 38.1628954L28.0436776 33.8370423C28.8748147 34.2012157 29.4573891 35.0334508 29.4573891 35.9999688 29.4573891 36.9664869 28.8749084 37.798722 28.0436776 38.1628954zM40.376204 35.3333333L34.9571293 35.3333333C34.4285068 35.3333333 34 35.7811333 34 36.3333333 34 36.8855333 34.4285068 37.3333333 34.9571293 37.3333333L40.376204 37.3333333C40.9048265 37.3333333 41.3333333 36.8855333 41.3333333 36.3333333 41.3333333 35.7811333 40.9048265 35.3333333 40.376204 35.3333333zM36.3703132 28.2962813C35.9751753 27.9012396 35.3344548 27.9012396 34.9392157 28.2962813L32.9630201 30.2725019C32.5678822 30.6676448 32.5678822 31.3083734 32.9630201 31.7036175 33.1607409 31.9011384 33.4196802 32 33.6786195 32 33.9375588 32 34.1965993 31.9011384 34.3941176 31.7036175L36.3703132 29.7273969C36.7654511 29.332254 36.7654511 28.6915254 36.3703132 28.2962813zM36.3751291 42.3006172L34.3660458 40.2914593C33.977329 39.9028469 33.3470205 39.9028469 32.9582042 40.2914593 32.5694875 40.6801712 32.5694875 41.3104718 32.9582042 41.6992833L34.9673871 43.7084412C35.1617953 43.9027474 35.4165267 44 35.6712581 44 35.9259895 44 36.1808205 43.9027474 36.3751291 43.7084412 36.7638459 43.3197292 36.7638459 42.6894286 36.3751291 42.3006172z"/>
      <path d="M44.2736536,0 L26.9461426,0 C24.8914352,0 23.2197962,1.68739256 23.2197962,3.76146358 L23.2197962,4.13760993 L7.56914119,4.13760993 C6.33627948,4.13760993 5.33333333,5.15010189 5.33333333,6.39448808 L5.33333333,21.2522692 C5.33333333,22.4966554 6.33627948,23.5091474 7.56914119,23.5091474 L8.53174964,23.5091474 L8.53174964,26.3929674 C8.53174964,26.7733454 8.75877729,27.1162028 9.10681805,27.2617715 C9.22205531,27.3099182 9.34306841,27.3333333 9.46314993,27.3333333 C9.70554876,27.3333333 9.94384862,27.2377922 10.1220611,27.0579002 L13.6376827,23.5091474 L32.1425328,23.5091474 C33.3753945,23.5091474 34.3783406,22.4966554 34.3783406,21.2522692 L34.3783406,18.4311715 L44.2736536,18.4311715 C46.328361,18.4311715 48,16.743779 48,14.6697079 L48,3.76146358 C47.9999068,1.68739256 46.328361,0 44.2736536,0 Z M32.5151674,21.2522692 C32.5151674,21.4597139 32.3480408,21.6284156 32.1425328,21.6284156 L13.2518195,21.6284156 C13.0047627,21.6284156 12.7677671,21.7275301 12.5930946,21.9038487 L10.395016,24.1227361 L10.395016,22.5687815 C10.395016,22.0495114 9.97794469,21.6284156 9.4634294,21.6284156 L7.56914119,21.6284156 C7.36363319,21.6284156 7.19650655,21.4597139 7.19650655,21.2522692 L7.19650655,6.39448808 C7.19650655,6.18704336 7.36363319,6.01834172 7.56914119,6.01834172 L23.2197962,6.01834172 L23.2197962,14.6697079 C23.2197962,16.743779 24.8914352,18.4311715 26.9461426,18.4311715 L32.5151674,18.4311715 L32.5151674,21.2522692 Z M46.1368268,14.6697079 C46.1368268,15.7067435 45.3010073,16.5504397 44.2736536,16.5504397 L26.9461426,16.5504397 C25.9187889,16.5504397 25.0829694,15.7067435 25.0829694,14.6697079 L25.0829694,3.76146358 C25.0829694,2.72442807 25.9187889,1.88073179 26.9461426,1.88073179 L44.2736536,1.88073179 C45.3010073,1.88073179 46.1368268,2.72442807 46.1368268,3.76146358 L46.1368268,14.6697079 Z"/>
      <path d="M38.8810493 8.51718593L32.6901854 4.79298543C32.4103121 4.62456041 32.0654907 4.62456041 31.7856174 4.79298543 31.505744 4.9613162 31.3333333 5.2725302 31.3333333 5.60919175L31.3333333 13.0574985C31.3333333 13.39416 31.505744 13.705374 31.7856174 13.8737048 31.925554 13.9579644 32.0816825 14 32.2379014 14 32.3941203 14 32.5502488 13.9579644 32.6901854 13.8737048L38.8810493 10.1495043C39.1609227 9.98117353 39.3333333 9.66995953 39.3333333 9.33329799 39.3333333 8.99663645 39.1610131 8.6855167 38.8810493 8.51718593zM33.1424695 11.4250859L33.1424695 7.24169862 36.6196291 9.33339224 33.1424695 11.4250859zM20.3888889 10L10.9444444 10C10.4228278 10 10 10.4478 10 11 10 11.5522 10.4228278 12 10.9444444 12L20.3888889 12C20.9105056 12 21.3333333 11.5522 21.3333333 11 21.3333333 10.4478 20.9105056 10 20.3888889 10zM21.0403333 15.6263333C20.8543333 15.4402333 20.5963333 15.3333333 20.3333333 15.3333333 20.0703333 15.3333333 19.8123333 15.4402333 19.6263333 15.6263333 19.4403333 15.8123333 19.3333333 16.0703333 19.3333333 16.3333333 19.3333333 16.5963333 19.4403333 16.8543333 19.6263333 17.0402333 19.8123333 17.2262333 20.0703333 17.3333333 20.3333333 17.3333333 20.5973333 17.3333333 20.8543333 17.2263333 21.0403333 17.0402333 21.2263333 16.8543333 21.3333333 16.5963333 21.3333333 16.3333333 21.3333333 16.0703333 21.2263333 15.8123333 21.0403333 15.6263333zM17.0301737 15.3333333L10.9698263 15.3333333C10.4341912 15.3333333 10 15.7811333 10 16.3333333 10 16.8855333 10.4341912 17.3333333 10.9698263 17.3333333L17.0301737 17.3333333C17.5658088 17.3333333 18 16.8855333 18 16.3333333 18 15.7811333 17.5658088 15.3333333 17.0301737 15.3333333z"/>
    </g>
  </g>
</svg>
