<svg xmlns="http://www.w3.org/2000/svg" width="70" height="70" viewBox="0 0 70 70">
  <path d="M53.8681383,58.7081299 C53.8728347,58.7015381 53.8782537,58.6949463 53.8825889,58.6879883 C53.8901754,58.6766357 53.8966783,58.664917 53.9035423,58.6531982 C53.9082387,58.6451416 53.9132964,58.6374511 53.9176317,58.6290283 C53.9234119,58.6184083 53.9281083,58.6077881 53.9328048,58.597168 C53.9378625,58.5869141 53.9429202,58.5770263 53.9468941,58.5664062 C53.950868,58.557251 53.9537581,58.5477295 53.9570095,58.538208 C53.961706,58.526123 53.9660411,58.5140381 53.9700151,58.5015869 C53.972544,58.4927979 53.9743503,58.4836426 53.9765178,58.4748536 C53.9801305,58.4616699 53.9837431,58.4484864 53.986272,58.4349365 C53.9888009,58.4235839 53.9898847,58.4122315 53.9913296,58.4012451 C53.993136,58.3898926 53.9953036,58.3785401 53.9963874,58.3671875 C53.9989163,58.3441162 54,58.3210449 54,58.2976074 C54,58.2972412 54,58.2972412 54,58.296875 L54,11.703125 C54,11.7027588 54,11.7023926 54,11.7023926 C54,11.6789551 53.998555,11.6558838 53.9963874,11.6328125 C53.9953036,11.6214599 53.993136,11.6101074 53.9913296,11.5987549 C53.9898847,11.5877685 53.9888009,11.5764161 53.986272,11.5650635 C53.9837431,11.5515136 53.9801305,11.5383301 53.9765178,11.5247802 C53.9743503,11.5159912 53.972544,11.5072021 53.9700151,11.4984131 C53.9660411,11.4859619 53.961706,11.473877 53.9570095,11.4614258 C53.9537581,11.4522705 53.950868,11.442749 53.9468941,11.4335938 C53.9425589,11.4229737 53.9378625,11.4127198 53.9328048,11.402832 C53.9281083,11.3922119 53.9234119,11.3812256 53.9176317,11.3709717 C53.9132964,11.3625489 53.9082387,11.3544922 53.9035423,11.3464355 C53.8966783,11.335083 53.8901754,11.322998 53.8825889,11.3120117 C53.8782537,11.3050537 53.8728347,11.2984619 53.8681383,11.2915039 C53.8598293,11.2797852 53.8515202,11.2680664 53.8424886,11.2567138 C53.8359857,11.2486573 53.8287604,11.241333 53.8218964,11.2336426 C53.8135874,11.2244873 53.8060007,11.2149658 53.7973304,11.2061768 C53.7810735,11.1896973 53.764094,11.1743164 53.746392,11.159668 C53.7460308,11.1593018 53.7460308,11.1589355 53.7456695,11.1589355 C53.7420568,11.1560058 53.7384442,11.1534424 53.7344703,11.1505127 C53.7203809,11.1391602 53.7059303,11.1281739 53.6907572,11.1179199 C53.683532,11.1131592 53.6759453,11.1087646 53.66872,11.1043701 C53.6567983,11.0966797 53.6448766,11.0893555 53.6325935,11.0827636 C53.6232007,11.0776367 53.6141691,11.0736084 53.6047762,11.0688477 C53.5935769,11.0637207 53.5823778,11.0578614 53.5711785,11.0531006 C53.5610631,11.0490723 53.5505865,11.0454102 53.5401097,11.041748 C53.5289105,11.0377198 53.5184338,11.0336914 53.5072347,11.0300293 C53.4960354,11.0267334 53.4844749,11.0241699 53.4732757,11.0212402 C53.4624377,11.0186768 53.4523224,11.0157471 53.4414844,11.0135498 C53.4284788,11.0109864 53.4154733,11.0095214 53.402829,11.0073242 C53.3930748,11.0062256 53.383682,11.0043945 53.3739278,11.0032959 C53.3573097,11.001831 53.3410527,11.0010986 53.3244345,11.0007324 C53.318293,11.0007324 53.3125128,11 53.3063712,11 L15.6968801,11 C15.6961576,11 15.6957964,11 15.6954351,11 L15.6936288,11 C15.6896548,11 15.6860422,11.0007324 15.6820683,11.0007324 C15.6632825,11.0007324 15.6444967,11.0014648 15.625711,11.0032959 C15.6170406,11.0043945 15.6087315,11.0058594 15.6004224,11.006958 C15.5863331,11.0091553 15.5722437,11.0106201 15.5581544,11.0135498 C15.548039,11.0153808 15.5386461,11.0183105 15.5285307,11.020874 C15.516609,11.0238037 15.5043259,11.0263672 15.4924042,11.0300293 C15.4819275,11.0333252 15.4714508,11.0373536 15.4609741,11.0413818 C15.4501362,11.045044 15.4392982,11.048706 15.4284602,11.0534668 C15.4176223,11.0578614 15.4071457,11.0633545 15.3963077,11.0684815 C15.3865536,11.0732422 15.3767994,11.0776367 15.3674065,11.0827636 C15.3551235,11.0893555 15.343563,11.0966797 15.3320025,11.1040039 C15.3244159,11.1087646 15.3164681,11.112793 15.3088816,11.1179199 C15.2940697,11.1281739 15.2796191,11.1391602 15.2655298,11.1505127 C15.2619171,11.1534424 15.2579432,11.1560058 15.2543305,11.1589355 C15.2539693,11.1593018 15.2539693,11.1593018 15.2536081,11.159668 C15.235906,11.1743164 15.2189266,11.1900635 15.2026696,11.2061768 C15.1939993,11.2149658 15.1864127,11.2244873 15.1781036,11.2336426 C15.1712396,11.241333 15.1640143,11.2486573 15.1575115,11.2567138 C15.1481186,11.2680664 15.1401708,11.2797852 15.1318617,11.2915039 C15.1271653,11.2984619 15.1217463,11.3050537 15.1170499,11.3120117 C15.1098246,11.3233643 15.1033218,11.335083 15.0964578,11.3464355 C15.0917614,11.3548584 15.0867036,11.3625489 15.0820072,11.3709717 C15.0765882,11.3812256 15.0718918,11.3922119 15.0671952,11.402832 C15.0621376,11.4127198 15.0570799,11.4229737 15.053106,11.4335938 C15.049132,11.442749 15.0462419,11.4522705 15.0429906,11.4614258 C15.038294,11.473877 15.033959,11.4859619 15.029985,11.4984131 C15.0274561,11.5072021 15.0256498,11.5159912 15.0234822,11.5247802 C15.0198696,11.5383301 15.0162569,11.5515136 15.0137281,11.5650635 C15.0111992,11.5760498 15.0101154,11.5874023 15.0083091,11.5987549 C15.006864,11.6101074 15.0046964,11.6214599 15.0036126,11.6328125 C15.0010838,11.6558838 15,11.6789551 15,11.7023926 L15,11.703125 L15,58.296875 L15,58.2976074 C15,58.3210449 15.0010838,58.3441162 15.0036126,58.3671875 C15.0046964,58.3785401 15.006864,58.3898926 15.0083091,58.4012451 C15.0101154,58.4125977 15.0111992,58.4239502 15.0137281,58.4349365 C15.0162569,58.4484864 15.0198696,58.4616699 15.0234822,58.4752197 C15.0256498,58.4840088 15.0274561,58.4927979 15.029985,58.5015869 C15.033959,58.5140381 15.038294,58.526123 15.0429906,58.5385742 C15.0462419,58.5477295 15.049132,58.557251 15.053106,58.5664062 C15.0574412,58.5770263 15.0621376,58.5872802 15.0671952,58.597168 C15.0718918,58.6077881 15.0765882,58.6187744 15.0820072,58.6290283 C15.0867036,58.6374511 15.0917614,58.6455078 15.0964578,58.6535645 C15.1033218,58.664917 15.1098246,58.677002 15.1170499,58.6879883 C15.1217463,58.6949463 15.1271653,58.7015381 15.1318617,58.7084961 C15.1401708,58.7202148 15.1484799,58.7319336 15.1575115,58.7432862 C15.1640143,58.7513428 15.1712396,58.758667 15.1781036,58.7663574 C15.1864127,58.7755127 15.1939993,58.7850342 15.2026696,58.7938232 C15.2189266,58.8103027 15.235906,58.8256836 15.2536081,58.840332 C15.2539693,58.8406982 15.2539693,58.8410645 15.2543305,58.8410645 C15.2546918,58.8414307 15.2554144,58.8417969 15.2561369,58.8421631 C15.2853994,58.866333 15.3168294,58.8879395 15.3500657,58.9073487 C15.3525946,58.9088135 15.3554847,58.9106445 15.3580136,58.9121094 C15.3887211,58.9293213 15.421235,58.9439698 15.4544713,58.9560547 C15.4602515,58.958252 15.4656705,58.9604492 15.471812,58.9626464 C15.5036033,58.9736328 15.5361172,58.9820557 15.5697149,58.9882812 C15.5762177,58.9893799 15.5827204,58.9904786 15.5892232,58.9912109 C15.6228208,58.9963379 15.6567797,59 15.6918225,59 L15.6932675,59 L15.6936288,59 L53.3063712,59 L53.3067326,59 L53.3081776,59 C53.3432203,59 53.3771793,58.9963379 53.4107769,58.9912109 C53.4172796,58.9901123 53.4237824,58.9893799 53.4302851,58.9882812 C53.4638829,58.9820557 53.4967579,58.9736328 53.528188,58.9626464 C53.5343295,58.9608154 53.5397485,58.9586182 53.5455287,58.9564209 C53.5787651,58.9439698 53.611279,58.9293213 53.6419865,58.9121094 C53.6445153,58.9106445 53.6470441,58.9088135 53.6499343,58.9073487 C53.6828094,58.8879395 53.7146007,58.866333 53.7438631,58.8421631 C53.7445857,58.8417969 53.7453082,58.8414307 53.7456695,58.8410645 C53.7460308,58.8410645 53.7460308,58.8406982 53.746392,58.840332 C53.764094,58.8256836 53.7810735,58.8103027 53.7973304,58.7938232 C53.8060007,58.7850342 53.8135874,58.7755127 53.8218964,58.7663574 C53.8287604,58.758667 53.8359857,58.7513428 53.8424886,58.7432862 C53.8515202,58.7319336 53.8598293,58.7198487 53.8681383,58.7081299 L53.8681383,58.7081299 Z M20.010384,53.1051026 L20.010384,49.8531494 C21.034209,48.8343506 22.2997203,47.9733886 23.6533801,47.3555908 C22.2364989,48.6560058 21.1375308,50.368042 20.6227282,53.1051026 L20.010384,53.1051026 Z M46.8393668,35.1413574 C46.6208015,34.3671875 46.6908869,33.177002 47.3411638,32.2636719 C47.7403617,31.7030029 48.2930971,31.3393555 48.989616,31.1760254 L48.989616,46.4697266 C48.0532171,46.0288086 46.9932657,45.7468261 46.0973286,45.619751 C46.1294811,44.2636719 45.9502937,42.9046631 45.5601275,41.5998536 C45.354929,40.9146729 45.094457,40.2521973 44.842294,39.6113281 C44.6248125,39.0587158 44.4192526,38.536499 44.245123,37.9974365 C43.9676714,37.1390381 43.7765623,36.246582 43.6345852,35.3402099 C44.311957,35.0952148 45.1880245,35.2720948 45.654779,35.8027344 C45.7902533,35.956543 45.9799174,36.038208 46.1728329,36.038208 C46.2869926,36.038208 46.4018749,36.0096435 46.5073643,35.9506836 C46.7905961,35.7924805 46.9285993,35.4566651 46.8393668,35.1413574 L46.8393668,35.1413574 Z M45.9867814,47.0219727 C47.0572096,47.180542 48.2013358,47.5742188 48.9892547,48.0620117 L48.9892547,49.3514404 C48.0091428,48.7087402 46.9304056,48.0803223 45.904413,47.555542 C45.9354818,47.3782959 45.962938,47.2003174 45.9867814,47.0219727 L45.9867814,47.0219727 Z M42.9268671,38.4357911 C43.1147248,39.0166016 43.3379866,39.5838623 43.5536618,40.1324463 C43.806186,40.7740479 44.0446209,41.380127 44.2324787,42.0078125 C44.7732924,43.8168945 44.8589122,45.7435303 44.4846417,47.5936279 C43.3090854,48.7526855 41.9864943,50.039917 40.5497435,51.0341797 C40.2484484,51.2429199 39.947876,51.434082 39.6476647,51.6083984 C39.7238917,51.2030029 39.8084277,50.777832 39.8958538,50.3405761 C40.1104452,49.2650146 40.3542991,48.0458984 40.5230098,46.8267823 C40.5761158,46.4422607 40.3116698,46.0866699 39.9323416,46.0328369 C39.5526521,45.9786377 39.202225,46.2467041 39.1491191,46.6312256 C38.9858273,47.8085938 38.7571466,48.9541016 38.5360524,50.0615234 C38.3731219,50.8781739 38.2181392,51.6560058 38.1104823,52.3532714 C37.3377365,52.6531982 36.5732998,52.8355713 35.8233137,52.8974609 C34.734461,52.9868164 33.6195973,52.8256836 32.5769866,52.6385498 C32.0892788,52.5510254 31.5759213,52.4503174 31.0531708,52.3258057 C31.1442096,52.1566162 31.2338033,51.989624 31.3172555,51.8317871 C31.4986105,51.4897461 31.3721678,51.0634766 31.034385,50.8800049 C30.6969635,50.696167 30.2764511,50.8243408 30.0950961,51.1663818 C29.9881616,51.3688964 29.8707505,51.5864258 29.7537007,51.8039551 C29.7291347,51.848999 29.7049299,51.8944092 29.6807251,51.9394531 C29.0477889,51.7296143 28.419549,51.4710693 27.8234619,51.1429443 C26.921022,50.6463623 25.7263187,49.880249 25.7721992,48.9654541 C25.8130222,48.1561279 26.4802786,47.4039307 27.0687793,46.7399902 C27.7168887,46.0090333 28.4488116,45.3527833 29.244317,44.7888183 C29.4679401,44.6306152 29.7175742,44.4899902 29.9820202,44.3413086 C30.7565723,43.9055176 31.6348075,43.411499 32.0181096,42.317627 C32.306399,41.494751 32.1532227,40.5660401 32.0181096,39.7468261 C32.011968,39.708374 32.0058266,39.6710205 31.9996851,39.6329346 C32.0816922,39.6362305 32.1636994,39.6384277 32.2457065,39.638794 L32.2485966,39.638794 C34.0068733,39.6384277 35.9316932,38.5544433 37.2640384,37.2921143 C37.2759601,37.3342286 37.2882432,37.3759766 37.3001649,37.418457 C37.4970543,38.119751 37.7203161,38.9147949 38.2119977,39.5765381 C38.9486171,40.5678711 39.3232488,41.9001464 39.3572078,43.6491699 C39.3647943,44.0325928 39.6736758,44.3383789 40.0504752,44.3383789 L40.0645646,44.3383789 C40.4475054,44.3306885 40.7520519,44.0098877 40.7444653,43.6217041 C40.7043649,41.5661621 40.238333,39.9665527 39.3199975,38.7302246 C38.9836597,38.2779541 38.8138652,37.673706 38.6343165,37.0335693 C38.5960224,36.8977051 38.5580895,36.762207 38.5187117,36.6281739 C38.4327307,36.3381348 38.369148,36.0440674 38.3236286,35.7467041 C38.3229061,35.7404786 38.3218223,35.7342529 38.3207385,35.7280273 C38.1249329,34.4298096 38.2705227,33.0660401 38.4236991,31.6381836 C38.5956611,30.03125 38.7734036,28.3693848 38.4457362,26.7269287 C38.1462475,25.2269287 37.4302203,24.0220948 36.4295163,23.3347168 C35.8803936,22.9575195 35.2637142,22.7355958 34.667627,22.5209961 C33.8370788,22.2218018 33.1199678,21.9639893 32.7879653,21.3758545 C32.5784315,21.0048828 32.4920893,20.461792 32.5296608,19.7593994 C33.3898327,19.4763183 34.4956648,19.4250489 35.5176834,19.6326904 C37.4927191,20.0344239 39.2994054,21.6468506 40.3499639,23.9462891 C41.3416363,26.1160888 41.6096949,28.5920411 41.7997203,30.9423828 C41.8188673,31.1804199 41.8372919,31.4188232 41.8560776,31.6575928 C42.0316524,33.9046631 42.2133687,36.2286377 42.9268671,38.4357911 L42.9268671,38.4357911 Z M27.6883487,24.8054199 C28.409795,24.6032714 29.1518332,24.2308349 29.9415585,23.675293 C30.6651722,23.166626 31.2030958,22.6693115 31.6163829,22.1265869 C32.2103026,23.1263428 33.2677252,23.5090333 34.2034015,23.8459473 C34.7409638,24.0393067 35.2489023,24.2220459 35.6513515,24.4985352 C36.5935306,25.1456299 36.9544343,26.3468018 37.0859348,27.0056152 C37.3709728,28.4342041 37.2123775,29.916626 37.0443893,31.486206 C36.8984382,32.8499756 36.7488745,34.2485352 36.9096375,35.6350098 C35.5859626,37.2657471 33.5372288,38.2321777 32.2482354,38.2321777 C32.2478741,38.2321777 32.2471516,38.2321777 32.2467903,38.2321777 C30.5387295,38.2310791 28.8646275,37.2573242 28.0810438,35.8093261 C27.5225282,34.7780761 27.381996,33.5534668 27.3184134,32.4914551 C27.1648758,29.9411621 27.4210127,27.3355713 27.6883487,24.8054199 Z M30.6290458,21.1151123 C30.2952368,21.598877 29.8252311,22.0452881 29.1507494,22.5198974 C28.3519926,23.0816651 27.6366879,23.4127198 26.9643738,23.5310058 C26.6843934,23.5804443 26.4730534,23.7939453 26.4094708,24.057251 C26.3784019,24.1253662 26.3570873,24.1989746 26.3487782,24.2773438 C26.062295,26.9832763 25.7656965,29.7814942 25.9336847,32.5771484 C26.0026863,33.7233886 26.1706745,35.2036133 26.8646645,36.4857177 C27.6337978,37.90625 28.996128,38.9536133 30.5604054,39.4000244 C30.5867777,39.5930176 30.618569,39.7871094 30.6499991,39.9782714 C30.7623525,40.6612549 30.879041,41.3673096 30.7110529,41.8466797 C30.513441,42.4110107 30.0492154,42.6948242 29.3089835,43.1115723 C29.0253905,43.270874 28.7320433,43.4360352 28.4495341,43.6359864 C27.9275062,44.0062256 27.4307668,44.4127197 26.9625674,44.850708 C26.8646645,42.848999 26.1359931,40.9165039 25.4261074,39.0349121 C25.0467791,38.0303955 24.6548067,36.9914551 24.3806066,35.984375 C23.0616281,31.1386719 24.3719363,25.6107177 27.7190563,21.9017334 C28.409795,21.1367187 29.7002335,19.9545898 31.1145859,19.9025879 C31.0426942,20.3292237 30.8728996,20.7613526 30.6290458,21.1151123 L30.6290458,21.1151123 Z M24.5236675,40.5913086 C25.0980788,42.1627198 25.5706134,43.6846924 25.5872316,45.2103271 C23.6049707,45.6779786 21.6274061,46.6641846 20.010384,47.9752197 L20.010384,42.9174805 C20.3040924,42.7025146 20.6263409,42.6325683 20.93739,42.7211914 C21.2520518,42.8109131 21.5060211,43.0500489 21.5696037,43.3166504 C21.6454694,43.6352539 21.9268948,43.8549805 22.2433629,43.8546143 C22.2704578,43.8546143 22.2979139,43.8531494 22.3257314,43.8498536 C22.6747133,43.8077393 22.937353,43.5078125 22.937353,43.1514893 C22.937353,41.5130615 23.7317746,40.8765869 24.5236675,40.5913086 L24.5236675,40.5913086 Z M24.4246809,48.5556641 C24.4069789,48.6662598 24.3925283,48.7779541 24.3867481,48.8933105 C24.2906516,50.7990723 26.3765956,51.9467773 27.1616244,52.3785401 C27.683291,52.6660156 28.2208533,52.9040527 28.7620283,53.1051026 L22.0370806,53.1051026 C22.4781852,51.0048828 23.3188488,49.6293945 24.4246809,48.5556641 L24.4246809,48.5556641 Z M41.3318821,52.1958008 C42.7827223,51.1916504 44.0868888,49.9443359 45.2530523,48.7977295 C46.693777,49.5327148 48.0586361,50.3911133 48.9892547,51.0440674 L48.9892547,53.1054688 L39.8340776,53.1054688 C40.3333457,52.8432617 40.8329752,52.5407714 41.3318821,52.1958008 L41.3318821,52.1958008 Z M49.3544936,15.4886474 L24.9514052,15.4886474 C24.5681031,15.4886474 24.2577764,15.8032227 24.2577764,16.1917724 C24.2577764,16.579956 24.5681031,16.8948974 24.9514052,16.8948974 L48.989616,16.8948974 L48.989616,29.743042 C47.543111,29.9832763 46.6912482,30.774292 46.216546,31.4407959 C45.6992145,32.1669922 45.3982808,33.0821533 45.3466199,33.9987792 C44.7378884,33.7988281 44.0681032,33.7720948 43.4499788,33.9299317 C43.3636364,33.1341552 43.3007762,32.335083 43.2393612,31.5462646 C43.2205755,31.3063964 43.2017897,31.0665283 43.1822813,30.8270263 C42.9825018,28.3510742 42.6960187,25.7341308 41.6089724,23.3552246 C40.3730848,20.6503906 38.1979084,18.7431641 35.7907999,18.2535401 C34.4042648,17.9719239 32.9256072,18.0792237 31.7850937,18.5373536 C30.129055,18.2908935 28.3295941,19.1419677 26.6955926,20.9525146 C23.0338108,25.0101318 21.6003113,31.057373 23.0432036,36.3586426 C23.3112623,37.341919 23.6732497,38.3244629 24.0330697,39.2795411 C22.728903,39.7666016 22.0919929,40.6711426 21.793588,41.5639648 C21.6425793,41.4819336 21.4810938,41.4152833 21.312383,41.3673096 C20.8763362,41.2431641 20.4327029,41.2471924 20.0107454,41.3706055 L20.0107454,16.8948974 L21.9695241,16.8948974 C22.3524649,16.8948974 22.6631528,16.579956 22.6631528,16.1917724 C22.6631528,15.8032227 22.3524649,15.4886474 21.9695241,15.4886474 L19.6455064,15.4886474 L17.1574745,12.40625 L51.8425256,12.40625 L49.3544936,15.4886474 Z M18.6231265,16.442627 L18.6231265,53.557373 L16.3872575,56.3273926 L16.3872575,13.6726074 L18.6231265,16.442627 Z M19.6455064,54.5113526 L21.2061712,54.5113526 C21.2065324,54.5113526 21.2068937,54.5117187 21.207255,54.5117187 C21.2079775,54.5117187 21.2087,54.5113526 21.2094225,54.5113526 L49.3544936,54.5113526 L51.8425256,57.59375 L17.1574745,57.59375 L19.6455064,54.5113526 Z M50.3768735,53.557373 L50.3768735,16.442627 L52.6127425,13.6726074 L52.6127425,56.3273926 L50.3768735,53.557373 Z"/>
</svg>
