<svg xmlns="http://www.w3.org/2000/svg" xmlns:xlink="http://www.w3.org/1999/xlink" width="180" height="30" viewBox="0 0 180 30">
  <defs>
    <path id="germs-footer-logo-a" d="M10.1875434,19.8297372 C4.60781515,19.8297372 0.0295757143,15.9364244 0.0295757143,9.92472135 C0.0295757143,3.88439602 4.60781515,0.0483277757 10.1875434,0.0483277757 C14.1649236,0.0483277757 16.654324,2.05222879 18.0850175,4.31379852 L14.7085646,6.14593172 C13.8501554,4.80044561 12.2191641,3.65534959 10.1875434,3.65534959 C6.72526322,3.65534959 4.20721962,6.31769953 4.20721962,9.92472135 C4.20721962,13.5317432 6.72526322,16.1940931 10.1875434,16.1940931 C11.8757868,16.1940931 13.4781689,15.4497773 14.2507509,14.7340838 L14.2507509,12.4439258 L9.21469771,12.4439258 L9.21469771,8.89414855 L18.3139243,8.89414855 L18.3139243,16.2227154 C16.368199,18.3983842 13.6498576,19.8297372 10.1875434,19.8297372 Z M34.8679833,19.4575793 L21.3621719,19.4575793 L21.3621719,0.363241092 L34.8679833,0.363241092 L34.8679833,3.94164061 L25.4253454,3.94164061 L25.4253454,7.97806493 L34.6676856,7.97806493 L34.6676856,11.5564645 L25.4253454,11.5564645 L25.4253454,15.8791798 L34.8679833,15.8791798 L34.8679833,19.4575793 Z M53.3105495,19.4575793 L48.6464488,19.4575793 L44.8980435,12.6729382 L41.9221862,12.6729382 L41.9221862,19.4575793 L37.8589787,19.4575793 L37.8589787,0.363241092 L46.7865507,0.363241092 C50.7638968,0.363241092 53.1960791,2.9683124 53.1960791,6.51808963 C53.1960791,9.89609905 51.078665,11.69961 49.0184352,12.186257 L53.3105495,19.4575793 Z M46.1856574,9.09453865 C47.8166486,9.09453865 49.0470443,8.12121044 49.0470443,6.51808963 C49.0470443,4.91496882 47.8166486,3.94164061 46.1856574,3.94164061 L41.9221862,3.94164061 L41.9221862,9.09453865 L46.1856574,9.09453865 Z M76.7605598,19.4575793 L72.6687772,19.4575793 L72.6687772,6.08868713 L67.2893127,19.4575793 L65.515276,19.4575793 L60.1358114,6.08868713 L60.1358114,19.4575793 L56.072638,19.4575793 L56.072638,0.363241092 L61.7668367,0.363241092 L66.4022943,11.9000001 L71.037752,0.363241092 L76.7605598,0.363241092 L76.7605598,19.4575793 Z M87.1339972,19.8011149 C83.4713853,19.8011149 80.8389052,18.570118 79.0648345,16.7666071 L81.2681099,13.6748887 C82.612976,15.0776194 84.7017809,16.2513377 87.334295,16.2513377 C89.5661795,16.2513377 90.6534956,15.2207649 90.6534956,14.1329135 C90.6534956,10.754904 79.6657278,13.0737184 79.6657278,5.88829703 C79.6657278,2.71067771 82.4126782,0.076950071 86.9050563,0.076950071 C89.9381659,0.076950071 92.4561755,0.99303369 94.3447167,2.73930001 L92.0841891,5.71652923 C90.5390592,4.28517622 88.4788293,3.6267273 86.5331039,3.6267273 C84.7876423,3.6267273 83.8147626,4.39966541 83.8147626,5.54476142 C83.8147626,8.57923523 94.7739213,6.54671193 94.7739213,13.6748887 C94.7739213,17.1673873 92.2844868,19.8011149 87.1339972,19.8011149 Z"/>
    <path id="germs-footer-logo-c" d="M0.562984588,5.69000984 L0.0231736998,5.69000984 L0.0231736998,0.318640551 L3.22455216,0.318640551 L3.22455216,0.804188057 L0.562984588,0.804188057 L0.562984588,2.67051128 L3.03711783,2.67051128 L3.03711783,3.14847211 L0.562984588,3.14847211 L0.562984588,5.69000984 Z M5.11729817,5.69000984 L4.57748728,5.69000984 L4.57748728,0.318640551 L5.11729817,0.318640551 L5.11729817,5.69000984 Z M10.6312756,4.89340846 L10.6462703,4.89340846 L10.6462703,0.318640551 L11.1860812,0.318640551 L11.1860812,5.69000984 L10.5113176,5.69000984 L7.42239972,1.06972185 L7.40740497,1.06972185 L7.40740497,5.69000984 L6.86759408,5.69000984 L6.86759408,0.318640551 L7.54235769,0.318640551 L10.6312756,4.89340846 Z M13.476188,5.20446233 L16.3176925,5.20446233 L16.3176925,5.69000984 L12.9363771,5.69000984 L12.9363771,0.318640551 L16.227724,0.318640551 L16.227724,0.804188057 L13.476188,0.804188057 L13.476188,2.65533793 L16.0477871,2.65533793 L16.0477871,3.13329875 L13.476188,3.13329875 L13.476188,5.20446233 Z M19.7583054,5.69000984 L19.1660129,5.69000984 L21.4602091,0.318640551 L21.9850253,0.318640551 L24.2642268,5.69000984 L23.6644369,5.69000984 L23.0796418,4.2788874 L20.3356031,4.2788874 L19.7583054,5.69000984 Z M20.5380322,3.77816653 L22.8772127,3.77816653 L21.7076225,0.925574934 L20.5380322,3.77816653 Z M25.9245542,5.69000984 L25.3847433,5.69000984 L25.3847433,0.318640551 L26.944197,0.318640551 C27.2041173,0.318640551 27.4452601,0.343917989 27.6676936,0.394507349 C27.890127,0.445096709 28.0825369,0.527274245 28.2449913,0.641074442 C28.4074458,0.754874639 28.5336402,0.902814895 28.6236087,1.08489521 C28.7135772,1.26697552 28.7585614,1.48950664 28.7585614,1.75252303 C28.7585614,1.9497767 28.7235623,2.12933962 28.6535982,2.2911773 C28.583634,2.45301497 28.488656,2.59336855 28.368698,2.71223802 C28.24874,2.8311075 28.1062899,2.925941 27.9413477,2.99673852 C27.7764055,3.06753603 27.5964685,3.11305611 27.4015368,3.13329875 L28.9534931,5.69000984 L28.2937242,5.69000984 L26.8242391,3.17881883 L25.9245542,3.17881883 L25.9245542,5.69000984 Z M25.9245542,2.70844468 L26.8617259,2.70844468 C27.2965736,2.70844468 27.6314676,2.62878455 27.866374,2.46946427 C28.1012803,2.31014399 28.2187505,2.07116358 28.2187505,1.75252303 C28.2187505,1.575512 28.1862733,1.4262958 28.1212847,1.30490892 C28.0562961,1.18352205 27.9663276,1.08489521 27.8513792,1.00902841 C27.7364308,0.933161614 27.5964685,0.877537457 27.4315263,0.842121456 C27.2665841,0.806705456 27.0841594,0.789014698 26.884218,0.789014698 L25.9245542,0.789014698 L25.9245542,2.70844468 Z M31.828395,5.69000984 L31.2885842,5.69000984 L31.2885842,0.804188057 L29.5117066,0.804188057 L29.5117066,0.318640551 L33.6052725,0.318640551 L33.6052725,0.804188057 L31.828395,0.804188057 L31.828395,5.69000984 Z M40.0373374,4.44579435 L41.2294198,5.69000984 L40.4796824,5.69000984 L39.7299451,4.89340846 C39.5101357,5.19687565 39.2726053,5.42068271 39.0176946,5.56482962 C38.7627839,5.70897654 38.4553916,5.78105 38.0955177,5.78105 C37.8705965,5.78105 37.6569213,5.74818588 37.4544922,5.68242316 C37.2520632,5.61666044 37.0758749,5.52182694 36.9259274,5.39792267 C36.7759799,5.27401839 36.6573851,5.11973291 36.5698022,4.9351352 C36.4822192,4.75053749 36.4385981,4.53683451 36.4385981,4.29406076 C36.4385981,4.0917378 36.4699508,3.90965749 36.5323153,3.74781981 C36.5946798,3.58598214 36.6808996,3.44055928 36.7909747,3.31158573 C36.9010498,3.18261217 37.0308906,3.06753603 37.1808381,2.9663918 C37.3307856,2.86524756 37.4933423,2.7767248 37.6681674,2.700858 C37.5880818,2.61992192 37.5093594,2.53143365 37.4320001,2.43532421 C37.3546409,2.33921477 37.2858013,2.23934648 37.2258223,2.13565036 C37.1658434,2.03195424 37.1171104,1.92194738 37.0796236,1.80562979 C37.0421367,1.68931219 37.0233933,1.57044272 37.0233933,1.44905584 C37.0233933,1.24673288 37.0584946,1.06720445 37.1283565,0.910401574 C37.1982184,0.753598697 37.2932987,0.620831801 37.4132567,0.512100886 C37.5332147,0.40336997 37.6732792,0.321157949 37.8331096,0.265533793 C37.99294,0.209909636 38.162994,0.182080315 38.342931,0.182080315 C38.5177561,0.182080315 38.6826983,0.208633694 38.8377576,0.261740453 C38.992817,0.314847211 39.128792,0.393231407 39.2463645,0.496927526 C39.3639369,0.600623645 39.4562909,0.727045318 39.5237673,0.876261515 C39.5912437,1.02547771 39.6249819,1.19617801 39.6249819,1.3883624 C39.6249819,1.56537343 39.5912437,1.72469371 39.5237673,1.86632323 C39.4562909,2.00795274 39.3663225,2.13565036 39.2538619,2.24945056 C39.1414013,2.36325075 39.0139459,2.46439499 38.8714958,2.55291775 C38.7290457,2.64144051 38.5828469,2.72361804 38.4328995,2.79948484 L39.6699661,4.0892204 L40.4047087,2.78431148 L41.0119959,2.78431148 L40.0373374,4.44579435 Z M39.1001657,1.3883624 C39.1001657,1.16583129 39.0289407,0.983750974 38.8864906,0.842121456 C38.7440405,0.700491939 38.5654667,0.629694422 38.3504284,0.629694422 C38.1156243,0.629694422 37.9230781,0.704285278 37.7731306,0.853501476 C37.6231831,1.00271767 37.5482094,1.20376469 37.5482094,1.45664252 C37.5482094,1.55275196 37.568316,1.65262025 37.6081884,1.75631637 C37.6480608,1.86001249 37.6981569,1.95736338 37.7581359,2.04840354 C37.8181149,2.1394437 37.8818425,2.22289718 37.9493189,2.29876398 C38.0167952,2.37463077 38.0754111,2.43280681 38.1255072,2.47325761 C38.2454651,2.41763345 38.3630376,2.35566407 38.4778837,2.28738396 C38.5927298,2.21910384 38.6966707,2.1419611 38.7890247,2.05599022 C38.8813787,1.97001935 38.9563525,1.87139251 39.0139459,1.76010971 C39.0715394,1.64882691 39.1001657,1.52492264 39.1001657,1.3883624 Z M37.9680623,3.04984527 C37.6480608,3.19650959 37.4057593,3.36976177 37.2408171,3.56953284 C37.0758749,3.76930391 36.9934038,4.01335361 36.9934038,4.30164744 C36.9934038,4.45338103 37.0220301,4.59245867 37.0796236,4.71891483 C37.137217,4.84537098 37.2169618,4.95282596 37.3195395,5.04134872 C37.4221172,5.12987148 37.540712,5.19939305 37.6756648,5.24998241 C37.8106175,5.30057177 37.9530676,5.32584921 38.103015,5.32584921 C38.3930271,5.32584921 38.6339654,5.26008649 38.8265116,5.12859554 C39.0190578,4.99710458 39.2000171,4.79985091 39.3700712,4.53683451 L37.9680623,3.04984527 Z M0.0231736998,9.80199028 L1.78505646,9.80199028 C2.11494089,9.80199028 2.44608625,9.85761444 2.77845844,9.96889724 C3.11083064,10.08018 3.41072558,10.2483284 3.67814326,10.4734114 C3.94556094,10.6984944 4.16172385,10.9792016 4.32666606,11.3155329 C4.49160828,11.6518642 4.57407939,12.0425782 4.57407939,12.4876749 C4.57407939,12.9378064 4.49160828,13.3297964 4.32666606,13.6636103 C4.16172385,13.9974242 3.94556094,14.2768554 3.67814326,14.5019384 C3.41072558,14.7270214 3.11083064,14.8951698 2.77845844,15.0064526 C2.44608625,15.1177354 2.11494089,15.1733596 1.78505646,15.1733596 L0.0231736998,15.1733596 L0.0231736998,9.80199028 Z M0.562984588,14.6878121 L1.63510899,14.6878121 C2.03495755,14.6878121 2.38358542,14.6246012 2.68099259,14.4981451 C2.97839976,14.3716889 3.22455216,14.2060579 3.41948387,14.0012175 C3.61441558,13.7963772 3.76061437,13.5624661 3.85808022,13.2994497 C3.95554608,13.0364333 4.004279,12.7658647 4.004279,12.4876749 C4.004279,12.2094852 3.95554608,11.9389166 3.85808022,11.6759002 C3.76061437,11.4128838 3.61441558,11.1789727 3.41948387,10.9741323 C3.22455216,10.769292 2.97839976,10.6036609 2.68099259,10.4772048 C2.38358542,10.3507486 2.03495755,10.2875378 1.63510899,10.2875378 L0.562984588,10.2875378 L0.562984588,14.6878121 Z M6.57928599,14.6878121 L9.42079053,14.6878121 L9.42079053,15.1733596 L6.03947511,15.1733596 L6.03947511,9.80199028 L9.33082205,9.80199028 L9.33082205,10.2875378 L6.57928599,10.2875378 L6.57928599,12.1386877 L9.15088509,12.1386877 L9.15088509,12.6166485 L6.57928599,12.6166485 L6.57928599,14.6878121 Z M13.390309,10.6668718 C13.2753606,10.5050341 13.1279009,10.3747846 12.947964,10.2761578 C12.768027,10.1775309 12.5506032,10.1282175 12.2956925,10.1282175 C12.1657493,10.1282175 12.0332844,10.1484602 11.8983317,10.188911 C11.7633789,10.2293617 11.6409332,10.2913311 11.5309604,10.3747846 C11.4209875,10.4582381 11.33228,10.5631757 11.2648036,10.6896318 C11.1973273,10.816088 11.1635891,10.9652697 11.1635891,11.1372459 C11.1635891,11.3092222 11.1960663,11.4508172 11.2610549,11.5621 C11.3260435,11.6733828 11.4122633,11.7682163 11.5197143,11.8466005 C11.6271653,11.9249847 11.7496451,11.9894715 11.8870856,12.0400608 C12.0245261,12.0906502 12.1682371,12.1412051 12.3181846,12.1917944 C12.5031312,12.2524879 12.6893046,12.3182506 12.8767389,12.3890481 C13.0641732,12.4598456 13.2328641,12.5521617 13.3828116,12.6659619 C13.5327591,12.7797621 13.6552048,12.923909 13.7501829,13.0984027 C13.845161,13.2728963 13.892633,13.4941859 13.892633,13.7622371 C13.892633,14.0302883 13.8414123,14.2616821 13.7389369,14.4564183 C13.6364614,14.6511546 13.5040305,14.8117163 13.3415761,14.9381725 C13.1791216,15.0646287 12.9942091,15.1581862 12.7867704,15.2188797 C12.5793317,15.2795731 12.3706662,15.3099198 12.1607397,15.3099198 C12.0008071,15.3099198 11.8408404,15.2934705 11.6809078,15.2606064 C11.5209752,15.2277423 11.3685059,15.1784289 11.2235681,15.1126661 C11.0786302,15.0469034 10.9436775,14.9634499 10.8187099,14.8623057 C10.6937423,14.7611615 10.5838035,14.6448094 10.4888255,14.5133184 L10.9536626,14.1643312 C11.068611,14.3565156 11.2298045,14.5171118 11.4372432,14.6460853 C11.6446819,14.7750589 11.8883465,14.8395457 12.1682371,14.8395457 C12.3031898,14.8395457 12.4406303,14.8180616 12.5805927,14.7750589 C12.720555,14.7320562 12.8467494,14.666328 12.95921,14.5778052 C13.0716706,14.4892824 13.1641269,14.3805515 13.2366128,14.251578 C13.3090988,14.1226044 13.3453247,13.9721468 13.3453247,13.8001705 C13.3453247,13.6130209 13.3090988,13.457494 13.2366128,13.3335897 C13.1641269,13.2096854 13.0679219,13.1059893 12.947964,13.0225359 C12.828006,12.9390824 12.6905655,12.8695263 12.5356084,12.8139022 C12.3806513,12.758278 12.218231,12.7026194 12.0482791,12.6469952 C11.8733518,12.591371 11.7009122,12.5281257 11.5309604,12.4573282 C11.3610085,12.3865307 11.2085733,12.2942146 11.0736206,12.1804144 C10.9386679,12.0666142 10.829956,11.9262606 10.7474848,11.7593537 C10.6650137,11.5924467 10.6237782,11.3876064 10.6237782,11.1448326 C10.6237782,10.8868855 10.6749989,10.6643544 10.7774743,10.4772048 C10.8799498,10.2900552 11.0136416,10.1358042 11.1785838,10.0144173 C11.343526,9.89303044 11.5259508,9.80450768 11.7258921,9.74888352 C11.9258334,9.69325937 12.1232529,9.66543005 12.3181846,9.66543005 C12.6780585,9.66543005 12.9854508,9.72991683 13.2403615,9.85889038 C13.4952722,9.98786394 13.6877162,10.1408735 13.8176593,10.3178845 L13.390309,10.6668718 Z M15.9278291,15.1733596 L15.3880182,15.1733596 L15.3880182,9.80199028 L15.9278291,9.80199028 L15.9278291,15.1733596 Z M21.7042146,10.7654986 C21.519268,10.5682449 21.2993564,10.4152354 21.0444457,10.3065045 C20.789535,10.1977736 20.4971374,10.1433909 20.167253,10.1433909 C19.8273834,10.1433909 19.521218,10.2066017 19.2488248,10.3330579 C18.9764315,10.459514 18.7452398,10.6302143 18.5553177,10.8451588 C18.3653956,11.0601032 18.2191968,11.3092222 18.1167214,11.5924467 C18.0142459,11.8756713 17.9630252,12.1741037 17.9630252,12.4876749 C17.9630252,12.8012462 18.0142459,13.0996786 18.1167214,13.3829031 C18.2191968,13.6661277 18.3653956,13.9139707 18.5553177,14.1263978 C18.7452398,14.3388248 18.9764315,14.5082491 19.2488248,14.6347053 C19.521218,14.7611615 19.8273834,14.8243723 20.167253,14.8243723 C20.4671479,14.8243723 20.742063,14.7915082 20.9919641,14.7257455 C21.2418652,14.6599827 21.4442943,14.5765293 21.5992513,14.475385 L21.5992513,12.8442489 L20.3621847,12.8442489 L20.3621847,12.3662881 L22.1390622,12.3662881 L22.1390622,14.7864389 C21.8491524,14.9634499 21.5367846,15.0949754 21.2018905,15.1809463 C20.8669965,15.2669171 20.5196296,15.3099198 20.1597556,15.3099198 C19.7599071,15.3099198 19.3900139,15.2391223 19.0501444,15.0974928 C18.7102748,14.9558633 18.4178772,14.7598855 18.1729517,14.5095251 C17.9280261,14.2591647 17.7368431,13.9620082 17.5994026,13.6180902 C17.4619621,13.2741722 17.3932248,12.8973556 17.3932248,12.4876749 C17.3932248,12.0779942 17.463189,11.7011776 17.6031513,11.3572596 C17.7431136,11.0133417 17.9367844,10.7161852 18.1841977,10.4658248 C18.4316111,10.2154643 18.7240086,10.0194866 19.0613904,9.87785708 C19.3987722,9.73622756 19.7648826,9.66543005 20.1597556,9.66543005 C20.5846182,9.66543005 20.9544772,9.72864088 21.2693669,9.85509704 C21.5842566,9.9815532 21.854162,10.1585642 22.0790832,10.3861646 L21.7042146,10.7654986 Z M27.6230501,14.3767582 L27.6380449,14.3767582 L27.6380449,9.80199028 L28.1778558,9.80199028 L28.1778558,15.1733596 L27.5030921,15.1733596 L24.4141743,10.5530716 L24.3991795,10.5530716 L24.3991795,15.1733596 L23.8593686,15.1733596 L23.8593686,9.80199028 L24.5341323,9.80199028 L27.6230501,14.3767582 Z M34.7148838,10.6668718 C34.6000377,10.5050341 34.4524757,10.3747846 34.2725388,10.2761578 C34.0926018,10.1775309 33.875178,10.1282175 33.6202673,10.1282175 C33.4904264,10.1282175 33.3578592,10.1484602 33.2229065,10.188911 C33.0879538,10.2293617 32.9656103,10.2913311 32.8555352,10.3747846 C32.7454601,10.4582381 32.6568548,10.5631757 32.5893784,10.6896318 C32.5219021,10.816088 32.4881639,10.9652697 32.4881639,11.1372459 C32.4881639,11.3092222 32.5205389,11.4508172 32.5856298,11.5621 C32.6507206,11.6733828 32.7369404,11.7682163 32.8442891,11.8466005 C32.9516379,11.9249847 33.0743222,11.9894715 33.2116604,12.0400608 C33.3489987,12.0906502 33.4928119,12.1412051 33.6427594,12.1917944 C33.8278082,12.2524879 34.0138794,12.3182506 34.2013137,12.3890481 C34.3887481,12.4598456 34.557439,12.5521617 34.7073864,12.6659619 C34.8573339,12.7797621 34.9796774,12.923909 35.0747577,13.0984027 C35.1698381,13.2728963 35.2172078,13.4941859 35.2172078,13.7622371 C35.2172078,14.0302883 35.1660894,14.2616821 35.0635117,14.4564183 C34.960934,14.6511546 34.8287076,14.8117163 34.6661509,14.9381725 C34.5035942,15.0646287 34.3188862,15.1581862 34.1113453,15.2188797 C33.9038043,15.2795731 33.695241,15.3099198 33.4853146,15.3099198 C33.3254842,15.3099198 33.165313,15.2934705 33.0054827,15.2606064 C32.8456523,15.2277423 32.6929785,15.1784289 32.5481429,15.1126661 C32.4033073,15.0469034 32.2683545,14.9634499 32.1432847,14.8623057 C32.0182149,14.7611615 31.9084806,14.6448094 31.8134003,14.5133184 L32.2782374,14.1643312 C32.3930836,14.3565156 32.5542771,14.5171118 32.761818,14.6460853 C32.969359,14.7750589 33.2130236,14.8395457 33.4928119,14.8395457 C33.6277647,14.8395457 33.7651029,14.8180616 33.9051675,14.7750589 C34.0452321,14.7320562 34.1713242,14.666328 34.2837848,14.5778052 C34.3962454,14.4892824 34.4885995,14.3805515 34.5611877,14.251578 C34.6337759,14.1226044 34.6698996,13.9721468 34.6698996,13.8001705 C34.6698996,13.6130209 34.6337759,13.457494 34.5611877,13.3335897 C34.4885995,13.2096854 34.3924968,13.1059893 34.2725388,13.0225359 C34.1525808,12.9390824 34.0152426,12.8695263 33.8601832,12.8139022 C33.7051239,12.758278 33.542908,12.7026194 33.372854,12.6469952 C33.1980289,12.591371 33.0255893,12.5281257 32.8555352,12.4573282 C32.6854811,12.3865307 32.5331481,12.2942146 32.3981954,12.1804144 C32.2632427,12.0666142 32.1545308,11.9262606 32.0720597,11.7593537 C31.9895886,11.5924467 31.948353,11.3876064 31.948353,11.1448326 C31.948353,10.8868855 31.9994715,10.6643544 32.1020492,10.4772048 C32.2046269,10.2900552 32.3382164,10.1358042 32.5031587,10.0144173 C32.6681009,9.89303044 32.8504234,9.80450768 33.0504669,9.74888352 C33.2505105,9.69325937 33.4478277,9.66543005 33.6427594,9.66543005 C34.0026333,9.66543005 34.3100257,9.72991683 34.5649364,9.85889038 C34.819847,9.98786394 35.0123932,10.1408735 35.1422341,10.3178845 L34.7148838,10.6668718 Z M38.2795441,15.1733596 L37.7397332,15.1733596 L37.7397332,10.2875378 L35.9628557,10.2875378 L35.9628557,9.80199028 L40.0564216,9.80199028 L40.0564216,10.2875378 L38.2795441,10.2875378 L38.2795441,15.1733596 Z M43.1487474,15.3099198 C42.7490011,15.3099198 42.4215021,15.2403637 42.1665915,15.1012861 C41.9116808,14.9622085 41.7092517,14.7864389 41.5593042,14.5740119 C41.4093567,14.3615848 41.3057567,14.1301911 41.2481632,13.8798307 C41.1905697,13.6294702 41.1619434,13.3930072 41.1619434,13.1704761 L41.1619434,9.80199028 L41.7017543,9.80199028 L41.7017543,13.1097827 C41.7017543,13.327279 41.7266319,13.5384301 41.776728,13.7432704 C41.8268241,13.9481108 41.9079321,14.1301911 42.0203927,14.2895114 C42.1328533,14.4488317 42.2814376,14.5778052 42.4664864,14.676432 C42.6515352,14.7750589 42.8788419,14.8243723 43.1487474,14.8243723 C43.4186528,14.8243723 43.6459596,14.7750589 43.8310084,14.676432 C44.0160572,14.5778052 44.1646415,14.4488317 44.2771021,14.2895114 C44.3895627,14.1301911 44.4706706,13.9481108 44.5207667,13.7432704 C44.5708628,13.5384301 44.5957405,13.327279 44.5957405,13.1097827 L44.5957405,9.80199028 L45.1355513,9.80199028 L45.1355513,13.1704761 C45.1355513,13.3930072 45.106925,13.6294702 45.0493315,13.8798307 C44.9917381,14.1301911 44.888138,14.3615848 44.7381905,14.5740119 C44.5882431,14.7864389 44.3844508,14.9622085 44.1271546,15.1012861 C43.8698584,15.2403637 43.5437226,15.3099198 43.1487474,15.3099198 Z M46.8558578,9.80199028 L48.6177405,9.80199028 C48.947625,9.80199028 49.2788725,9.85761444 49.6111425,9.96889724 C49.9434125,10.08018 50.2433074,10.2483284 50.5108273,10.4734114 C50.7783472,10.6984944 50.9944079,10.9792016 51.1593501,11.3155329 C51.3242923,11.6518642 51.4067634,12.0425782 51.4067634,12.4876749 C51.4067634,12.9378064 51.3242923,13.3297964 51.1593501,13.6636103 C50.9944079,13.9974242 50.7783472,14.2768554 50.5108273,14.5019384 C50.2433074,14.7270214 49.9434125,14.8951698 49.6111425,15.0064526 C49.2788725,15.1177354 48.947625,15.1733596 48.6177405,15.1733596 L46.8558578,15.1733596 L46.8558578,9.80199028 Z M47.3956686,14.6878121 L48.467793,14.6878121 C48.8675394,14.6878121 49.2161672,14.6246012 49.5136766,14.4981451 C49.8111861,14.3716889 50.0572362,14.2060579 50.2521679,14.0012175 C50.4470996,13.7963772 50.5932984,13.5624661 50.6907643,13.2994497 C50.7882301,13.0364333 50.8369631,12.7658647 50.8369631,12.4876749 C50.8369631,12.2094852 50.7882301,11.9389166 50.6907643,11.6759002 C50.5932984,11.4128838 50.4470996,11.1789727 50.2521679,10.9741323 C50.0572362,10.769292 49.8111861,10.6036609 49.5136766,10.4772048 C49.2161672,10.3507486 48.8675394,10.2875378 48.467793,10.2875378 L47.3956686,10.2875378 L47.3956686,14.6878121 Z M53.4119701,15.1733596 L52.8721592,15.1733596 L52.8721592,9.80199028 L53.4119701,9.80199028 L53.4119701,15.1733596 Z M60.4104274,12.4876749 C60.4104274,12.8973556 60.3405655,13.2741722 60.2005009,13.6180902 C60.0604364,13.9620082 59.8668678,14.2591647 59.6194545,14.5095251 C59.3720412,14.7598855 59.0796436,14.9558633 58.7422618,15.0974928 C58.40488,15.2391223 58.0388718,15.3099198 57.6438966,15.3099198 C57.2489213,15.3099198 56.8829132,15.2391223 56.5455314,15.0974928 C56.2081496,14.9558633 55.915752,14.7598855 55.6683387,14.5095251 C55.4209253,14.2591647 55.2273568,13.9620082 55.0872922,13.6180902 C54.9472277,13.2741722 54.8773658,12.8973556 54.8773658,12.4876749 C54.8773658,12.0779942 54.9472277,11.7011776 55.0872922,11.3572596 C55.2273568,11.0133417 55.4209253,10.7161852 55.6683387,10.4658248 C55.915752,10.2154643 56.2081496,10.0194866 56.5455314,9.87785708 C56.8829132,9.73622756 57.2489213,9.66543005 57.6438966,9.66543005 C58.0388718,9.66543005 58.40488,9.73622756 58.7422618,9.87785708 C59.0796436,10.0194866 59.3720412,10.2154643 59.6194545,10.4658248 C59.8668678,10.7161852 60.0604364,11.0133417 60.2005009,11.3572596 C60.3405655,11.7011776 60.4104274,12.0779942 60.4104274,12.4876749 Z M59.840627,12.4876749 C59.840627,12.1741037 59.7905309,11.8756713 59.6906795,11.5924467 C59.5908281,11.3092222 59.4456517,11.0601032 59.2558319,10.8451588 C59.066012,10.6302143 58.8346158,10.459514 58.5623248,10.3330579 C58.2900339,10.2066017 57.9836639,10.1433909 57.6438966,10.1433909 C57.3041292,10.1433909 56.9977593,10.2066017 56.7254683,10.3330579 C56.4531774,10.459514 56.2217811,10.6302143 56.0319613,10.8451588 C55.8421414,11.0601032 55.696965,11.3092222 55.5971136,11.5924467 C55.4972622,11.8756713 55.4471662,12.1741037 55.4471662,12.4876749 C55.4471662,12.8012462 55.4972622,13.0996786 55.5971136,13.3829031 C55.696965,13.6661277 55.8421414,13.9139707 56.0319613,14.1263978 C56.2217811,14.3388248 56.4531774,14.5082491 56.7254683,14.6347053 C56.9977593,14.7611615 57.3041292,14.8243723 57.6438966,14.8243723 C57.9836639,14.8243723 58.2900339,14.7611615 58.5623248,14.6347053 C58.8346158,14.5082491 59.066012,14.3388248 59.2558319,14.1263978 C59.4456517,13.9139707 59.5908281,13.6661277 59.6906795,13.3829031 C59.7905309,13.0996786 59.840627,12.8012462 59.840627,12.4876749 Z"/>
    <polygon id="germs-footer-logo-e" points="0 0 1.464 0 1.464 19.602 0 19.602"/>
  </defs>
  <g fill="none" fill-rule="evenodd" opacity=".3" transform="translate(3 5)">
    <mask id="germs-footer-logo-b" fill="#fff">
      <use xlink:href="#germs-footer-logo-a"/>
    </mask>
    <polygon fill="#000" points="-1.671 21.531 96.475 21.531 96.475 -1.653 -1.671 -1.653" mask="url(#germs-footer-logo-b)"/>
    <g transform="translate(113.255 1.747)">
      <mask id="germs-footer-logo-d" fill="#fff">
        <use xlink:href="#germs-footer-logo-c"/>
      </mask>
      <polygon fill="#000" points="-1.681 17.034 62.114 17.034 62.114 -1.542 -1.681 -1.542" mask="url(#germs-footer-logo-d)"/>
    </g>
    <g transform="translate(108.609)">
      <mask id="germs-footer-logo-f" fill="#fff">
        <use xlink:href="#germs-footer-logo-e"/>
      </mask>
      <polygon fill="#6D7278" points="-1.83 21.306 3.293 21.306 3.293 -1.705 -1.83 -1.705" mask="url(#germs-footer-logo-f)"/>
    </g>
  </g>
</svg>
