<svg xmlns="http://www.w3.org/2000/svg" xmlns:xlink="http://www.w3.org/1999/xlink" width="760" height="240" viewBox="0 0 760 240">
  <defs>
    <path id="germs_logo-a" d="M29.6258446,57.5062379 C13.3997383,57.5062379 0.0860075371,46.2156307 0.0860075371,28.7816919 C0.0860075371,11.2647485 13.3997383,0.14015055 29.6258446,0.14015055 C41.192249,0.14015055 48.43154,5.95146348 52.5920623,12.5100157 L42.7731822,17.823202 C40.2768886,13.9212923 35.5338911,10.6005138 29.6258446,10.6005138 C19.5573747,10.6005138 12.2347881,18.3213286 12.2347881,28.7816919 C12.2347881,39.2420552 19.5573747,46.96287 29.6258446,46.96287 C34.5353341,46.96287 39.195135,44.8043541 41.4418388,42.7288429 L41.4418388,36.0873847 L26.7967646,36.0873847 L26.7967646,25.7930308 L53.257734,25.7930308 L53.257734,47.0458747 C47.5994751,53.3553142 39.6944135,57.5062379 29.6258446,57.5062379 Z M101.397699,56.42698 L62.1221781,56.42698 L62.1221781,1.05339917 L101.397699,1.05339917 L101.397699,11.4307578 L73.9380733,11.4307578 L73.9380733,23.1363883 L100.815224,23.1363883 L100.815224,33.5137469 L73.9380733,33.5137469 L73.9380733,46.0496214 L101.397699,46.0496214 L101.397699,56.42698 Z M155.029529,56.42698 L141.46611,56.42698 L130.565575,36.7515207 L121.911645,36.7515207 L121.911645,56.42698 L110.095651,56.42698 L110.095651,1.05339917 L136.05744,1.05339917 C147.623746,1.05339917 154.696644,8.60810597 154.696644,18.9024599 C154.696644,28.6986873 148.539106,33.9288689 142.547863,35.3401454 L155.029529,56.42698 Z M134.310015,26.3741621 C139.053013,26.3741621 142.63106,23.5515103 142.63106,18.9024599 C142.63106,14.2534096 139.053013,11.4307578 134.310015,11.4307578 L121.911645,11.4307578 L121.911645,26.3741621 L134.310015,26.3741621 Z M223.223237,56.42698 L211.324145,56.42698 L211.324145,17.6571927 L195.680415,56.42698 L190.521435,56.42698 L174.877705,17.6571927 L174.877705,56.42698 L163.061809,56.42698 L163.061809,1.05339917 L179.620801,1.05339917 L193.100925,34.5100002 L206.581049,1.05339917 L223.223237,1.05339917 L223.223237,56.42698 Z M253.38967,57.4232333 C242.738626,57.4232333 235.083253,53.8533422 229.924174,48.6231605 L236.3314,39.6571772 C240.242333,43.7250962 246.316673,47.1288793 253.972145,47.1288793 C260.462568,47.1288793 263.624533,44.1402182 263.624533,40.9854491 C263.624533,31.1892217 231.671599,37.9137833 231.671599,17.0760614 C231.671599,7.86096537 239.659857,0.223155206 252.723899,0.223155206 C261.544322,0.223155206 268.866809,2.8797977 274.358774,7.94397002 L267.785056,16.5779348 C263.291747,12.4270111 257.300504,10.5175092 251.642245,10.5175092 C246.566362,10.5175092 243.737183,12.7590297 243.737183,16.0798081 C243.737183,24.8797822 275.606921,18.9854646 275.606921,39.6571772 C275.606921,49.7854231 268.367531,57.4232333 253.38967,57.4232333 Z"/>
    <path id="germs_logo-c" d="M82.103818,18.4806025 L81.7693244,18.8952143 C81.8629071,18.7853912 81.9489396,18.6838941 82.0256337,18.5918132 C80.2095134,20.9201015 78.4138581,23.1413421 76.4988898,25.486877 C68.7626206,31.9996415 63.2390557,36.4689837 21.6923108,71.1043784 C21.7198293,71.579155 21.7458576,72.0541298 21.7704951,72.5291045 C21.7493347,73.5868948 21.583131,74.468651 21.2244967,75.3292949 C22.1642975,79.4600491 22.9025279,83.5238984 23.2847069,87.9660822 C23.6393675,92.834871 23.4520034,96.6524114 22.4334222,101.437842 C21.8737143,103.469568 21.0028587,104.854845 19.4173174,106.239825 C19.0296744,106.547587 18.6495816,106.816099 18.268098,107.050216 C16.3973381,112.99642 13.659001,113.608674 10.857282,107.94575 C10.1314697,107.715696 9.42085713,107.381271 8.67130143,106.928895 C6.92313289,105.757912 5.87464901,104.488306 5.06280419,102.544398 C2.15925688,95.3409775 1.29664692,90.7589378 0.242699082,83.2046384 C-0.092191874,81.0099616 0.180211271,79.2965039 1.18299659,77.3170129 C1.96891245,75.9357006 2.84811297,74.9410487 4.02544691,74.1470122 L3.66005714,72.1989416 C3.431465,70.9797868 3.4212325,70.0155642 3.61743826,68.7918499 C3.84016906,67.6074857 4.16810589,66.7207736 4.76904193,65.6773555 C5.33163092,64.7546634 5.88945137,64.088093 6.67030065,63.4093311 C7.39670903,62.2742286 8.29120864,61.4209194 9.55368098,60.6148895 C9.55318426,60.6139975 12.1989321,59.1014526 12.1999255,59.1019482 C15.7460343,57.0649685 19.3052566,55.0825039 22.8971633,53.1272967 C42.9770104,42.2564998 54.4671181,36.4487636 67.2012201,23.5341478 C65.9531527,24.953918 64.7595262,26.3652631 63.6516342,27.790584 C64.7005155,27.928061 73.1479933,19.3481848 73.7587645,18.7337506 C70.9443294,21.7761861 63.6650458,28.5182112 61.579304,31.102522 C67.8220251,27.1170753 76.8250384,16.0112689 81.2692232,10.2015503 C82.748565,8.14435049 83.8504963,6.19647813 85.5138245,4.60275538 C83.8550662,6.22898893 82.6565718,8.33396375 81.3179021,10.2366382 C80.3234617,11.6036774 69.4767103,25.0266708 69.4227661,25.2272862 C70.4288298,24.261676 71.413435,23.2360992 72.3788667,22.1703795 C68.3111983,26.8322093 64.0834856,31.2386114 59.3391805,35.9880618 C65.8199315,32.0460289 70.3457776,27.5338676 75.1406492,21.9862177 C73.4355962,23.9813695 70.7820995,27.1308527 70.5912583,27.7722471 C73.5256025,26.7100956 82.6707781,15.0373327 84.5740237,12.5524376 C85.8635178,10.7672183 87.5636035,7.82112579 89.4121102,6.68899685 C89.4121102,6.68899685 89.5066864,6.65807194 89.5552659,6.6561887 C87.5678754,7.8331191 86.0187936,10.6899061 84.6556851,12.6107191 C80.9525123,17.6518746 76.2431766,22.7571597 72.9806969,27.2940014 C76.3508662,24.4065869 82.3689689,16.2980181 84.990576,12.8490986 C84.9950465,12.8539554 86.3174237,10.9909283 86.5450224,10.6681991 C86.031609,11.3983044 85.5167055,12.1273193 84.9964374,12.8531624 C84.678733,13.2830384 77.4263718,22.700464 77.5695275,23.0871244 C78.5623784,22.4886483 80.4926458,20.376636 81.6036174,19.0884949 C82.0236468,18.5367035 83.1572691,17.0469558 84.1437619,15.7355219 C83.2953582,16.8843027 82.3909241,18.1090081 82.119117,18.4721775 L82.0708355,18.5337299 C82.0826575,18.5165825 82.0933868,18.4997324 82.103818,18.4806025 Z M82.0708355,18.5337299 L82.0556358,18.5558333 L82.119117,18.4721775 C82.6172313,17.833162 83.1168358,17.1853249 83.6210101,16.5251972 L83.1596533,17.1494441 C82.2853207,18.2848439 81.3940995,19.4314442 80.8143239,20.176318 C81.4133724,19.400321 82.0556358,18.5558333 82.0556358,18.5558333 L82.0256337,18.5918132 L82.0708355,18.5337299 Z M84.1437619,15.7355219 L85.7463904,13.5614616 C85.5335941,13.8762613 84.8798067,14.7561342 84.1437619,15.7355219 Z M85.7463904,13.5614616 C85.7976523,13.4866273 85.8235813,13.442817 85.8191108,13.4382576 C86.6891716,12.2086954 87.5443307,10.9445409 88.4226371,9.72568346 C87.6101962,10.9637698 86.6827142,12.237737 85.8311315,13.4465835 L85.7463904,13.5614616 Z M87.0501902,4.02489583 L87.0496934,4.02539142 L87.0501902,4.02489583 Z M87.0496934,4.02539142 C86.9655485,4.08208707 86.8569647,4.16237288 86.748679,4.24404634 C86.906041,4.12728501 87.039759,4.03223058 87.0496934,4.02539142 Z M86.748679,4.24404634 C86.5390617,4.4027347 86.3351071,4.56578426 86.3351071,4.56578426 C86.4418033,4.47469456 86.6050266,4.35040025 86.748679,4.24404634 Z M89.5750355,6.61317137 L89.4978447,6.63785182 C89.5980835,6.57778614 90.7710463,5.87236137 89.9953629,6.37231396 C89.9953629,6.37231396 89.7613068,6.52455963 89.6457689,6.60246659 C89.6527231,6.59255476 89.6501401,6.59691597 89.5750355,6.61317137 Z M89.4978447,6.63785182 C89.489301,6.64270861 89.4884069,6.64330332 89.4972486,6.63785182 L89.4978447,6.63785182 Z M76.4930285,20.4047856 L76.2673173,20.6709182 C76.3656686,20.5560401 76.4423627,20.4658425 76.4930285,20.4047856 Z M76.2673173,20.6709182 C75.8896088,21.1156619 75.5143839,21.5541612 75.1406492,21.9862177 C75.6137286,21.4335342 76.0134916,20.9684713 76.2673173,20.6709182 Z M72.3788667,22.1703795 C73.8368494,20.4993445 75.2749632,18.7943119 76.7085071,17.0297092 C75.3092371,18.7888604 73.8674476,20.5269985 72.3788667,22.1703795 Z M76.7085071,17.0297092 C78.4438602,14.8472239 80.1146392,12.6327234 81.7270035,10.527253 C82.9707991,8.79555756 84.7723157,5.9338147 86.3351071,4.56578426 C84.8037087,5.92737201 82.9752696,8.83500664 81.7492568,10.5430128 C80.0570193,12.8174798 78.3854455,14.9650755 76.7085071,17.0297092 Z M85.5138245,4.60275538 C86.1211186,4.00715366 86.7905031,3.47607793 87.5506887,3.04243548 C86.771727,3.51047198 86.1075084,4.03371735 85.5138245,4.60275538 Z M67.2012201,23.5341478 C69.9808846,20.3731669 73.0334489,17.1710519 76.0273999,13.6836745 C72.9506948,17.4115128 70.0447632,20.6505989 67.2012201,23.5341478 Z M76.0273999,13.6836745 C77.2271857,12.2299067 78.4522051,10.7041791 79.7112004,9.09320975 C84.0882282,3.0804969 83.0524604,3.6277289 89.4460861,0 C83.1109745,3.66370883 84.2209527,2.94064101 79.7460704,9.11828667 C78.5333697,10.7025932 77.2858984,12.2186072 76.0273999,13.6836745 Z M3.92967863,86.8876753 C3.65717614,86.3693859 3.38825006,85.9886726 3.21459554,86.069454 C3.44865163,86.3688903 3.68578741,86.6408708 3.92967863,86.8876753 Z M18.2027292,73.7090085 L17.6945811,74.0568145 C17.8736002,73.942432 18.0427842,73.8272566 18.2027292,73.7090085 Z M76.4988898,25.486877 L77.2483462,24.8547997 C76.3420245,25.9573914 75.6408497,26.7333884 75.3191716,26.9293453 L76.4988898,25.486877 Z M77.2483462,24.8547997 C78.8894211,22.8586568 81.2037551,19.7904506 83.1596533,17.1494441 C84.5640893,15.3256678 85.9244161,13.5314288 85.8802077,13.4817705 C85.8802077,13.4817705 85.293478,14.3048487 85.2363548,14.3845398 C84.6900583,15.1162309 84.1531003,15.8280984 83.6210101,16.5251972 C85.3044059,14.2437918 86.6385058,12.3948395 86.8961066,12.0342472 C89.0585425,9.11878226 90.0888463,7.72597225 94.3294738,7.84729302 L101.621076,4.13313299 C87.4941616,16.156279 81.8046911,21.0127771 77.2483462,24.8547997 Z M80.8143239,20.176318 L80.165603,21.0082177 C80.3467084,20.7791554 80.5772874,20.4831882 80.8143239,20.176318 Z M86.5450224,10.6681991 L86.564792,10.6400496 L86.5450224,10.6681991 Z"/>
    <path id="germs_logo-e" d="M139.928828,56.7546224 C147.954275,50.2534126 150.234971,51.097223 156.996478,46.2773674 C161.343153,43.3699366 172.907594,39.1992271 177.568473,41.6360618 C177.998597,42.2752609 177.288125,42.4513241 176.779005,42.5076246 C176.634476,44.6399792 175.87431,45.2846492 174.355265,43.2987155 C171.008219,40.613204 160.20434,47.1385852 157.044093,49.2903367 C156.22077,50.1070911 156.988756,50.8872402 157.739023,51.3771337 C156.945199,52.2120913 156.147317,53.0422742 155.345574,53.8688763 C155.522078,53.3200961 155.398139,52.6081839 155.261331,52.1063539 C154.439493,50.1422043 152.616045,53.005669 150.939602,54.2080715 C150.583822,54.4458067 148.740872,55.6630303 148.498835,56.0140626 C150.507993,57.1852314 145.678529,58.2100786 144.84887,58.4167788 C140.870349,59.3933827 137.134657,60.9940662 133.356002,62.5564534 C129.986979,63.9368091 125.501713,64.9077432 123.951783,65.7587156 L133.967085,63.7020581 C136.979832,62.8936593 145.460547,60.1175299 148.12088,60.3993305 C150.936236,61.2236447 148.920148,62.6335432 147.402093,63.4226448 C146.874858,63.2520524 143.318936,62.0471631 143.488016,62.2242211 C144.748492,62.9638856 144.684839,64.3239493 144.215316,65.5544026 C145.092492,67.2931515 142.116471,65.4843752 141.886708,65.3437235 C140.250456,64.4978242 136.715818,65.2415671 134.943649,65.5347074 C128.206692,66.8824367 125.413907,66.3321645 119.639358,66.9565424 C118.096654,67.3190139 120.034736,68.0344076 117.929653,68.461535 C112.812022,68.9830602 106.818897,66.1219828 102.528548,63.7074296 C101.145718,62.8639175 99.8681162,61.9987209 98.5630938,61.035645 C89.7361019,54.4236247 81.5058387,47.6839834 73.1914316,40.4326645 C57.3199125,25.0446376 54.2781601,24.0513226 35.6361289,16.1597104 C30.0070011,13.7704228 27.0300889,15.2984926 22.0048173,12.914079 C17.9050296,10.7169689 11.997534,7.37684029 8.42814984,4.4529968 C6.49679989,2.96332271 2.44621162,1.14251047 0.10631829,0.0370919213 C35.2195671,12.8256495 44.5779525,11.5302418 73.944074,39.8419077 C83.4380796,48.3944036 92.2327998,55.204868 104.097683,60.1595065 C108.897548,61.9962341 112.784997,62.9805967 117.932029,63.2035107 C123.336641,63.2870661 127.193798,62.4615583 132.210358,60.4073877 C134.85208,59.2815776 137.371844,58.0623645 139.928828,56.7546224 Z M155.345574,53.8688763 C155.238167,54.2006112 155.021769,54.4729622 154.630747,54.6036668 L155.345574,53.8688763 Z"/>
    <path id="germs_logo-g" d="M8.05050912,3.14634905 L8.05206817,3.1439041 L8.05206817,3.14341511 L8.05255538,3.14253493 L8.05781719,3.12776747 C8.11131229,2.99319778 8.18117748,2.81618386 8.25503774,2.62616284 C8.15038613,2.89852956 8.03024139,3.20082239 7.95111931,3.39817824 L8.05050912,3.14634905 Z M8.09971681,3.00874762 C8.29849642,2.45218065 8.21801017,2.69618603 8.07808492,3.06468793 L8.03024139,3.18527255 C7.61407095,3.98144399 8.33523167,2.12807893 8.38288031,1.9990837 C7.62664084,3.69264725 8.17591566,2.57667718 8.67286468,0.970055831 C8.66809007,0.978955426 8.660782,0.996852413 8.660782,0.996852413 C8.46590003,1.61464077 7.16788869,5.13203446 7.47268408,3.79230315 C6.79118184,5.37692001 6.07391876,6.86100079 5.23787512,8.3697266 C6.27113931,6.05935267 7.5060089,3.55993571 8.28105448,1.16418435 L8.28163913,1.16369537 L8.28163913,1.16261959 L8.28212634,1.16164161 L8.28261354,1.16027244 L8.28349051,1.15684952 L8.28446492,1.15235083 L8.28504956,1.15049267 L8.28602397,1.14941689 L8.28641374,1.14755874 L8.28690094,1.14511379 L8.28982417,1.13592081 L8.29031138,1.13347586 L8.29216276,1.12819478 L8.29313717,1.12369609 L8.29372181,1.12232692 L8.29508599,1.11792602 L8.2960604,1.11362292 L8.29791177,1.10677708 L8.30239406,1.09406337 L8.30521985,1.08389241 L8.30814308,1.07411263 L8.30999446,1.06589762 L8.31525627,1.0494676 L8.31584092,1.04839182 L8.3181795,1.03919884 L8.31973855,1.03440675 L8.32022576,1.03235299 L8.32110273,1.02941906 L8.32207714,1.02560495 L8.32266178,1.02462697 L8.32266178,1.0235512 L8.32314899,1.02306221 L8.32402596,1.02012828 L8.32402596,1.0192481 L8.32402596,1.01827012 L8.32451316,1.01778113 L8.09971681,3.00874762 Z M8.66653102,0.976901673 C8.660782,0.99783039 8.73357041,0.720182593 8.69595819,0.876756782 C8.69595819,0.876756782 8.68436272,0.925460059 8.6786137,0.949616102 C8.67812649,0.949616102 8.66945425,0.972109583 8.66653102,0.976901673 Z M8.28105448,1.16418435 L8.09971681,3.00874762 L8.31681533,2.46538335 L8.38726516,2.27624251 L8.33805746,2.41237697 C7.45582679,5.16782843 6.11201819,8.05149274 4.75749107,10.9494355 C6.84418974,7.87213167 10.077379,3.33832602 11.0589995,3.40297033 C10.8713282,6.42844136 5.89589408,12.4848601 2.45564271,16.0323755 C2.16828925,16.7123632 1.89516217,17.3900038 1.64191306,18.0632435 C1.57195043,18.2605993 1.5015006,18.4583464 0.27637511,18.2985448 C0.323633987,18.1978132 0.37147751,18.0976683 0.420100561,17.9985992 C0.301027679,18.1024604 0.187996138,18.1988889 0.0844163723,18.284462 C0.0844163723,18.2847554 0.370503101,17.5683869 0.370503101,17.5683869 C0.508479534,17.2247256 0.653081953,16.8853674 0.802166659,16.5466938 C2.50192718,12.8276412 5.04250595,8.3567195 6.82733245,4.26036316 C6.72258339,4.58573625 6.78640723,4.53566381 7.17792511,3.75249947 C7.02406579,4.18564568 6.97251951,4.3581609 6.99035121,4.34701196 C6.8721553,4.62886506 6.75405683,4.91511906 6.6386867,5.20968587 C7.29806984,3.84286458 7.76315566,2.59467197 8.28105448,1.16418435 Z M6.99035121,4.34701196 C7.16155502,3.93958655 7.33383068,3.54106074 7.50025988,3.139601 C7.23726667,3.81469883 7.01987583,4.32901717 6.99035121,4.34701196 Z M7.50025988,3.139601 C7.80310646,2.40993203 8.08860854,1.67009209 8.3186667,0.849177818 C8.10936347,1.52378666 7.7794283,2.42215675 7.50025988,3.139601 Z M6.82733245,4.26036316 C7.04725675,3.57705031 8.01240969,1.23068682 8.23671884,0.545320225 C7.8745307,1.72358745 7.38820275,2.97324704 6.82733245,4.26036316 Z M8.23671884,0.545320225 C8.24928872,0.505516543 8.26029955,0.470407153 8.26819227,0.442730391 L8.23671884,0.545320225 Z M8.38726516,2.27624251 L8.38726516,2.27575352 L8.38911654,2.27086363 L8.38970118,2.26939667 L8.39018839,2.26900548 L8.39067559,2.26744071 L8.39067559,2.26695172 L8.38726516,2.27624251 Z"/>
    <path id="germs_logo-i" d="M0.480176176,0.208873756 L0.482202948,0.203806055 L0.480176176,0.208873756 Z"/>
    <path id="germs_logo-k" d="M0.14719435,3.34700557 C0.310011738,3.01380421 0.85006215,1.90830628 0.837985964,1.90239396 C0.839083799,1.90292185 1.58442937,0.254863146 1.6814611,0.0394858395 L1.51467462,0.416396125 C1.2913074,0.912714124 1.06794019,1.40977116 0.845924156,1.90608916 C0.611663039,2.40462428 0.379597592,2.88056589 0.14719435,3.34700557 Z"/>
    <polygon id="germs_logo-m" points=".165 .751 .193 .699 .147 .787"/>
    <path id="germs_logo-o" d="M0.480176176,0.729664529 L0.490310038,0.707282181 L0.480176176,0.729664529 Z"/>
    <path id="germs_logo-q" d="M0.183760703,0.610911394 L0.141536277,0.669358883 C0.0999874415,0.760070737 0.625512651,-0.427376145 0.352996204,0.252455988 C0.352996204,0.252455988 0.268547351,0.460485127 0.227505209,0.564204081 C0.227505209,0.555504527 0.227505209,0.559136379 0.183760703,0.610911394 Z"/>
    <path id="germs_logo-s" d="M19.3636434,8.66704501 L19.3367464,8.71803466 L19.3524117,8.69971025 L19.3534954,8.69781806 L19.3524117,8.69971025 C19.3524117,8.69941149 19.0363478,9.37303253 18.8475764,9.75057502 C18.3361401,10.7420847 17.8209599,11.6874845 17.2796709,12.7110618 C17.5380984,12.5394697 19.3861067,8.75966293 19.5693608,8.36678371 L20.1869071,6.97482608 C20.0884819,7.20547457 19.6504457,8.40532471 19.6504457,8.40532471 C16.6586762,15.9275924 11.8132826,22.0925595 8.87629222,29.3614723 C8.09844792,31.4979585 7.82139938,33.1704587 7.98278114,35.4428841 C8.19145425,37.5594524 8.68170799,39.111151 9.59117991,41.0158932 C11.2060812,44.0704918 13.0521191,46.3687107 15.5706794,48.6752952 C16.4314807,49.4503975 17.2996712,50.1923368 18.1950542,50.9259105 C21.6740232,53.7340259 25.0737792,56.01402 28.6774792,58.5819264 C29.9845926,59.4426755 31.4366343,60.348638 32.6387215,61.3504053 C36.0690198,63.585186 36.4040002,66.0403574 31.3536774,66.2844504 C29.2984738,66.4339337 27.4173615,65.9676573 25.4688591,65.3464202 C20.3703581,63.8000994 16.2833011,61.1612855 12.1780172,57.7671875 C7.56277477,53.7220752 4.4878513,49.8933701 2.12909632,44.1218798 C1.13775124,41.4122581 0.681586689,39.2209979 0.609861464,36.3219576 C0.601092858,36.3224555 0.617743357,35.4963635 0.617743357,35.4963635 C0.777253164,32.084439 1.44002183,29.602976 2.92812322,26.5426013 C6.85803502,19.5340145 12.0873754,13.8951769 15.9744294,6.67675574 C15.9827054,6.68183479 18.839399,0.962728365 19.0939841,0.450840106 C19.0939841,0.450840106 16.0145285,6.69567768 16.0036909,6.69020028 C15.6078229,7.44458813 11.7152515,14.0624867 11.7084534,14.1080985 C12.6262013,13.3448472 14.8219981,10.055517 15.494028,9.07008232 C14.1069134,11.3097428 12.3141769,13.7945919 11.0495271,15.9780841 C11.9709204,15.4948775 16.2612318,8.25633933 16.8792707,7.10200143 C17.6082473,5.62887865 18.3244158,4.15436161 19.0178253,2.66540415 L16.9503063,7.13566257 C16.0719678,8.97407838 15.0599328,10.5847338 14.2147968,12.3042401 C14.7406176,11.8126681 16.8147377,7.88307918 17.1533635,7.23067062 C17.1558266,7.23226405 19.0363478,3.31532298 19.2057099,2.96397244 C19.1211766,3.14213744 17.1802605,7.24361721 17.1650879,7.23664597 C17.3333663,7.31970333 11.0641086,17.8777472 10.5715889,18.7796266 C13.1905448,15.90877 15.1142193,13.0864134 17.0090264,9.68882974 C16.1652697,12.6354737 18.1234275,9.14079062 18.748166,7.98067655 C18.7857036,8.00288493 20.9949981,3.37418017 21.1750009,2.98867055 C21.1745082,2.9891685 21.2111591,2.93628666 21.2335239,2.91686677 C20.4333147,4.61814831 19.6357657,6.32032615 18.8438325,8.02608921 C18.3013612,9.1483594 16.4875406,12.2478727 16.1905903,13.0488683 C17.1547429,11.7657616 18.2853019,9.52201791 19.0119139,8.10426669 C19.0124065,8.10536217 20.0414861,5.96558958 20.1382364,5.76511661 C20.0933096,5.86112056 19.0300422,8.11322972 19.0374315,8.11671534 C18.9369374,8.33142956 17.8092355,10.5688991 19.312017,8.74880771 C19.4042351,8.55670023 19.5089658,8.33850039 19.5066012,8.33710614 C19.9630613,7.35744762 20.4157775,6.37290923 19.5193107,8.34338026 L19.3534954,8.69781806 C19.3572393,8.68785914 19.3611803,8.67809941 19.3636434,8.66704501 Z"/>
    <path id="germs_logo-u" d="M90.9769942,12.365581 C79.4475871,9.55875671 58.9012532,7.37272578 46.2573479,5.4390079 C33.0445996,3.418262 13.070957,0.0580836536 0,0.800501897 C27.1056416,-1.46973084 65.2936083,9.43128453 91.3856929,7.50204962 C92.7402596,7.61383141 93.7464161,8.79343635 93.6335356,10.1364747 C93.5208524,11.4793181 92.3313636,12.4775578 90.9769942,12.365581 Z"/>
    <path id="germs_logo-w" d="M1.63718507,16.5010285 L0.0673901844,16.5010285 L0.0673901844,0.924057598 L9.37714595,0.924057598 L9.37714595,2.33214537 L1.63718507,2.33214537 L1.63718507,7.74448273 L8.83207828,7.74448273 L8.83207828,9.13056912 L1.63718507,9.13056912 L1.63718507,16.5010285 Z M14.8813384,16.5010285 L13.3115435,16.5010285 L13.3115435,0.924057598 L14.8813384,0.924057598 L14.8813384,16.5010285 Z M30.9162381,14.1908845 L30.9598435,14.1908845 L30.9598435,0.924057598 L32.5296384,0.924057598 L32.5296384,16.5010285 L30.5673948,16.5010285 L21.5846796,3.10219336 L21.5410742,3.10219336 L21.5410742,16.5010285 L19.9712793,16.5010285 L19.9712793,0.924057598 L21.9335229,0.924057598 L30.9162381,14.1908845 Z M39.1893743,15.0929408 L47.4526001,15.0929408 L47.4526001,16.5010285 L37.6195794,16.5010285 L37.6195794,0.924057598 L47.1909676,0.924057598 L47.1909676,2.33214537 L39.1893743,2.33214537 L39.1893743,7.70047998 L46.6677027,7.70047998 L46.6677027,9.08656638 L39.1893743,9.08656638 L39.1893743,15.0929408 Z M57.4580604,16.5010285 L55.7356466,16.5010285 L62.4072748,0.924057598 L63.9334643,0.924057598 L70.5614872,16.5010285 L68.8172706,16.5010285 L67.1166595,12.4087735 L59.1368688,12.4087735 L57.4580604,16.5010285 Z M59.7255419,10.9566829 L66.5279864,10.9566829 L63.1267642,2.68416731 L59.7255419,10.9566829 Z M75.3897957,16.5010285 L73.8200008,16.5010285 L73.8200008,0.924057598 L78.3549638,0.924057598 C79.110824,0.924057598 79.8120783,0.997362167 80.458925,1.14407131 C81.1057716,1.29078046 81.6653084,1.52909531 82.1377334,1.85911588 C82.6101584,2.18913645 82.9771376,2.61816319 83.2387701,3.14619611 C83.5004026,3.67422902 83.6312188,4.31956925 83.6312188,5.08231679 C83.6312188,5.65435244 83.5294398,6.1750849 83.3259809,6.64441416 C83.122522,7.11374341 82.8463214,7.52076878 82.497478,7.86549027 C82.1486347,8.21021176 81.7343833,8.4852289 81.2547238,8.69054169 C80.7750642,8.89585449 80.2517993,9.02786272 79.6849289,9.08656638 L84.1980892,16.5010285 L82.279451,16.5010285 L78.0061205,9.21857461 L75.3897957,9.21857461 L75.3897957,16.5010285 Z M75.3897957,7.85448958 L78.115134,7.85448958 C79.379691,7.85448958 80.3535783,7.62347518 81.0366967,7.16144638 C81.7198151,6.69941758 82.0614239,6.00637439 82.0614239,5.08231679 C82.0614239,4.56898479 81.9669785,4.13625782 81.7779887,3.78423588 C81.5889989,3.43221394 81.3273664,3.14619611 80.9930913,2.92618239 C80.6588161,2.70616868 80.2517993,2.54485862 79.7721397,2.44215222 C79.2924802,2.33944582 78.7619807,2.28814262 78.1805421,2.28814262 L75.3897957,2.28814262 L75.3897957,7.85448958 Z M92.5584362,16.5010285 L90.9886413,16.5010285 L90.9886413,2.33214537 L85.8213998,2.33214537 L85.8213998,0.924057598 L97.7256776,0.924057598 L97.7256776,2.33214537 L92.5584362,2.33214537 L92.5584362,16.5010285 Z M116.430418,12.8928036 L119.897048,16.5010285 L117.716778,16.5010285 L115.536507,14.1908845 C114.897291,15.0709394 114.206542,15.7199799 113.46525,16.1380059 C112.723958,16.556032 111.830047,16.765045 110.783517,16.765045 C110.129436,16.765045 109.508059,16.6697391 108.919385,16.4790272 C108.330712,16.2883153 107.818349,16.0132981 107.382295,15.6539757 C106.946241,15.2946533 106.601361,14.8472255 106.346666,14.3118921 C106.091971,13.7765587 105.965119,13.1568201 105.965119,12.4527762 C105.965119,11.8660396 106.056294,11.3380067 106.237653,10.8686775 C106.419011,10.3993482 106.669743,9.97762192 106.989846,9.60359861 C107.309949,9.22957529 107.687533,8.89585449 108.123587,8.60253621 C108.559641,8.30921793 109.032363,8.05250192 109.540763,7.83248821 C109.30787,7.59777358 109.078942,7.34115759 108.853977,7.06244021 C108.629013,6.78372284 108.428825,6.49410479 108.254403,6.19338604 C108.079981,5.8926673 107.938264,5.57364741 107.82925,5.23632639 C107.720237,4.89900536 107.66573,4.55428388 107.66573,4.20226193 C107.66573,3.61552536 107.767806,3.09489291 107.970968,2.64016457 C108.174129,2.18543622 108.450627,1.80041222 108.799471,1.48509257 C109.148314,1.16977291 109.555628,0.931358053 110.020422,0.770047998 C110.485216,0.608737944 110.979741,0.528032913 111.503006,0.528032913 C112.011406,0.528032913 112.491065,0.605037713 112.941985,0.759047313 C113.392904,0.913056912 113.788326,1.14037108 114.130232,1.44108983 C114.472138,1.74180857 114.740708,2.10843142 114.936933,2.54115839 C115.133157,2.97388537 115.231269,3.46891622 115.231269,4.02625096 C115.231269,4.53958296 115.133157,5.00161176 114.936933,5.41233736 C114.740708,5.82306296 114.479076,6.19338604 114.152035,6.52340661 C113.824994,6.85342718 113.454348,7.14674547 113.040097,7.40346147 C112.625846,7.66017747 112.200693,7.89849233 111.764639,8.11850604 L115.362085,11.8587392 L117.498751,8.0745033 L119.26477,8.0745033 L116.430418,12.8928036 Z M113.70508,4.02625096 C113.70508,3.38091074 113.497954,2.85287782 113.083702,2.44215222 C112.669451,2.03142662 112.15015,1.82611382 111.524809,1.82611382 C110.841988,1.82611382 110.282055,2.04242731 109.846001,2.47515428 C109.409946,2.90788125 109.191919,3.49091759 109.191919,4.2242633 C109.191919,4.50298068 109.25039,4.79259873 109.366341,5.09331747 C109.482292,5.39403622 109.627973,5.67635382 109.802395,5.94037027 C109.976817,6.20438673 110.16214,6.44640181 110.358364,6.66641553 C110.554588,6.88642924 110.725046,7.05513976 110.870728,7.17244707 C111.219571,7.01113701 111.561477,6.83142581 111.895455,6.63341347 C112.229433,6.43540113 112.531698,6.21168718 112.800267,5.96237164 C113.068837,5.7130561 113.286864,5.42703828 113.454348,5.10431816 C113.621833,4.78159804 113.70508,4.42227565 113.70508,4.02625096 Z M110.412871,8.84455129 C109.482292,9.26987781 108.777668,9.77230912 108.298008,10.3516452 C107.818349,10.9309813 107.578519,11.6387255 107.578519,12.4747776 C107.578519,12.914805 107.661766,13.3181301 107.82925,13.684853 C107.996735,14.0515759 108.228636,14.3631953 108.526937,14.6199113 C108.825237,14.8766273 109.170117,15.0782398 109.562565,15.224949 C109.955014,15.3716581 110.369265,15.4449627 110.80532,15.4449627 C111.648688,15.4449627 112.349348,15.2542508 112.909281,14.8729271 C113.469214,14.4916033 113.995452,13.9195676 114.489977,13.1568201 L110.412871,8.84455129 Z M0.0673901844,28.4257718 L5.19102626,28.4257718 C6.15034536,28.4257718 7.11333127,28.5870819 8.0798849,28.909802 C9.04643853,29.2325221 9.9185468,29.7201525 10.6962097,30.3728932 C11.4738726,31.0256339 12.1024843,31.8396846 12.5821438,32.8150454 C13.0618034,33.7904062 13.3016332,34.9234768 13.3016332,36.2142573 C13.3016332,37.5196387 13.0618034,38.6564095 12.5821438,39.6244699 C12.1024843,40.5925302 11.4738726,41.4028807 10.6962097,42.0556214 C9.9185468,42.7083621 9.04643853,43.1959925 8.0798849,43.5187126 C7.11333127,43.8414327 6.15034536,44.0027428 5.19102626,44.0027428 L0.0673901844,44.0027428 L0.0673901844,28.4257718 Z M1.63718507,42.594655 L4.75497213,42.594655 C5.91775012,42.594655 6.93157598,42.4113436 7.79644971,42.0446207 C8.66132345,41.6778978 9.37714595,41.1975679 9.94401632,40.6035309 C10.5108867,40.0094939 10.9360395,39.3311516 11.2194747,38.568404 C11.5029099,37.8056565 11.6446274,37.0210076 11.6446274,36.2142573 C11.6446274,35.407507 11.5029099,34.6228581 11.2194747,33.8601106 C10.9360395,33.097363 10.5108867,32.4190207 9.94401632,31.8249837 C9.37714595,31.2309467 8.66132345,30.7506167 7.79644971,30.3838939 C6.93157598,30.017171 5.91775012,29.8338596 4.75497213,29.8338596 L1.63718507,29.8338596 L1.63718507,42.594655 Z M19.1328662,42.594655 L27.396092,42.594655 L27.396092,44.0027428 L17.5630713,44.0027428 L17.5630713,28.4257718 L27.1344595,28.4257718 L27.1344595,29.8338596 L19.1328662,29.8338596 L19.1328662,35.2021942 L26.6111946,35.2021942 L26.6111946,36.5882806 L19.1328662,36.5882806 L19.1328662,42.594655 Z M38.9396342,30.9339282 C38.605359,30.4645989 38.1765394,30.0868754 37.6532745,29.8008575 C37.1300095,29.5148397 36.497731,29.3718308 35.756439,29.3718308 C35.3785584,29.3718308 34.9933443,29.4305345 34.6008955,29.5478418 C34.2084468,29.6651491 33.852369,29.8448603 33.5325629,30.0868754 C33.2127568,30.3288904 32.9547912,30.6332094 32.7585668,30.9999323 C32.5623425,31.3666551 32.4642303,31.7992821 32.4642303,32.2980132 C32.4642303,32.7967443 32.5586756,33.2073699 32.7476655,33.53009 C32.9366553,33.8528101 33.1873864,34.1278272 33.4998589,34.3551414 C33.8123313,34.5824556 34.1685082,34.7694672 34.5681915,34.9161764 C34.9678747,35.0628855 35.385793,35.2094947 35.8218471,35.3562038 C36.3596802,35.5322148 36.9010811,35.7229267 37.4461488,35.9282395 C37.9912164,36.1335523 38.4817773,36.4012689 38.9178315,36.7312895 C39.3538856,37.0613101 39.7099634,37.4793361 39.9861641,37.9853677 C40.2623647,38.4913992 40.4004155,39.1331392 40.4004155,39.9104877 C40.4004155,40.6878361 40.2514634,41.358878 39.95346,41.9236132 C39.6554567,42.4883484 39.2703416,42.9539774 38.7979166,43.3207002 C38.3254916,43.6874231 37.7877575,43.95874 37.1845163,44.134751 C36.581275,44.310762 35.9744661,44.3987674 35.3639903,44.3987674 C34.8988989,44.3987674 34.4337084,44.3510645 33.968617,44.2557585 C33.5035257,44.1604526 33.0601379,44.0174437 32.6386519,43.8267318 C32.217166,43.6360199 31.8247173,43.3940048 31.4613058,43.1006865 C31.0978943,42.8073682 30.7781873,42.4699472 30.5019867,42.0886234 L31.8537545,41.0765604 C32.1880296,41.6338951 32.6567878,42.0996241 33.2600291,42.4736474 C33.8632703,42.8476708 34.5718583,43.0346824 35.385793,43.0346824 C35.7782417,43.0346824 36.177925,42.9723785 36.5849419,42.8476708 C36.9919587,42.722963 37.3589379,42.5323511 37.6859785,42.2756351 C38.0130191,42.0189191 38.2818862,41.7035994 38.4926787,41.3295761 C38.7034712,40.9555528 38.8088179,40.5192256 38.8088179,40.0204945 C38.8088179,39.4777607 38.7034712,39.0267326 38.4926787,38.6674102 C38.2818862,38.3080878 38.0021178,38.0073691 37.6532745,37.765354 C37.3044312,37.5233389 36.9047479,37.3216263 36.4541256,37.1603163 C36.0035033,36.9990062 35.5311774,36.8375961 35.0369497,36.6762861 C34.5282529,36.514976 34.0267906,36.3315646 33.5325629,36.1262518 C33.0383352,35.920939 32.5950465,35.6532223 32.2025978,35.3232017 C31.8101491,34.9931812 31.4940098,34.5861558 31.2541801,34.1021256 C31.0143503,33.6180955 30.8944354,33.0240584 30.8944354,32.3200146 C30.8944354,31.5719679 31.0433875,30.9266277 31.3413909,30.3838939 C31.6393942,29.84116 32.0281761,29.3938322 32.5078357,29.0418102 C32.9874952,28.6897883 33.5179947,28.4330723 34.0994333,28.2717622 C34.6808718,28.1104522 35.2549767,28.0297471 35.8218471,28.0297471 C36.868377,28.0297471 37.762288,28.2167588 38.50358,28.5907821 C39.2448721,28.9648054 39.8045079,29.4085331 40.1823885,29.9218651 L38.9396342,30.9339282 Z M46.3188594,44.0027428 L44.7490645,44.0027428 L44.7490645,28.4257718 L46.3188594,28.4257718 L46.3188594,44.0027428 Z M63.1168538,31.219946 C62.5790207,30.6479103 61.9395077,30.2041827 61.1982157,29.888863 C60.4569236,29.5735434 59.6066181,29.4158335 58.647299,29.4158335 C57.6589426,29.4158335 56.7685994,29.599145 55.9764674,29.9658678 C55.1843354,30.3325907 54.5120192,30.8276215 53.959717,31.4509604 C53.4074148,32.0742992 52.982262,32.7967443 52.6842587,33.6180955 C52.3862553,34.4394467 52.2373032,35.3049006 52.2373032,36.2142573 C52.2373032,37.123614 52.3862553,37.9890679 52.6842587,38.8104191 C52.982262,39.6317703 53.4074148,40.3505151 53.959717,40.9665535 C54.5120192,41.5825919 55.1843354,42.0739225 55.9764674,42.4406454 C56.7685994,42.8073682 57.6589426,42.9906797 58.647299,42.9906797 C59.5194072,42.9906797 60.3188729,42.8953737 61.0455967,42.7046618 C61.7723206,42.51395 62.3609936,42.2719349 62.811616,41.9786166 L62.811616,37.2483217 L59.2141693,37.2483217 L59.2141693,35.8622353 L64.3814108,35.8622353 L64.3814108,42.8806728 C63.5383398,43.3940048 62.6299598,43.7754286 61.6560725,44.0247441 C60.6821852,44.2740597 59.6720262,44.3987674 58.6254963,44.3987674 C57.4627183,44.3987674 56.387052,44.1934546 55.3986957,43.782729 C54.4103393,43.3720034 53.5600338,42.803668 52.847779,42.0776228 C52.1355242,41.3515775 51.5795552,40.4898238 51.1798719,39.4924616 C50.7801887,38.4950995 50.5802975,37.4023313 50.5802975,36.2142573 C50.5802975,35.0261832 50.7837564,33.9334151 51.1907733,32.936053 C51.5977902,31.9386908 52.1609937,31.0769371 52.880483,30.3508918 C53.5999724,29.6248466 54.4502779,29.0565111 55.4313997,28.6457855 C56.4125215,28.2350599 57.4771873,28.0297471 58.6254963,28.0297471 C59.861016,28.0297471 60.9365832,28.2130586 61.8522969,28.5797814 C62.7680105,28.9465043 63.552908,29.4598363 64.2069892,30.1198774 L63.1168538,31.219946 Z M80.3290998,41.6925988 L80.3727052,41.6925988 L80.3727052,28.4257718 L81.9425001,28.4257718 L81.9425001,44.0027428 L79.9802565,44.0027428 L70.9975413,30.6039076 L70.9539359,30.6039076 L70.9539359,44.0027428 L69.384141,44.0027428 L69.384141,28.4257718 L71.3463846,28.4257718 L80.3290998,41.6925988 Z M100.952478,30.9339282 C100.6185,30.4645989 100.189384,30.0868754 99.6661185,29.8008575 C99.1428536,29.5148397 98.5105751,29.3718308 97.7692831,29.3718308 C97.3916998,29.3718308 97.0061883,29.4305345 96.6137396,29.5478418 C96.2212909,29.6651491 95.8655104,29.8448603 95.545407,30.0868754 C95.2253036,30.3288904 94.9676352,30.6332094 94.7714109,30.9999323 C94.5751865,31.3666551 94.4770743,31.7992821 94.4770743,32.2980132 C94.4770743,32.7967443 94.5712224,33.2073699 94.7605095,33.53009 C94.9497967,33.8528101 95.2005278,34.1278272 95.5127029,34.3551414 C95.824878,34.5824556 96.1816496,34.7694672 96.5810355,34.9161764 C96.9804215,35.0628855 97.398637,35.2094947 97.8346912,35.3562038 C98.3728216,35.5322148 98.9139252,35.7229267 99.4589928,35.9282395 C100.00406,36.1335523 100.494621,36.4012689 100.930676,36.7312895 C101.36673,37.0613101 101.72251,37.4793361 101.999008,37.9853677 C102.275506,38.4913992 102.41326,39.1331392 102.41326,39.9104877 C102.41326,40.6878361 102.264605,41.358878 101.966304,41.9236132 C101.668003,42.4883484 101.283483,42.9539774 100.810761,43.3207002 C100.338038,43.6874231 99.8008989,43.95874 99.1973603,44.134751 C98.5938218,44.310762 97.9873101,44.3987674 97.3768343,44.3987674 C96.9120403,44.3987674 96.4462552,44.3510645 95.9814611,44.2557585 C95.516667,44.1604526 95.0726847,44.0174437 94.651496,43.8267318 C94.2303073,43.6360199 93.8378586,43.3940048 93.4741498,43.1006865 C93.110441,42.8073682 92.7913287,42.4699472 92.5148307,42.0886234 L93.8665986,41.0765604 C94.2005764,41.6338951 94.6693346,42.0996241 95.2728731,42.4736474 C95.8764117,42.8476708 96.5849997,43.0346824 97.398637,43.0346824 C97.7910858,43.0346824 98.1904717,42.9723785 98.5977859,42.8476708 C99.0051001,42.722963 99.371782,42.5323511 99.6988226,42.2756351 C100.025863,42.0189191 100.294433,41.7035994 100.505523,41.3295761 C100.716613,40.9555528 100.821662,40.5192256 100.821662,40.0204945 C100.821662,39.4777607 100.716613,39.0267326 100.505523,38.6674102 C100.294433,38.3080878 100.014962,38.0073691 99.6661185,37.765354 C99.3172752,37.5233389 98.9178893,37.3216263 98.4669697,37.1603163 C98.0160501,36.9990062 97.5443188,36.8375961 97.0497937,36.6762861 C96.5413943,36.514976 96.039932,36.3315646 95.545407,36.1262518 C95.0508819,35.920939 94.6078906,35.6532223 94.2154419,35.3232017 C93.8229931,34.9931812 93.5068539,34.5861558 93.2670241,34.1021256 C93.0271944,33.6180955 92.9072795,33.0240584 92.9072795,32.3200146 C92.9072795,31.5719679 93.0559343,30.9266277 93.354235,30.3838939 C93.6525356,29.84116 94.0410202,29.3938322 94.5206798,29.0418102 C95.0003393,28.6897883 95.5305415,28.4330723 96.1122773,28.2717622 C96.6940132,28.1104522 97.2678208,28.0297471 97.8346912,28.0297471 C98.8812211,28.0297471 99.7751321,28.2167588 100.516424,28.5907821 C101.257716,28.9648054 101.817649,29.4085331 102.195233,29.9218651 L100.952478,30.9339282 Z M111.318674,44.0027428 L109.748879,44.0027428 L109.748879,29.8338596 L104.581638,29.8338596 L104.581638,28.4257718 L116.485916,28.4257718 L116.485916,29.8338596 L111.318674,29.8338596 L111.318674,44.0027428 Z M125.478541,44.3987674 C124.316061,44.3987674 123.363679,44.1970549 122.622387,43.7937297 C121.881095,43.3904046 121.292422,42.8806728 120.856367,42.2646344 C120.420313,41.648596 120.119039,40.9775542 119.951555,40.2515089 C119.784071,39.5254637 119.700824,38.8397209 119.700824,38.1943807 L119.700824,28.4257718 L121.270619,28.4257718 L121.270619,38.0183697 C121.270619,38.6491091 121.342964,39.2614472 121.488646,39.8554843 C121.634328,40.4495213 121.870193,40.9775542 122.197234,41.439583 C122.524274,41.9016118 122.956364,42.2756351 123.494495,42.5616529 C124.032625,42.8476708 124.693644,42.9906797 125.478541,42.9906797 C126.263439,42.9906797 126.924457,42.8476708 127.462588,42.5616529 C128.000718,42.2756351 128.432808,41.9016118 128.759849,41.439583 C129.086889,40.9775542 129.322755,40.4495213 129.468437,39.8554843 C129.614118,39.2614472 129.686464,38.6491091 129.686464,38.0183697 L129.686464,28.4257718 L131.256258,28.4257718 L131.256258,38.1943807 C131.256258,38.8397209 131.173012,39.5254637 131.005527,40.2515089 C130.838043,40.9775542 130.536769,41.648596 130.100715,42.2646344 C129.664661,42.8806728 129.072024,43.3904046 128.323794,43.7937297 C127.575565,44.1970549 126.627147,44.3987674 125.478541,44.3987674 Z M136.258989,28.4257718 L141.382625,28.4257718 C142.341944,28.4257718 143.305227,28.5870819 144.271483,28.909802 C145.23774,29.2325221 146.109848,29.7201525 146.887808,30.3728932 C147.665768,31.0256339 148.294083,31.8396846 148.773742,32.8150454 C149.253402,33.7904062 149.493232,34.9234768 149.493232,36.2142573 C149.493232,37.5196387 149.253402,38.6564095 148.773742,39.6244699 C148.294083,40.5925302 147.665768,41.4028807 146.887808,42.0556214 C146.109848,42.7083621 145.23774,43.1959925 144.271483,43.5187126 C143.305227,43.8414327 142.341944,44.0027428 141.382625,44.0027428 L136.258989,44.0027428 L136.258989,28.4257718 Z M137.828784,42.594655 L140.946571,42.594655 C142.109051,42.594655 143.122877,42.4113436 143.988048,42.0446207 C144.853219,41.6778978 145.568744,41.1975679 146.135615,40.6035309 C146.702485,40.0094939 147.127638,39.3311516 147.411073,38.568404 C147.694508,37.8056565 147.836226,37.0210076 147.836226,36.2142573 C147.836226,35.407507 147.694508,34.6228581 147.411073,33.8601106 C147.127638,33.097363 146.702485,32.4190207 146.135615,31.8249837 C145.568744,31.2309467 144.853219,30.7506167 143.988048,30.3838939 C143.122877,30.017171 142.109051,29.8338596 140.946571,29.8338596 L137.828784,29.8338596 L137.828784,42.594655 Z M155.324465,44.0027428 L153.75467,44.0027428 L153.75467,28.4257718 L155.324465,28.4257718 L155.324465,44.0027428 Z M175.6763,36.2142573 C175.6763,37.4023313 175.473139,38.4950995 175.065825,39.4924616 C174.65851,40.4898238 174.095604,41.3515775 173.376115,42.0776228 C172.656625,42.803668 171.80632,43.3720034 170.825198,43.782729 C169.844076,44.1934546 168.779708,44.3987674 167.631102,44.3987674 C166.482495,44.3987674 165.418127,44.1934546 164.437005,43.782729 C163.455883,43.3720034 162.605578,42.803668 161.886088,42.0776228 C161.166599,41.3515775 160.603693,40.4898238 160.196379,39.4924616 C159.789064,38.4950995 159.585903,37.4023313 159.585903,36.2142573 C159.585903,35.0261832 159.789064,33.9334151 160.196379,32.936053 C160.603693,31.9386908 161.166599,31.0769371 161.886088,30.3508918 C162.605578,29.6248466 163.455883,29.0565111 164.437005,28.6457855 C165.418127,28.2350599 166.482495,28.0297471 167.631102,28.0297471 C168.779708,28.0297471 169.844076,28.2350599 170.825198,28.6457855 C171.80632,29.0565111 172.656625,29.6248466 173.376115,30.3508918 C174.095604,31.0769371 174.65851,31.9386908 175.065825,32.936053 C175.473139,33.9334151 175.6763,35.0261832 175.6763,36.2142573 Z M174.019295,36.2142573 C174.019295,35.3049006 173.873613,34.4394467 173.58324,33.6180955 C173.292868,32.7967443 172.870688,32.0742992 172.318683,31.4509604 C171.766679,30.8276215 171.093768,30.3325907 170.301933,29.9658678 C169.510098,29.599145 168.619161,29.4158335 167.631102,29.4158335 C166.643043,29.4158335 165.752105,29.599145 164.96027,29.9658678 C164.168435,30.3325907 163.495524,30.8276215 162.94352,31.4509604 C162.391515,32.0742992 161.969335,32.7967443 161.678963,33.6180955 C161.38859,34.4394467 161.242908,35.3049006 161.242908,36.2142573 C161.242908,37.123614 161.38859,37.9890679 161.678963,38.8104191 C161.969335,39.6317703 162.391515,40.3505151 162.94352,40.9665535 C163.495524,41.5825919 164.168435,42.0739225 164.96027,42.4406454 C165.752105,42.8073682 166.643043,42.9906797 167.631102,42.9906797 C168.619161,42.9906797 169.510098,42.8073682 170.301933,42.4406454 C171.093768,42.0739225 171.766679,41.5825919 172.318683,40.9665535 C172.870688,40.3505151 173.292868,39.6317703 173.58324,38.8104191 C173.873613,37.9890679 174.019295,37.123614 174.019295,36.2142573 Z"/>
    <polygon id="germs_logo-y" points="0 0 4.256 0 4.256 56.845 0 56.845"/>
  </defs>
  <g fill="none" fill-rule="evenodd" transform="translate(15 20)">
    <g transform="translate(224.634 68.414)">
      <mask id="germs_logo-b" fill="#fff">
        <use xlink:href="#germs_logo-a"/>
      </mask>
      <polygon fill="#000" points="-4.86 62.441 280.553 62.441 280.553 -4.795 -4.86 -4.795" mask="url(#germs_logo-b)"/>
    </g>
    <g transform="translate(120.762)">
      <mask id="germs_logo-d" fill="#fff">
        <use xlink:href="#germs_logo-c"/>
      </mask>
      <polygon fill="#F83232" points="-4.861 116.826 106.588 116.826 106.588 -4.956 -4.861 -4.956" mask="url(#germs_logo-d)"/>
    </g>
    <g transform="translate(120.762 130.071)">
      <mask id="germs_logo-f" fill="#fff">
        <use xlink:href="#germs_logo-e"/>
      </mask>
      <polygon fill="#F83232" points="-4.843 73.497 182.651 73.497 182.651 -4.937 -4.843 -4.937" mask="url(#germs_logo-f)"/>
    </g>
    <g transform="translate(102.183 60.812)">
      <mask id="germs_logo-h" fill="#fff">
        <use xlink:href="#germs_logo-g"/>
      </mask>
      <polygon fill="#F83232" points="-4.788 23.247 15.931 23.247 15.931 -4.447 -4.788 -4.447" mask="url(#germs_logo-h)"/>
    </g>
    <g transform="translate(95.427 65.88)">
      <mask id="germs_logo-j" fill="#fff">
        <use xlink:href="#germs_logo-i"/>
      </mask>
      <polygon fill="#C10000" points="-3.742 4.432 4.705 4.432 4.705 -4.019 -3.742 -4.019" mask="url(#germs_logo-j)"/>
    </g>
    <g transform="translate(92.894 67.57)">
      <mask id="germs_logo-l" fill="#fff">
        <use xlink:href="#germs_logo-k"/>
      </mask>
      <polygon fill="#C10000" points="-4.075 8.626 5.904 8.626 5.904 -5.239 -4.075 -5.239" mask="url(#germs_logo-l)"/>
    </g>
    <g transform="translate(92.894 70.103)">
      <mask id="germs_logo-n" fill="#fff">
        <use xlink:href="#germs_logo-m"/>
      </mask>
      <polygon fill="#C10000" points="-4.075 5.01 4.415 5.01 4.415 -3.524 -4.075 -3.524" mask="url(#germs_logo-n)"/>
    </g>
    <g transform="translate(95.427 66.725)">
      <mask id="germs_logo-p" fill="#fff">
        <use xlink:href="#germs_logo-o"/>
      </mask>
      <polygon fill="#C10000" points="-3.742 4.953 4.713 4.953 4.713 -3.516 -3.742 -3.516" mask="url(#germs_logo-p)"/>
    </g>
    <g transform="translate(97.116 62.502)">
      <mask id="germs_logo-r" fill="#fff">
        <use xlink:href="#germs_logo-q"/>
      </mask>
      <polygon fill="#C10000" points="-4.083 4.897 4.654 4.897 4.654 -4.182 -4.083 -4.182" mask="url(#germs_logo-r)"/>
    </g>
    <g transform="translate(75.16 60.812)">
      <mask id="germs_logo-t" fill="#fff">
        <use xlink:href="#germs_logo-s"/>
      </mask>
      <polygon fill="#F83232" points="-4.319 71.292 40.113 71.292 40.113 -4.529 -4.319 -4.529" mask="url(#germs_logo-t)"/>
    </g>
    <g transform="translate(0 40.542)">
      <mask id="germs_logo-v" fill="#fff">
        <use xlink:href="#germs_logo-u"/>
      </mask>
      <polygon fill="#F83232" points="-4.934 17.247 98.576 17.247 98.576 -4.385 -4.934 -4.385" mask="url(#germs_logo-v)"/>
    </g>
    <g transform="translate(553.984 73.482)">
      <mask id="germs_logo-x" fill="#fff">
        <use xlink:href="#germs_logo-w"/>
      </mask>
      <polygon fill="#000" points="-4.888 49.399 180.631 49.399 180.631 -4.472 -4.888 -4.472" mask="url(#germs_logo-x)"/>
    </g>
    <g transform="translate(540.473 68.414)">
      <mask id="germs_logo-z" fill="#fff">
        <use xlink:href="#germs_logo-y"/>
      </mask>
      <polygon fill="#6D7278" points="-5.32 61.789 9.576 61.789 9.576 -4.943 -5.32 -4.943" mask="url(#germs_logo-z)"/>
    </g>
  </g>
</svg>
