<svg xmlns="http://www.w3.org/2000/svg" width="52" height="52" viewBox="0 0 52 52">
  <path d="M22.6230701,7.48831418 C22.1786411,5.94965517 21.4638777,4.65314176 20.4385579,3.52586207 C19.4353377,2.42375479 18.2819984,1.58842912 16.912354,0.972030651 C15.9260179,0.528812261 14.3321517,0 12.3393312,0 C12.1658369,0 11.9897912,0.00398467433 11.8143458,0.012605364 C11.2145824,0.0404980843 10.5778238,0.0756321839 9.96901794,0.165210728 C8.26795595,0.414022989 6.77089233,0.933563218 5.39276835,1.75298851 C3.63062316,2.80065134 2.25572594,4.22521073 1.30642251,5.98747126 C0.811941272,6.90444444 0.325939641,8.52007663 0.119952692,9.57505747 C-0.125017945,10.8244444 0.0913621533,12.9894636 0.582579119,14.2083142 C1.18943393,15.7131418 1.71768352,16.4177778 2.936646,17.3480077 C2.94445024,17.3533333 3.68840457,17.9172414 4.24655791,17.9172414 L4.24719576,17.9172414 C5.21923654,17.8986973 5.40897716,16.9631418 5.49928874,16.5139847 C5.51553507,16.4336782 5.53110604,16.3540613 5.55061664,16.2804215 C5.56750082,16.2140613 5.58896248,16.1430268 5.61106199,16.0700766 C5.74362153,15.6295402 5.92552039,15.0263985 5.61819086,14.4803065 C5.50514192,14.2785824 5.37258238,14.1246743 5.25495595,13.988659 C5.19454812,13.9183142 5.13410277,13.8506513 5.08536378,13.7763218 C4.65845677,13.124751 4.44143883,12.3093103 4.44143883,11.3512261 C4.44143883,10.087931 4.72017781,8.94402299 5.29457749,7.85390805 C6.3341925,5.878659 8.06253181,4.63126437 10.2899299,4.24708812 C11.5381207,4.03279693 13.0664013,4.12965517 14.1482268,4.48463602 C15.1573377,4.81574713 16.016292,5.40226054 16.6329396,6.18187739 C17.2853067,7.00528736 17.6582219,8.05229885 17.7414046,9.29371648 C17.7823393,9.90417625 17.7589641,10.5815709 17.6667015,11.4249042 C17.4418793,13.4744828 16.8609886,15.1232567 15.9396378,16.3261686 C15.1917439,17.3035632 14.3880196,17.7931801 13.4828777,17.8250575 L13.3607488,17.8270881 C12.8383148,17.8270881 12.4432626,17.7076628 12.078752,17.4401916 C11.7122904,17.1714559 11.4939592,16.8410728 11.3906656,16.4005364 C11.2730392,15.8955556 11.4173051,15.362069 11.5700131,14.7974713 L11.5947015,14.7059004 C11.7304878,14.2036398 11.8714894,13.7444828 12.0098646,13.2926437 C12.229509,12.5760536 12.4562447,11.8355939 12.6440343,10.9756705 C12.8571501,9.99965517 12.8851028,9.20942529 12.7298059,8.55984674 C12.536801,7.74904215 12.1112447,7.14126437 11.4640555,6.75245211 C10.7987064,6.35501916 9.80392822,6.26678161 8.99693964,6.55072797 C7.79163458,6.97206897 6.87223491,8.09137931 6.47523165,9.62076628 C6.27378467,10.3937548 6.21596574,11.2052107 6.30241272,12.031954 C6.36867374,12.6735632 6.50772431,13.2554406 6.76372594,13.9547893 C6.75659706,13.9786973 6.74943067,14.002567 6.74226427,14.0264368 C6.72342904,14.0908046 6.70586949,14.1518391 6.69288744,14.2055939 C6.41152202,15.4085057 6.13799837,16.5955172 5.86511256,17.7805747 C5.61106199,18.881954 5.35764927,19.982069 5.09838336,21.0934866 L5.04052692,21.3416475 C4.77086786,22.4895019 4.49276672,23.6764751 4.42781892,25.0977011 L4.39922838,25.6849042 C4.34272268,26.7863602 4.28422838,27.9249425 4.42913214,28.9851724 C4.45640946,29.1822989 4.52593475,29.6785824 4.9950522,29.8563602 C5.0795106,29.9194253 5.22377651,29.9996552 5.42259706,29.9996552 L5.42259706,29.9996552 C5.80076509,29.9996552 6.04378467,29.7369349 6.44011256,29.2737931 C7.35628548,28.2062452 8.13535889,26.8579693 8.82276998,25.1534483 C9.13009951,24.3904598 9.33349755,23.5703065 9.53036705,22.7781226 L9.64795595,22.3083142 C9.78505546,21.7695785 9.91956607,21.2234866 10.0520881,20.6827203 C10.2918434,20.8870881 10.5640914,21.0748276 10.8746852,21.2513793 C11.6128613,21.6706513 12.4451762,21.9148276 13.3496427,21.9772414 C14.2281077,22.0409195 15.0838728,21.9261303 16.0649935,21.6368199 C16.8096232,21.4191954 17.5237113,21.0881609 18.1871093,20.6535249 C20.5594111,19.0969349 22.176615,16.3752874 22.7406215,12.9900383 C22.9089005,11.9788506 22.9810147,11.1667433 22.9810147,10.2756322 C22.9810897,9.24463602 22.8602365,8.30643678 22.6230701,7.48831418 Z M21.4593377,12.7671648 C20.9577276,15.7794636 19.5457977,18.184023 17.4841272,19.5369349 C16.927925,19.9018008 16.3295122,20.1792337 15.7057357,20.3616475 C14.8707945,20.6070881 14.1658238,20.7033333 13.4374405,20.6535632 C12.7149103,20.6037931 12.0833295,20.42 11.5057031,20.0915709 C10.9261256,19.7624521 10.5518597,19.4101533 10.2900049,18.9483525 C10.1574454,18.7147893 9.90013051,18.5854023 9.63895106,18.6232184 C9.37773409,18.6604215 9.16398042,18.8548276 9.09835726,19.1162069 L8.80596085,20.2992337 C8.66949918,20.8559004 8.53112398,21.4192337 8.38944698,21.9745977 L8.27054486,22.4523372 C8.07690212,23.234636 7.89369005,23.9731418 7.62080424,24.6485824 C7.03860033,26.0929885 6.39339967,27.2475096 5.65462316,28.1684674 C5.61109951,27.409387 5.6539478,26.570728 5.69555791,25.7545977 L5.7247863,25.1594636 C5.78328059,23.8642529 6.04772431,22.7390038 6.30308809,21.6514559 L6.36158238,21.4020307 C6.62148613,20.2899617 6.8755367,19.1885824 7.12958728,18.0851724 C7.40247308,16.9014559 7.67539641,15.7164368 7.95608646,14.5168199 L7.98662806,14.4060153 C8.05615334,14.1671648 8.13543393,13.8964368 8.02951387,13.6230651 C7.78259217,12.9748276 7.65265905,12.457931 7.59416476,11.8926437 C7.52527732,11.2271264 7.57075204,10.5768966 7.73126427,9.96118774 C8.0152186,8.86704981 8.62987765,8.08145594 9.41934421,7.80544061 C9.60454486,7.74042146 9.80400326,7.70724138 10.013217,7.70724138 C10.3121044,7.70724138 10.6084029,7.77823755 10.8065856,7.89701149 C11.1431436,8.09873563 11.3595237,8.41854406 11.4680326,8.87367816 C11.5739902,9.31494253 11.5427732,9.92532567 11.3764078,10.6870498 C11.2003246,11.4925287 10.9917488,12.1739847 10.7701909,12.8958621 C10.6272382,13.3616475 10.4823719,13.835364 10.3420082,14.3535632 L10.3173197,14.4437931 C10.1366966,15.1126437 9.93134747,15.8703065 10.1269413,16.7077011 C10.3036623,17.4673946 10.6941746,18.0599234 11.3212153,18.5184291 C11.9040571,18.9457088 12.5713573,19.1540613 13.3608238,19.1540613 L13.5271517,19.1513793 C14.8221305,19.1062452 15.9786966,18.4308046 16.9637569,17.1436398 C18.0352268,15.7449425 18.7063915,13.8705747 18.958491,11.5728736 C19.0598711,10.6472797 19.0851974,9.89421456 19.0384095,9.20283525 C18.9363915,7.6840613 18.4672741,6.38758621 17.6440392,5.34785441 C16.86823,4.36720307 15.7974356,3.63203065 14.5460179,3.221341 C13.2698744,2.80199234 11.5252512,2.6891954 10.0743377,2.93869732 C7.43631648,3.39386973 5.38762806,4.87613027 4.15050571,7.22559387 C3.47213703,8.51344828 3.14274551,9.86367816 3.14274551,11.351954 C3.14274551,12.577433 3.43319086,13.6417241 4.00627732,14.5148659 C4.08619576,14.6362835 4.18108483,14.7497318 4.27916313,14.8645211 C4.36362153,14.9627203 4.44353997,15.0555939 4.48447471,15.1245977 C4.50788744,15.2214943 4.4182137,15.5200766 4.36947471,15.680613 C4.34152202,15.7728736 4.31552039,15.8611111 4.29409625,15.944023 C4.26940783,16.0402682 4.24862153,16.1430651 4.22715987,16.2466284 C4.20960033,16.3321456 4.18491191,16.4562452 4.15827243,16.5485057 C4.02117292,16.4841379 3.82689233,16.3706897 3.71579445,16.2864368 C2.68330832,15.4981609 2.30450245,14.9912261 1.78537031,13.7040613 C1.39549592,12.7366667 1.20252855,10.8211111 1.39485808,9.83582375 C1.61187602,8.72846743 2.07322675,7.31850575 2.44550408,6.62777778 C3.2798075,5.07915709 4.49160359,3.8251341 6.04648613,2.90088123 C7.27843067,2.16900383 8.62147308,1.70390805 10.1542561,1.47965517 C10.7059184,1.39869732 11.2822316,1.36685824 11.8741909,1.33965517 C13.8312545,1.25007663 15.4407292,1.76164751 16.3887194,2.18762452 C17.5933491,2.72969349 18.6063246,3.46287356 19.4867406,4.4302682 C20.3723719,5.40429119 20.9909331,6.52762452 21.3775808,7.86524904 C21.5796656,8.56126437 21.681646,9.37272031 21.681646,10.2764368 C21.681571,11.0885057 21.6146346,11.8336015 21.4593377,12.7671648 Z" opacity=".2" transform="translate(15 11)"/>
</svg>
