<svg xmlns="http://www.w3.org/2000/svg" width="70" height="70" viewBox="0 0 70 70">
  <g transform="translate(5 11)">
    <path d="M55.3610066,6.23353156 L49.7004877,6.23353156 L46.2593872,0.453983353 C46.2559888,0.448314466 46.2520044,0.443236088 46.248606,0.437685303 C46.238645,0.421859661 46.2284497,0.406506425 46.2176684,0.391271292 C46.2096996,0.38005162 46.2016137,0.369068152 46.1932933,0.358438989 C46.183684,0.346038299 46.1736058,0.333873813 46.1632933,0.32194553 C46.1528636,0.310017248 46.1425511,0.298325169 46.1316526,0.286987395 C46.1222776,0.277066843 46.1124338,0.267500597 46.10259,0.258052452 C46.0905197,0.246478475 46.0783322,0.235022599 46.0656759,0.224157233 C46.0554806,0.215417699 46.0450509,0.207032471 46.0346212,0.198765344 C46.0218477,0.18872669 46.0088399,0.178806138 45.9957148,0.169476095 C45.9836445,0.160972765 45.9713398,0.153059944 45.9590351,0.145147123 C45.9467304,0.137234302 45.9344257,0.129557684 45.9217694,0.122353474 C45.9072381,0.114086347 45.8924724,0.10640973 45.8775896,0.0989693157 C45.8664568,0.0933004289 45.8552067,0.0877496438 45.8438395,0.0826712661 C45.8273161,0.0752308521 45.8103238,0.0683809472 45.7933316,0.0618853477 C45.7825504,0.0577517844 45.7718863,0.0537363229 45.7612222,0.0500751669 C45.7438784,0.0441700764 45.7261831,0.0389735969 45.7082533,0.0340133209 C45.6967689,0.0308245721 45.6852845,0.027753925 45.673683,0.0250375834 C45.6569251,0.0211402238 45.6399329,0.0178333731 45.6229407,0.0147627261 C45.6092297,0.0122825881 45.5952844,0.0101567555 45.581339,0.00826712661 C45.5664562,0.00637749767 45.5514562,0.00484217416 45.5363389,0.00366115607 C45.5193467,0.00224393436 45.5023545,0.0014172217 45.4852451,0.00106291628 C45.4780966,0.000826712661 45.4709482,0 45.4637997,0 L26.9075916,0 C26.9007947,0 26.8944666,0.000826712661 26.8876697,0.00106291628 C26.8695056,0.00153532351 26.8514587,0.00236203617 26.8334118,0.00377925788 C26.8194664,0.00484217416 26.8055211,0.00637749767 26.7915758,0.00803092299 C26.7765757,0.00992055193 26.7615757,0.0122825881 26.7465757,0.0149989297 C26.7306381,0.0178333731 26.7147006,0.0210221219 26.6989975,0.0245651762 C26.6864584,0.0275177214 26.6739193,0.0308245721 26.661263,0.0342495245 C26.644388,0.0389735969 26.6276301,0.043815771 26.6111067,0.0494846578 C26.5995051,0.0533820175 26.5880207,0.0578698863 26.5765363,0.0622396532 C26.5602472,0.068499049 26.5441925,0.0749946485 26.5283721,0.082080757 C26.5163018,0.0875134402 26.5044658,0.0934185307 26.4926299,0.0994417229 C26.4782158,0.106645933 26.4640361,0.114086347 26.4500907,0.121999168 C26.4370829,0.129439582 26.4244266,0.137352403 26.4118875,0.145383326 C26.3998172,0.153059944 26.3877469,0.160854663 26.3759109,0.169239892 C26.3626687,0.178688037 26.3495437,0.188608588 26.336653,0.198883446 C26.3261061,0.207150572 26.3157936,0.215417699 26.3057154,0.224039131 C26.2931764,0.234904497 26.2809888,0.246242271 26.2689185,0.257816248 C26.2588403,0.267382495 26.2491138,0.277066843 26.2395044,0.287105497 C26.2288403,0.298325169 26.2185278,0.309899146 26.2083324,0.321709327 C26.1979027,0.333755711 26.1878246,0.346038299 26.1779808,0.358557091 C26.1696605,0.369186254 26.1616917,0.38005162 26.1538401,0.39115319 C26.1430589,0.406270222 26.1327464,0.421859661 26.1227854,0.437685303 C26.119387,0.44335419 26.1154026,0.448314466 26.1120041,0.453983353 L22.6709037,6.23353156 L14.2269418,6.23353156 L14.2269418,3.42849551 C14.2269418,2.9120363 13.8116285,2.49348349 13.2991666,2.49348349 L5.87649585,2.49348349 C5.36403391,2.49348349 4.9487206,2.9121544 4.9487206,3.42849551 L4.9487206,6.23353156 L4.63922781,6.23353156 C2.08113688,6.23353156 0,8.33090158 0,10.9088279 L0,43.3247037 C0,45.9027481 2.08113688,48 4.63911062,48 L55.3608894,48 C57.9189803,48 60,45.90263 60,43.3247037 L60,10.9088279 C60.0001172,8.33090158 57.9189803,6.23353156 55.3610066,6.23353156 Z M6.8042711,4.36350753 L12.3712742,4.36350753 L12.3712742,6.23353156 L6.8042711,6.23353156 L6.8042711,4.36350753 Z M55.3610066,46.129976 L14.2269418,46.129976 L14.2269418,10.908946 C14.2269418,10.3924868 13.8116285,9.97393395 13.2991666,9.97393395 C12.7867047,9.97393395 12.3713914,10.3926049 12.3713914,10.908946 L12.3713914,46.129976 L4.63911062,46.129976 C3.10430294,46.129976 1.85566769,44.8716012 1.85566769,43.3248218 L1.85566769,36.7167894 L4.639345,36.7167894 C5.15180694,36.7167894 5.56712025,36.2981185 5.56712025,35.7817774 C5.56712025,35.2653182 5.15180694,34.8467654 4.639345,34.8467654 L1.85566769,34.8467654 L1.85566769,31.7610013 L4.639345,31.7610013 C5.15180694,31.7610013 5.56712025,31.3423304 5.56712025,30.8259893 C5.56712025,30.3095301 5.15180694,29.8909773 4.639345,29.8909773 L1.85566769,29.8909773 L1.85566769,26.804977 L4.639345,26.804977 C5.15180694,26.804977 5.56712025,26.3863061 5.56712025,25.869965 C5.56712025,25.3535058 5.15180694,24.934953 4.639345,24.934953 L1.85566769,24.934953 L1.85566769,21.8491889 L4.639345,21.8491889 C5.15180694,21.8491889 5.56712025,21.430518 5.56712025,20.9141769 C5.56712025,20.3977177 5.15180694,19.9791649 4.639345,19.9791649 L1.85566769,19.9791649 L1.85566769,10.9090641 C1.85566769,9.36228468 3.10442013,8.10390991 4.63911062,8.10390991 L23.1935609,8.10390991 C23.1941469,8.10390991 23.1947328,8.10402801 23.1953187,8.10402801 C23.1974281,8.10402801 23.1993031,8.1036737 23.2012953,8.1036737 C23.2362173,8.1034375 23.2704361,8.10095736 23.3041861,8.09706 C23.3136783,8.09587899 23.3231706,8.09410746 23.3326628,8.09269024 C23.3600847,8.08855667 23.3871551,8.0834783 23.4138739,8.0769827 C23.4231317,8.07462066 23.4325067,8.07225862 23.4417645,8.06966038 C23.4703583,8.06174756 23.498249,8.05253562 23.5256709,8.04202456 C23.5322335,8.03954442 23.5386788,8.03753669 23.5450069,8.03493845 C23.5788742,8.02112054 23.6115696,8.0056492 23.6432102,7.98817014 C23.6486009,7.98509949 23.6538743,7.98143833 23.659265,7.97824958 C23.6842259,7.96360496 23.7087182,7.94801552 23.7322729,7.93112696 C23.7425854,7.92380465 23.7524292,7.91612803 23.7625073,7.90833331 C23.7821949,7.89298008 23.8011793,7.87680013 23.8195778,7.85991157 C23.8280153,7.85223495 23.8366872,7.84479454 23.8450075,7.83664551 C23.8704372,7.81172603 23.8943435,7.78538933 23.9166092,7.7575173 C23.9211795,7.75184842 23.9251639,7.74582522 23.9296171,7.74003824 C23.9488358,7.71488255 23.9667656,7.68866395 23.9835234,7.66173674 C23.9861015,7.65760317 23.9891484,7.65406012 23.9917265,7.64992656 L27.432827,1.87037834 L44.9385643,1.87037834 L48.3796648,7.64992656 C48.3822429,7.65417822 48.3852898,7.65760317 48.3877508,7.66173674 C48.4045086,7.68878205 48.4225555,7.71500065 48.4418915,7.74003824 C48.4462274,7.74570712 48.4502118,7.75184842 48.4547821,7.7575173 C48.477165,7.78527123 48.5010713,7.81160793 48.5263838,7.83664551 C48.534587,7.84479454 48.5432589,7.85211685 48.5516964,7.85991157 C48.5700949,7.87680013 48.5890793,7.89298008 48.6087668,7.90833331 C48.618845,7.91612803 48.6286887,7.92380465 48.6390012,7.93112696 C48.662556,7.94801552 48.6868138,7.96360496 48.7120092,7.97824958 C48.7173998,7.98143833 48.7226733,7.98509949 48.7280639,7.98817014 C48.7595874,8.0057673 48.7925172,8.02112054 48.8261501,8.03493845 C48.8325954,8.03753669 48.8391579,8.03966252 48.8456032,8.04202456 C48.8730251,8.05253562 48.9009158,8.06174756 48.9295096,8.06966038 C48.9387675,8.07225862 48.9481425,8.07462066 48.9574003,8.0769827 C48.9841191,8.0834783 49.0111895,8.08855667 49.0386114,8.09269024 C49.0481036,8.09410746 49.0575958,8.09587899 49.067088,8.09706 C49.1009553,8.10095736 49.1350569,8.1034375 49.1699788,8.1036737 C49.1718539,8.1036737 49.173846,8.10402801 49.1758382,8.10402801 C49.1764242,8.10402801 49.1770101,8.10390991 49.1777132,8.10390991 L55.3607722,8.10390991 C56.8955799,8.10390991 58.1442151,9.36228468 58.1442151,10.9090641 L58.1442151,43.3248218 L58.1444495,43.3248218 C58.1444495,44.8716012 56.8956971,46.129976 55.3610066,46.129976 Z"/>
    <path d="M36,15 C28.8317083,15 23,20.8318285 23,28 C23,35.1681715 28.8318285,41 36,41 C43.1681715,41 49,35.1681715 49,28 C49,20.8317083 43.1681715,15 36,15 Z M36,39.0975463 C29.8806709,39.0975463 24.9024537,34.1192089 24.9024537,28 C24.9024537,21.8807911 29.8807911,16.9024537 36,16.9024537 C42.1193291,16.9024537 47.0975463,21.8807911 47.0975463,28 C47.0975463,34.1192089 42.1192089,39.0975463 36,39.0975463 Z"/>
    <path d="M41.7715289 23.2234167C40.9796441 22.4344473 39.9267694 22 38.8067997 22 37.9737431 22 37.1776356 22.2404767 36.4987097 22.6882449 35.8194319 22.2404767 35.023559 22 34.1905024 22 33.0707673 22 32.0177753 22.4343305 31.2255387 23.2235335 29.591448 24.8523019 29.591448 27.5022201 31.2257733 29.1307548L35.8421879 33.7290255C36.0234147 33.9096752 36.2611795 34 36.498827 34 36.7364745 34 36.9741221 33.9096752 37.1555834 33.7290255L41.7714116 29.1307548C42.5635309 28.3417855 43 27.2927086 43 26.1770273 43 25.0612293 42.5635309 24.0122692 41.7715289 23.2234167zM40.458016 27.8222716L36.498827 31.7664174 32.5390515 27.8223884C31.6286949 26.9152839 31.6288122 25.4388876 32.5389342 24.5317831 32.9802126 24.0923113 33.566707 23.8503155 34.1903851 23.8503155 34.8142978 23.8503155 35.4009095 24.0924281 35.8421879 24.5319 36.2047587 24.8930825 36.7926607 24.8929656 37.1554661 24.5316663 37.5965099 24.0923113 38.182887 23.8503155 38.8066824 23.8503155 39.4304779 23.8503155 40.0168549 24.0923113 40.458016 24.5317831 40.8994117 24.971255 41.142455 25.5555036 41.142455 26.1769105 41.1425723 26.7983174 40.899529 27.3826829 40.458016 27.8222716zM44.9331495 6.82418534L43.9401041 4.53870304C43.9392809 4.53686262 43.9382226 4.53534697 43.9375171 4.53350655 43.9292858 4.51499405 43.9199962 4.4971311 43.9103538 4.47937642 43.906003 4.4712569 43.9021226 4.4628126 43.8975366 4.4549096 43.8891877 4.44029447 43.8796629 4.42643715 43.8703733 4.41236332 43.8634355 4.40186208 43.8569681 4.39092779 43.8495599 4.38064307 43.8429749 4.37165746 43.8356844 4.36342968 43.8289817 4.35476886 43.8176931 4.34047851 43.8066397 4.32597164 43.7945279 4.31254736 43.7918234 4.30951608 43.788766 4.30670131 43.7859439 4.30356176 43.7498438 4.26437155 43.7106865 4.22810436 43.668119 4.19584281 43.6644737 4.19302804 43.6604756 4.19064631 43.6567128 4.18793981 43.637428 4.17386597 43.6180257 4.16000866 43.5976827 4.14734221 43.5761638 4.13380968 43.553469 4.12146801 43.530539 4.10966764 43.5278344 4.10826026 43.5252474 4.10652809 43.5225429 4.10512071 43.4737431 4.08043737 43.421886 4.0601927 43.3682651 4.0438454 43.364855 4.0427628 43.3614449 4.04146368 43.3579172 4.04038108 43.339338 4.03496806 43.3200533 4.03074591 43.3011214 4.0264155 43.2903031 4.02392552 43.2798376 4.02089423 43.2690194 4.01883728 43.2554965 4.01613078 43.2415034 4.01461513 43.2276278 4.01244993 43.2105773 4.00985168 43.1935267 4.00692866 43.1763586 4.00519649 43.1661283 4.00422215 43.155898 4.00400563 43.1456677 4.00324781 43.1245016 4.00184042 43.1032178 4.00043304 43.0819341 4.00032478 43.0798175 4.00032478 43.0778184 4 43.0757018 4L28.9242461 4C28.9223646 4 28.9207184 4.00021652 28.9189545 4.00021652 28.8960245 4.00043304 28.8732121 4.00173216 28.8506349 4.00335607 28.8419332 4.00400563 28.8332316 4.00422215 28.82453 4.00497997 28.8053628 4.0068204 28.7864309 4.00995994 28.7676165 4.01299123 28.75574 4.01493992 28.7436282 4.01623904 28.7318692 4.0185125 28.7188168 4.02111075 28.7058819 4.02457508 28.6930646 4.02771463 28.6761317 4.03172026 28.6590812 4.03529284 28.6426186 4.0400563 28.6363864 4.04178846 28.6305069 4.04427845 28.6243922 4.04622713 28.601815 4.05326405 28.5795905 4.06051748 28.5577188 4.06907004 28.5565429 4.06961135 28.5552494 4.07015265 28.5540735 4.07069395 28.5279686 4.08108693 28.5024516 4.092346 28.4777578 4.10479593 28.4716431 4.10782722 28.4661164 4.11150807 28.4602369 4.11464761 28.440717 4.1250406 28.4211971 4.13543358 28.4025004 4.14701743 28.3809814 4.16033344 28.3605208 4.17484032 28.3402954 4.18988849 28.3375908 4.19194544 28.3346511 4.1936776 28.3319465 4.19562629 28.2896142 4.22777958 28.2505744 4.26383025 28.2144744 4.30302046 28.2115346 4.30616001 28.2082421 4.30908304 28.2054199 4.3124391 28.1934258 4.32586338 28.1824899 4.34015373 28.1714365 4.35433582 28.1643811 4.3631049 28.156973 4.3715492 28.1505055 4.38064307 28.143215 4.39071127 28.1367475 4.4015373 28.1298097 4.41203854 28.1205201 4.42622063 28.1108778 4.44018621 28.1024113 4.45480134 28.0979429 4.46270434 28.0940624 4.47114864 28.0897116 4.47926816 28.0801869 4.49702284 28.0707797 4.51488579 28.0625484 4.53339829 28.0618429 4.53523871 28.0609021 4.53686262 28.0599614 4.53859478L27.066916 6.82407708C26.8758327 7.26372199 27.1079548 7.76247699 27.5853692 7.93839991 27.6988433 7.98018837 27.8158451 8 27.9309655 8 28.3003149 8 28.6499092 7.79614593 28.7957205 7.46097218L29.5547623 5.71430118 42.4451856 5.71430118 43.2042274 7.46097218C43.3499211 7.79614593 43.6993978 8 44.0689824 8 44.1841028 8 44.3011046 7.98018837 44.4145787 7.93839991 44.8919931 7.76258525 45.1241152 7.26372199 44.9331495 6.82418534zM53 10C51.3457637 10 50 11.3457637 50 13 50 14.65411 51.3457637 16 53 16 54.6542363 16 56 14.6542363 56 13 55.9998737 11.3457637 54.6542363 10 53 10zM53 14.0004209C52.4483354 14.0004209 51.9994528 13.5515384 51.9994528 12.9998737 51.9994528 12.4482091 52.4483354 11.9993266 53 11.9993266 53.5516646 11.9993266 54.0005472 12.4482091 54.0005472 12.9998737 54.0005472 13.5515384 53.5516646 14.0004209 53 14.0004209z"/>
    <path d="M52.4010819 23.4767721C50.6060325 16.3169223 44.1349178 11 36.4482495 11 27.3786935 11 20 18.4019088 20 27.5 20 36.5980912 27.3786935 44 36.4482495 44 44.1348002 44 50.6060325 38.6830777 52.4010819 31.5231099 54.421556 31.3044075 56 29.583807 56 27.5 56 25.4159571 54.4216736 23.6953566 52.4010819 23.4767721zM36.4483671 42.1320643C28.4055112 42.1320643 21.8621947 35.5681609 21.8621947 27.5 21.8621947 19.4318391 28.4055112 12.8679357 36.4483671 12.8679357 43.4586434 12.8679357 49.3288605 17.8547989 50.7209204 24.4776836 50.7213907 24.4842895 50.7212731 24.4907775 50.7218611 24.4973834 50.7289166 24.5666273 50.7439685 24.6330402 50.7647824 24.696622 50.9411711 25.6042252 51.0345395 26.541319 51.0345395 27.5 51.0345395 35.5681609 44.491223 42.1320643 36.4483671 42.1320643zM52.7730269 29.5214048C52.8540481 28.8588097 52.896499 28.1843003 52.896499 27.5 52.896499 26.8156997 52.8539305 26.1411903 52.7727917 25.4785952 53.5717151 25.8008686 54.1378053 26.5847292 54.1378053 27.5 54.1379229 28.4152708 53.5718327 29.1991314 52.7730269 29.5214048zM21.0000421 13L16.9999579 13C16.4476255 13 16 13.4477706 16 14 16 14.5523557 16.4476255 15 16.9999579 15L21.0000421 15C21.5523745 15 22 14.5522294 22 14 22 13.4476443 21.5523745 13 21.0000421 13z"/>
  </g>
</svg>
