<svg xmlns="http://www.w3.org/2000/svg" width="30" height="30" viewBox="0 0 30 30">
  <path fill="#FA311F" d="M27,14.5 C27,16.1562583 26.6875031,17.7148364 26.0625,19.1757812 C25.4374969,20.6367261 24.5820367,21.9101508 23.4960938,22.9960938 C22.4101508,24.0820367 21.1367261,24.9374969 19.6757812,25.5625 C18.2148364,26.1875031 16.6562583,26.5 15,26.5 C13.3437417,26.5 11.7851636,26.1875031 10.3242188,25.5625 C8.86327395,24.9374969 7.58984918,24.0820367 6.50390625,22.9960938 C5.41796332,21.9101508 4.56250313,20.6367261 3.9375,19.1757812 C3.31249687,17.7148364 3,16.1562583 3,14.5 C3,12.8437417 3.31249687,11.2851636 3.9375,9.82421875 C4.56250313,8.36327395 5.41796332,7.08984918 6.50390625,6.00390625 C7.58984918,4.91796332 8.86327395,4.06250312 10.3242188,3.4375 C11.7851636,2.81249688 13.3437417,2.5 15,2.5 C16.6562583,2.5 18.2148364,2.81249688 19.6757812,3.4375 C21.1367261,4.06250312 22.4101508,4.91796332 23.4960938,6.00390625 C24.5820367,7.08984918 25.4374969,8.36327395 26.0625,9.82421875 C26.6875031,11.2851636 27,12.8437417 27,14.5 Z M4.4765625,14.5 C4.4765625,15.9531323 4.75390348,17.3163999 5.30859375,18.5898438 C5.86328402,19.8632876 6.61718273,20.9726515 7.5703125,21.9179688 C8.52344227,22.863286 9.63671238,23.6132785 10.9101562,24.1679688 C12.1836001,24.722659 13.5468677,25 15,25 C16.4531323,25 17.8163999,24.722659 19.0898438,24.1679688 C20.3632876,23.6132785 21.4726515,22.863286 22.4179688,21.9179688 C23.363286,20.9726515 24.1132785,19.8632876 24.6679688,18.5898438 C25.222659,17.3163999 25.5,15.9531323 25.5,14.5 C25.5,13.0468677 25.222659,11.6836001 24.6679688,10.4101562 C24.1132785,9.13671238 23.363286,8.02734848 22.4179688,7.08203125 C21.4726515,6.13671402 20.3632876,5.38672152 19.0898438,4.83203125 C17.8163999,4.27734098 16.4531323,4 15,4 C13.5468677,4 12.1836001,4.27734098 10.9101562,4.83203125 C9.63671238,5.38672152 8.52344227,6.13671402 7.5703125,7.08203125 C6.61718273,8.02734848 5.86328402,9.13671238 5.30859375,10.4101562 C4.75390348,11.6836001 4.4765625,13.0468677 4.4765625,14.5 Z M15.75,19.75 C15.75,19.9687511 15.6796882,20.1484368 15.5390625,20.2890625 C15.3984368,20.4296882 15.2187511,20.5 15,20.5 C14.796874,20.5 14.6210945,20.4296882 14.4726562,20.2890625 C14.324218,20.1484368 14.25,19.9687511 14.25,19.75 L14.25,11.265625 L11.5078125,14.03125 C11.3515617,14.1718757 11.171876,14.2421875 10.96875,14.2421875 C10.765624,14.2421875 10.5859383,14.1718757 10.4296875,14.03125 C10.3671872,13.9531246 10.3164064,13.867188 10.2773438,13.7734375 C10.2382811,13.679687 10.21875,13.585938 10.21875,13.4921875 C10.21875,13.398437 10.2382811,13.304688 10.2773438,13.2109375 C10.3164064,13.117187 10.3671872,13.0312504 10.4296875,12.953125 L14.9765625,8.5234375 L19.5234375,12.953125 C19.6796883,13.1093758 19.7578125,13.2890615 19.7578125,13.4921875 C19.7578125,13.6953135 19.6796883,13.8749992 19.5234375,14.03125 C19.3828118,14.1718757 19.2070323,14.2421875 18.9960938,14.2421875 C18.7851552,14.2421875 18.6093757,14.1718757 18.46875,14.03125 L15.75,11.3125 L15.75,19.75 Z"/>
</svg>
