<svg xmlns="http://www.w3.org/2000/svg" width="30" height="30" viewBox="0 0 30 30">
  <path fill="#F83232" d="M3,15.5 C3,13.8437417 3.31249687,12.2851636 3.9375,10.8242188 C4.56250313,9.36327395 5.41796332,8.08984918 6.50390625,7.00390625 C7.58984918,5.91796332 8.86327395,5.06250312 10.3242188,4.4375 C11.7851636,3.81249688 13.3437417,3.5 15,3.5 C16.6562583,3.5 18.2148364,3.81249688 19.6757812,4.4375 C21.1367261,5.06250312 22.4101508,5.91796332 23.4960938,7.00390625 C24.5820367,8.08984918 25.4374969,9.36327395 26.0625,10.8242188 C26.6875031,12.2851636 27,13.8437417 27,15.5 C27,17.1562583 26.6875031,18.7148364 26.0625,20.1757812 C25.4374969,21.6367261 24.5820367,22.9101508 23.4960938,23.9960938 C22.4101508,25.0820367 21.1367261,25.9374969 19.6757812,26.5625 C18.2148364,27.1875031 16.6562583,27.5 15,27.5 C13.3437417,27.5 11.7851636,27.1875031 10.3242188,26.5625 C8.86327395,25.9374969 7.58984918,25.0820367 6.50390625,23.9960938 C5.41796332,22.9101508 4.56250313,21.6367261 3.9375,20.1757812 C3.31249687,18.7148364 3,17.1562583 3,15.5 Z M25.5234375,15.5 C25.5234375,14.0468677 25.2460965,12.6836001 24.6914062,11.4101562 C24.136716,10.1367124 23.3828173,9.02734848 22.4296875,8.08203125 C21.4765577,7.13671402 20.3632876,6.38672152 19.0898438,5.83203125 C17.8163999,5.27734098 16.4531323,5 15,5 C13.5468677,5 12.1836001,5.27734098 10.9101562,5.83203125 C9.63671238,6.38672152 8.52734848,7.13671402 7.58203125,8.08203125 C6.63671402,9.02734848 5.88672152,10.1367124 5.33203125,11.4101562 C4.77734098,12.6836001 4.5,14.0468677 4.5,15.5 C4.5,16.9531323 4.77734098,18.3163999 5.33203125,19.5898438 C5.88672152,20.8632876 6.63671402,21.9726515 7.58203125,22.9179688 C8.52734848,23.863286 9.63671238,24.6132785 10.9101562,25.1679688 C12.1836001,25.722659 13.5468677,26 15,26 C16.4531323,26 17.8163999,25.722659 19.0898438,25.1679688 C20.3632876,24.6132785 21.4765577,23.863286 22.4296875,22.9179688 C23.3828173,21.9726515 24.136716,20.8632876 24.6914062,19.5898438 C25.2460965,18.3163999 25.5234375,16.9531323 25.5234375,15.5 Z M14.25,10.25 C14.25,10.0312489 14.3203118,9.8515632 14.4609375,9.7109375 C14.6015632,9.5703118 14.7812489,9.5 15,9.5 C15.203126,9.5 15.3789055,9.5703118 15.5273438,9.7109375 C15.675782,9.8515632 15.75,10.0312489 15.75,10.25 L15.75,18.734375 L18.4921875,15.96875 C18.6484383,15.8281243 18.828124,15.7578125 19.03125,15.7578125 C19.234376,15.7578125 19.4140617,15.8281243 19.5703125,15.96875 C19.6328128,16.0468754 19.6835936,16.132812 19.7226562,16.2265625 C19.7617189,16.320313 19.78125,16.414062 19.78125,16.5078125 C19.78125,16.601563 19.7617189,16.695312 19.7226562,16.7890625 C19.6835936,16.882813 19.6328128,16.9687496 19.5703125,17.046875 L15.0234375,21.4765625 L10.4765625,17.046875 C10.3203117,16.8906242 10.2421875,16.7109385 10.2421875,16.5078125 C10.2421875,16.3046865 10.3203117,16.1250008 10.4765625,15.96875 C10.6171882,15.8281243 10.7929677,15.7578125 11.0039062,15.7578125 C11.2148448,15.7578125 11.3906243,15.8281243 11.53125,15.96875 L14.25,18.6875 L14.25,10.25 Z"/>
</svg>
