<svg xmlns="http://www.w3.org/2000/svg" width="70" height="70" viewBox="0 0 70 70">
  <g fill="none" fill-rule="evenodd" transform="translate(3 11)">
    <rect width="13" height="9" x="7" y="6" fill="#FFF"/>
    <rect width="14" height="9" x="45" y="19" fill="#FFF"/>
    <g fill="#000" fill-rule="nonzero">
      <path d="M60.149414,9.94419649 L43.331543,9.94419649 C41.2084961,9.94419649 39.480957,11.6360013 39.480957,13.716199 L39.480957,27.9016262 L1.875,27.9016262 L1.875,2.59869257 C1.875,2.21221298 2.19580075,1.89795918 2.590332,1.89795918 L51.9506836,1.89795918 C52.3442382,1.89795918 52.6645507,2.21221298 52.6645507,2.59869257 L52.6645507,7.4392538 C52.6645507,7.9462691 53.0839844,8.35762114 53.6020507,8.35762114 C54.1201172,8.35762114 54.5395507,7.9462691 54.5395507,7.4392538 L54.5395507,2.59869257 C54.5395507,1.19913906 53.378418,0.0612244898 51.9506836,0.0612244898 L2.590332,0.0612244898 C1.16210937,0.0612244898 -2.84217094e-14,1.19913906 -2.84217094e-14,2.59869257 L-2.84217094e-14,32.0849809 C-2.84217094e-14,33.4835778 1.16210937,34.6214924 2.590332,34.6214924 L31.1342774,34.6214924 L31.9902344,41.0007972 L22.5322265,41.0007972 L22.965332,37.2881058 C23.0239257,36.7839605 22.6547851,36.3286033 22.1401367,36.2712054 C21.625,36.2142857 21.1611327,36.5754146 21.1020507,37.0795599 L20.6450195,41.0007972 L17.0654297,41.0007972 C16.5473632,41.0007972 16.1279297,41.4121493 16.1279297,41.9191646 C16.1279297,42.4266582 16.5473632,42.8375319 17.0654297,42.8375319 L37.475586,42.8375319 C37.993164,42.8375319 38.413086,42.4266582 38.413086,41.9191646 C38.413086,41.4121493 37.993164,41.0007972 37.475586,41.0007972 L33.8813476,41.0007972 L33.0253906,34.6214924 L36.9750976,34.6214924 C37.493164,34.6214924 37.913086,34.2101402 37.913086,33.7031251 C37.913086,33.1956313 37.493164,32.7847577 36.9750976,32.7847577 L2.590332,32.7847577 C2.19580075,32.7847577 1.875,32.4705038 1.875,32.0849809 L1.875,29.7383609 L39.480957,29.7383609 L39.480957,44.2002551 C39.480957,46.2799745 41.2084961,47.9722577 43.331543,47.9722577 L60.149414,47.9722577 C62.272461,47.9722577 64,46.2799745 64,44.2002551 L64,13.716199 C64,11.6360013 62.272461,9.94419649 60.149414,9.94419649 L60.149414,9.94419649 Z M43.331543,11.7809312 L60.149414,11.7809312 C61.2387695,11.7809312 62.125,12.6490752 62.125,13.716199 L62.125,14.6139987 L41.355957,14.6139987 L41.355957,13.716199 C41.355957,12.6490752 42.2421875,11.7809312 43.331543,11.7809312 Z M62.125,16.4507334 L62.125,41.2710459 L41.355957,41.2710459 L41.355957,16.4507334 L62.125,16.4507334 Z M60.149414,46.135523 L43.331543,46.135523 C42.2421875,46.135523 41.355957,45.2673789 41.355957,44.1997768 L41.355957,43.1077806 L62.125,43.1077806 L62.125,44.1997768 C62.125,45.2673789 61.2387695,46.135523 60.149414,46.135523 L60.149414,46.135523 Z"/>
      <path d="M44.8442382 28.9333545L58.6367188 28.9333545C59.1547851 28.9333545 59.5742188 28.5224809 59.5742188 28.0149872L59.5742188 19.4435586C59.5742188 18.9365434 59.1547851 18.5251913 58.6367188 18.5251913L44.8442382 18.5251913C44.3261719 18.5251913 43.9067382 18.9365434 43.9067382 19.4435586L43.9067382 28.0149872C43.9067382 28.5224809 44.3261719 28.9333545 44.8442382 28.9333545L44.8442382 28.9333545zM45.7817382 20.361926L57.6992187 20.361926 57.6992187 27.0966198 45.7817382 27.0966198 45.7817382 20.361926zM6.290039 15.8088329L20.0830078 15.8088329C20.600586 15.8088329 21.0205078 15.3974809 21.0205078 14.8904656L21.0205078 6.31903702C21.0205078 5.81202171 20.600586 5.40066967 20.0830078 5.40066967L6.290039 5.40066967C5.772461 5.40066967 5.352539 5.81202171 5.352539 6.31903702L5.352539 14.8904656C5.352539 15.3974809 5.772461 15.8088329 6.290039 15.8088329zM7.227539 7.23740437L19.1455078 7.23740437 19.1455078 13.9720982 7.227539 13.9720982 7.227539 7.23740437zM34.8842774 18.4314414L6.17382813 18.4314414C5.65625 18.4314414 5.23632813 18.8427933 5.23632813 19.3498087 5.23632813 19.8573023 5.65625 20.2681761 6.17382813 20.2681761L34.8842774 20.2681761C35.4018555 20.2681761 35.8217774 19.8573023 35.8217774 19.3498087 35.8217774 18.8427933 35.4018555 18.4314414 34.8842774 18.4314414zM34.8842774 23.25287L6.17382813 23.25287C5.65625 23.25287 5.23632813 23.6642219 5.23632813 24.1712373 5.23632813 24.6787309 5.65625 25.0896047 6.17382813 25.0896047L34.8842774 25.0896047C35.4018555 25.0896047 35.8217774 24.6787309 35.8217774 24.1712373 35.8217774 23.6642219 35.4018555 23.25287 34.8842774 23.25287zM58.6367188 31.9180484L45.274414 31.9180484C44.756836 31.9180484 44.336914 32.3294006 44.336914 32.8364158 44.336914 33.3434312 44.756836 33.7547831 45.274414 33.7547831L58.6367188 33.7547831C59.1547851 33.7547831 59.5742188 33.3434312 59.5742188 32.8364158 59.5742188 32.3294006 59.1547851 31.9180484 58.6367188 31.9180484zM58.6367188 36.739477L45.274414 36.739477C44.756836 36.739477 44.336914 37.1508291 44.336914 37.6578443 44.336914 38.1648598 44.756836 38.5762117 45.274414 38.5762117L58.6367188 38.5762117C59.1547851 38.5762117 59.5742188 38.1648598 59.5742188 37.6578443 59.5742188 37.1508291 59.1547851 36.739477 58.6367188 36.739477z"/>
    </g>
  </g>
</svg>
