<svg xmlns="http://www.w3.org/2000/svg" width="500" height="500" viewBox="0 0 500 500">
  <defs>
    <linearGradient id="thank-you_left-visual-a" x1="18.926%" y1="0%" y2="0%">
      <stop offset="0%" stop-color="#FFF"/>
      <stop offset="100%" stop-color="#E0E0E0"/>
    </linearGradient>
    <linearGradient id="thank-you_left-visual-b" x1="58.973%" x2="39.396%" y1="20.321%" y2="88.209%">
      <stop offset="0%" stop-color="#FD427C"/>
      <stop offset="100%" stop-color="#FA311F"/>
    </linearGradient>
    <linearGradient id="thank-you_left-visual-c" x1="37.413%" x2="56.946%" y1="0%" y2="64.488%">
      <stop offset="0%" stop-color="#CDCDCD" stop-opacity="0"/>
      <stop offset="100%" stop-color="#838383"/>
    </linearGradient>
    <linearGradient id="thank-you_left-visual-d" x1="57.196%" x2="41.497%" y1="20.321%" y2="88.209%">
      <stop offset="0%" stop-color="#FD427C"/>
      <stop offset="100%" stop-color="#FA311F"/>
    </linearGradient>
    <linearGradient id="thank-you_left-visual-e" x1="50%" x2="50%" y1="0%" y2="100%">
      <stop offset="0%" stop-color="#FFF"/>
      <stop offset="100%" stop-color="#D8D8D8"/>
    </linearGradient>
    <linearGradient id="thank-you_left-visual-f" x1="50%" x2="50%" y1="0%" y2="100%">
      <stop offset="0%" stop-color="#FFF"/>
      <stop offset="100%" stop-color="#D8D8D8"/>
    </linearGradient>
    <linearGradient id="thank-you_left-visual-g" x1="73.476%" x2="27.286%" y1="0%" y2="100%">
      <stop offset="0%" stop-color="#FD427C"/>
      <stop offset="100%" stop-color="#FA311F"/>
    </linearGradient>
    <linearGradient id="thank-you_left-visual-h" x1="26.873%" x2="47.239%" y1="21.937%" y2="20.99%">
      <stop offset="0%" stop-color="#FD427C"/>
      <stop offset="100%" stop-color="#FA311F"/>
    </linearGradient>
    <linearGradient id="thank-you_left-visual-i" x1="48.224%" x2="47.668%" y1="8.098%" y2="100%">
      <stop offset="0%" stop-color="#FD427C"/>
      <stop offset="100%" stop-color="#FA311F"/>
    </linearGradient>
    <linearGradient id="thank-you_left-visual-j" x1="46.947%" x2="45.837%" y1="76.833%" y2="29.368%">
      <stop offset="0%" stop-color="#FEC0A4"/>
      <stop offset="100%" stop-color="#F7A883"/>
    </linearGradient>
    <linearGradient id="thank-you_left-visual-k" x1="19.99%" x2="74.765%" y1="78.516%" y2="41.915%">
      <stop offset="0%" stop-color="#FEC0A4"/>
      <stop offset="100%" stop-color="#FFAD86"/>
    </linearGradient>
    <linearGradient id="thank-you_left-visual-l" x1="50%" x2="37.247%" y1="3.799%" y2="54.208%">
      <stop offset="0%" stop-color="#565557"/>
      <stop offset="100%" stop-color="#38373A"/>
    </linearGradient>
    <linearGradient id="thank-you_left-visual-m" x1="45.402%" x2="52.963%" y1="27.724%" y2="90.372%">
      <stop offset="0%" stop-color="#FD427C"/>
      <stop offset="100%" stop-color="#FA311F"/>
    </linearGradient>
    <linearGradient id="thank-you_left-visual-n" x1="44.913%" x2="51.368%" y1="34.549%" y2="90.764%">
      <stop offset="0%" stop-color="#FD427C"/>
      <stop offset="100%" stop-color="#FA311F"/>
    </linearGradient>
    <linearGradient id="thank-you_left-visual-o" x1="82.766%" x2="17.234%" y1="100%" y2="10.424%">
      <stop offset="0%" stop-color="#FFADC8"/>
      <stop offset="100%" stop-color="#FC394E"/>
    </linearGradient>
    <linearGradient id="thank-you_left-visual-p" x1="72.222%" x2="50%" y1="100%" y2="15.112%">
      <stop offset="0%" stop-color="#FFADC8"/>
      <stop offset="100%" stop-color="#FC394E"/>
    </linearGradient>
    <linearGradient id="thank-you_left-visual-q" x1="51.954%" x2="52.736%" y1="76.262%" y2="36.962%">
      <stop offset="0%" stop-color="#FEC0A4"/>
      <stop offset="100%" stop-color="#FFAD86"/>
    </linearGradient>
    <linearGradient id="thank-you_left-visual-r" x1="36.727%" x2="68.841%" y1="16.616%" y2="95.694%">
      <stop offset="0%" stop-color="#FEC0A4"/>
      <stop offset="100%" stop-color="#FFAD86"/>
    </linearGradient>
    <linearGradient id="thank-you_left-visual-s" x1="5.75%" x2="46.11%" y1="23.723%" y2="100.201%">
      <stop offset="0%" stop-color="#FD427C"/>
      <stop offset="100%" stop-color="#FA311F"/>
    </linearGradient>
    <linearGradient id="thank-you_left-visual-t" x1="5.75%" x2="46.11%" y1="44.337%" y2="60.819%">
      <stop offset="0%" stop-color="#FD427C"/>
      <stop offset="100%" stop-color="#FA311F"/>
    </linearGradient>
  </defs>
  <g fill="none" fill-rule="evenodd" transform="translate(45 16)">
    <g transform="translate(25)">
      <g transform="translate(.5)">
        <path fill="#F9F9FB" d="M6.69056153,0 L219.798313,-8.8817842e-16 C223.493408,-1.56695638e-15 226.488874,2.99546643 226.488874,6.69056153 L226.488874,133.309438 C226.488874,137.004534 223.493408,140 219.798313,140 L6.69056153,140 C2.99546643,140 1.34069706e-15,137.004534 8.8817842e-16,133.309438 L8.8817842e-16,6.69056153 C4.35659781e-16,2.99546643 2.99546643,-2.09400462e-16 6.69056153,-8.8817842e-16 Z"/>
        <polygon fill="#F4F5FA" fill-rule="nonzero" points="45.987 19.366 42.688 22.086 40.609 19.806 36.546 22.74 33.857 21.062 30.237 23.429 27.318 18.667 26.372 19.159 29.883 24.889 33.871 22.28 36.593 23.978 40.453 21.191 42.577 23.521 46.121 20.599 49.979 22.679 52.744 20.352 52.011 19.613 49.837 21.442"/>
        <polygon fill="#F2F3F8" points="15.513 14.629 58.949 14 58.949 62.222 15.513 61.151"/>
        <polygon fill="#FFF" points="17.064 13.073 60.5 12.444 60.5 60.667 17.064 59.595"/>
        <polygon fill="#F4F5FA" fill-rule="nonzero" points="26.372 34.222 54.295 34.222 54.295 32.667 26.372 32.667"/>
        <polygon fill="#F4F5FA" fill-rule="nonzero" points="21.718 42 52.744 42 52.744 40.444 21.718 40.444"/>
        <polygon fill="#F4F5FA" fill-rule="nonzero" points="21.718 48.222 52.744 48.222 52.744 46.667 21.718 46.667"/>
        <polygon fill="#F4F5FA" fill-rule="nonzero" points="21.718 52.889 52.744 52.889 52.744 51.333 21.718 51.333"/>
        <g transform="translate(99.283 10.889)">
          <polygon fill="#EBEEF5" points="0 1.715 42.935 1.081 42.935 49.734 0 48.653"/>
          <polygon fill="#FFF" points="1.073 .513 43.532 0 44.663 41.277 38.673 47.22 1.984 47.825"/>
          <polygon fill="#F4F5F9" points="44.674 41.26 38.641 41.085 38.641 47.25"/>
          <polygon fill="#F4F5FA" fill-rule="nonzero" points="37.418 32.435 6.44 32.435 6.44 34.598 37.418 34.598"/>
          <polygon fill="#F4F5FA" fill-rule="nonzero" points="37.418 27.029 6.44 27.029 6.44 29.192 37.418 29.192"/>
          <polygon fill="#F4F5FA" fill-rule="nonzero" points="24.687 20.542 6.44 20.542 6.44 22.705 24.687 22.705"/>
          <path fill="#F4F5FA" fill-rule="nonzero" d="M33.2742486,22.704695 C29.717437,22.704695 26.8340715,19.8003413 26.8340715,16.2176393 C26.8340715,12.6349374 29.717437,9.73058359 33.2742486,9.73058359 C36.8310603,9.73058359 39.7144258,12.6349374 39.7144258,16.2176393 C39.7144258,19.8003413 36.8310603,22.704695 33.2742486,22.704695 Z M33.2742486,20.5423431 C35.6454564,20.5423431 37.5677001,18.6061073 37.5677001,16.2176393 C37.5677001,13.8291713 35.6454564,11.8929355 33.2742486,11.8929355 C30.9030409,11.8929355 28.9807972,13.8291713 28.9807972,16.2176393 C28.9807972,18.6061073 30.9030409,20.5423431 33.2742486,20.5423431 Z"/>
          <polygon fill="#F4F5FA" fill-rule="nonzero" points="23.614 15.136 6.44 15.136 6.44 17.299 23.614 17.299"/>
          <polygon fill="#F4F5FA" fill-rule="nonzero" points="21.467 9.731 6.44 9.731 6.44 11.893 21.467 11.893"/>
          <polygon fill="#F4F5FA" fill-rule="nonzero" points="37.418 37.841 6.44 37.841 6.44 40.004 37.418 40.004"/>
        </g>
        <g transform="rotate(14 -355.895 125.489)">
          <path fill="#EBEEF5" d="M0,0.693422718 L17.700929,0.437057634 C17.8300613,6.31996905 17.8946275,10.7275282 17.8946275,13.6597351 C17.8946275,16.5919421 17.8300613,18.7402474 17.700929,20.1046512 L0,19.6675935 C0.171088524,16.7247041 0.256632786,14.5365017 0.256632786,13.1029864 C0.256632786,11.6694711 0.171088524,7.53294982 0,0.693422718 Z"/>
          <path fill="#FFF" d="M0.442523225,0.207331156 L17.9472233,-4.54747351e-13 C18.300534,5.22297222 18.5097761,9.00048566 18.5749493,11.3325403 C18.6401226,13.664595 18.5863196,15.4490561 18.4135402,16.6859236 L15.944157,19.0882318 L0.817886026,19.3331091 C1.0419169,16.5426444 1.13318872,14.090467 1.09170148,11.9765767 C1.05021424,9.86268643 0.833821487,5.93960459 0.442523225,0.207331156 Z"/>
          <polygon fill="#F4F5F9" points="18.418 16.679 15.931 16.608 15.931 19.1"/>
          <polygon fill="#F4F5FA" fill-rule="nonzero" points="15.427 13.112 2.655 13.112 2.655 13.986 15.427 13.986"/>
          <polygon fill="#F4F5FA" fill-rule="nonzero" points="15.427 10.926 2.655 10.926 2.655 11.801 15.427 11.801"/>
          <polygon fill="#F4F5FA" fill-rule="nonzero" points="10.178 8.304 2.655 8.304 2.655 9.178 10.178 9.178"/>
          <path fill="#F4F5FA" fill-rule="nonzero" d="M13.71822,9.17821031 C12.251827,9.17821031 11.0630806,8.00414611 11.0630806,6.55586451 C11.0630806,5.10758291 12.251827,3.93351871 13.71822,3.93351871 C15.1846129,3.93351871 16.3733593,5.10758291 16.3733593,6.55586451 C16.3733593,8.00414611 15.1846129,9.17821031 13.71822,9.17821031 Z M13.71822,8.30409505 C14.6958153,8.30409505 15.4883129,7.52138557 15.4883129,6.55586451 C15.4883129,5.59034345 14.6958153,4.80763397 13.71822,4.80763397 C12.7406247,4.80763397 11.9481271,5.59034345 11.9481271,6.55586451 C11.9481271,7.52138557 12.7406247,8.30409505 13.71822,8.30409505 Z"/>
          <polygon fill="#F4F5FA" fill-rule="nonzero" points="9.736 6.119 2.655 6.119 2.655 6.993 9.736 6.993"/>
          <polygon fill="#F4F5FA" fill-rule="nonzero" points="8.85 3.934 2.655 3.934 2.655 4.808 8.85 4.808"/>
          <polygon fill="#F4F5FA" fill-rule="nonzero" points="15.427 15.297 2.655 15.297 2.655 16.171 15.427 16.171"/>
        </g>
        <g transform="translate(116.347 74.667)">
          <path fill="#EBEEF5" d="M0,0.693422718 L17.700929,0.437057634 C17.8300613,6.31996905 17.8946275,10.7275282 17.8946275,13.6597351 C17.8946275,16.5919421 17.8300613,18.7402474 17.700929,20.1046512 L0,19.6675935 C0.171088524,16.7247041 0.256632786,14.5365017 0.256632786,13.1029864 C0.256632786,11.6694711 0.171088524,7.53294982 0,0.693422718 Z"/>
          <path fill="#FFF" d="M0.442523225,0.207331156 L17.9472233,-4.54747351e-13 C18.300534,5.22297222 18.5097761,9.00048566 18.5749493,11.3325403 C18.6401226,13.664595 18.5863196,15.4490561 18.4135402,16.6859236 L15.944157,19.0882318 L0.817886026,19.3331091 C1.0419169,16.5426444 1.13318872,14.090467 1.09170148,11.9765767 C1.05021424,9.86268643 0.833821487,5.93960459 0.442523225,0.207331156 Z"/>
          <polygon fill="#F4F5F9" points="18.418 16.679 15.931 16.608 15.931 19.1"/>
          <polygon fill="#F4F5FA" fill-rule="nonzero" points="15.427 13.112 2.655 13.112 2.655 13.986 15.427 13.986"/>
          <polygon fill="#F4F5FA" fill-rule="nonzero" points="15.427 10.926 2.655 10.926 2.655 11.801 15.427 11.801"/>
          <polygon fill="#F4F5FA" fill-rule="nonzero" points="10.178 8.304 2.655 8.304 2.655 9.178 10.178 9.178"/>
          <path fill="#F4F5FA" fill-rule="nonzero" d="M13.71822,9.17821031 C12.251827,9.17821031 11.0630806,8.00414611 11.0630806,6.55586451 C11.0630806,5.10758291 12.251827,3.93351871 13.71822,3.93351871 C15.1846129,3.93351871 16.3733593,5.10758291 16.3733593,6.55586451 C16.3733593,8.00414611 15.1846129,9.17821031 13.71822,9.17821031 Z M13.71822,8.30409505 C14.6958153,8.30409505 15.4883129,7.52138557 15.4883129,6.55586451 C15.4883129,5.59034345 14.6958153,4.80763397 13.71822,4.80763397 C12.7406247,4.80763397 11.9481271,5.59034345 11.9481271,6.55586451 C11.9481271,7.52138557 12.7406247,8.30409505 13.71822,8.30409505 Z"/>
          <polygon fill="#F4F5FA" fill-rule="nonzero" points="9.736 6.119 2.655 6.119 2.655 6.993 9.736 6.993"/>
          <polygon fill="#F4F5FA" fill-rule="nonzero" points="8.85 3.934 2.655 3.934 2.655 4.808 8.85 4.808"/>
          <polygon fill="#F4F5FA" fill-rule="nonzero" points="15.427 15.297 2.655 15.297 2.655 16.171 15.427 16.171"/>
        </g>
        <g transform="translate(124.103 104.222)">
          <path fill="#EBEEF5" d="M0,0.693422718 L17.700929,0.437057634 C17.8300613,6.31996905 17.8946275,10.7275282 17.8946275,13.6597351 C17.8946275,16.5919421 17.8300613,18.7402474 17.700929,20.1046512 L0,19.6675935 C0.171088524,16.7247041 0.256632786,14.5365017 0.256632786,13.1029864 C0.256632786,11.6694711 0.171088524,7.53294982 0,0.693422718 Z"/>
          <path fill="#FFF" d="M0.442523225,0.207331156 L17.9472233,-4.54747351e-13 C18.300534,5.22297222 18.5097761,9.00048566 18.5749493,11.3325403 C18.6401226,13.664595 18.5863196,15.4490561 18.4135402,16.6859236 L15.944157,19.0882318 L0.817886026,19.3331091 C1.0419169,16.5426444 1.13318872,14.090467 1.09170148,11.9765767 C1.05021424,9.86268643 0.833821487,5.93960459 0.442523225,0.207331156 Z"/>
          <polygon fill="#F4F5F9" points="18.418 16.679 15.931 16.608 15.931 19.1"/>
          <polygon fill="#F4F5FA" fill-rule="nonzero" points="15.427 13.112 2.655 13.112 2.655 13.986 15.427 13.986"/>
          <polygon fill="#F4F5FA" fill-rule="nonzero" points="15.427 10.926 2.655 10.926 2.655 11.801 15.427 11.801"/>
          <polygon fill="#F4F5FA" fill-rule="nonzero" points="10.178 8.304 2.655 8.304 2.655 9.178 10.178 9.178"/>
          <path fill="#F4F5FA" fill-rule="nonzero" d="M13.71822,9.17821031 C12.251827,9.17821031 11.0630806,8.00414611 11.0630806,6.55586451 C11.0630806,5.10758291 12.251827,3.93351871 13.71822,3.93351871 C15.1846129,3.93351871 16.3733593,5.10758291 16.3733593,6.55586451 C16.3733593,8.00414611 15.1846129,9.17821031 13.71822,9.17821031 Z M13.71822,8.30409505 C14.6958153,8.30409505 15.4883129,7.52138557 15.4883129,6.55586451 C15.4883129,5.59034345 14.6958153,4.80763397 13.71822,4.80763397 C12.7406247,4.80763397 11.9481271,5.59034345 11.9481271,6.55586451 C11.9481271,7.52138557 12.7406247,8.30409505 13.71822,8.30409505 Z"/>
          <polygon fill="#F4F5FA" fill-rule="nonzero" points="9.736 6.119 2.655 6.119 2.655 6.993 9.736 6.993"/>
          <polygon fill="#F4F5FA" fill-rule="nonzero" points="8.85 3.934 2.655 3.934 2.655 4.808 8.85 4.808"/>
          <polygon fill="#F4F5FA" fill-rule="nonzero" points="15.427 15.297 2.655 15.297 2.655 16.171 15.427 16.171"/>
        </g>
        <g transform="translate(144.27 74.667)">
          <path fill="#EBEEF5" d="M0,0.693422718 L17.700929,0.437057634 C17.8300613,6.31996905 17.8946275,10.7275282 17.8946275,13.6597351 C17.8946275,16.5919421 17.8300613,18.7402474 17.700929,20.1046512 L0,19.6675935 C0.171088524,16.7247041 0.256632786,14.5365017 0.256632786,13.1029864 C0.256632786,11.6694711 0.171088524,7.53294982 0,0.693422718 Z"/>
          <path fill="#FFF" d="M0.442523225,0.207331156 L17.9472233,-4.54747351e-13 C18.300534,5.22297222 18.5097761,9.00048566 18.5749493,11.3325403 C18.6401226,13.664595 18.5863196,15.4490561 18.4135402,16.6859236 L15.944157,19.0882318 L0.817886026,19.3331091 C1.0419169,16.5426444 1.13318872,14.090467 1.09170148,11.9765767 C1.05021424,9.86268643 0.833821487,5.93960459 0.442523225,0.207331156 Z"/>
          <polygon fill="#F4F5F9" points="18.418 16.679 15.931 16.608 15.931 19.1"/>
          <polygon fill="#F4F5FA" fill-rule="nonzero" points="15.427 13.112 2.655 13.112 2.655 13.986 15.427 13.986"/>
          <polygon fill="#F4F5FA" fill-rule="nonzero" points="15.427 10.926 2.655 10.926 2.655 11.801 15.427 11.801"/>
          <polygon fill="#F4F5FA" fill-rule="nonzero" points="10.178 8.304 2.655 8.304 2.655 9.178 10.178 9.178"/>
          <path fill="#F4F5FA" fill-rule="nonzero" d="M13.71822,9.17821031 C12.251827,9.17821031 11.0630806,8.00414611 11.0630806,6.55586451 C11.0630806,5.10758291 12.251827,3.93351871 13.71822,3.93351871 C15.1846129,3.93351871 16.3733593,5.10758291 16.3733593,6.55586451 C16.3733593,8.00414611 15.1846129,9.17821031 13.71822,9.17821031 Z M13.71822,8.30409505 C14.6958153,8.30409505 15.4883129,7.52138557 15.4883129,6.55586451 C15.4883129,5.59034345 14.6958153,4.80763397 13.71822,4.80763397 C12.7406247,4.80763397 11.9481271,5.59034345 11.9481271,6.55586451 C11.9481271,7.52138557 12.7406247,8.30409505 13.71822,8.30409505 Z"/>
          <polygon fill="#F4F5FA" fill-rule="nonzero" points="9.736 6.119 2.655 6.119 2.655 6.993 9.736 6.993"/>
          <polygon fill="#F4F5FA" fill-rule="nonzero" points="8.85 3.934 2.655 3.934 2.655 4.808 8.85 4.808"/>
          <polygon fill="#F4F5FA" fill-rule="nonzero" points="15.427 15.297 2.655 15.297 2.655 16.171 15.427 16.171"/>
        </g>
        <g transform="translate(170.642 51.333)">
          <polygon fill="#EBEEF5" points="0 1.715 42.935 1.081 42.935 49.734 0 48.653"/>
          <polygon fill="#FFF" points="1.073 .513 43.532 0 44.663 41.277 38.673 47.22 1.984 47.825"/>
          <polygon fill="#F4F5F9" points="44.674 41.26 38.641 41.085 38.641 47.25"/>
          <polygon fill="#F4F5FA" fill-rule="nonzero" points="37.418 32.435 6.44 32.435 6.44 34.598 37.418 34.598"/>
          <polygon fill="#F4F5FA" fill-rule="nonzero" points="37.418 27.029 6.44 27.029 6.44 29.192 37.418 29.192"/>
          <polygon fill="#F4F5FA" fill-rule="nonzero" points="31.128 5.406 6.44 5.406 6.44 7.568 31.128 7.568"/>
          <polygon fill="#F4F5FA" fill-rule="nonzero" points="37.418 37.841 6.44 37.841 6.44 40.004 37.418 40.004"/>
          <polygon fill="#F4F5FA" points="13.596 12.076 16.548 12.076 16.548 23.786 13.596 23.786"/>
          <polygon fill="#F4F5FA" points="20.752 17.265 23.703 17.265 23.703 23.786 20.752 23.786"/>
          <polygon fill="#F4F5FA" points="27.907 18.41 30.859 18.41 30.859 23.786 27.907 23.786"/>
          <polygon fill="#F4F5FA" points="6.44 11.893 9.392 11.893 9.392 23.786 6.44 23.786"/>
        </g>
        <g transform="translate(54.295 77.778)">
          <polygon fill="#EBEEF5" points="0 1.715 42.935 1.081 42.935 49.734 0 48.653"/>
          <polygon fill="#FFF" points="1.073 .513 43.532 0 44.663 41.277 38.673 47.22 1.984 47.825"/>
          <polygon fill="#F4F5F9" points="44.674 41.26 38.641 41.085 38.641 47.25"/>
          <polygon fill="#F4F5FA" fill-rule="nonzero" points="37.418 32.435 6.44 32.435 6.44 34.598 37.418 34.598"/>
          <polygon fill="#F4F5FA" fill-rule="nonzero" points="31.128 27.029 6.44 27.029 6.44 29.192 31.128 29.192"/>
          <path fill="#F4F5FA" fill-rule="nonzero" d="M12.8803543,22.704695 C9.32354268,22.704695 6.44017716,19.8003413 6.44017716,16.2176393 C6.44017716,12.6349374 9.32354268,9.73058359 12.8803543,9.73058359 C16.4371659,9.73058359 19.3205315,12.6349374 19.3205315,16.2176393 C19.3205315,19.8003413 16.4371659,22.704695 12.8803543,22.704695 Z M12.8803543,20.5423431 C15.2515621,20.5423431 17.1738058,18.6061073 17.1738058,16.2176393 C17.1738058,13.8291713 15.2515621,11.8929355 12.8803543,11.8929355 C10.5091466,11.8929355 8.58690288,13.8291713 8.58690288,16.2176393 C8.58690288,18.6061073 10.5091466,20.5423431 12.8803543,20.5423431 Z"/>
          <polygon fill="#F4F5FA" fill-rule="nonzero" points="37.418 37.841 6.44 37.841 6.44 40.004 37.418 40.004"/>
          <ellipse cx="31.128" cy="16.218" fill="#F4F5FA" rx="6.44" ry="6.487"/>
        </g>
      </g>
      <g transform="translate(76 289)">
        <rect width="256.059" height="6.775" y="152.704" fill="url(#thank-you_left-visual-a)"/>
        <g transform="translate(201.301)">
          <path fill="url(#thank-you_left-visual-b)" d="M5.21678973,72.279224 L6.46988398,70.7157721 C6.64989778,70.4911738 6.61375485,70.1631708 6.3891565,69.983157 C6.33261428,69.9378389 6.26724313,69.9048095 6.19721726,69.8861779 L4.03430348,69.3106986 C3.26320618,67.6791512 2.78575553,66.4923243 2.60195152,65.750218 C2.41814751,65.0081117 1.85558267,61.9958895 0.91425702,56.7135514 L6.29925775,54.6946877 C6.83829251,54.4926009 7.11144277,53.8918031 6.90935594,53.3527683 C6.79958667,53.0599761 6.56417003,52.8319305 6.26803517,52.7315277 L1.06809215,50.9685263 C0.680358123,50.8370673 0.40548633,50.4907984 0.365429672,50.0833495 C-0.143646724,44.9051187 -0.12083122,40.4115324 0.433876184,36.6025906 C1.01237776,32.6302642 2.21252019,28.5944386 4.03430348,24.495114 C12.0028136,25.5301853 17.9459908,27.2303293 21.8638351,29.595546 C27.7406015,33.1433712 47.7459468,48.2504832 49.3124229,78.2308536 C50.3567403,98.2177671 49.4917651,110.56787 46.7174972,115.281162 C30.7995362,101.996518 20.2530275,92.6730682 15.0779713,87.3108115 C9.90291504,81.9485549 6.61585452,76.9380257 5.21678973,72.279224 Z"/>
          <path fill="url(#thank-you_left-visual-c)" d="M5.21678973,72.279224 L6.46988398,70.7157721 C6.64989778,70.4911738 6.61375485,70.1631708 6.3891565,69.983157 C6.33261428,69.9378389 6.26724313,69.9048095 6.19721726,69.8861779 L4.03430348,69.3106986 C3.26320618,67.6791512 2.78575553,66.4923243 2.60195152,65.750218 C2.41814751,65.0081117 1.85558267,61.9958895 0.91425702,56.7135514 L6.29925775,54.6946877 C6.83829251,54.4926009 7.11144277,53.8918031 6.90935594,53.3527683 C6.79958667,53.0599761 6.56417003,52.8319305 6.26803517,52.7315277 L1.06809215,50.9685263 C0.680358123,50.8370673 0.40548633,50.4907984 0.365429672,50.0833495 C-0.143646724,44.9051187 -0.12083122,40.4115324 0.433876184,36.6025906 C1.01237776,32.6302642 2.21252019,28.5944386 4.03430348,24.495114 C12.0028136,25.5301853 17.9459908,27.2303293 21.8638351,29.595546 C27.7406015,33.1433712 47.7459468,48.2504832 49.3124229,78.2308536 C50.3567403,98.2177671 49.4917651,110.56787 46.7174972,115.281162 C30.7995362,101.996518 20.2530275,92.6730682 15.0779713,87.3108115 C9.90291504,81.9485549 6.61585452,76.9380257 5.21678973,72.279224 Z" style="mix-blend-mode:multiply"/>
          <path stroke="#B9B9B9" stroke-linecap="round" stroke-linejoin="round" stroke-width="1.564" d="M26.4046522,107.907827 C21.3069802,100.381017 18.9288959,89.506995 19.2703992,75.2857625 C19.7826541,53.9539137 33.0678133,41.7431402 37.6923592,27.6483986 C42.316905,13.5536571 37.6923592,1.27412286 27.6686034,0.0979538367 C17.6448476,-1.07821519 13.7240774,8.62094944 16.5274286,13.9915242 C18.3963295,17.5719073 21.4233038,19.2249837 25.6083516,18.9507534 C29.0062079,18.4078279 30.990373,16.8642423 31.560847,14.3199965 C32.2879826,11.0770584 29.5854646,8.05301522 26.8783913,8.16644985 C24.3432406,8.2726804 22.9090275,9.48674808 22.5757522,11.8086529"/>
          <path fill="url(#thank-you_left-visual-d)" d="M31.9226982,126.168511 C27.1399819,95.1979472 28.6682572,67.762839 36.5075241,43.8631866 C44.3467911,19.9635342 60.3176696,6.55854153 84.4201596,3.64820847 C86.3428086,10.5473228 87.6047043,15.8794304 88.2058468,19.6445312 C88.7829273,23.2589268 89.15294,27.9461228 89.3158847,33.7061191 L89.3158587,33.7061198 C89.3281949,34.1421974 89.0676551,34.5398251 88.6629163,34.7026204 L81.6272472,37.5325276 C81.0931601,37.7473497 80.8343447,38.3544605 81.0491667,38.8885476 C81.1529271,39.1465151 81.3554558,39.3523332 81.6117181,39.4602362 L87.4786954,41.9305937 C87.9095736,42.1120212 88.1669477,42.5581451 88.1083242,43.0219718 C87.6621332,46.5522141 87.2251456,49.1536917 86.7973613,50.8264045 C86.3669428,52.5094182 85.6431448,54.4357904 84.6259674,56.6055212 L84.6259788,56.6055265 C84.4970501,56.880543 84.2545766,57.0856432 83.9619861,57.1671756 L82.3015799,57.6298595 C81.7628789,57.7799724 81.4478659,58.3383663 81.5979787,58.8770674 C81.6507672,59.0665063 81.7575776,59.2364739 81.905366,59.3662134 L82.838029,60.1849589 C83.1336813,60.4445042 83.2580162,60.8483981 83.1595134,61.2292803 C82.3935753,64.1909462 80.8750515,67.2735017 78.6039419,70.476947 C74.9554533,75.623213 63.1706025,86.3462515 60.1670329,89.8721236 C58.8373859,91.4329881 53.9162662,97.2174887 46.0497687,107.375115 C43.3964074,110.801271 38.6873839,117.065737 31.9226982,126.168511 Z"/>
          <path stroke="#FFF" stroke-linecap="round" stroke-linejoin="round" stroke-width="1.042" d="M31.811828,125.121627 C40.3686719,93.3982579 48.0302567,69.5451086 54.7965825,53.562179 C61.5629083,37.5792495 71.2497684,20.9412593 83.8571626,3.64820847"/>
          <polyline stroke="#FFF" stroke-linecap="round" stroke-linejoin="round" stroke-width="1.042" points="88.946 28.376 67.104 30.186 59.973 11.987"/>
          <polyline stroke="#FFF" stroke-linecap="round" stroke-linejoin="round" stroke-width="1.042" points="79.2 68.954 47.992 72.245 34.419 50.554"/>
          <polyline stroke="#1290C4" stroke-linecap="round" stroke-linejoin="round" stroke-width="1.042" points="46.109 106.568 36.756 108.468 29.204 102.15"/>
          <path fill="#838383" d="M13.5591398,101.628664 L67.2741935,101.628664 L67.2741935,147.029281 C67.2741935,153.937338 61.674107,159.537424 54.7660502,159.537424 L26.0672831,159.537424 C19.1592263,159.537424 13.5591398,153.937338 13.5591398,147.029281 L13.5591398,101.628664 Z"/>
          <path fill="#CDCDCD" d="M27.6397849,101.628664 L67.2741935,101.628664 L67.2741935,147.029281 C67.2741935,153.937338 61.674107,159.537424 54.7660502,159.537424 L27.6397849,159.537424 L27.6397849,101.628664 Z"/>
          <path fill="#FFF" d="M59.7753727,101.628664 L64.4689211,101.628664 L64.4689211,145.672995 C64.4689211,152.581052 58.8688346,158.181138 51.9607778,158.181138 L47.2672294,158.181138 C54.1752862,158.181138 59.7753727,152.581052 59.7753727,145.672995 L59.7753727,101.628664 Z"/>
          <polyline stroke="#FFF" stroke-linecap="round" stroke-linejoin="round" stroke-width="1.042" points="87.146 47.786 56.608 50.528 44.328 27.101"/>
          <polyline stroke="#FFF" stroke-linecap="round" stroke-linejoin="round" stroke-width="1.042" points="58.536 91.266 41.455 93.195 29.726 76.091"/>
        </g>
      </g>
      <path stroke="#F4F5FA" stroke-width="1.4" d="M386 86L295.495273 86C288.144273 86.6654831 283.177632 87.2976613 280.595348 87.8965346 262.897653 92.0009159 249.185297 95.4852311 233.135846 96.2765846 213.573715 97.2411385 189.861767 97.2411385 162 96.2765846M386 92L160 92"/>
      <path stroke="#F4F5FA" stroke-width="1.4" d="M386,134 L303.054134,134 C288.110601,134 273.357046,130.650878 259.878149,124.19886 L206.819824,98.8011398 C193.340927,92.3491223 178.587373,89 163.64384,89 L160,89"/>
      <path stroke="#F4F5FA" stroke-width="1.4" d="M386,157.766105 L311.953553,157.766105 C293.346339,157.766105 275.108166,152.574575 259.290303,142.775411 L194.348302,102.543853 C184.04079,96.1583512 172.124151,92.849085 160,93.0052848 L160,93.0052848"/>
      <path stroke="#F4F5FA" stroke-width="1.4" d="M386,193 L318.456293,193 C293.67646,193 269.779183,183.799665 251.396894,167.182457 L204.350776,124.653745 C197.941411,118.859813 190.808191,113.920949 183.129334,109.96055 L158,97"/>
      <path stroke="#F4F5FA" stroke-width="1.4" d="M383,206.8907 L359.028558,206.999738 C336.898507,207.100399 315.36018,199.857334 297.78775,186.405234 L205.512184,115.766158 C195.990168,108.476835 185.234687,102.95962 173.759431,99.4780207 L159,95"/>
      <circle cx="140" cy="144" r="1" fill="#D8D8D8"/>
      <circle cx="141" cy="179" r="1" fill="#D8D8D8"/>
      <circle cx="140" cy="212" r="1" fill="#D8D8D8"/>
      <g transform="translate(271)">
        <ellipse cx="24" cy="25" fill="#F9F9FB" rx="24" ry="25"/>
        <path fill="#E8E8F0" fill-rule="nonzero" d="M22.597501,12.9775974 C22.597501,12.7138276 22.3915337,12.5 22.1374602,12.5 C21.8833866,12.5 21.6774194,12.7138276 21.6774194,12.9775974 L21.6774194,26.0842221 C21.6774194,26.4475078 22.0526111,26.6777846 22.3592076,26.5026748 L38.4712985,17.3003984 C38.693908,17.173257 38.7750891,16.8828408 38.6526213,16.6517358 C38.5301536,16.4206308 38.2504132,16.3363516 38.0278037,16.4634931 L22.597501,25.2763722 L22.597501,12.9775974 Z"/>
      </g>
      <g transform="translate(70 50)">
        <path fill="#FFF" stroke="#DADADA" d="M99.8119769,195.652708 C102.424205,200.880613 104.558804,220.352489 106.215772,254.068336 C107.87274,287.784182 108.497047,324.45028 108.088693,364.066629 L106.215772,379.769531 L110,399 C106.408792,398.173989 103.81929,397.706127 102.231494,397.596414 C97.7281875,397.285245 94.0111746,397.88571 91.5327568,397.596414 C87.7435615,397.154115 85.3354859,396.622355 84.30853,396.001132 C82.1502481,346.659121 79.2172399,308.508307 75.5095054,281.548691 C71.801771,254.589075 67.6311152,241.087846 62.9975381,241.045005 C58.1391963,245.728195 53.7617431,259.229423 49.8651784,281.548691 C45.9686138,303.867959 41.495565,341.061828 36.4460321,393.130299 C34.2001002,394.851071 31.6439798,395.985841 28.7776709,396.534609 C26.9129085,396.891626 23.6026462,394.695268 19.7457669,394.887358 C18.3647708,394.956138 16.1557612,395.859156 13.1187379,397.596414 L11,388.055746 L14.898391,230.006503 L23.9363522,198.589213 L32.3817496,186 L97.5887966,186 L99.8119769,195.652708 Z"/>
        <path fill="url(#thank-you_left-visual-e)" d="M47.2924089,222.550003 C38.8402495,241.169609 32.6680085,261.660332 28.7756859,284.02217 C26.5213482,296.973598 28.0223823,316.46046 27.0542603,335.544157 C25.9594368,357.125404 22.674225,377.119473 20.7399105,387.515059 C19.9547829,391.734571 20.3963514,395.252802 19.7362457,395.285777 C18.3567531,395.354688 16.1501483,396.259429 13.1164313,398 L11,388.441135 L14.894147,230.090439 L23.922269,198.613225 L32.3584721,186 L96,193.314031 C83.816111,203.735174 74.5989081,210.922213 68.3483913,214.875149 C62.0978745,218.828086 55.0792137,221.38637 47.2924089,222.550003 Z"/>
        <path fill="url(#thank-you_left-visual-f)" d="M93.9875594,294.352031 C94.3154537,301.025554 88.0533225,300.506297 87.9988824,307.192135 C87.851763,325.259997 86.6228207,354.862619 84.3120554,396 C82.1536658,346.644019 79.2205112,308.482403 75.5125917,281.515154 C71.8046723,254.547904 67.6338083,241.042853 63,241 C64.1470173,241.202937 64.9631883,241.564068 65.4485128,242.083393 C75.1862643,252.503346 80.8035785,265.891981 82.698053,279.800652 C83.4475413,285.303174 93.6610461,287.706617 93.9875594,294.352031 Z"/>
        <path stroke="#DADADA" d="M91,198.006586 C92.3301364,197.885024 94.0498175,199.44619 96.1590435,202.690085 C97.2666229,204.393492 97.9442048,207.289719 99.3299677,210.018563 C100.16545,211.663794 101.722127,214.324273 104,218"/>
        <path stroke="#DADADA" d="M15,201 C16.3372459,202.370371 17.8190068,204.423699 19.4452828,207.159984 C21.220132,210.14625 22.3059284,215.223663 24.5265548,220.007636 C25.8653797,222.891914 29.3565282,227.556035 35,234" transform="matrix(-1 0 0 1 50 0)"/>
        <g transform="translate(86 393)">
          <path fill="#A9A8A9" d="M21.1265128,4.67575063 L35,19.1006383 C33.2210567,22.47002 30.3270515,24.3888251 26.3179845,24.8570534 C22.3089175,25.3252818 18.5105865,24.6432317 14.9229916,22.810903 L1.71671821,13.6297544 C0.64126748,12.882089 4.29479066e-15,11.655263 3.55271368e-15,10.3454547 L0,0 L20.304384,2.696636 L21.1265128,4.67575063 Z"/>
          <path fill="#C2C0C1" d="M21.1227592,6.00828878 L35,20.6458138 C31.2550765,21.1180621 27.2458864,21.1180621 22.9724298,20.6458138 C18.6989732,20.1735656 12.7081632,14.7298378 5,4.3146303 L20.3004079,4 L21.1227592,6.00828878 Z"/>
        </g>
        <g transform="translate(0 393)">
          <path fill="#A9A8A9" d="M21.7307046,4.68192759 L35.5817126,19.074692 C33.8056517,22.4365703 30.9163357,24.3511023 26.9137646,24.818288 C22.9111935,25.2854736 19.1190169,24.6049424 15.537235,22.7766942 L2.35607695,13.618574 C1.28008259,12.8709852 0.638423156,11.6438351 0.638423156,10.3336241 L0.638423156,0.0165895463 L20.9099079,2.70722032 L21.7307046,4.68192759 Z" transform="matrix(-1 0 0 1 36.22 0)"/>
          <path fill="#C2C0C1" d="M16.7307046,5.68192759 L30.5817126,20.074692 C26.8438683,20.5390435 22.842257,20.5390435 18.5768787,20.074692 C14.3115004,19.6103404 8.33201525,14.2576396 0.638423156,4.01658955 L15.9099079,3.70722032 L16.7307046,5.68192759 Z" transform="matrix(-1 0 0 1 31.22 0)"/>
        </g>
        <path fill="url(#thank-you_left-visual-g)" d="M105.106411,114.319679 C105.503661,124.0232 105.503661,130.930404 105.106411,135.041294 C104.215868,144.256963 101.409576,151.815742 101.265806,157.734085 C101.025837,167.612475 101.647501,180.249954 103.130798,195.646522 C97.2744458,198.932783 92.1934409,201.352729 87.887783,202.906361 C83.582125,204.459992 76.6970252,206.357832 67.2324835,208.599883 L65.7722585,196.328999 L59.4489392,212 C49.6827714,209.124246 41.4652981,205.425461 34.7965195,200.903645 C29.7541785,197.484648 26.1855235,196.608484 24.0905544,198.275154 C24.1274986,183.423968 24.4081882,173.234116 24.9326231,167.705597 C25.6463571,160.181515 28.5483102,155.067667 28.755044,150.025138 C29.1896324,139.424912 28.528814,133.702048 26.7725887,132.856546 L24.9326231,148.128846 L22.5265435,159.532583 L21.7591454,157.734085 C21.0027603,156.817336 18.5653276,156.546018 14.4468473,156.920129 C10.3283669,157.294241 6.16609623,158.165058 1.9600353,159.532583 C1.3497733,159.139685 0.928330484,158.786478 0.695706845,158.472962 C0.463083205,158.159446 0.238393796,157.641835 0.0216386165,156.920129 C-0.0496008119,153.717485 0.0550625085,151.419154 0.335628578,150.025138 C0.616194647,148.631122 1.15766355,147.719091 1.9600353,147.289043 C4.63608426,119.438381 6.91649508,100.902148 8.80126776,91.6803466 C10.6860404,82.4585449 13.4376565,76.3741132 17.0561161,73.4270515 C20.8531923,70.75326 25.0413578,68.178773 29.6206125,65.7035906 C34.1998672,63.2284082 41.4475506,59.6215811 51.3636625,54.8831093 L58.0622091,49 L84.1420108,53.1103327 L101.265806,70.113001 C109.17269,71.8279628 113.498296,73.500155 114.242623,75.1295776 C114.986949,76.7590003 118.52297,83.7409671 124.850686,96.0754779 C130.381572,100.480195 134.204015,104.102304 136.318014,106.941805 C138.432014,109.781307 139.296288,112.454345 138.910837,114.960921 L120.381108,129.080537 C117.033111,126.853427 114.458609,124.869661 112.657603,123.12924 C110.856596,121.388819 108.339532,118.452299 105.106411,114.319679 Z"/>
        <path fill="url(#thank-you_left-visual-h)" d="M105.106411,114.319679 C105.503661,124.0232 105.503661,130.930404 105.106411,135.041294 C104.215868,144.256963 101.409576,151.815742 101.265806,157.734085 C101.025837,167.612475 101.647501,180.249954 103.130798,195.646522 C97.2744458,198.932783 92.1934409,201.352729 87.887783,202.906361 C83.582125,204.459992 76.6970252,206.357832 67.2324835,208.599883 L65.7722585,196.328999 C62.5369826,177.206897 57.7341173,159.610097 51.3636625,143.538601 C46.2923824,130.744686 32.7880585,113.826465 21.296741,91.7815454 C19.3341559,88.0165261 17.9206142,81.8983614 17.0561161,73.4270515 C20.8531923,70.75326 25.0413578,68.178773 29.6206125,65.7035906 C34.1998672,63.2284082 41.4475506,59.6215811 51.3636625,54.8831093 L58.0622091,49 L84.1420108,53.1103327 L101.265806,70.113001 C109.17269,71.8279628 113.498296,73.500155 114.242623,75.1295776 C114.986949,76.7590003 118.52297,83.7409671 124.850686,96.0754779 C130.381572,100.480195 134.204015,104.102304 136.318014,106.941805 C138.432014,109.781307 139.296288,112.454345 138.910837,114.960921 L120.381108,129.080537 C117.033111,126.853427 114.458609,124.869661 112.657603,123.12924 C110.856596,121.388819 108.339532,118.452299 105.106411,114.319679 Z"/>
        <path fill="url(#thank-you_left-visual-i)" d="M105.106411,114.319679 C105.503661,124.0232 105.503661,130.930404 105.106411,135.041294 C104.215868,144.256963 101.409576,151.815742 101.265806,157.734085 C101.025837,167.612475 101.647501,180.249954 103.130798,195.646522 C97.2744458,198.932783 92.1934409,201.352729 87.887783,202.906361 C83.582125,204.459992 76.6970252,206.357832 67.2324835,208.599883 L65.7722585,196.328999 L72.2877328,87.0147979 L96.314077,122.378632 L87.887783,63.5515932 L105.106411,114.319679 Z"/>
        <path fill="url(#thank-you_left-visual-j)" d="M59.0394668,42.272334 L55,55.3929344 L60.0939409,64.030328 C62.7773786,63.8995427 64.736566,64.2677386 65.9715032,65.1349158 C67.2064403,66.0020929 68.2141147,67.6405079 68.9945262,70.0501608 C66.9791775,83.4643259 66.8165035,91.2259833 68.5065042,93.3351331 C70.1965048,95.4442829 71.5276701,92.6323589 72.5,84.899361 C72.0778773,75.2671342 72.9693767,69.1361992 75.1744983,66.506556 C76.9196175,64.4254732 79.1141766,59.6853846 84.2873229,59.8642991 C85.1963954,59.8957395 87.1006211,61.2844158 90,64.030328 C88.4154063,61.020813 86.9414561,57.8701295 85.5781492,54.5782773 C84.2148424,51.2864252 82.2333907,46.0936661 79.6337941,39 L59.0394668,42.272334 Z"/>
        <path fill="url(#thank-you_left-visual-k)" d="M64.7146335,10 C58.9048778,20.7363673 56,29.5639342 56,36.4827008 C56,46.8608507 60.0657128,49.9996152 62.3901732,51.3755315 C64.7146335,52.7514479 70.3939489,52.1292452 76.0341696,46.6980823 C79.7943167,43.0773071 84.4495935,35.7743056 90,24.7890778 L83.9516592,11.8937292 L64.7146335,10 Z"/>
        <path fill="url(#thank-you_left-visual-l)" d="M62.9218471,14.1730607 C66.2703402,15.8305174 68.7284847,16.7863378 70.2962806,17.0405219 C78.0167024,18.2922209 83.3296409,18.0585262 85.2629117,19.9704926 C87.0280842,21.7162132 85.105094,24.2002019 83.9808534,28.4101395 C83.6594365,29.6137473 83.6594365,31.8103675 83.9808534,35 L91.6614382,32.0703634 C95.837297,23.5897787 97.4036426,17.7616028 96.3604748,14.5858357 C94.7957232,9.82218495 91.9281735,5.49282702 86.9808534,2.68797904 C82.0335333,-0.116868954 77.4562701,0.951564539 73.3171856,0.738380291 C69.1781012,0.525196044 63.5798603,4.68410695 61.7070736,6.54076423 C60.458549,7.77853575 60.8634736,10.3226346 62.9218471,14.1730607 Z"/>
        <path fill="#454078" d="M89.53965,27.1526457 L91.8851509,35.3220136 C91.9586609,35.5780487 91.9269802,35.8528313 91.7971347,36.0854207 L81.6489674,54.2636177 C81.379758,54.7458467 80.7705969,54.9185332 80.288368,54.6493239 C80.1008076,54.5446163 79.9519488,54.3822962 79.8638295,54.1863944 L76.219599,46.084748 C76.0824097,45.7797566 76.106761,45.4263751 76.2844884,45.1430844 L87.7313853,26.8971658 C88.0248917,26.4293278 88.6420833,26.2880041 89.1099214,26.5815105 C89.3186323,26.7124489 89.4716577,26.9158289 89.53965,27.1526457 Z"/>
        <path fill="#9795C5" d="M90.53965,27.1526457 L92.8851509,35.3220136 C92.9586609,35.5780487 92.9269802,35.8528313 92.7971347,36.0854207 L82.6489674,54.2636177 C82.379758,54.7458467 81.7705969,54.9185332 81.288368,54.6493239 C81.1008076,54.5446163 80.9519488,54.3822962 80.8638295,54.1863944 L77.219599,46.084748 C77.0824097,45.7797566 77.106761,45.4263751 77.2844884,45.1430844 L88.7313853,26.8971658 C89.0248917,26.4293278 89.6420833,26.2880041 90.1099214,26.5815105 C90.3186323,26.7124489 90.4716577,26.9158289 90.53965,27.1526457 Z"/>
        <circle cx="72" cy="32" r="4" stroke="#FFF"/>
        <circle cx="60" cy="29" r="4" stroke="#FFF"/>
        <path stroke="#FFF" stroke-linecap="square" d="M64,30.0748316 C64.9679976,29.9750561 65.6812338,29.9750561 66.1397085,30.0748316 C66.5981832,30.174607 67.2182804,30.4647731 68,30.9453301"/>
        <path stroke="#FFF" d="M76,33 L85,33"/>
        <path fill="url(#thank-you_left-visual-m)" d="M24.9326231,148.128846 L22.5265435,159.532583 L21.7591454,157.734085 C21.0027603,156.817336 18.5653276,156.546018 14.4468473,156.920129 C10.3283669,157.294241 6.16609623,158.165058 1.9600353,159.532583 C1.3497733,159.139685 0.928330484,158.786478 0.695706845,158.472962 C0.463083205,158.159446 0.238393796,157.641835 0.0216386165,156.920129 C-0.0496008119,153.717485 0.0550625085,151.419154 0.335628578,150.025138 C0.616194647,148.631122 1.15766355,147.719091 1.9600353,147.289043 C4.33353903,124.292472 6.01629339,109.337488 7.00829838,102.42409 C7.27833573,100.542168 7.64718284,108.081003 12.4663116,121.088977 C14.2733766,125.966675 18.4288138,134.979964 24.9326231,148.128846 Z"/>
        <path fill="url(#thank-you_left-visual-n)" d="M65.7722585,196.328999 L59.4489392,212 C49.6827714,209.124246 41.4652981,205.425461 34.7965195,200.903645 C29.7541785,197.484648 26.1855235,196.608484 24.0905544,198.275154 C24.1274986,183.423968 24.4081882,173.234116 24.9326231,167.705597 C25.6463571,160.181515 28.5483102,155.067667 28.755044,150.025138 C29.1896324,139.424912 28.528814,133.702048 26.7725887,132.856546 C26.9177046,119.751362 26.0236932,111.471983 24.0905544,108.018409 C22.6931453,105.521922 35.2993666,120.092572 38.8731964,127.779846 C41.7820772,134.036821 46.7812481,149.203251 55.0935288,170.928517 C57.0956114,176.161229 60.6551879,184.628057 65.7722585,196.328999 Z"/>
        <path fill="url(#thank-you_left-visual-o)" d="M56.2181108,51 C55.2489812,53.0604437 55.5155132,54.9412232 57.0177068,56.6423384 C58.5199004,58.3434536 61.9707543,60.672319 67.3702685,63.6289348 C67.8918282,64.6223108 68.2572991,65.5298002 68.4666813,66.3514031 C68.6760636,67.173006 68.8538364,68.3971717 69,70.0239004 C68.2708018,68.5870546 67.6732084,67.5661805 67.2072197,66.961278 C66.741231,66.3563756 66.2975749,66.0255981 65.8762514,65.9689454 C65.0385896,67.0150999 64.4283193,67.8915634 64.0454403,68.5983358 C63.6625613,69.3051082 63.1837664,70.4389963 62.6090554,72 C56.3536389,65.3530423 52.8768784,60.8826131 52.178774,58.5887122 C51.4806695,56.2948114 52.8271151,53.7652406 56.2181108,51 Z"/>
        <path fill="url(#thank-you_left-visual-p)" d="M84.5321258,51 C82.4375843,54.2350355 80.1425633,57.4908044 77.6470628,60.7673065 C76.2904277,62.5485194 74.2193676,63.3598251 73.2251465,64.5218729 C72.6687285,65.1722155 72.2603463,66.1496674 72,67.4542287 C73.5013752,66.0633401 74.6242364,65.6674881 75.3685836,66.2666725 C76.1129308,66.865857 76.8724238,68.7769661 77.6470628,72 L86,59.0893252 L84.5321258,51 Z"/>
        <path fill="#ED1818" d="M67.4991613,209 L66,195.392857 C67.6040965,168.218888 68.4966929,149.462044 68.6777892,139.122324 C69.0853602,115.852004 67.5023611,99.8713043 68.6777892,91.3441728 C70.6366357,77.1337407 71.7414551,69.1795584 71.9922475,67.4816258 C72.2897266,66.7946462 72.7659169,66.3316252 73.4208184,66.0925627 C73.836806,65.9407124 74.5990251,65.8165018 75.1699914,66.0925627 C75.3886065,66.1982626 75.6525085,66.4894919 75.9616976,66.9662504 C74.4014254,69.7162779 73.2451052,83.400687 72.4927372,108.019478 C72.1966977,117.706405 73.6364463,128.745719 73.4208184,141.124469 C73.2548197,150.654104 71.8322078,165.395164 71.0146935,185.650855 C70.8321891,190.172797 70.8321891,197.607624 71.0146935,207.955336 L67.4991613,209 Z"/>
        <circle cx="70" cy="94" r="1" fill="#D8D8D8"/>
        <circle cx="71" cy="129" r="1" fill="#D8D8D8"/>
        <circle cx="70" cy="162" r="1" fill="#D8D8D8"/>
        <path fill="url(#thank-you_left-visual-q)" d="M22.2915712,158.617711 C21.7086145,168.354738 21.2912018,175.264841 21.0393331,179.348019 C20.586754,186.68502 19.9689859,192.726847 20.037271,198.118374 C20.1625591,208.010632 21.1501354,213.488672 23,214.552495 L15.3570709,230 C13.1228239,229.232007 10.8132367,222.553492 8.42830921,209.964456 C6.89787651,201.88594 4.8922956,192.289119 3.56130022,180.723067 C3.06587233,176.41791 2.54543892,169.341421 2,159.4936 L2.29877127,157.545273 C2.5232954,156.081121 3.78284109,155 5.26410821,155 L19.2915712,155 C20.9484255,155 22.2915712,156.343146 22.2915712,158 L22.2915712,158.617711 Z"/>
        <path fill="#ED1818" d="M25.4195254,147.999546 C25.0933146,151.242824 24.7697481,153.60784 24.448826,155.094594 C24.1279039,156.581348 23.5074346,157.88315 22.5874183,159 L21.8179464,157.237277 C21.0595173,156.338763 18.6154978,156.072842 14.4858878,156.439512 C10.3562778,156.806182 6.18275923,157.659678 1.96533201,159 C1.35342087,158.614917 0.930839165,158.268736 0.697586894,157.961456 C0.464334622,157.654177 0.239038021,157.146862 0.0216970918,156.439512 C-0.0497348511,153.300572 0.0552113071,151.047958 0.336535566,149.681671 C0.617859825,148.315383 1.16079197,147.421493 1.96533201,147 C4.32298999,146.223434 7.16080041,145.905852 10.4787633,146.047254 C13.7967261,146.188655 18.7769802,146.839419 25.4195254,147.999546 Z"/>
        <path fill="url(#thank-you_left-visual-r)" d="M139.472666,114.871897 C141.217088,118.407943 142.05848,120.911669 141.996845,122.383077 C141.684321,129.843865 138.215748,134.993255 136.326614,135.519549 C130.917009,137.026611 125.808207,134.988199 121.00021,129.404313 C115.367064,121.860387 110.228856,113.661072 105.585587,104.806368 C100.942318,95.9516639 95.0212685,83.0609975 87.8224376,66.1343689 C85.7092064,63.683825 84.293741,61.6178212 83.5760414,59.9363574 C82.8583418,58.2548935 82.8583418,57.0046717 83.5760414,56.1856919 C84.835092,54.3306774 85.6440855,52.091229 86.0030219,49.4673465 C86.3619584,46.8434641 85.7950494,44.6720742 84.3022951,42.9531768 L82.367967,45.5315229 C81.945547,45.8719219 81.535198,45.9570216 81.1369199,45.7868221 C80.7386417,45.6166227 80.5195811,45.2069561 80.479738,44.5578224 L81.4015003,41.7613046 C80.6879588,41.7697716 80.247067,41.639445 80.0788247,41.3703247 C79.8264613,40.9666443 80.2342883,39.6492773 80.5395026,39.1459601 C82.2522797,36.3214849 84.2596474,35.6612241 85.581693,35.2201248 C87.0019986,34.746241 88.7160332,35.0374886 90.7237966,36.0938674 C91.9906544,37.4707364 92.7768183,39.5704966 93.0822884,42.3931479 C93.3877584,45.2157991 93.3877584,50.3804714 93.0822884,57.8871646 L139.472666,114.871897 Z"/>
      </g>
    </g>
    <g transform="rotate(10 -154.416 51.02)">
      <path fill="#7F7F7F" fill-rule="nonzero" d="M0.481398618,27.1356571 C1.21431273,26.9348861 2.16021005,26.8679015 3.31449838,26.9268645 C3.56843137,26.9398358 3.78458092,26.7401163 3.79728191,26.4807786 C3.80998291,26.2214408 3.61442573,26.0006906 3.36049273,25.9877193 C2.11829945,25.924266 1.08161213,25.99768 0.242868324,26.2274415 C-0.00270171803,26.2947117 -0.148378746,26.5525561 -0.0825104239,26.8033529 C-0.0166421021,27.0541497 0.235828576,27.2029274 0.481398618,27.1356571 Z M7.13930076,27.419607 C8.02051974,27.5816244 8.97093298,27.7796334 10.0545023,28.0237759 C10.3027824,28.0797167 10.548457,27.919511 10.603232,27.6659465 C10.6580069,27.412382 10.50114,27.1614784 10.25286,27.1055376 C9.15843141,26.8589483 8.19669753,26.6585808 7.30243081,26.4941645 C7.05220284,26.4481586 6.81283508,26.6180308 6.76778796,26.8735846 C6.72274084,27.1291385 6.88907278,27.3736011 7.13930076,27.419607 Z M13.8594828,28.9209581 C15.1488183,29.2297589 15.9738842,29.4223729 16.7858686,29.6006911 C17.0344373,29.6552788 17.2792718,29.4937372 17.3327218,29.239878 C17.3861718,28.9860187 17.2279969,28.7359731 16.9794282,28.6813854 C16.1744118,28.5045975 15.3538778,28.3130414 14.0697005,28.005476 C13.8221657,27.9461904 13.5744402,28.1030676 13.5163902,28.355871 C13.4583402,28.6086744 13.611948,28.8616725 13.8594828,28.9209581 Z M20.6953615,30.283866 C21.5035884,30.3648532 22.173893,30.3713556 22.7191874,30.2948753 C23.0832666,30.2435802 23.4405618,30.1904337 23.793864,30.1350274 C24.0451688,30.0956167 24.2176089,29.8556091 24.1790196,29.5989554 C24.1404303,29.3423017 23.9054246,29.1661914 23.6541197,29.205602 C23.3054818,29.2602769 22.9528255,29.3127333 22.5936401,29.363339 C22.1305077,29.4282956 21.5278443,29.4224494 20.7852667,29.3480405 C20.5322313,29.3226854 20.3069796,29.5116228 20.282153,29.7700438 C20.2573264,30.0284649 20.4423261,30.2585109 20.6953615,30.283866 Z M27.6710267,29.3994344 C28.6909055,29.1689047 29.6671368,28.9159092 30.5997369,28.6404069 C30.843975,28.5682558 30.984698,28.3075576 30.9140505,28.0581211 C30.8434031,27.8086847 30.588138,27.6649665 30.3439,27.7371176 C29.4304601,28.0069596 28.4731754,28.255045 27.4720622,28.481333 C27.2238192,28.5374449 27.0671181,28.7884566 27.1220607,29.0419833 C27.1770032,29.29551 27.4227837,29.4555463 27.6710267,29.3994344 Z M34.3437406,27.3157824 C35.3235496,26.9030274 36.2394085,26.4569432 37.0912787,25.9774034 C37.3139446,25.852059 37.3949569,25.566099 37.2722248,25.3386938 C37.1494927,25.1112886 36.8694922,25.028552 36.6468263,25.1538964 C35.8259084,25.6160123 34.9411973,26.0469254 33.9926543,26.4465093 C33.7576138,26.5455226 33.6456692,26.8203822 33.742619,27.0604253 C33.8395688,27.3004684 34.1087001,27.4147957 34.3437406,27.3157824 Z" opacity=".5" transform="rotate(-19 18.616 27.722)"/>
      <g transform="rotate(-9 52.513 -190.037)">
        <polygon fill="url(#thank-you_left-visual-s)" points="35.043 .009 5.606 11.758 8.938 21.349" opacity=".5"/>
        <polygon fill="url(#thank-you_left-visual-t)" points="35.043 .009 5.606 11.758 .132 9.755"/>
      </g>
    </g>
  </g>
</svg>
