<svg xmlns="http://www.w3.org/2000/svg" xmlns:xlink="http://www.w3.org/1999/xlink" width="500" height="500" viewBox="0 0 500 500">
  <defs>
    <rect id="thank-you_right-visual-a" width="443" height="319"/>
    <linearGradient id="thank-you_right-visual-c" x1="5.75%" x2="46.11%" y1="47.606%" y2="54.574%">
      <stop offset="0%" stop-color="#FD427C"/>
      <stop offset="100%" stop-color="#FA311F"/>
    </linearGradient>
    <linearGradient id="thank-you_right-visual-d" x1="5.75%" x2="46.11%" y1="48.001%" y2="53.82%">
      <stop offset="0%" stop-color="#FD427C"/>
      <stop offset="100%" stop-color="#FA311F"/>
    </linearGradient>
    <linearGradient id="thank-you_right-visual-e" x1="82.283%" x2="18.765%" y1="4.111%" y2="95.889%">
      <stop offset="0%" stop-color="#FD427C"/>
      <stop offset="100%" stop-color="#FA311F"/>
    </linearGradient>
    <linearGradient id="thank-you_right-visual-g" x1="50%" x2="50%" y1="56.582%" y2="100%">
      <stop offset="0%" stop-color="#FFF"/>
      <stop offset="100%" stop-color="#EBE9F1"/>
    </linearGradient>
    <path id="thank-you_right-visual-f" d="M83.1074945,43.6368518 L83.1074945,73.0258076 C83.1074945,75.2349466 81.3166335,77.0258076 79.1074945,77.0258076 L4.06208634,77.0258076 C1.85294734,77.0258076 0.0620863425,75.2349466 0.0620863425,73.0258076 L0.0620863425,43.7108456 C0.0620863425,42.653508 0.480722813,41.6391801 1.22646753,40.8896285 L39.9792797,1.93899142 C41.5373949,0.37292239 44.0700466,0.366474522 45.6361156,1.9245897 C45.671003,1.95929989 45.7052468,1.99465096 45.7388296,2.03062487 L82.0314256,40.9072682 C82.7229083,41.6479848 83.1074945,42.6235357 83.1074945,43.6368518 Z"/>
    <linearGradient id="thank-you_right-visual-j" x1="82.283%" x2="18.765%" y1="3.487%" y2="96.513%">
      <stop offset="0%" stop-color="#FD427C"/>
      <stop offset="100%" stop-color="#FA311F"/>
    </linearGradient>
    <path id="thank-you_right-visual-i" d="M38.0807084,68.4402985 L6.38257181,35.7072034 L39.9792797,1.93899142 C41.5373949,0.37292239 44.0700466,0.366474522 45.6361156,1.9245897 C45.671003,1.95929989 45.7052468,1.99465096 45.7388296,2.03062487 L78.1311552,36.729297 L45.1445004,68.560018 C43.1598593,70.4751123 39.999313,70.4215463 38.0807084,68.4402985 Z"/>
    <linearGradient id="thank-you_right-visual-l" x1="50%" x2="50%" y1="0%" y2="100%">
      <stop offset="0%" stop-color="#FFF"/>
      <stop offset="100%" stop-color="#DDDBE8"/>
    </linearGradient>
    <linearGradient id="thank-you_right-visual-m" x1="52.014%" x2="54.512%" y1="45.984%" y2="169.738%">
      <stop offset="0%" stop-color="#FD427C" stop-opacity="0"/>
      <stop offset="100%" stop-color="#FA311F"/>
    </linearGradient>
    <linearGradient id="thank-you_right-visual-n" x1="0%" y1="52.971%" y2="50%">
      <stop offset="0%" stop-color="#FCFCFE"/>
      <stop offset="100%" stop-color="#EBEAF2"/>
    </linearGradient>
    <linearGradient id="thank-you_right-visual-p" x1="80.602%" x2="-3.457%" y1="49.311%" y2="50.11%">
      <stop offset="0%" stop-color="#FD427C"/>
      <stop offset="100%" stop-color="#FA311F"/>
    </linearGradient>
    <polygon id="thank-you_right-visual-o" points="0 0 56 0 56 6 0 6"/>
    <polygon id="thank-you_right-visual-r" points="0 0 56 0 56 6 0 6"/>
    <linearGradient id="thank-you_right-visual-t" x1="-31.982%" x2="81.744%" y1="52.155%" y2="50%">
      <stop offset="0%" stop-color="#FCFCFE"/>
      <stop offset="100%" stop-color="#EBEAF2"/>
    </linearGradient>
    <linearGradient id="thank-you_right-visual-u" x1="78.794%" x2="22.443%" y1="44.224%" y2="62.5%">
      <stop offset="0%" stop-color="#FD427C"/>
      <stop offset="100%" stop-color="#FA311F"/>
    </linearGradient>
    <linearGradient id="thank-you_right-visual-v" x1="50%" x2="50%" y1="3%" y2="128.486%">
      <stop offset="0%" stop-color="#410202"/>
      <stop offset="100%" stop-color="#73505B"/>
    </linearGradient>
    <linearGradient id="thank-you_right-visual-w" x1="0%" y1="50.064%" y2="50%">
      <stop offset="0%" stop-color="#FCFCFE"/>
      <stop offset="100%" stop-color="#EBEAF2"/>
    </linearGradient>
    <linearGradient id="thank-you_right-visual-x" x1="78.794%" x2="22.443%" y1="27.377%" y2="98.961%">
      <stop offset="0%" stop-color="#FD427C"/>
      <stop offset="100%" stop-color="#FA311F"/>
    </linearGradient>
    <linearGradient id="thank-you_right-visual-y" x1="28.524%" x2="106.218%" y1="30.284%" y2="69.716%">
      <stop offset="0%" stop-color="#FD427C"/>
      <stop offset="100%" stop-color="#FA311F"/>
    </linearGradient>
    <linearGradient id="thank-you_right-visual-z" x1="38.863%" x2="60.585%" y1="29.844%" y2="73.483%">
      <stop offset="0%" stop-color="#FCFCFE"/>
      <stop offset="100%" stop-color="#EBEAF2"/>
    </linearGradient>
  </defs>
  <g fill="none" fill-rule="evenodd" transform="translate(29 91)">
    <mask id="thank-you_right-visual-b" fill="#fff">
      <use xlink:href="#thank-you_right-visual-a"/>
    </mask>
    <g mask="url(#thank-you_right-visual-b)">
      <g transform="translate(-35 15)">
        <polyline stroke="#F4F5FA" stroke-width="1.4" points="481 36 363.065 36 258.172 53 26 53"/>
        <path stroke="#F4F5FA" stroke-width="1.4" d="M487 227L461.375166 227C454.408739 227 447.576365 228.915042 441.624803 232.535818L418.783192 246.432059C403.121186 255.960416 385.141254 261 366.808551 261L215.734398 261C203.619898 261 191.606214 258.798731 180.278739 254.503456L153.527981 244.359812C142.200505 240.064537 130.186821 237.863268 118.072322 237.863268L27 237.863268M477 162L102.689584 162C92.7086128 162 82.783879 160.50575 73.2453708 157.566931L0 135M477 109L225.96105 109C215.904328 109 206.168568 105.459752 198.460828 99L198.460828 99C190.753088 92.5402477 181.017328 89 170.960606 89L29 89M478 210L28 210"/>
        <g transform="scale(-1 1) rotate(-18 -106.321 1418.681)">
          <polygon fill="url(#thank-you_right-visual-c)" points="93.964 10.261 48.368 6.627 51.738 16.605" opacity=".5"/>
          <polygon fill="url(#thank-you_right-visual-d)" points="93.93 10.391 41.968 0 48.317 6.755"/>
          <path fill="#7F7F7F" fill-rule="nonzero" d="M0.639852297,14.4512911 C1.66975802,14.1738965 2.68607741,13.9090829 3.68880859,13.6568498 C3.94906036,13.5913844 4.10718539,13.3264627 4.04199071,13.0651305 C3.97679604,12.8037982 3.71296957,12.6450168 3.4527178,12.7104821 C2.44472983,12.9640376 1.42320696,13.230207 0.388147333,13.5089897 C0.129013796,13.5787846 -0.0247093666,13.846306 0.0447970401,14.1065153 C0.114303447,14.3667247 0.38071876,14.521086 0.639852297,14.4512911 Z M7.69426378,12.6998653 C8.73602523,12.4646219 9.76196438,12.2440155 10.7720783,12.0380447 C11.0350055,11.9844317 11.2048678,11.7269403 11.1514764,11.4629216 C11.098085,11.1989028 10.8416581,11.0283354 10.5787309,11.0819484 C9.5619377,11.2892811 8.5293949,11.5113075 7.48109964,11.7480263 C7.21934327,11.8071344 7.05486621,12.0681273 7.11372986,12.3309704 C7.17259351,12.5938134 7.4325074,12.7589733 7.69426378,12.6998653 Z M14.8163153,11.277038 C15.8705334,11.0959956 16.9059163,10.9323515 17.9224593,10.7861026 C18.1880407,10.7478937 18.3724906,10.5007293 18.3344397,10.2340453 C18.2963887,9.9673614 18.0502462,9.78214578 17.7846648,9.82035466 C16.7593517,9.96786526 15.7153093,10.1328781 14.6525329,10.3153902 C14.388079,10.3608052 14.2103608,10.6128936 14.2555881,10.8784453 C14.3008154,11.143997 14.5518615,11.3224531 14.8163153,11.277038 Z M21.9885409,10.3582168 C23.0205007,10.2949184 24.0622559,10.2650352 25.1138209,10.2685753 C25.3821127,10.2694785 25.6003354,10.0518143 25.6012349,9.7824086 C25.6021344,9.51300291 25.38537,9.29387427 25.1170782,9.29297106 C24.044754,9.28936107 22.9821576,9.31984207 21.9293031,9.3844221 C21.6615089,9.40084807 21.4576796,9.63215532 21.4740377,9.90106129 C21.4903957,10.1699673 21.7207467,10.3746428 21.9885409,10.3582168 Z M29.2048741,10.4468662 C30.2329035,10.5320477 31.2699031,10.6477085 32.3158788,10.7938581 C32.5816119,10.8309878 32.8270063,10.6447738 32.8639825,10.3779375 C32.9009587,10.1111012 32.7155146,9.86468799 32.4497815,9.82755828 C31.3859669,9.67891616 30.3309623,9.56124722 29.2847735,9.47456102 C29.0173889,9.45240579 28.7827448,9.65210335 28.7606811,9.92059801 C28.7386175,10.1890927 28.9374895,10.424711 29.2048741,10.4468662 Z M36.3507762,11.4995494 C37.3604175,11.7108887 38.3780728,11.9494448 39.4037425,12.2152253 C39.6635254,12.2825425 39.9284667,12.125644 39.9955056,11.8647826 C40.0625444,11.6039213 39.9062946,11.33788 39.6465118,11.2705629 C38.606188,11.0009851 37.5736989,10.7589517 36.5490449,10.5444699 C36.2863974,10.4894922 36.0290955,10.6587258 35.9743451,10.9224638 C35.9195947,11.1862017 36.0881287,11.4445717 36.3507762,11.4995494 Z M43.3495234,13.3593379 C44.3327508,13.6741596 45.3230525,14.0130412 46.3204271,14.3759876 C46.5726676,14.4677783 46.8512525,14.3368592 46.9426638,14.0835714 C47.0340751,13.8302836 46.9036972,13.5505422 46.6514566,13.4587514 C45.6422869,13.0915128 44.6400305,12.7485403 43.6446859,12.4298388 C43.389073,12.3479935 43.1157834,12.4897203 43.0342765,12.7463944 C42.9527696,13.0030685 43.0939104,13.2774926 43.3495234,13.3593379 Z" opacity=".5" transform="rotate(-15 23.5 11.88)"/>
        </g>
        <g transform="rotate(19 45.197 270.088)">
          <path fill="url(#thank-you_right-visual-e)" d="M37.8335393,68.4527952 L6,35.8167513 L39.7352325,2.15363694 C41.2990003,0.593212152 43.8316587,0.595922168 45.3920835,2.15968993 C45.4200409,2.18770726 45.447581,2.21613801 45.4746946,2.24497278 L78,36.8350357 L44.871713,68.5720759 C42.890345,70.4702349 39.7494492,70.417004 37.8335393,68.4527952 Z"/>
          <mask id="thank-you_right-visual-h" fill="#fff">
            <use xlink:href="#thank-you_right-visual-f"/>
          </mask>
          <use fill="url(#thank-you_right-visual-g)" xlink:href="#thank-you_right-visual-f"/>
          <path stroke="#DDD" stroke-linecap="square" stroke-width="2" d="M1.5,75.5 L24.5,53.5" mask="url(#thank-you_right-visual-h)"/>
          <path stroke="#DDD" stroke-linecap="square" stroke-width="2" d="M58.5,75.5 L81.5,53.5" mask="url(#thank-you_right-visual-h)" transform="matrix(-1 0 0 1 140 0)"/>
          <mask id="thank-you_right-visual-k" fill="#fff">
            <use xlink:href="#thank-you_right-visual-i"/>
          </mask>
          <use fill="url(#thank-you_right-visual-j)" xlink:href="#thank-you_right-visual-i"/>
          <rect width="45" height="50" x="22" y="35" fill="#B42122" mask="url(#thank-you_right-visual-k)" rx="1"/>
          <rect width="45" height="50" x="18" y="28" fill="url(#thank-you_right-visual-l)" mask="url(#thank-you_right-visual-k)" rx="1"/>
          <g mask="url(#thank-you_right-visual-k)">
            <g transform="translate(27 35)">
              <path fill="#FC3D61" d="M.7 0L27.3 1.11022302e-16C27.6865993-2.02020991e-15 28 .313400675 28 .7L28 .7C28 1.08659932 27.6865993 1.4 27.3 1.4L.7 1.4C.313400675 1.4 1.15756779e-15 1.08659932 1.11022302e-15.7L0 .7C-4.73447626e-17.313400675.313400675 1.82039446e-16.7 1.11022302e-16zM.7 4.2L27.3 4.2C27.6865993 4.2 28 4.51340068 28 4.9L28 4.9C28 5.28659932 27.6865993 5.6 27.3 5.6L.7 5.6C.313400675 5.6 1.15756779e-15 5.28659932 1.11022302e-15 4.9L0 4.9C-4.73447626e-17 4.51340068.313400675 4.2.7 4.2zM.7 8.4L27.3 8.4C27.6865993 8.4 28 8.71340068 28 9.1L28 9.1C28 9.48659932 27.6865993 9.8 27.3 9.8L.7 9.8C.313400675 9.8 1.15756779e-15 9.48659932 1.11022302e-15 9.1L0 9.1C-4.73447626e-17 8.71340068.313400675 8.4.7 8.4z"/>
              <rect width="15.135" height="1.4" y="12.6" fill="#FC3D61" rx=".7"/>
              <path fill="#FC3D61" d="M17.3486486,12.6 L21.2459459,12.6 C21.6325453,12.6 21.9459459,12.9134007 21.9459459,13.3 L21.9459459,13.3 C21.9459459,13.6865993 21.6325453,14 21.2459459,14 L17.3486486,14 C16.9620493,14 16.6486486,13.6865993 16.6486486,13.3 L16.6486486,13.3 C16.6486486,12.9134007 16.9620493,12.6 17.3486486,12.6 Z"/>
            </g>
          </g>
          <path fill="url(#thank-you_right-visual-m)" d="M37.8335393,68.4527952 L6,35.8167513 L39.7352325,2.15363694 C41.2990003,0.593212152 43.8316587,0.595922168 45.3920835,2.15968993 C45.4200409,2.18770726 45.447581,2.21613801 45.4746946,2.24497278 L78,36.8350357 L44.871713,68.5720759 C42.890345,70.4702349 39.7494492,70.417004 37.8335393,68.4527952 Z" mask="url(#thank-you_right-visual-k)"/>
        </g>
        <g transform="translate(318 215)">
          <path fill="url(#thank-you_right-visual-n)" d="M3,37 L59,37 L59,66 C59,70.418278 55.418278,74 51,74 L11,74 C6.581722,74 3,70.418278 3,66 L3,37 Z"/>
          <rect width="56" height="2" x="3" y="51" fill="#FFF"/>
          <rect width="56" height="2" x="3" y="60" fill="#FFF"/>
          <rect width="13" height="2" x="10" y="46" fill="#FFF"/>
          <rect width="6" height="2" x="10" y="54" fill="#FFF"/>
          <rect width="6" height="2" x="35" y="54" fill="#FFF"/>
          <polygon fill="#FFF" points="25 55 35 55 35 57 25 57" transform="rotate(-90 30 56)"/>
          <g transform="translate(3 37)">
            <mask id="thank-you_right-visual-q" fill="#fff">
              <use xlink:href="#thank-you_right-visual-o"/>
            </mask>
            <use fill="url(#thank-you_right-visual-p)" xlink:href="#thank-you_right-visual-o"/>
            <g fill="#FFF" mask="url(#thank-you_right-visual-q)">
              <g transform="translate(1 -6)">
                <polygon points="3.358 .066 7.358 .066 7.358 18.066 3.358 18.066" transform="rotate(23 5.358 9.066)"/>
                <polygon points="14.108 .066 18.108 .066 18.108 18.066 14.108 18.066" transform="rotate(23 16.108 9.066)"/>
                <polygon points="24.858 .066 28.858 .066 28.858 18.066 24.858 18.066" transform="rotate(23 26.858 9.066)"/>
                <polygon points="35.608 .066 39.608 .066 39.608 18.066 35.608 18.066" transform="rotate(23 37.608 9.066)"/>
                <polygon points="46.358 .066 50.358 .066 50.358 18.066 46.358 18.066" transform="rotate(23 48.358 9.066)"/>
              </g>
            </g>
          </g>
          <g transform="rotate(-34 52.667 15.906)">
            <mask id="thank-you_right-visual-s" fill="#fff">
              <use xlink:href="#thank-you_right-visual-r"/>
            </mask>
            <use fill="url(#thank-you_right-visual-p)" xlink:href="#thank-you_right-visual-r"/>
            <g fill="#FFF" mask="url(#thank-you_right-visual-s)">
              <g transform="translate(1 -6)">
                <polygon points="3.358 .066 7.358 .066 7.358 18.066 3.358 18.066" transform="rotate(23 5.358 9.066)"/>
                <polygon points="14.108 .066 18.108 .066 18.108 18.066 14.108 18.066" transform="rotate(23 16.108 9.066)"/>
                <polygon points="24.858 .066 28.858 .066 28.858 18.066 24.858 18.066" transform="rotate(23 26.858 9.066)"/>
                <polygon points="35.608 .066 39.608 .066 39.608 18.066 35.608 18.066" transform="rotate(23 37.608 9.066)"/>
                <polygon points="46.358 .066 50.358 .066 50.358 18.066 46.358 18.066" transform="rotate(23 48.358 9.066)"/>
              </g>
            </g>
          </g>
        </g>
        <g transform="translate(290 126)">
          <rect width="82" height="52" y="7" fill="url(#thank-you_right-visual-t)" rx="2"/>
          <path fill="url(#thank-you_right-visual-u)" d="M0,15 L70,15 C71.1045695,15 72,15.8954305 72,17 L72,49 C72,50.1045695 71.1045695,51 70,51 L0,51 L0,15 Z"/>
          <rect width="14" height="36" y="15" fill="url(#thank-you_right-visual-v)" rx="2"/>
          <path stroke="#FFF" stroke-width="1.4" d="M62.6613114,19.7 L65.3,22.3246906 L65.3,20 C65.3,19.8343146 65.1656854,19.7 65,19.7 L62.6613114,19.7 Z M65.3,43.7238131 L62.7271877,46.3 L65,46.3 C65.1656854,46.3 65.3,46.1656854 65.3,46 L65.3,43.7238131 Z M21.2962387,46.3 L18.7,43.66563 L18.7,46 C18.7,46.1656854 18.8343146,46.3 19,46.3 L21.2962387,46.3 Z M18.7,22.3916469 L21.3571944,19.7 L19,19.7 C18.8343146,19.7 18.7,19.8343146 18.7,20 L18.7,22.3916469 Z"/>
          <circle cx="7" cy="33" r="4" fill="#FFF"/>
          <rect width="4" height="2" x="5" y="17" fill="#FFF" rx="1"/>
          <rect width="4" height="2" x="5" y="21" fill="#FFF" rx="1"/>
          <rect width="4" height="2" x="5" y="25" fill="#FFF" rx="1"/>
          <path fill="url(#thank-you_right-visual-w)" d="M55.0110305,13.8952273 L94.4610791,13.0298747 C95.2985225,13.011505 95.9922961,13.6754955 96.0106658,14.5129389 C96.0109089,14.5240243 96.0110305,14.5351121 96.0110305,14.5462002 L96.0110305,14.5462002 C96.0110305,15.4078659 95.3225376,16.1116268 94.4610791,16.1305233 L55.0110305,16.9958759 L55.0110305,13.8952273 Z" transform="rotate(-41 75.511 15.013)"/>
          <polygon fill="#FFF" points="60.948 28.885 55.929 30.532 60.946 31.965" transform="rotate(-41 58.438 30.425)"/>
          <path fill="url(#thank-you_right-visual-x)" d="M88.081756,0.779011822 L89.5884968,0.74649285 C90.4056168,0.728857498 91.0823197,1.37696786 91.099955,2.19408785 C91.1001847,2.20473018 91.1002996,2.21537467 91.1002996,2.22601948 L91.1002996,2.22601948 C91.1002996,3.0663861 90.4286677,3.75266971 89.5884968,3.77080255 L88.0092784,3.80488576 L88.081756,0.779011822 Z" transform="rotate(-41 89.555 2.276)"/>
          <path stroke="#FFF" stroke-linecap="round" stroke-linejoin="round" stroke-width="2" d="M24,42 C29.6251846,34.622169 34.6220453,30.3491543 38.9905819,29.1809558 C45.5433868,27.4286581 41.1755995,38.9478515 44.8684943,40.2443422 C46.3545727,40.7660702 50.0650746,38.2347262 56,32.6503101"/>
        </g>
        <g transform="translate(213 28)">
          <g transform="matrix(-1 0 0 1 49 20)">
            <path fill="url(#thank-you_right-visual-y)" d="M1.53846154,0 L47.4615385,2.22044605e-16 C48.3112073,6.59629701e-17 49,0.688792693 49,1.53846154 L49,25.3846154 C49,26.2342842 48.3112073,26.9230769 47.4615385,26.9230769 C9.46573962,26.8299797 7.44712116,26.9807268 6.19070089,27.3753182 C4.93428063,27.7699096 2.87071366,28.9012138 0,30.7692308 L2.22044605e-16,1.53846154 C1.17990182e-16,0.688792693 0.688792693,2.15448308e-15 1.53846154,1.99840144e-15 Z"/>
            <g fill="#FFF" transform="translate(17.111 10.77)">
              <ellipse cx="14" cy="1.538" rx="1.556" ry="1.538"/>
              <ellipse cx="7.778" cy="1.538" rx="1.556" ry="1.538"/>
              <ellipse cx="1.556" cy="1.538" rx="1.556" ry="1.538"/>
            </g>
          </g>
          <g transform="translate(34)">
            <path fill="url(#thank-you_right-visual-z)" d="M2,0 L61,-8.8817842e-16 C62.1045695,-1.09108455e-15 63,0.8954305 63,2 L63,33 C63,34.1045695 62.1045695,35 61,35 L15.8929543,35.0000127 C15.7958918,35.0000127 15.6989582,34.9929469 15.6029217,34.9788714 C12.2478094,34.4871306 9.77380051,34.4941735 8.18089501,35 C6.56549753,35.5129688 3.83853253,37.1796355 0,40 L0,2 C-1.3527075e-16,0.8954305 0.8954305,2.02906125e-16 2,0 Z"/>
            <g fill="#C7C5D6" transform="translate(22 14)">
              <circle cx="18" cy="2" r="2"/>
              <circle cx="10" cy="2" r="2"/>
              <circle cx="2" cy="2" r="2"/>
            </g>
          </g>
        </g>
      </g>
    </g>
  </g>
</svg>
