<?xml version="1.0" encoding="UTF-8"?>
<svg width="170px" height="65px" viewBox="0 0 170 65" version="1.1" xmlns="http://www.w3.org/2000/svg" xmlns:xlink="http://www.w3.org/1999/xlink">
    <!-- Generator: Sketch 53 (72520) - https://sketchapp.com -->
    <title>1</title>
    <desc>Created with Sketch.</desc>
    <g id="1" stroke="none" stroke-width="1" fill="none" fill-rule="evenodd">
        <g id="Group-8" transform="translate(0.000000, 10.000000)" fill="#BFBFBF">
            <g id="Group-Copy-3">
                <path d="M7.0520669,5.60004241 C5.67955634,5.64771913 4.64519014,5.69521502 3.96201761,5.73571913 C3.27261972,5.77658488 2.93447535,5.81069995 2.93447535,5.83788351 C1.95422183,5.98790543 1.21699648,6.16474926 0.730341549,6.36226707 C0.243507042,6.55990543 -2.84217094e-14,6.78424515 -2.84217094e-14,7.03643146 L-2.84217094e-14,7.19278214 C-2.84217094e-14,7.6016205 0.270503521,7.94831639 0.818214789,8.22762598 C1.35898239,8.50681502 2.17037324,8.72482598 3.25226761,8.86785611 L2.77207746,15.015741 L2.85318662,15.7301082 C2.80601761,16.4452589 2.75848944,17.2209849 2.71814437,18.0793465 C2.67755986,18.9298726 2.64361972,19.8494123 2.61680282,20.8364589 L2.77207746,23.6343767 C2.74508099,23.6343767 2.72490845,23.6343767 2.7115,23.6480589 C2.69791197,23.6616808 2.69791197,23.6821739 2.69791197,23.7093575 C2.72490845,23.7093575 2.74508099,23.7163493 2.75848944,23.7300315 C2.77207746,23.7431712 2.77207746,23.7642068 2.77207746,23.7913904 L2.77207746,24.8259328 L2.85318662,25.3844315 C2.82636972,25.3844315 2.80601761,25.3907602 2.79242958,25.404563 C2.77902113,25.4182452 2.77207746,25.4387383 2.77207746,25.465741 C2.80601761,25.465741 2.83301408,25.5407821 2.86013028,25.6908041 C2.88712676,25.8334123 2.91412324,26.0582945 2.93447535,26.3441136 C2.88048239,26.8414945 2.82636972,27.5149958 2.75848944,28.3528643 C2.69096831,29.1897082 2.61680282,30.1974287 2.53557394,31.3684917 C2.53557394,31.4909684 2.56251056,31.872141 2.61680282,32.5053191 C2.66397183,33.1457301 2.74508099,34.0438726 2.85318662,35.2012534 L2.77207746,36.3181301 C2.80601761,36.5498232 2.83959859,36.753489 2.87353873,36.9238232 C2.91412324,37.1013301 2.96159155,37.2443602 3.00864085,37.353215 C3.00864085,37.5370506 3.21868662,37.6867109 3.64440493,37.8021958 C4.07048239,37.924552 4.69912324,38.0135767 5.54445423,38.0748753 L6.17315493,38.0748753 C6.26779225,38.0748753 6.3423169,38.0675219 6.40289437,38.0542013 C6.47041549,38.0476917 6.52488732,38.0270178 6.57187676,37.9929027 C6.93701761,37.9929027 7.21428521,37.822689 7.40367958,37.4755109 C7.58625,37.128152 7.68088732,36.6111821 7.68088732,35.9229739 C7.68088732,35.7939876 7.66735915,35.6167821 7.64036268,35.4059438 C7.6133662,35.1949246 7.57284155,34.9427383 7.52531338,34.6432369 C7.57284155,33.6626999 7.62677465,32.8667219 7.68088732,32.2398123 C7.73488028,31.613626 7.78899296,31.1641027 7.83634155,30.8919657 C7.80934507,30.2452863 7.78899296,29.7140917 7.77540493,29.3059164 C7.76187676,28.8903876 7.76187676,28.5976972 7.76187676,28.420552 L8.1541338,24.5873684 C8.3637007,24.2812369 8.51915493,23.9953575 8.6272007,23.7431712 C8.73566549,23.4850178 8.78977817,23.2670068 8.78977817,23.0759986 L8.70866901,22.518163 C8.74225,22.518163 8.76278169,22.5111712 8.76924648,22.4976698 C8.7831338,22.4839876 8.78977817,22.4634945 8.78977817,22.4364917 C8.76278169,22.4364917 8.74225,22.4293191 8.72884155,22.4156369 C8.71525352,22.4093082 8.70866901,22.3818232 8.70866901,22.3546397 L8.70866901,21.9599657 C8.70866901,21.8303164 8.75583803,21.6329794 8.84371127,21.3671109 C8.93840845,21.1016041 9.08045423,20.7681082 9.26302465,20.3601136 C9.29696479,19.5159164 9.33054577,18.8755054 9.37142958,18.4470178 C9.41195423,18.0243164 9.45900352,17.8066671 9.50647183,17.8066671 C9.47253169,15.9414287 9.43200704,14.4571821 9.37807394,13.3609794 C9.32390141,12.2583273 9.25638028,11.5362452 9.1885,11.1822561 C9.21585563,11.1351219 9.23584859,11.0872643 9.24943662,11.0534506 C9.26302465,11.0121027 9.26978873,10.9784095 9.26978873,10.9442342 C9.26978873,10.8829356 9.26302465,10.8287493 9.24943662,10.7810726 C9.23584859,10.7262232 9.21585563,10.6785465 9.1885,10.6244205 C9.20885211,10.5767438 9.23584859,10.4742178 9.26302465,10.3108753 C9.28996127,10.1542232 9.31695775,9.93657392 9.35089789,9.67136844 L9.74303521,9.74604789 L10.8520458,9.74604789 C12.1500915,9.48072187 13.1237007,9.20816296 13.7661092,8.92915474 C14.4153415,8.65014652 14.7329542,8.36384515 14.7329542,8.07151639 C14.7329542,7.83313283 14.7193662,7.65562598 14.6924296,7.53326981 C14.6654331,7.41778488 14.6248486,7.35630543 14.5773803,7.35630543 C14.5773803,7.04312187 14.2527641,6.76411365 13.6105352,6.50523694 C12.9613627,6.25377392 11.9945176,6.02877118 10.6964718,5.83788351 C10.6355352,5.83788351 10.5338944,5.84487529 10.3854437,5.85855748 C10.2368134,5.86542872 10.054243,5.89273283 9.82414437,5.91955474 C9.71603873,5.91955474 9.43200704,5.89273283 8.97234859,5.84487529 C8.51269014,5.7902068 7.87028169,5.70889721 7.0520669,5.60004241 Z M29.5522852,6.9754342 C28.9099965,6.9754342 28.3962254,7.05680406 28.0244401,7.21327529 C27.6525352,7.3769794 27.4224366,7.6148205 27.334743,7.93481502 C26.9491901,8.09128625 26.6246338,8.27512187 26.3744824,8.48614104 C26.1177465,8.69752187 25.9351761,8.94283694 25.8267711,9.20816296 C25.8267711,9.5211657 25.745662,10.1207109 25.5700352,11.0121027 C25.4010528,11.904278 25.1439577,13.0888424 24.7993486,14.5528972 C24.4002676,17.2011547 24.0487148,19.4680589 23.7444507,21.3744643 C23.4402465,23.2739986 23.183331,24.8053794 22.9735845,25.9631219 C23.0074049,26.4738232 23.027757,26.8954999 23.0347007,27.2293575 C23.0481092,27.5628534 23.0546937,27.8076863 23.0546937,27.9580095 C22.8655387,29.0879054 22.7301373,30.1092479 22.6356197,31.0279438 C22.5475669,31.9404917 22.5005775,32.7576863 22.5005775,33.4655438 L22.5005775,34.4185958 C22.6559718,35.0310999 22.9602359,35.487615 23.4063063,35.7939876 C23.8595,36.1004808 24.4542606,36.2568315 25.1914859,36.2568315 C25.4146408,36.2568315 25.7253099,36.0933082 26.144743,35.7803054 C26.3339577,35.6851328 26.4693592,35.4943054 26.5640563,35.2086068 C26.6515704,34.915615 26.6990986,34.5207602 26.6990986,34.0241027 C26.8886127,33.6698726 27.0437077,33.3493958 27.158757,33.0567054 C27.28075,32.7576863 27.3618592,32.4989904 27.4158521,32.2673575 C27.3752676,32.2673575 27.2941585,31.8658123 27.1723451,31.0688095 C27.2534542,30.7831109 27.314331,30.5309246 27.3549155,30.3199054 C27.3954401,30.1092479 27.4158521,29.9321027 27.4158521,29.7955821 L27.4158521,29.3129082 L27.334743,29.1562561 C27.381912,29.0470397 27.4293803,28.9650671 27.4699648,28.9110616 C27.5039049,28.8632041 27.54425,28.8357191 27.5714261,28.8357191 L28.0446725,28.8357191 C28.5991479,28.8632041 29.0248662,28.9040698 29.3089577,28.9587383 C29.5995739,29.013226 29.7621514,29.0742232 29.7891479,29.1562561 C29.8768415,30.4837904 30.0864085,31.7633465 30.4179683,33.0026999 C30.7425845,34.2350616 31.1952394,35.4262561 31.7699472,36.5770068 C31.878412,36.8425136 32.1215599,37.0464808 32.4936444,37.1760095 C32.8654296,37.3053575 33.3656127,37.3729849 33.9878486,37.3729849 C34.3528099,37.3729849 34.6910141,37.3391712 34.9952183,37.2715438 C35.299662,37.2028315 35.5699261,37.1013301 35.8064894,36.9714999 C36.0160563,36.9714999 36.1785739,36.8696972 36.2800352,36.6723602 C36.3881408,36.4748424 36.4420739,36.1751602 36.4420739,35.7733136 L36.4420739,35.3787602 C36.4420739,35.2899164 36.4217218,34.9497904 36.3811972,34.3707383 C36.3406127,33.7854178 36.2866796,32.9548424 36.2055704,31.8658123 L36.2055704,31.7838397 L36.2866796,31.6269465 C36.1244613,30.667626 35.9688873,30.1906178 35.8064894,30.1906178 C35.8064894,30.1434232 35.8134331,30.0342671 35.8268415,29.877615 C35.8404296,29.7140917 35.8607817,29.5028917 35.8878979,29.2308753 C35.8878979,29.0742232 35.8673662,28.9110616 35.8268415,28.7338561 C35.7864366,28.5635219 35.7323239,28.386678 35.6508556,28.1958506 C35.6983838,27.9851931 35.7389683,27.8150397 35.7659049,27.6786999 C35.7929014,27.5423602 35.8064894,27.4473684 35.8064894,27.3995109 C35.8064894,27.3176589 35.7864366,27.1814999 35.7323239,26.9979657 C35.6783908,26.8069575 35.6038662,26.5689958 35.4954613,26.2826342 L35.7323239,24.8462452 C35.6983838,24.4990671 35.6578592,24.1791931 35.6038662,23.9001849 C35.5428099,23.6208753 35.4818732,23.3758616 35.4143521,23.1715328 C35.4143521,22.5519767 35.3602394,21.9256095 35.2521338,21.2994232 C35.1440282,20.6729356 34.9886338,20.0463876 34.7790669,19.420563 C34.6975986,18.5896863 34.6164894,17.9768205 34.5219718,17.5614726 C34.433919,17.1532972 34.3328169,16.9489684 34.224412,16.9489684 C34.2718803,16.8606068 34.3124648,16.7721246 34.3394014,16.6904534 C34.3663979,16.6154726 34.3799859,16.5407931 34.38675,16.4658123 C34.3799859,16.281615 34.3460458,16.0364205 34.2852887,15.7510835 C34.2177676,15.4580917 34.1163063,15.1107328 33.9878486,14.7156972 C33.9201479,14.5113684 33.8322746,14.218678 33.7375775,13.8311767 C33.6430599,13.4495219 33.5415986,12.9664863 33.433493,12.4009356 C33.1628697,12.0127712 32.9668908,11.645763 32.8382535,11.3116041 C32.7032113,10.9784095 32.6422746,10.6785465 32.6422746,10.4064095 C32.087919,9.2560205 31.5604401,8.3980205 31.0535528,7.83313283 C30.5530106,7.26077118 30.0797641,6.9754342 29.6335141,6.9754342 L29.5522852,6.9754342 Z M28.8358908,16.0705958 C29.1059754,17.1599876 29.3021338,18.1882013 29.4375352,19.1618671 C29.565993,20.1350506 29.6335141,21.0472972 29.6335141,21.8914945 L29.6335141,22.2931602 C29.6335141,22.5589684 29.613162,22.872152 29.5726373,23.2190287 C29.5320528,23.566689 29.4711761,23.9480424 29.3900669,24.3630287 C29.4441796,24.8190616 29.4847042,25.1867328 29.5117007,25.4865958 C29.5386972,25.7792863 29.5522852,25.9899438 29.5522852,26.1197739 L29.5522852,26.2011438 L28.8358908,26.2011438 C28.7072535,26.2011438 28.5452148,26.1944534 28.3486972,26.1811328 C28.1527183,26.1737794 27.9160352,26.1536479 27.6525352,26.1197739 C27.6525352,25.8334123 27.6728873,25.5135986 27.7064683,25.1664205 C27.7470528,24.8190616 27.8079296,24.4443986 27.8890387,24.0499054 C27.8554577,23.7977191 27.8349261,23.5528863 27.8284613,23.3148643 C27.8149331,23.0759986 27.8079296,22.8379767 27.8079296,22.6131547 L27.8079296,22.4498123 C27.9975035,21.5034506 28.1731303,20.4960917 28.3287042,19.4342452 C28.4840986,18.3648643 28.6327887,17.2488315 28.7613662,16.0705958 L28.8358908,16.0705958 Z M48.3812817,6.53941228 C47.8606866,6.71625611 47.4619049,6.91395474 47.1982254,7.12509447 C46.9343662,7.33581228 46.7991444,7.56744515 46.7991444,7.81227803 C46.7991444,7.85350543 46.8127324,7.93481502 46.8397289,8.05747255 C46.873669,8.17368077 46.90725,8.33648077 46.9613627,8.53399858 C46.8871972,8.63652461 46.8263204,8.97701228 46.7586197,9.56221228 C46.6976831,10.1478945 46.630162,10.9784095 46.5626408,12.0469465 C46.3730669,12.9936698 46.2380246,13.9535328 46.1433275,14.9268972 C46.0554542,15.9004424 46.0079261,16.8806178 46.0079261,17.8683273 L46.0079261,18.2631821 C46.0079261,18.5963767 46.0218732,18.9100424 46.0488099,19.2162342 C46.0758063,19.5159164 46.1163908,19.8152369 46.1635599,20.1008753 C46.1163908,20.5229136 46.0758063,20.863763 46.0488099,21.1294506 C46.0218732,21.3949575 46.0079261,21.5851219 46.0079261,21.694278 C46.0079261,21.7284534 46.0149296,21.7626287 46.0284577,21.8031328 C46.0351021,21.8439383 46.0554542,21.8849849 46.0893944,21.9327821 C46.0351021,22.0688205 46.0013415,22.2526561 45.9743451,22.490678 C45.9404049,22.7291821 45.9269965,23.0218726 45.9269965,23.3690506 L45.9269965,24.4859273 C45.9269965,24.9079054 45.9404049,25.2550835 45.9743451,25.5340917 C46.0013415,25.8130999 46.0351021,26.0241191 46.0893944,26.1671493 L46.0079261,26.1671493 C46.0079261,26.5889465 46.0013415,26.9571602 45.9945176,27.2634726 C45.9809894,27.5628534 45.9609366,27.8076863 45.9269965,27.9988753 C45.9609366,28.3256808 45.9809894,28.5841958 45.9945176,28.7747219 C46.0013415,28.9587383 46.0079261,29.0742232 46.0079261,29.1150287 C45.9809894,30.0067821 45.9609366,30.7764808 45.9473486,31.4297904 C45.9338204,32.0835219 45.9269965,32.6141739 45.9269965,33.0231931 C45.9269965,33.261215 45.9609366,33.5607164 46.0284577,33.9012041 C46.0959789,34.2483821 46.1975,34.6501082 46.3258979,35.0994506 C46.7316232,35.6579493 47.3738521,36.0729958 48.2597676,36.3523054 C49.1385599,36.6311328 50.2679225,36.774163 51.6334894,36.774163 C51.8566444,36.753489 52.0392148,36.7263054 52.1676725,36.6994835 C52.29625,36.6723602 52.3841831,36.6446342 52.4247077,36.6175109 L52.8979542,36.6924917 L53.2155669,36.6924917 C53.5603556,36.6924917 53.8917359,36.6446342 54.2094085,36.556152 C54.5275599,36.4609794 54.8316444,36.3248205 55.1156761,36.1342945 C55.4808169,36.0528041 55.7579049,35.9366561 55.9471197,35.7733136 C56.1296901,35.6167821 56.224507,35.4122726 56.224507,35.1744315 C56.224507,34.9564205 56.1702148,34.7247273 56.0621092,34.4869465 C55.9606479,34.2483821 55.7984296,33.9963767 55.595507,33.737741 C54.2433486,33.5197301 53.2155669,33.1996753 52.5058169,32.7843273 L52.5058169,32.7026561 C52.5058169,32.5529958 52.5192254,32.3765136 52.5464014,32.1785136 C52.573338,31.9809958 52.6139225,31.7566561 52.6612711,31.5044698 L52.3432394,28.3183876 C52.4517042,27.6511547 52.5328134,27.1268315 52.5869261,26.7393301 C52.6342746,26.357615 52.6612711,26.1124205 52.6612711,26.003626 C52.6612711,25.6972534 52.6544472,25.4315657 52.6408592,25.2206068 C52.6342746,25.0097684 52.6139225,24.8462452 52.5799824,24.7237082 C52.6139225,24.4785739 52.6342746,24.2270506 52.6408592,23.9678726 C52.6544472,23.7163493 52.6612711,23.464163 52.6612711,23.2126999 L52.6612711,20.2575876 C52.6612711,20.0674232 52.6478627,19.8287383 52.6208662,19.5294178 C52.5936901,19.2367273 52.5531655,18.8963602 52.5058169,18.5081958 C52.6139225,17.6981739 52.6883873,16.9624698 52.7423803,16.2955986 C52.796493,15.6282452 52.8168451,15.035752 52.8168451,14.5187219 L52.8168451,13.2385027 L52.3432394,8.05747255 C52.29625,7.64212461 52.0189824,7.31525885 51.5253838,7.05680406 C51.0252007,6.80509995 50.294919,6.62777392 49.3346585,6.53941228 C49.3346585,6.5662342 49.3211303,6.58726981 49.2941338,6.60077118 C49.2671373,6.61409173 49.2266127,6.62108351 49.1790845,6.62108351 L48.7803627,6.53941228 C48.7803627,6.5662342 48.7733592,6.58726981 48.7599507,6.60077118 C48.7533662,6.61409173 48.7330141,6.62108351 48.6992535,6.62108351 L48.5434401,6.53941228 L48.3812817,6.53941228 Z M88.1894155,6.07656844 C87.425493,6.07656844 86.6952113,6.19892461 85.9986901,6.45111091 C85.3023486,6.70257392 84.6329437,7.08428899 83.9907148,7.59462872 C83.5782254,7.83946159 83.2334366,8.1868205 82.9359965,8.62284241 C82.6453204,9.0651931 82.4152218,9.59638762 82.2462394,10.2225739 C82.2731761,10.5767438 82.3071162,10.8487602 82.3341127,11.046278 C82.3612887,11.2506068 82.3816408,11.3730835 82.4016338,11.4207602 C82.3746972,11.4756095 82.3542852,11.5227438 82.340757,11.5774123 C82.3273486,11.6252698 82.3207042,11.6792753 82.3273486,11.7406342 L82.3273486,12.6189465 C82.3273486,12.816163 82.482743,13.6945356 82.8007148,15.253763 C82.9088204,16.0300917 83.1725,16.9147931 83.5985775,17.8956917 C84.0242958,18.882678 84.5990035,19.9720698 85.3362289,21.1564534 C85.417338,21.5446178 85.5593838,21.9869684 85.7689507,22.4839876 C85.9785176,22.9806452 86.2556056,23.5188917 86.6003944,24.1109027 C86.7423803,24.7848863 86.8844261,25.3227712 87.0334155,25.7109356 C87.1751021,26.0924698 87.3240317,26.3304315 87.4727218,26.4259657 L87.4727218,27.3790178 C87.6620563,27.903341 87.8242746,28.5366999 87.9596761,29.2989246 C88.0947183,30.0543986 88.1961796,30.9327712 88.2638803,31.9269904 C88.2367641,32.2673575 88.1961796,32.6350287 88.1488908,33.0368753 C88.0947183,33.4313684 88.0271972,33.8600369 87.9527324,34.3230616 L87.8718028,34.3230616 C87.702581,34.1942561 87.5335986,33.9283876 87.3646162,33.5269027 C87.1954542,33.1320479 87.0198275,32.5938616 86.8438415,31.9269904 C86.5126408,30.9191493 86.1205035,30.1632534 85.6539014,29.6599054 C85.194243,29.1489027 84.6600599,28.8970178 84.0648204,28.8970178 C83.88225,28.9040698 83.7405634,28.924563 83.6457465,28.9448753 C83.5576937,28.9724205 83.5107042,29.0058726 83.5107042,29.0537301 C82.9899296,29.0537301 82.5912077,29.1833794 82.3273486,29.4352643 C82.063669,29.6867273 81.9285669,30.061752 81.9285669,30.5720917 L81.9285669,31.1304698 C81.9285669,31.4434726 81.9755563,31.7431547 82.063669,32.036026 C82.1581866,32.3349849 82.293588,32.6141739 82.482743,32.8864917 C82.5707958,33.3772424 82.72625,33.8465356 82.9359965,34.3031109 C83.152507,34.7592643 83.4225915,35.187752 83.7472077,35.5964698 C84.0582359,36.3659876 84.5314824,36.9443164 85.1806549,37.332541 C85.8228838,37.7135328 86.6412782,37.9110506 87.6350599,37.9110506 C87.6620563,37.8836863 87.7228134,37.8635547 87.8242746,37.8498726 C87.9187923,37.8363712 88.0407852,37.8296808 88.1894155,37.8296808 C88.7641232,37.8296808 89.2307254,37.7543383 89.6025106,37.5909958 C89.9674718,37.4345246 90.2381549,37.1891493 90.4071373,36.876689 C90.9007359,36.3248205 91.3333979,35.7527602 91.6985387,35.1539383 C92.0703239,34.5545739 92.3747077,33.935078 92.6248592,33.2817082 C92.6519754,32.7163383 92.6925599,32.2261904 92.746493,31.818015 C92.8006056,31.4029684 92.8615423,31.0688095 92.9426514,30.8099328 C92.8885387,30.252278 92.8545986,29.7482671 92.8276021,29.2989246 C92.8006056,28.8494013 92.7800739,28.4480369 92.7800739,28.100678 L92.7800739,27.5423602 C92.7800739,27.5086671 92.746493,27.3043383 92.6789718,26.9294945 C92.6114507,26.5554945 92.5165739,26.0173082 92.3879965,25.309089 C91.91475,23.8115219 91.5970775,22.6131547 91.4350387,21.7147712 C91.0698979,20.7004205 90.5827641,19.5630506 89.9744754,18.3173684 C89.3727711,17.0712643 88.6424894,15.7029246 87.7906937,14.2123493 C87.5066021,13.4293301 87.283507,12.7414835 87.1414613,12.1558013 C86.9924718,11.5637904 86.9183662,11.0803931 86.9183662,10.7057301 L86.9183662,10.1478945 C87.1481056,10.1478945 87.4455458,10.3108753 87.8242746,10.6443712 C88.1961796,10.9712369 88.6354859,11.4756095 89.136088,12.1421191 C89.2982465,12.7619767 89.4402923,13.2656863 89.56875,13.6671712 C89.7039718,14.062026 89.8188415,14.3547164 89.9338908,14.5318616 C90.0891655,14.7430616 90.3396162,14.9268972 90.6842254,15.0904205 C91.0290141,15.2470726 91.4686197,15.3834123 91.9892148,15.4922671 C92.7800739,15.4922671 93.3753134,15.417226 93.7743944,15.2672041 C94.1665317,15.1245958 94.3691549,14.9065849 94.3691549,14.6138945 C94.2676937,12.7211712 94.112419,11.4414342 93.8889648,10.7810726 C93.1319859,9.21485337 92.2732465,8.04379036 91.3199894,7.25444241 C90.3731972,6.47106159 89.325243,6.07656844 88.1894155,6.07656844 Z M106.923535,7.0159383 C106.55181,7.0159383 105.997275,7.09779036 105.260349,7.25444241 C104.996669,7.25444241 104.793746,7.67629995 104.665648,8.52766981 C104.537011,9.37855748 104.46913,10.6585958 104.46913,12.3601301 L104.550599,12.7619767 C104.516658,12.8098342 104.496486,12.8639602 104.489662,12.9323109 C104.476134,12.9936698 104.46913,13.0683493 104.46913,13.1564698 L104.46913,14.1987273 C104.361085,15.2195876 104.279975,16.0300917 104.232926,16.6084205 C104.178514,17.1938013 104.151518,17.5614726 104.151518,17.7045027 C104.205451,18.7530287 104.239391,19.8082452 104.266567,20.8706342 C104.293504,21.9327821 104.313915,23.0013191 104.313915,24.0910726 C104.212394,25.3432643 104.131345,27.2634726 104.070408,29.8363876 C104.070408,30.0202232 104.076993,30.1632534 104.09094,30.2589082 C104.104349,30.347089 104.124521,30.3949465 104.151518,30.3949465 C104.151518,32.036026 104.279975,33.2747164 104.523602,34.0987219 C104.773694,34.9295986 105.152303,35.3375931 105.65943,35.3375931 L107.403725,35.3375931 C108.458504,35.2696041 109.249722,35.1060808 109.777081,34.8472643 C110.304261,34.5954397 110.56794,34.2552534 110.56794,33.8265849 L110.486831,33.6626999 C110.649229,32.5875328 110.730338,31.9471821 110.730338,31.7496643 C110.730338,31.620678 110.709986,31.4434726 110.669401,31.2117794 C110.628877,30.9874397 110.56794,30.7147602 110.486831,30.3949465 C110.615289,29.0879054 110.71693,27.9305246 110.784451,26.9229849 C110.851972,25.9086342 110.885912,25.0439438 110.885912,24.3289136 C110.885912,24.261226 110.878968,24.0910726 110.86538,23.8255657 C110.858915,23.5528863 110.838384,23.192026 110.804803,22.7361739 L110.804803,22.5723493 L110.885912,22.5723493 C111.01437,23.4028643 111.136004,24.0840808 111.257697,24.6215438 C111.372567,25.1525575 111.487616,25.5340917 111.595662,25.7656041 C111.595662,25.9764424 111.818817,26.1332753 112.251479,26.2421301 C112.691144,26.3512863 113.340317,26.4054726 114.212285,26.4054726 C114.469201,26.3171109 114.705884,26.2216369 114.915451,26.1124205 C115.125018,26.0109794 115.314532,25.8947712 115.483574,25.7656041 C115.666144,25.5340917 115.862303,25.091741 116.058282,24.431078 C116.261025,23.7642068 116.463947,22.8858342 116.66657,21.7761301 L116.74768,21.7761301 L116.74768,21.8574397 L116.592405,23.450541 L116.910197,27.5219876 C116.910197,27.7399986 116.903254,27.9580095 116.889665,28.1690287 C116.876257,28.3796863 116.856085,28.5908863 116.829088,28.7948534 L116.984542,31.0279438 C116.957246,31.198278 116.937194,31.3754835 116.923606,31.5523273 C116.910197,31.7224808 116.903254,31.8996863 116.910197,32.0696589 L116.910197,34.9427383 C117.795933,36.2156643 118.830299,36.856015 119.993303,36.856015 C120.20287,36.856015 120.425965,36.7876643 120.662528,36.658678 C120.906155,36.5293301 121.156306,36.3248205 121.419806,36.0596753 C121.548384,36.0596753 121.649905,35.5626561 121.717426,34.5817575 C121.784947,33.5947109 121.818887,32.1173356 121.818887,30.1569246 C121.818887,29.5644315 121.778303,28.8698945 121.697074,28.0598726 C121.622908,27.2496698 121.500915,26.3234397 121.345282,25.2892589 L121.345282,24.9687219 C121.345282,24.7848863 121.365813,24.5674178 121.419806,24.2947383 C121.473919,24.0292315 121.548384,23.7230397 121.663433,23.3690506 C121.629493,23.1986561 121.588968,23.0285027 121.54144,22.8516589 C121.487327,22.6745136 121.419806,22.5042999 121.345282,22.3343273 C121.372458,22.1571219 121.39281,21.9939602 121.406398,21.8439383 C121.419806,21.694278 121.419806,21.5651109 121.419806,21.4557739 L121.419806,20.2575876 L120.791106,12.442163 C120.838454,12.0811219 120.879039,11.7682999 120.906155,11.5027931 C120.933151,11.2369246 120.94656,11.0121027 120.94656,10.8487602 C120.86563,10.2361958 120.811518,9.75973009 120.770574,9.41237118 C120.730229,9.0651931 120.709996,8.85417392 120.709996,8.77250269 C120.709996,8.42550543 120.655884,8.15963694 120.547658,7.98984515 C120.439553,7.81945063 120.283979,7.73096844 120.074412,7.73096844 L119.75662,7.73096844 C119.026458,7.73729721 118.390694,7.80594926 117.843102,7.95566981 C117.302335,8.10496844 116.856085,8.3229794 116.511116,8.60934104 C116.281377,8.79950543 115.902827,9.46703967 115.361701,10.5972369 C114.820933,11.7271328 114.124592,13.3268041 113.258908,15.389741 L113.184743,15.389741 C112.866771,14.3483876 112.562507,13.4360205 112.271831,12.6528205 C111.987799,11.8704643 111.703768,11.2164315 111.440268,10.6857191 C110.655813,9.46004789 109.891951,8.54099036 109.141257,7.92848625 C108.383979,7.32213009 107.647232,7.0159383 106.923535,7.0159383 Z M110.804803,22.2526561 L110.804803,22.490678 L110.730338,22.490678 L110.730338,22.2526561 L110.804803,22.2526561 Z M138.166303,6.9754342 C137.524074,6.9754342 137.010303,7.05680406 136.638518,7.21327529 C136.266433,7.3769794 136.036514,7.6148205 135.948761,7.93481502 C135.563268,8.09128625 135.238651,8.27512187 134.98856,8.48614104 C134.731824,8.69752187 134.549254,8.94283694 134.440849,9.20816296 C134.440849,9.5211657 134.359739,10.1207109 134.184113,11.0121027 C134.01507,11.904278 133.758035,13.0888424 133.413426,14.5528972 C133.014345,17.2011547 132.662732,19.4680589 132.358528,21.3744643 C132.054264,23.2739986 131.797408,24.8053794 131.587662,25.9631219 C131.621423,26.4738232 131.641775,26.8954999 131.648419,27.2293575 C131.662127,27.5628534 131.668771,27.8076863 131.668771,27.9580095 C131.479437,29.0879054 131.344155,30.1092479 131.249637,31.0279438 C131.161585,31.9404917 131.114595,32.7576863 131.114595,33.4655438 L131.114595,34.4185958 C131.26969,35.0310999 131.574254,35.487615 132.020324,35.7939876 C132.473577,36.1004808 133.068278,36.2568315 133.805563,36.2568315 C134.028658,36.2568315 134.339327,36.0933082 134.75882,35.7803054 C134.947975,35.6851328 135.083077,35.4943054 135.178074,35.2086068 C135.265648,34.915615 135.313176,34.5207602 135.313176,34.0241027 C135.50269,33.6698726 135.657785,33.3493958 135.772835,33.0567054 C135.894827,32.7576863 135.975937,32.4989904 136.02987,32.2673575 C135.989345,32.2673575 135.908236,31.8658123 135.786363,31.0688095 C135.867472,30.7831109 135.928408,30.5309246 135.968933,30.3199054 C136.009518,30.1092479 136.02987,29.9321027 136.02987,29.7955821 L136.02987,29.3129082 L135.948761,29.1562561 C135.99593,29.0470397 136.043458,28.9650671 136.083982,28.9110616 C136.117923,28.8632041 136.158327,28.8357191 136.185444,28.8357191 L136.65869,28.8357191 C137.212866,28.8632041 137.638944,28.9040698 137.922975,28.9587383 C138.213651,29.013226 138.376229,29.0742232 138.403165,29.1562561 C138.490919,30.4837904 138.700486,31.7633465 139.031986,33.0026999 C139.356602,34.2350616 139.809317,35.4262561 140.384025,36.5770068 C140.49213,36.8425136 140.735577,37.0464808 141.107722,37.1760095 C141.479447,37.3053575 141.97969,37.3729849 142.601926,37.3729849 C142.966887,37.3729849 143.305032,37.3391712 143.609296,37.2715438 C143.91338,37.2028315 144.184004,37.1013301 144.420507,36.9714999 C144.630074,36.9714999 144.792651,36.8696972 144.894113,36.6723602 C145.002158,36.4748424 145.056151,36.1751602 145.056151,35.7733136 L145.056151,35.3787602 C145.056151,35.2899164 145.035799,34.9497904 144.995215,34.3707383 C144.95469,33.7854178 144.900697,32.9548424 144.819588,31.8658123 L144.819588,31.7838397 L144.900697,31.6269465 C144.73818,30.667626 144.582905,30.1906178 144.420507,30.1906178 C144.420507,30.1434232 144.427511,30.0342671 144.440859,29.877615 C144.454447,29.7140917 144.47468,29.5028917 144.501975,29.2308753 C144.501975,29.0742232 144.481444,28.9110616 144.440859,28.7338561 C144.400514,28.5635219 144.346401,28.386678 144.264933,28.1958506 C144.312461,27.9851931 144.352986,27.8150397 144.379982,27.6786999 C144.406979,27.5423602 144.420507,27.4473684 144.420507,27.3995109 C144.420507,27.3176589 144.400514,27.1814999 144.346401,26.9979657 C144.292229,26.8069575 144.217944,26.5689958 144.109479,26.2826342 L144.346401,24.8462452 C144.312461,24.4990671 144.271877,24.1791931 144.217944,23.9001849 C144.156827,23.6208753 144.095951,23.3758616 144.02837,23.1715328 C144.02837,22.5519767 143.974257,21.9256095 143.866211,21.2994232 C143.757746,20.6729356 143.602651,20.0463876 143.392965,19.420563 C143.311676,18.5896863 143.230567,17.9768205 143.136049,17.5614726 C143.047996,17.1532972 142.946535,16.9489684 142.83843,16.9489684 C142.885958,16.8606068 142.926303,16.7721246 142.953479,16.6904534 C142.980475,16.6154726 142.994004,16.5407931 143.000648,16.4658123 C142.994004,16.281615 142.960063,16.0364205 142.899366,15.7510835 C142.831845,15.4580917 142.730324,15.1107328 142.601926,14.7156972 C142.534225,14.5113684 142.446292,14.218678 142.351595,13.8311767 C142.257137,13.4495219 142.155616,12.9664863 142.04757,12.4009356 C141.776947,12.0127712 141.580908,11.645763 141.452331,11.3116041 C141.317229,10.9784095 141.256352,10.6785465 141.256352,10.4064095 C140.701637,9.2560205 140.174458,8.3980205 139.667271,7.83313283 C139.167088,7.26077118 138.693842,6.9754342 138.247592,6.9754342 L138.166303,6.9754342 Z M137.449908,16.0705958 C137.720053,17.1599876 137.916211,18.1882013 138.051613,19.1618671 C138.18007,20.1350506 138.247592,21.0472972 138.247592,21.8914945 L138.247592,22.2931602 C138.247592,22.5589684 138.227239,22.872152 138.186655,23.2190287 C138.14613,23.566689 138.085194,23.9480424 138.004085,24.3630287 C138.058197,24.8190616 138.098782,25.1867328 138.125778,25.4865958 C138.152715,25.7792863 138.166303,25.9899438 138.166303,26.1197739 L138.166303,26.2011438 L137.449908,26.2011438 C137.321331,26.2011438 137.158933,26.1944534 136.962775,26.1811328 C136.766796,26.1737794 136.530113,26.1536479 136.266433,26.1197739 C136.266433,25.8334123 136.286606,25.5135986 136.320546,25.1664205 C136.36107,24.8190616 136.422007,24.4443986 136.503116,24.0499054 C136.469535,23.7977191 136.449004,23.5528863 136.44218,23.3148643 C136.428951,23.0759986 136.422007,22.8379767 136.422007,22.6131547 L136.422007,22.4498123 C136.611222,21.5034506 136.787148,20.4960917 136.942722,19.4342452 C137.098176,18.3648643 137.246806,17.2488315 137.375444,16.0705958 L137.449908,16.0705958 Z M167.056127,5.87905063 C166.58288,5.94040954 166.224683,6.0423931 165.98782,6.19205337 C165.751077,6.33508351 165.629444,6.52573009 165.629444,6.75742324 L165.629444,8.4318342 C165.629444,8.60934104 165.609092,8.89503967 165.568507,9.28320406 C165.527982,9.67136844 165.473989,10.1542232 165.39288,10.7468972 L165.39288,11.7818013 C165.39288,11.9109684 165.399525,12.0406178 165.413292,12.1766561 C165.419877,12.3061246 165.440109,12.442163 165.473989,12.5785027 C165.440109,12.6801246 165.419877,12.7891602 165.413292,12.9116369 C165.399525,13.0278452 165.39288,13.1564698 165.39288,13.2998616 L165.39288,13.7763273 C165.39288,13.9873465 165.399525,14.1778726 165.413292,14.3547164 C165.419877,14.5318616 165.440109,14.6815219 165.473989,14.8114123 C165.440109,14.9268972 165.419877,15.1787219 165.413292,15.5805684 C165.399525,15.9754232 165.39288,16.5202999 165.39288,17.2074835 C165.264482,18.5350178 165.162842,19.576552 165.09532,20.3323876 C165.027739,21.0952753 164.993799,21.5651109 164.993799,21.7552753 L164.919694,21.7552753 C164.919694,21.4833191 164.899342,21.2787493 164.858757,21.1294506 C164.818232,20.9792479 164.757296,20.8979383 164.676187,20.8769027 C164.547729,19.8082452 164.399099,18.9368643 164.223113,18.2631821 C164.047366,17.5819657 163.857972,17.0986287 163.648465,16.8059383 C163.648465,15.5122178 163.330613,14.5528972 162.701972,13.9396698 C162.701972,13.388163 162.634451,12.8981356 162.505813,12.4763383 C162.370771,12.0469465 162.174433,11.6866287 161.904109,11.3865849 C161.78906,10.9920917 161.667426,10.6443712 161.552556,10.3380589 C161.430923,10.0318671 161.315873,9.76636022 161.194,9.54871091 C160.889796,9.20816296 160.646648,8.91553283 160.477606,8.66334652 C160.308444,8.41146159 160.200039,8.20050269 160.166458,8.03028899 C160.166458,7.79232735 159.902778,7.6148205 159.375239,7.49246433 C158.84806,7.3769794 158.056842,7.31525885 156.995299,7.31525885 C156.522053,7.31525885 156.123151,7.39711091 155.805359,7.55382324 C155.541799,7.55382324 155.338697,7.71698488 155.210299,8.05084241 C155.082021,8.3843383 155.014141,8.88135748 155.014141,9.54871091 C155.014141,9.75973009 155.021085,10.0453684 155.034673,10.4200917 C155.041257,10.7874013 155.061609,11.2439164 155.095549,11.7818013 C155.014141,13.2998616 154.919623,14.7977301 154.811518,16.2886068 C154.710056,17.7794835 154.588423,19.2504095 154.459965,20.7204315 C154.507313,21.1699547 154.547838,21.5651109 154.574835,21.9052972 C154.601951,22.2454835 154.615359,22.5453465 154.615359,22.7904808 C154.622004,22.9471931 154.615359,23.1236753 154.601951,23.3416863 C154.588423,23.5596972 154.568011,23.7977191 154.540894,24.0703986 L154.622004,24.5469246 C154.568011,24.8399164 154.53443,25.0712479 154.507313,25.2550835 C154.473373,25.4387383 154.459965,25.5749575 154.459965,25.663078 C154.459965,25.9422671 154.486901,26.3512863 154.540894,26.8819986 C154.588423,27.4131931 154.669532,28.0665027 154.777577,28.8562123 C154.777577,29.0058726 154.757405,29.4077191 154.717,30.061752 C154.68306,30.7147602 154.622004,31.620678 154.540894,32.7641958 C154.540894,33.7719164 154.770993,34.5340808 155.237236,35.0384534 C155.697254,35.5418013 156.393595,35.8006178 157.313092,35.8006178 C157.617535,35.8006178 157.935148,35.7391383 158.266349,35.6167821 C158.597908,35.5012972 158.935574,35.3174616 159.29413,35.0789575 C159.361831,34.9701027 159.429352,34.6092424 159.497232,34.0034287 C159.564754,33.3908643 159.632275,32.5261739 159.686447,31.4092972 C159.686447,31.2596369 159.672859,30.8036041 159.645863,30.0342671 C159.618746,29.2580589 159.578342,28.1753575 159.530813,26.7799547 L159.530813,26.460141 C159.530813,26.3304315 159.537757,26.1671493 159.551165,25.9701136 C159.55781,25.7719328 159.578342,25.5340917 159.611923,25.2682232 L159.686447,25.2682232 L160.876387,29.4960808 C161.302465,30.7626178 161.647074,31.8246452 161.904109,32.6755328 C162.167789,33.5269027 162.350359,34.1735821 162.458465,34.6024315 C162.789845,35.1607493 163.134634,35.576278 163.506599,35.8552863 C163.87138,36.1342945 164.263877,36.2771438 164.676187,36.2771438 C166.13663,35.9778232 167.225109,35.5689246 167.948447,35.0519547 C168.672144,34.5340808 169.037285,33.9012041 169.037285,33.1654999 L168.956176,32.0496479 C169.118394,31.1099767 169.192739,30.5515986 169.192739,30.3746342 C169.192739,30.2044205 169.192739,29.9456041 169.179331,29.6054178 C169.165743,29.2650506 169.145391,28.8293904 169.118394,28.2978342 C169.2265,27.8963493 169.30743,27.3176589 169.354898,26.5484424 C169.40907,25.7719328 169.436007,24.8190616 169.436007,23.6688534 C169.436007,23.6075547 169.429423,23.5050287 169.415835,23.3623602 C169.402426,23.2126999 169.381894,23.0218726 169.354898,22.7904808 C169.436007,22.5660205 169.496944,22.2796589 169.537528,21.9327821 C169.578053,21.5924753 169.598405,21.1836369 169.598405,20.7204315 L169.598405,20.6391219 C169.598405,20.1829082 169.584996,19.7747328 169.55788,19.4133904 C169.530884,19.0530726 169.490359,18.7460369 169.443011,18.4875219 C169.517296,18.2969958 169.578053,18.0658452 169.618637,17.8003383 C169.659342,17.534289 169.679514,17.2279767 169.679514,16.8876095 L169.679514,16.8059383 C169.679514,15.6552479 169.598405,14.6952041 169.443011,13.9396698 L169.598405,10.1883986 C169.551056,9.97774104 169.469947,9.73254652 169.361901,9.45335748 C169.253437,9.17434926 169.125158,8.86086433 168.96282,8.51398762 C168.922236,7.92149447 168.888296,7.48547255 168.847771,7.19278214 C168.807187,6.90045337 168.766662,6.75742324 168.726077,6.75742324 C168.726077,6.4647931 168.624616,6.24678214 168.415049,6.10339036 C168.205542,5.95409173 167.88787,5.87905063 167.461792,5.87905063 L167.056127,5.87905063 Z M164.926278,22.0754506 L164.926278,22.3138342 L164.845169,22.3138342 L164.845169,22.0754506 L164.926278,22.0754506 Z" id="Fill-1"></path>
                <path d="M64.1709296,2.17696296 C64.3255458,2.08896296 64.4886021,2.02507255 64.6557289,2.0326068 L64.7132535,2.07341228 C64.5155387,2.03857392 64.348412,2.09155474 64.1709296,2.17696296 Z M64.6557289,2.0326068 C64.7293556,2.03586159 64.8038803,2.05328077 64.8785246,2.08896296 C65.0076408,2.15954378 65.0643275,2.26291365 65.1432218,2.3832205 C65.1428627,2.38352187 65.440662,2.87083694 65.43725,2.87204241 C65.4510176,2.86691913 65.7888627,3.64053557 65.7728803,3.64379036 C65.8007148,3.7326342 65.8265141,3.8206342 65.8504577,3.90688625 C65.6553169,3.79718762 65.4494613,3.56091365 65.4211479,3.40866159 C65.4004366,2.99228899 65.3134014,3.4934068 65.4343768,4.0635383 C65.552838,4.49805337 65.859257,4.74131913 65.8390845,4.95679858 C65.8043063,5.1373794 65.661243,5.3914342 65.5764225,5.5556205 C65.4469472,7.20610269 65.3040634,7.03335748 65.2026021,6.93101228 C64.9367077,6.79828899 65.4187535,7.83638762 65.492919,7.99581228 C65.8013732,8.60765337 66.0891761,9.0462068 66.538,9.56667255 C66.7230845,9.78414104 66.911581,9.98509447 67.113007,10.1865301 C67.5254965,10.5769246 67.9810845,10.7472589 68.5291549,10.8565958 C69.1485176,10.8646123 69.6151197,10.7395438 70.1507993,10.4256972 C70.6789965,10.0853301 71.0036127,9.72043146 71.2827359,9.15506159 C72.2756796,7.60541776 72.2835211,5.99116022 71.7330563,4.27630543 C71.2167113,2.93285885 70.4477606,1.7713794 69.1858099,1.0409794 C69.1340915,1.01313283 69.0818345,0.986310908 69.0293979,0.95948899 C68.4103944,0.628162962 67.9005141,0.429801319 67.2174014,0.282371182 C66.6878275,0.155735565 66.2148803,0.131324606 65.7181092,0.0221684419 C65.7179296,0.0234944693 65.6317324,0.00505063373 65.6317324,0.00505063373 C65.4255775,-0.0185164896 65.4919014,0.0435054282 65.6069507,0.126382141 C65.6043768,0.133554743 65.9239049,0.356327346 65.9239049,0.356327346 C65.8043063,0.345236935 65.684169,0.338546524 65.5638521,0.335472552 C65.1053908,0.322513647 64.7707782,0.393757483 64.3380563,0.411357483 C64.311419,0.412020497 64.2865176,0.413949264 64.2598803,0.416842415 C64.1407606,0.434261593 64.2355775,0.472173921 64.2893908,0.49628351 C64.5539085,0.588020497 64.7431232,0.659445154 64.9735211,0.824656113 C64.7868803,0.817664332 64.6221479,0.862930086 64.4565176,0.948338305 C64.2617359,1.07135748 64.1244789,1.23916022 64.1802676,1.48212461 C64.2824472,1.74811365 64.44275,1.87884789 64.6557289,2.0326068 Z M65.9224085,6.10682598 C65.8684155,6.26534652 65.7898803,6.41506707 65.6704014,6.55906159 C65.7496549,6.39421228 65.8324401,6.244552 65.9224085,6.10682598 Z M69.3193556,4.85306707 C69.4771444,4.95336296 69.6682148,5.10507255 69.7371127,5.28776296 C69.6582183,5.35165337 69.4620599,5.07758762 69.3193556,4.85306707 Z M65.6542993,2.48604789 C65.61575,2.43294652 65.5733697,2.37020132 65.5270387,2.297752 C65.5682817,2.35651913 65.6110211,2.41992735 65.6542993,2.48604789 L65.6542993,2.48604789 Z" id="Fill-2"></path>
                <path d="M68.1668873,9.97924789 C67.5685951,9.92048077 67.1201303,9.77118214 66.5834331,9.48958214 C65.9777183,9.13384515 65.5955775,8.76309995 65.1865,8.19128077 C64.5021901,7.14341776 64.207743,6.16251913 63.9466373,5.16299584 C63.8423028,4.76374104 63.7265352,4.24960406 63.5764085,3.76524241 C63.9001268,4.35315474 64.284662,4.99320406 64.3631972,5.11791091 C64.9521514,6.0423931 65.5080035,6.77791639 66.4144507,7.40789995 C66.6313204,7.57021776 66.9061937,7.7201794 67.0972641,7.87520406 C67.2019577,7.96676022 67.281331,8.05048077 67.3680669,8.1587931 C67.6748451,8.60608625 68.0493239,9.44069995 68.1668873,9.97924789 Z M63.5764085,3.76524241 C63.4542359,3.37038762 63.3086585,2.99451913 63.1277641,2.71671639 C63.0234296,2.71038762 63.2735211,3.21524241 63.5764085,3.76524241 L63.5764085,3.76524241 Z" id="Fill-3"></path>
                <path d="M68.4792923,7.08905063 C68.271581,7.20881502 68.1168451,7.26848625 67.8743556,7.30043146 C67.5309437,7.31459584 67.2769014,7.21876022 66.9835317,7.04462872 C66.1650176,6.57545611 65.6553169,5.82046433 65.1727324,5.02954926 C64.8305176,4.47496844 64.3971373,3.63456844 63.9965,3.15647529 C63.8202148,3.20806981 64.8820563,4.85017392 65.0133873,5.04702872 C65.5509225,5.85054104 66.0964789,6.56593283 66.9290599,7.0791657 C67.2238063,7.27222324 67.4469613,7.36926433 67.7873204,7.44804241 C67.9035669,7.47022324 68.0116127,7.48667803 68.1178627,7.50952187 C68.1532993,7.45660132 68.1974155,7.4107931 68.2542817,7.36480406 C68.3672958,7.28198762 68.4672606,7.24503967 68.6065528,7.23171913 C68.560581,7.1880205 68.5169437,7.14034378 68.4792923,7.08905063 Z M68.1178627,7.50952187 C68.1719754,7.52115474 68.22525,7.53447529 68.2794225,7.55056844 C68.1983134,7.58643146 68.1146303,7.62657392 68.0455528,7.65701228 C68.0657852,7.60029447 68.0890106,7.55261776 68.1178627,7.50952187 Z M68.2794225,7.55056844 C68.3369472,7.56865063 68.3945915,7.59016844 68.4539718,7.61801502 L68.5372958,7.652552 C68.7092113,7.38770817 68.5037148,7.45214104 68.2794225,7.55056844 Z M68.5372958,7.652552 L68.5963768,7.67678214 C68.5568099,7.68226707 68.5266408,7.69269447 68.4955739,7.71270543 C68.5113768,7.69118762 68.5250845,7.67081502 68.5372958,7.652552 Z M68.4955739,7.71270543 C68.4896479,7.71644241 68.483662,7.72090269 68.4775563,7.72548351 C68.4436761,7.75435474 68.4232641,7.78256296 68.4091972,7.82493557 C68.4427782,7.78322598 68.471331,7.74615748 68.4955739,7.71270543 L68.4955739,7.71270543 Z" id="Fill-4"></path>
                <path d="M65.5673838,19.8762342 C64.8437465,19.222563 64.2115141,18.5732917 63.6077746,17.8006999 C63.1802007,17.3678726 62.6638556,16.7979219 62.4436338,16.2177246 C62.4307042,16.1956643 62.4022113,16.1486506 62.3989789,16.1237575 C62.3288838,15.8604205 61.9829577,15.5785191 62.0775951,15.1869191 C62.0798099,15.1862561 62.1200352,15.2397191 62.1200352,15.2397191 C62.1514014,15.0466616 62.1853415,14.8537849 62.2133556,14.6600041 C62.293088,14.6977958 62.8172148,14.9740315 62.8094331,14.9812041 C62.8245176,14.9675219 62.7039014,14.7411931 62.7039014,14.7411931 C62.8116479,14.4493465 62.9728486,14.3415164 63.2555035,14.2350726 C63.6585352,13.9940369 64.0370845,13.868426 64.4892606,13.7513739 C65.342912,13.4301739 66.0672676,13.3380753 66.9769472,13.3555547 C67.1048662,13.4119109 67.9846761,13.7744589 67.9846761,13.7744589 C68.9832465,14.1283273 73.8932535,15.6212534 74.3671585,16.2421356 C74.4155246,16.4452589 74.4479085,16.8660917 74.4479085,16.8660917 C74.4355176,18.3135712 73.7486937,18.7774397 72.4032993,19.111478 C70.7541796,19.4282178 69.1101479,19.7132534 67.4406761,19.8999821 C67.1485035,19.9372315 65.7618662,20.1552424 65.5673838,19.8762342" id="Fill-5"></path>
                <path d="M65.2546796,26.3579767 C64.3092641,25.5645301 63.4808732,24.7744589 62.6984542,23.8103164 C62.4495599,23.5574671 61.6618732,22.708689 61.5811232,22.3580753 C61.57825,22.2890616 61.3671866,21.9435712 61.3671866,21.9435712 C61.1747394,21.6980753 60.7955317,21.1870123 60.9086655,20.8463438 C61.2867359,20.7735328 61.6157218,20.6628698 62.0260563,20.592289 C62.5915458,20.3966397 63.0972359,20.2836863 63.6880458,20.1875493 C64.8433873,19.8881684 65.8058028,19.8268698 66.9967606,19.9073356 C67.124919,19.9623657 68.0135282,20.3223219 68.0135282,20.3223219 C69.1425317,20.7163328 75.0910352,22.4899547 75.6051655,23.0927547 C75.6567042,23.2955767 75.6877711,23.7179164 75.6877711,23.7179164 C75.6513169,25.2793739 74.6847711,25.6518068 73.2893345,25.9137575 C71.2768099,26.1899931 69.2769155,26.4133082 67.2465528,26.5009465 C66.9297782,26.5194506 65.4620317,26.6364424 65.2546796,26.3579767" id="Fill-6"></path>
                <path d="M68.4472077,24.257489 C69.1727606,24.7478178 71.1872007,26.0523273 71.6930106,26.5621246 C71.8072218,26.7512643 72.8107007,27.1948205 72.8829507,27.2255602 C72.2086373,28.7926835 71.0938803,30.1516205 69.5118028,30.8283767 C69.1008099,30.760026 65.9412042,30.1991164 65.9412042,30.1991164 C65.7835951,30.2307602 65.6490317,30.244563 65.487831,30.2426945 C65.1865,30.1092479 63.4720141,29.3710123 63.3086585,29.1718068 C63.242993,28.9724205 63.1997148,28.5464643 63.1997148,28.5464643 C63.2380246,27.3031328 64.0090704,26.6800205 65.1113169,26.2769684 C65.1440599,26.2669027 65.487831,26.1567219 65.487831,26.1567219 C65.3256127,26.1558178 65.1827289,26.1703438 65.0241021,26.2038561 C65.4272535,25.9520315 68.1009225,24.0147054 68.4472077,24.257489 Z" id="Fill-7"></path>
                <path d="M67.3140739,36.6701301 C66.8854824,35.9625739 65.9625739,34.4037082 65.7158944,33.6825301 C65.680757,33.4870616 65.2078697,32.8182013 65.168662,32.7650397 C65.6013239,31.6414726 66.3481268,30.3872315 67.5528521,30.0253465 C68.1433028,30.4297849 70.4295634,31.9534506 70.7422676,32.3635547 C70.8017077,32.5632424 70.880243,32.9744917 70.880243,32.9744917 C71.0034331,33.9572589 70.8807817,34.7517301 70.0148592,35.3442835 C69.6818028,35.5380041 67.5228028,37.0056753 67.3140739,36.6701301 Z" id="Fill-8"></path>
                <path d="M65.7571373,38.5804534 C66.2831197,38.2973465 67.2912077,37.7862835 67.8426303,37.6445191 C67.9588768,37.6292698 68.4368521,37.395889 68.4816268,37.3729849 C69.2428556,37.5682726 70.1251796,37.9872369 70.3734155,38.793341 C69.9909754,39.2983767 69.2697923,40.3101958 68.6940669,40.5360424 C68.553757,40.5719054 68.271581,40.6392315 68.271581,40.6392315 C67.6565282,40.7677356 67.0812817,40.8189684 66.6457465,40.2760205 C66.5281232,40.098152 65.4900458,38.7272205 65.7571373,38.5804534 Z" id="Fill-9"></path>
                <path d="M68.3258732,41.4581739 C68.4842007,41.7018013 68.8430563,42.2219054 68.9433803,42.4532369 C68.9589437,42.5220698 69.1636021,42.7426726 69.1790458,42.7593684 C68.9861197,43.1344534 68.6874824,43.5570945 68.2240528,43.6741465 C67.9871901,43.5337082 67.0544648,42.9834068 66.9322923,42.8391712 C66.9165493,42.7708205 66.9068521,42.6307438 66.9068521,42.6307438 C66.9141549,42.3006232 67.0244754,42.045363 67.3531021,41.8735219 C67.4941303,41.8086068 68.2576937,41.3556479 68.3258732,41.4581739 Z" id="Fill-10"></path>
            </g>
        </g>
    </g>
</svg>