<?xml version="1.0" encoding="UTF-8"?>
<svg width="170px" height="65px" viewBox="0 0 170 65" version="1.1" xmlns="http://www.w3.org/2000/svg" xmlns:xlink="http://www.w3.org/1999/xlink">
    <!-- Generator: Sketch 53 (72520) - https://sketchapp.com -->
    <title>4</title>
    <desc>Created with Sketch.</desc>
    <defs>
        <linearGradient x1="6.52048143%" y1="111.204379%" x2="105.266015%" y2="99.3042779%" id="linearGradient-1">
            <stop stop-color="#B8B8B8" offset="0%"></stop>
            <stop stop-color="#BFBFBF" offset="100%"></stop>
        </linearGradient>
        <path d="M30.6747932,0.0847625899 C31.6391438,0.402 42.1180119,2.39608633 42.1180119,2.39608633 C42.1180119,2.39608633 49.188186,5.5214964 49.0020883,5.80120863 C48.8160625,6.08094964 52.0577331,7.50860432 52.0577331,7.50860432 L55.1937753,11.8195827 L55.9806736,13.8226763 L56.3167917,14.4859424 L57.1220883,16.5762014 L57.7701434,19.154705 L58.2006984,21.7768921 L58.3015799,23.4275252 C58.3015799,23.4275252 58.3158929,23.9843309 58.3355858,23.9825036 C58.3553219,23.9807482 58.343253,28.3460576 58.343253,28.3460576 L57.7572545,30.6183022 C57.7572545,30.6183022 57.3421488,31.3132518 57.3177232,31.3547338 C57.2933839,31.3961295 49.0535,46.156518 49.0535,46.156518 L45.810247,51.3791655 L42.120817,53.6679281 L38.7852128,55.1465468 L32.5343031,55.8212806 L20.2448194,55.4634245 L11.5705109,51.7952662 L7.4629256,47.9613957 L5.24173562,43.354259 L2.50218502,39.9856403 L0.668639881,37.6182878 L0.148869544,32.552259 L0.0289424603,29.5951367 L0.293869544,27.7364604 L1.1265119,24.0433525 L2.08525248,17.4329209 L2.70948611,14.3822302 L3.60750794,11.0359137 L7.21908681,8.37835971 L11.3322535,5.72835971 L14.5861944,4.29765468 L19.3260114,1.88686331 L24.8247192,0.203208633 L30.6747932,0.0847625899 Z" id="path-2"></path>
        <linearGradient x1="5.518961%" y1="105.905877%" x2="106.539029%" y2="95.035975%" id="linearGradient-4">
            <stop stop-color="#B8B8B8" offset="0%"></stop>
            <stop stop-color="#BFBFBF" offset="100%"></stop>
        </linearGradient>
    </defs>
    <g id="4" stroke="none" stroke-width="1" fill="none" fill-rule="evenodd" opacity="0.800000012">
        <g id="Group-27" transform="translate(23.000000, 2.000000)">
            <g id="Group-23">
                <g id="Group-Copy-4">
                    <path d="M1.93993246,22.0478229 C2.06270776,20.9119667 2.19457433,19.8199092 2.39046818,18.6903408 C2.61379407,17.4983984 2.86571719,16.5256502 3.35094933,15.4058516 C3.87096421,14.2854631 4.39315121,13.5312761 5.31224695,12.6960531 C8.62902125,9.8172761 9.83138484,9.20798113 13.8033491,7.364643 C17.2394751,5.74216818 20.2882152,3.818643 23.6308536,2.06634085 C23.6295014,2.06377969 23.9119206,1.92179408 23.9119206,1.92179408 C25.2629092,1.24136243 26.4790247,0.776758112 27.9560971,0.432038687 C29.488868,0.114959551 30.7857549,0.0172760973 32.2988759,0.498225738 C36.7194196,2.04733365 41.110805,3.6076502 45.4970981,5.25313221 C45.4970981,5.25313221 45.5322117,5.26838401 45.5348586,5.27160703 C47.3140431,6.28710344 49.300989,7.1612761 51.1149994,8.15104588 C52.1610277,8.75157826 52.8201735,9.43091639 53.54011,10.3807869 C53.8402658,10.791089 54.117866,11.2062545 54.3724791,11.6460099 C54.7582251,12.3173193 55.0861006,12.9578229 55.412926,13.6624128 C56.4469717,15.965938 57.1501497,18.1966574 57.8385689,20.6192473 C57.8371016,20.6196934 57.9237564,20.919679 57.9237564,20.919679 C58.5676973,23.3639955 58.9283129,26.1262401 59.0542673,28.6453624 C59.0987167,30.0608157 59.0830659,31.4234775 58.740302,32.8054056 C58.5965967,33.3272185 58.4372837,33.767679 58.1156944,34.207348 C57.976434,34.38742 57.8514578,34.5155351 57.6650292,34.6462113 C56.6495401,35.3030315 57.2064955,34.1793337 57.4587494,34.2502977 C57.6422722,34.1178229 57.646559,34.0625567 57.7827554,33.8817509 C58.0948506,33.4404847 58.0174166,32.8254344 58.1536849,32.3058516 C64.4650257,5.1576502 27.6359176,-5.17407642 5.95590022,13.422456 C5.1579399,14.1585279 4.71307185,14.8255063 4.26551381,15.8096358 C3.82591064,16.8455783 3.60258475,17.764902 3.40444685,18.8679667 C3.01874397,21.2348301 2.90641213,23.5975351 2.53522363,25.9729308 C2.09011104,28.3728301 1.24009169,29.8180099 1.07804556,32.2833337 C1.0540659,32.7450459 1.06181937,33.2153912 1.07673653,33.6769596 C1.12734268,34.8956934 1.22047066,36.0218085 1.57918742,37.1960099 C1.81735856,37.8908013 2.05019288,38.3202401 2.53322413,38.8726862 C3.88516213,40.3252473 4.36403613,40.4341538 5.34094486,42.3798948 L5.75678415,42.7335495 C6.67926034,43.6069883 7.72570578,45.7148301 8.36111649,46.8634488 C8.82400885,47.694384 9.28399546,48.4964128 9.81889873,49.2845279 C10.2019979,49.8320819 10.6280217,50.4125135 11.1863293,50.7932042 C11.2089568,50.7697941 13.1796765,52.4638516 13.6627078,52.8618804 C13.9865555,52.8385567 13.967179,52.8354919 14.0405421,52.8466718 C14.1198893,52.8590315 14.1809677,52.8812617 14.2497564,52.9229883 C14.3155386,52.9653193 14.3588372,53.0065135 14.4051135,53.0693193 C14.5241919,53.2316502 15.062677,53.5209164 15.2438839,53.6168876 C15.8946289,53.9535783 16.5612837,54.2402977 17.2379647,54.5201394 C19.1599915,55.3031466 21.1004885,55.9889308 23.0667489,56.65142 C25.4778055,57.4494488 30.3667797,59.1080962 32.7927246,59.3937653 C32.9780887,59.4041682 33.1634096,59.4149739 33.3487018,59.4255783 C35.41511,59.5244847 36.9728387,58.6893912 38.9831026,58.1680531 C40.947047,57.5967293 42.2787167,56.7119955 43.8425733,55.3859811 C45.6062221,53.7565711 48.0852906,51.7388732 48.9670718,49.513866 C49.0359468,49.2762833 49.1302112,48.8594488 49.1900669,48.5123121 C46.9967261,49.1732617 47.1606854,49.7025423 43.8512906,49.4932617 C42.8369092,49.6025711 41.9286165,49.3782977 40.9652008,49.0741106 C39.7626646,48.6699524 38.7083938,48.1800675 37.5862837,47.5934056 C35.5956264,46.5192617 33.6643501,45.3108013 31.918553,43.8668444 C31.918553,43.8668444 31.6359756,43.628125 31.6359756,43.6280819 C30.9379761,43.0267293 30.2685882,42.3525279 29.8552088,41.519348 C29.4828839,40.6700531 29.2550267,39.9607869 29.2090237,39.0299955 C29.1967534,38.3210459 29.2901259,37.8140819 29.5548516,37.1583121 C30.0219731,36.1162689 30.6344831,35.4864847 31.1272961,34.5390603 C31.1484994,34.4964416 31.1709687,34.4668732 31.2058665,34.4344847 C31.2419583,34.403161 31.274051,34.3840819 31.3189032,34.3677221 C32.7447653,33.7163696 33.2887167,32.9758085 35.3081582,32.2723696 C35.3081582,32.2723696 35.479871,32.2213049 35.5571324,32.1964272 L35.56549,32.1793768 C35.5928933,32.1274056 35.6222961,32.0933624 35.6700828,32.0590171 C35.718934,32.0264703 35.7619592,32.010643 35.8202613,32.0035063 C38.3618898,31.7976934 38.8947936,32.1550603 41.1288724,32.8948444 C41.8362221,33.1072617 42.3002509,33.1626862 43.032429,33.0155351 C44.1096438,32.752456 44.9937122,32.1737078 45.8870446,31.5375639 C46.5408104,31.036456 46.8573075,30.4995926 47.1807812,29.7553193 C47.5005148,28.973161 47.7093695,28.1923984 47.9527623,27.3868301 C48.2084687,26.5582977 48.4443238,25.8617797 48.9220902,25.1280819 C49.1683025,24.7733624 49.3910242,24.5282401 49.7354136,24.265938 C50.1169161,23.9926286 50.4401884,23.8480099 50.8930833,23.7274344 C51.7011562,23.5339092 52.3692207,23.446384 53.1951021,23.5749739 C53.8467102,23.70142 54.2929305,23.8987437 54.8002147,24.3279811 C55.2623303,24.7511322 55.5238338,25.1512905 55.783496,25.7173193 C56.038181,26.3101538 56.1737301,26.8296502 56.2854434,27.4625279 C56.5444151,29.4810315 55.5539702,33.2870027 57.0944513,33.4105135 C57.2897266,33.4133624 57.0759811,34.9632042 57.1255227,34.9458229 C57.1142593,34.9594488 57.0935451,34.9773193 57.0867842,34.9842833 C57.0696949,35.0039092 57.0527782,35.0138516 57.0268853,35.0182977 C56.9983744,35.022384 56.9727261,35.016384 56.9458982,35.0069164 C56.8729523,34.9799236 56.8113848,34.9327725 56.7510689,34.8847293 C56.7550247,34.8776358 56.5474791,34.723089 56.5512336,34.7184847 C56.5023824,34.6793337 56.446684,34.6349596 56.3855912,34.6176214 C56.3656968,34.6118229 56.3520024,34.6035063 56.3378908,34.5881682 C56.3242251,34.5718516 56.3177519,34.5573337 56.3144865,34.5363265 C56.3147742,34.5360819 56.1443273,33.220643 56.1325461,33.2229739 C55.9278774,31.8544272 56.3038417,29.7112329 55.9836621,27.5152185 C55.8688417,26.9129739 55.7327747,26.4149308 55.4821175,25.8528157 C55.2390986,25.339679 54.9959072,24.9728444 54.5696244,24.5923552 C54.1130183,24.2155351 53.7147142,24.0467149 53.1330887,23.9399811 C52.3663724,23.8308301 51.7381686,23.9232905 50.9909583,24.1090315 C50.5932152,24.2189596 50.311055,24.3475495 49.9777851,24.5915351 C49.676119,24.825938 49.4816205,25.0458516 49.2675009,25.361089 C48.82574,26.0540962 48.6061542,26.732902 48.3723417,27.5132617 C48.130675,28.3390171 47.9249563,29.1292617 47.6044459,29.9323408 C47.2485629,30.7695207 46.8964488,31.3559811 46.1685143,31.9235207 C45.2101621,32.614197 44.2999563,33.2103696 43.1431353,33.5052473 C42.3168511,33.6764416 41.7788839,33.6226718 40.9771835,33.3882833 C38.8527896,32.7065711 38.3485981,32.3546718 35.9952395,32.5412329 C35.9505456,32.6052617 35.9054057,32.6434344 35.834862,32.6797797 C35.7311755,32.7275063 35.5889374,32.7637941 35.4783174,32.7994056 C33.5507092,33.4792329 32.9797574,34.2099955 31.6095217,34.8682113 C31.1352078,35.7659092 30.5336016,36.4209883 30.1056071,37.387089 C29.8790158,37.958384 29.8012221,38.3914919 29.8144275,39.0078948 C29.8323223,39.3823552 29.8856185,39.6933912 29.978056,40.0564272 C30.0946458,40.4873768 30.2347837,40.8562833 30.4179612,41.263089 C30.7877975,41.997607 31.4214533,42.6160099 32.0420332,43.1442689 C32.0420763,43.1442689 32.3257901,43.3816502 32.3257901,43.3816502 C34.0454498,44.7835207 35.941742,45.959348 37.8963362,47.0024847 C38.9851884,47.5651034 40.0098551,48.0364991 41.1758104,48.4214919 C42.0237008,48.6846862 42.8881195,48.9050459 43.7816532,48.7968444 C43.8190396,48.7917509 43.848241,48.7909308 43.8858719,48.7939811 C47.2587043,48.9994344 46.9285416,48.3891466 49.4376601,47.6845135 C49.5094265,47.6718372 49.5665634,47.6735926 49.6374667,47.6910459 C49.7076795,47.7107437 49.7578397,47.7370171 49.8141567,47.7832185 C49.8696537,47.8315926 49.9040193,47.8770747 49.9350907,47.9438804 C49.9640044,48.0110603 49.9747643,48.066643 49.9740738,48.1395351 C49.9462246,48.56742 49.7887529,49.3245711 49.6683367,49.7468013 C48.7335039,52.1538372 46.25012,54.206197 44.3618546,55.9737221 C42.7047549,57.3931178 41.2883437,58.3337797 39.201552,58.9527006 C37.0987643,59.5104128 35.4267762,59.9954488 33.2618457,59.9030603 C33.2618457,59.9030603 32.7054513,59.8741538 32.7054513,59.8741538 C30.2021299,59.6174775 25.2638873,58.3181538 22.7825748,57.507938 C20.7931547,56.8484128 18.8311234,56.1650459 16.8847574,55.3859811 C16.1790475,55.0979092 15.4874062,54.8031034 14.8076611,54.4572042 C14.46074,54.275089 14.0746343,54.0752329 13.7855694,53.795161 C13.7224483,53.8097653 13.6527246,53.8206142 13.5760242,53.8267293 C13.438116,53.8333768 13.3324156,53.803679 13.2177534,53.7269164 C12.353306,53.0721826 11.5232241,52.249679 10.6637395,51.6150459 C9.96716411,51.1470315 9.48813187,50.5240531 9.00921471,49.8460675 C8.45097909,49.0337221 7.97174546,48.2091898 7.48858475,47.3517509 C6.96763484,46.419089 5.82814774,44.2012473 5.09625736,43.5154631 C5.09625736,43.5154631 4.60889625,43.1052042 4.60898256,43.1051178 C4.53944586,43.0450027 4.49443544,42.9857365 4.45484814,42.902902 C3.53533524,41.0588732 3.03709913,40.9335351 1.75554655,39.5756358 C1.16461401,38.9083696 0.868212722,38.3721106 0.574616492,37.528902 C0.17077423,36.2529883 0.0648436741,35.0493768 0.00294536065,33.7193049 C-0.0576151552,29.5580819 0.82862542,29.2822401 1.47243693,25.7951034 C1.53127125,25.7990171 1.9400907,22.0463984 1.93993246,22.0478229" id="Fill-2" fill="url(#linearGradient-1)"></path>
                    <g id="Group-5" transform="translate(0.575321, 2.906816)">
                        <mask id="mask-3" fill="white">
                            <use xlink:href="#path-2"></use>
                        </mask>
                        <g id="Clip-4"></g>
                        <path d="M30.6747932,0.0847625899 C31.6391438,0.402 42.1180119,2.39608633 42.1180119,2.39608633 C42.1180119,2.39608633 49.188186,5.5214964 49.0020883,5.80120863 C48.8160625,6.08094964 52.0577331,7.50860432 52.0577331,7.50860432 L55.1937753,11.8195827 L55.9806736,13.8226763 L56.3167917,14.4859424 L57.1220883,16.5762014 L57.7701434,19.154705 L58.2006984,21.7768921 L58.3015799,23.4275252 C58.3015799,23.4275252 58.3158929,23.9843309 58.3355858,23.9825036 C58.3553219,23.9807482 58.343253,28.3460576 58.343253,28.3460576 L57.7572545,30.6183022 C57.7572545,30.6183022 57.3421488,31.3132518 57.3177232,31.3547338 C57.2933839,31.3961295 49.0535,46.156518 49.0535,46.156518 L45.810247,51.3791655 L42.120817,53.6679281 L38.7852128,55.1465468 L32.5343031,55.8212806 L20.2448194,55.4634245 L11.5705109,51.7952662 L7.4629256,47.9613957 L5.24173562,43.354259 L2.50218502,39.9856403 L0.668639881,37.6182878 L0.148869544,32.552259 L0.0289424603,29.5951367 L0.293869544,27.7364604 L1.1265119,24.0433525 L2.08525248,17.4329209 L2.70948611,14.3822302 L3.60750794,11.0359137 L7.21908681,8.37835971 L11.3322535,5.72835971 L14.5861944,4.29765468 L19.3260114,1.88686331 L24.8247192,0.203208633 L30.6747932,0.0847625899 Z" id="Fill-3" fill="url(#linearGradient-4)" mask="url(#mask-3)"></path>
                    </g>
                    <path d="M13.8496686,53.7785135 C13.8672469,53.7834919 13.8856309,53.7875351 13.9056978,53.7905854 C14.3371448,52.953866 14.5321755,53.5817653 13.8496686,53.7785135" id="Fill-6" fill="#C05927"></path>
                    <path d="M13.6617727,53.6625998 C13.6504374,53.6490603 13.6392172,53.6354775 13.628299,53.6215783 C13.6394617,53.6367869 13.6503943,53.6502833 13.6617727,53.6625998" id="Fill-7" fill="#C05927"></path>
                    <path d="M13.7539225,52.9351754 C13.763057,52.9419955 13.7684369,52.9456214 13.7690123,52.9449308 L13.7539225,52.9351754 Z" id="Fill-8" fill="#C05927"></path>
                    <path d="M7.63893594,24.2172473 C9.42398951,22.6130027 10.3087053,23.2491754 11.3706001,26.3367437 C11.5629841,26.8962113 11.6635346,27.3675351 11.5757866,27.9539524 C11.5202465,28.3256502 11.3007038,28.6536934 11.1337668,28.9901394 C10.6104865,30.0443408 10.0271492,30.7214344 9.05120429,31.4043121 C8.71806391,31.6374488 8.46452969,31.8234344 8.0725406,31.9330603 C7.68439229,32.0415926 7.37013931,32.0577941 6.97321619,31.9893049 C6.57952969,31.9214056 6.28891113,31.8022689 5.96156788,31.572643 C5.63290121,31.3419524 5.34180796,31.1447437 5.22559219,30.7605854 C4.16525092,27.2546718 5.36003365,26.265607 7.63893594,24.2172473" id="Fill-9" fill="#898989"></path>
                    <path d="M22.5183094,9.69072933 C24.5398223,8.79759264 27.7758685,8.61534804 28.9651849,10.2680962 C29.4695059,10.9691754 29.2664771,10.9815207 28.9302008,11.5940099 C28.6486016,12.1069883 28.3591339,12.4641538 27.9259176,12.8555351 C21.2858094,18.853161 19.6206686,10.9709596 22.5183094,9.69072933" id="Fill-10" fill="#898989"></path>
                    <path d="M24.8985823,56.0307293 C24.6104523,55.3496502 24.4114657,54.6980099 24.2659335,53.9710315 C24.1280684,53.521938 23.8535609,52.417161 24.0167579,51.9568444 C24.1284855,51.629161 24.0301215,51.2259955 24.310987,50.8596934 C25.0757901,50.7450027 25.7277147,50.4079811 26.6324255,50.2782401 C27.0971448,50.1672185 27.4764464,50.1253768 27.9479841,50.2317797 C28.1081026,50.4668301 28.2834116,50.6893193 28.4643739,50.9085567 C28.918736,51.4055351 29.3870947,51.8320387 29.8578556,52.3048732 C30.0237281,52.4333912 30.1295436,52.5234056 30.2557137,52.691161 C30.2545629,52.6929883 30.3828045,52.8619667 30.3863576,52.8580531 C30.4554771,52.9255207 30.4772846,52.9276358 30.5589622,52.9623408 C30.746369,53.047348 31.1372504,53.1748876 31.1372504,53.1748876 C31.6700679,53.3987149 31.9184811,53.681161 31.8915669,54.2954775 C31.8462256,54.6279667 31.7181423,54.8632761 31.5070867,55.1208301 C31.1146517,55.6093768 30.6561755,55.8408301 30.0607549,56.0081394 C30.0597767,56.0066286 30.0121482,56.0242977 30.0121914,56.0242977 C28.8690361,56.3484128 27.8599052,56.4487149 26.6761269,56.4190603 C26.4011735,56.412902 24.9737722,56.3908444 24.8985823,56.0307293" id="Fill-11" fill="#898989"></path>
                    <path d="M17.3918114,38.445607 C17.1999166,37.4132761 17.0772564,35.4045135 17.4603987,34.4408157 C17.5338769,34.3127006 17.5881512,33.8192329 17.6127782,33.6526142 C17.617554,33.6504991 17.6639022,33.1808444 17.662809,33.1927149 C17.7391353,33.1894056 18.2511666,33.2014344 18.2511666,33.2014344 C19.2286076,33.1863121 20.6761621,33.0495926 21.566675,33.3980243 C21.6487122,33.6211322 21.738057,33.8265711 21.8417147,34.0411034 C22.7918819,35.9005854 23.6450371,36.0808732 24.2617762,36.9780819 C24.2942286,37.1817653 24.2924017,37.599089 24.2924017,37.599089 C24.1398209,38.882643 23.3078546,39.3648157 22.071485,39.4484703 C20.948181,39.4423552 19.9710277,39.3785998 18.8694161,39.1405279 C18.6219811,39.0807437 17.3842593,38.7913624 17.3918114,38.445607" id="Fill-12" fill="#898989"></path>
                    <path d="M19.5834404,23.1548013 C20.914621,23.783161 21.5469821,23.6571178 22.9181239,23.4666142 C23.4215386,23.3967437 23.8859414,22.7005998 24.3897301,22.7249883 C26.2226567,22.8139524 27.5175441,24.1189883 27.9289816,25.9473912 C28.1032117,26.7219236 28.0354012,27.4638229 27.5518377,28.0966718 C27.2774597,28.4557509 26.8387916,28.5212185 26.3936358,28.6169452 C25.0868377,28.8981538 23.6483025,28.4176214 22.2698243,28.0736646 C21.936799,27.9906286 21.3292375,27.6530315 21.3292375,27.6530315 C19.9382013,26.929161 18.8767956,26.0675063 19.0634255,24.3609739 C19.1885312,23.2168301 18.8234994,22.7960099 19.5834404,23.1548013" id="Fill-13" fill="#898989"></path>
                    <path d="M42.0128546,8.2152761 C42.5378467,8.45167898 42.7778591,8.89632646 43.0564806,9.3945279 C43.3225009,9.86998113 43.4635882,10.2710315 43.5749994,10.8036214 C43.6996879,11.3993768 43.770922,11.8898804 43.5705833,12.4672042 C43.5325495,12.5767149 42.867736,13.126643 42.8574077,13.1354488 C42.2462212,13.6611898 40.2397837,15.3515783 39.4270356,15.3025423 C39.2222663,15.2901826 38.8465034,15.0941682 38.8465034,15.0941682 C37.8840659,14.651348 37.3328645,14.1248013 37.4011641,13.004197 C37.5713233,10.4297653 41.4033367,7.94094516 42.0128546,8.2152761" id="Fill-14" fill="#898989"></path>
                    <path d="M4.3770401,16.8475351 C4.87940469,16.0719811 5.87976084,14.8265711 6.68110161,14.3825279 C6.93660657,14.256384 7.18640072,14.0049739 7.50371768,13.8520243 C11.2157752,14.1596358 11.4324121,16.8708588 9.1022276,19.0946862 C8.89039526,19.2667293 8.68345379,19.3344272 8.41448455,19.3657941 C7.94931937,19.4348013 7.57951183,19.337089 7.1660029,19.1238516 C7.16642006,19.1214056 7.06158276,19.0765423 7.06158276,19.0765423 C6.38877125,18.7281826 5.81125984,18.3566574 5.2144151,17.8910027 C5.06505647,17.7711322 4.15966957,17.0881682 4.3770401,16.8475351" id="Fill-15" fill="#898989"></path>
                    <path d="M13.5179955,52.2801106 C12.8841239,51.4087149 11.6295718,49.235089 11.4416329,48.2226574 C11.4580604,48.0298229 10.8484131,46.9428157 10.7950882,46.8515063 C12.2987008,46.3262545 14.3296502,45.9980819 15.9024974,46.1688157 C15.9623963,46.2195926 16.4040852,46.5750171 16.4040852,46.5750171 C17.9324255,47.7117653 19.0185733,48.1180387 20.9214394,48.1903121 C20.9658744,48.1917365 21.1050485,48.1937365 21.1410108,48.2197221 C21.2899235,48.3647581 21.5101135,48.7288444 21.5101135,48.7288444 C21.6663769,49.0992761 21.6887167,49.3867293 21.6299543,49.7878229 C21.3524836,50.7476502 20.5831924,51.2598804 19.7067192,51.6372761 C18.1354831,52.2256214 16.7871413,52.519938 15.1096438,52.5620675 C14.8450188,52.5629596 13.6423243,52.5824991 13.5179955,52.2801106 Z" id="Fill-16" fill="#898989"></path>
                    <path d="M56.2861914,15.3258804 C56.340739,16.0800099 56.2273858,16.6565711 55.8876859,17.3333337 C55.6188893,17.5800962 55.3560768,17.7741538 55.0470024,17.9703408 C53.9223462,18.5378804 51.3316363,19.0198948 50.2047073,18.5857941 C50.0687985,18.4304416 49.8601884,18.0670459 49.8601884,18.0670459 C49.447744,17.0958372 49.6501973,16.2690171 50.2210629,15.4084272 C51.4929488,13.5453912 55.2249007,11.0556358 56.2861914,15.3258804" id="Fill-17" fill="#898989"></path>
                    <path d="M42.8024141,51.0382545 C42.859738,51.0171178 42.923679,50.9810747 42.9766443,50.9512617 C43.866179,50.4505567 43.6077827,50.3489596 44.653926,50.7623696 C45.4919196,51.0936358 45.9784607,51.6701106 46.1012792,52.5939667 C46.1541294,52.9913768 46.1335302,53.3388013 45.920432,53.6784272 C45.7123109,54.0099811 45.4122846,54.1958372 45.0488065,54.3480531 C44.3979751,54.6204703 42.6514156,54.6520819 42.0324325,54.4191466 C41.8402499,54.3468301 41.550739,54.0326142 41.550739,54.0326142 C40.8983253,53.3856214 40.5234687,52.6980962 40.6906934,51.7571466 C40.7730183,51.2938948 41.8718967,51.3813912 42.8024141,51.0382545" id="Fill-18" fill="#898989"></path>
                    <path d="M33.1815634,23.3717797 C35.5854707,22.1199236 39.0335074,20.7591322 39.6041716,24.6363265 C39.6144424,24.706643 39.1819741,25.0426718 39.1819741,25.0426718 C39.1785074,25.039938 38.1547757,26.0446286 38.148619,26.0520962 C37.6752544,26.6231034 37.8058263,26.6502689 37.5046924,27.0881106 C37.3882752,27.2574056 37.0827395,27.5384272 37.0827395,27.5384272 C36.0804126,28.4398516 35.1841601,28.2204128 34.4116611,27.1172329 C34.3929032,27.0903552 34.237992,26.8033337 34.237992,26.8033337 C33.8234617,26.0566142 33.5190193,25.3511466 33.2653556,24.5369308 C33.2115704,24.3640387 32.9242172,23.5058516 33.1815634,23.3717797" id="Fill-19" fill="#898989"></path>
                    <path d="M55.3482083,34.515938 C55.3463814,34.5145135 55.3438065,34.5132905 55.3416919,34.5133624 L55.3482083,34.515938 Z" id="Fill-20" fill="#FEFEFE"></path>
                    <path d="M36.4595128,32.6629308 C37.6677167,31.7719955 38.8628159,30.7910459 40.0173496,29.8346574 C40.7408536,29.235866 41.4503898,28.6334631 42.1405351,27.9960099 C42.2558015,27.8843408 43.0911051,26.9448301 43.1218025,26.9274488 C43.1580093,26.8267437 43.2000565,26.7545998 43.2703987,26.6735926 C43.3455887,26.5925135 43.4131547,26.542384 43.5129717,26.4949164 C43.61112,26.4517653 43.6910857,26.4325854 43.7984836,26.4277797 C43.9054786,26.4261826 43.9877747,26.4400962 44.0879945,26.4776214 C44.7110198,26.7642689 45.6714578,27.2207006 46.2389429,27.5743984 C46.2256512,27.5990315 48.2914121,28.699938 48.2783938,28.7215926 C48.6241066,28.9301826 48.947868,29.1372042 49.2638328,29.3801682 C49.1938214,28.2371322 49.0876463,26.5478516 49.0702693,26.5493624 C49.0657092,26.4972329 49.0691329,26.4585711 49.0837336,26.4082401 C49.0993843,26.3597797 49.1192499,26.3233624 49.1517455,26.2842113 C49.1853486,26.2455495 49.2171968,26.2200531 49.2629409,26.1965998 C49.3090158,26.1742545 49.3475962,26.1640962 49.3986482,26.160384 C49.8719697,26.1605854 50.3460391,26.1532905 50.81949,26.1510027 C50.8195763,26.1528301 51.5630897,26.1539811 51.5630897,26.1539811 C51.5630897,26.1539811 51.7993764,26.1565854 51.7993764,26.1565854 C51.7993764,26.1565854 51.8673883,26.157938 51.8673883,26.157938 C51.8750986,26.1581394 51.8829672,26.1583408 51.8905912,26.1587437 C51.8958561,26.1591178 51.9010778,26.1595639 51.9061269,26.1597653 C51.9109027,26.1602545 51.9240793,26.1617653 51.9276611,26.1629883 L51.9438442,26.1673624 C51.9615089,26.1754775 51.971866,26.1799236 51.977246,26.1820819 C52.0243422,26.2297941 52.0433447,26.247866 52.0497028,26.252197 C52.1685222,26.8867869 52.2822494,28.2113624 52.3269002,28.9025279 C52.3405227,29.1450027 52.3910857,29.4745854 52.3838645,29.7011178 C52.3981775,30.0520387 52.4199994,30.3784991 52.4643194,30.7138085 C53.5137281,31.0476358 55.2384801,31.5233624 55.7511155,31.8041826 C55.7580059,31.807938 59.8538531,34.0978804 59.88012,34.0560387 C59.9134642,34.0684272 59.9469092,34.0805854 59.9802534,34.092902 C60.0423675,34.1155351 60.0956492,34.1408732 60.1527861,34.1737078 C60.271807,34.2455207 60.388181,34.3218372 60.5056626,34.3961538 C60.7079865,34.5270747 60.8283164,34.6708013 60.9231274,34.8921538 C61.0074087,35.1170459 61.0181686,35.3037221 60.9632038,35.5372329 C60.8976373,35.7674631 60.7962668,35.9239236 60.6139667,36.0789452 C60.4247187,36.225089 60.2491795,36.2916934 60.0105912,36.3075926 C58.6533164,36.3598804 59.1841056,36.2517653 57.8196959,36.2281106 C57.3375996,36.220643 57.0726725,36.2375639 56.7805148,36.215866 L56.7929865,36.6173624 C56.8625952,37.4439092 56.9653898,38.264197 57.0739816,39.0863265 C57.2615034,40.4585423 57.518116,41.9131754 57.6558948,43.279607 C57.7477281,44.257161 57.7493536,45.2200531 57.8334766,46.1941106 C57.8450133,46.3218516 57.8343685,46.4209596 57.796047,46.5435639 C57.7534389,46.6651034 57.7025882,46.7524272 57.6163075,46.8479524 C57.5275669,46.9413912 57.4459756,46.9984128 57.3281775,47.0505423 C57.2083367,47.0987006 57.1108789,47.1173912 56.9818318,47.1157509 C56.4071254,47.090384 55.7695138,47.0619524 55.1976988,47.0805567 C54.1440466,47.1848013 52.6250133,47.2684128 51.0904444,47.3951034 C50.9679568,47.4802545 50.8791443,47.5459236 50.8686289,47.5499667 C49.7484607,47.9780531 48.2740351,48.0998804 47.0813382,48.0047725 C46.9901234,47.9987006 46.8951542,47.9944991 46.7974518,47.9916358 C46.7028853,48.0161538 46.6112678,48.0414056 46.523678,48.0675783 C45.3819468,48.4254775 43.9173462,48.6345567 42.7300292,48.4662689 C42.7188953,48.4647149 42.6177261,48.420384 42.4793,48.3645854 C40.9550451,48.5822689 39.4554171,48.8385279 38.404987,48.9711178 C37.843299,49.0801826 37.2279841,49.249607 36.6733015,49.4022257 C36.5478362,49.4324991 36.4486666,49.4359236 36.3211155,49.4156502 C36.194672,49.3909739 36.1024359,49.3535351 35.9952395,49.2821538 C35.8897837,49.2082113 35.8207936,49.134384 35.7522926,49.0253624 C35.6876611,48.9143408 35.6552807,48.8200531 35.6381195,48.6929164 L35.6218933,48.5788444 L35.5224791,48.5867581 C35.4374642,48.5937221 35.3732787,48.5872473 35.2913134,48.5639955 C35.2128581,48.539161 35.1571596,48.5100675 35.0918377,48.4599955 C35.0275803,48.4077797 34.9871299,48.3608013 34.9443923,48.289866 C34.9024746,48.2152761 34.8814007,48.1528732 34.8686701,48.0683984 C34.8686701,48.0683984 34.8625996,48.0139955 34.8621968,48.0140675 C34.6364543,46.0885135 34.5943352,44.4840243 34.5953134,42.5594344 C34.5738223,41.083348 34.1698506,40.1251034 33.884051,38.8697078 C33.7556512,38.8981826 33.6103635,38.9308013 33.4366512,38.9732617 C32.1116706,39.299679 32.6532197,39.2870747 31.3182559,39.537866 C31.0820842,39.5754344 30.8961735,39.5496214 30.6791339,39.449161 C30.4669707,39.3385135 30.3334211,39.2085279 30.2182698,38.9986286 C30.1128283,38.7832473 30.0818,38.5987725 30.1140079,38.3608157 C30.1572345,38.123938 30.2426234,37.9569883 30.4108263,37.7844272 C30.5088452,37.6858085 30.6052817,37.5855926 30.7053863,37.489089 C30.7537916,37.4443121 30.8001542,37.4077221 30.8556081,37.3718804 C30.8854136,37.352456 30.9153486,37.3332042 30.9451542,37.3137078 C30.9799801,37.3487006 34.4766091,34.1951898 34.4703372,34.2000531 C35.1331081,33.6132905 35.7347142,33.2276646 36.4021026,32.7007869 C36.4021026,32.7007869 36.459556,32.662902 36.4595128,32.6629308 Z" id="Fill-21" fill="#FEFEFE"></path>
                    <path d="M30.4794424,34.8958229 L30.4371219,34.9157221 C30.4529454,34.9100099 30.4665679,34.9035351 30.4794424,34.8958229" id="Fill-22" fill="#C05927"></path>
                    <path d="M51.7025803,22.6489308 C51.7926155,23.0045854 51.8360004,23.3304703 51.8485153,23.6983121 C51.8453794,24.0180819 51.8182638,24.3609739 51.6860232,24.6566286 C51.6813769,24.6688732 51.6673948,24.7056646 51.6580446,24.7145423 C51.5487336,24.879161 51.5556671,25.0698804 51.3304999,25.2305711 C51.2660699,25.0511178 51.144805,24.8995207 51.028431,24.7512185 C50.8797916,24.5933768 50.7292102,24.4367581 50.5784131,24.2808732 C50.5855912,24.2725423 49.9995208,23.6923265 49.9998085,23.6926142 C49.9899836,23.6692761 49.9050406,23.4711322 49.9123481,23.4697509 C48.9974096,22.5811466 49.8406968,22.8890027 48.6892559,22.2674488 C48.6750292,22.2882545 47.936119,21.6692042 47.9398015,21.6785854 C47.9220217,21.6170315 47.9150451,21.48542 47.9150451,21.48542 C48.0394459,20.9135207 49.0980466,21.2912761 49.0994707,21.2558372 C49.0995138,21.2560387 49.3106557,21.3215783 49.3091021,21.321089 C50.1662564,21.5750315 50.248495,21.5463121 51.0192966,22.0158372 C51.164613,22.1026718 51.6894037,22.4583408 51.7025803,22.6489308" id="Fill-23" fill="#FEFEFE"></path>
                    <path d="M3.6222777,24.2996646 C3.65930449,23.3755351 3.53288981,22.4480962 3.41982433,21.5331322 C3.32171917,20.7343408 3.24635657,20.0302833 3.27200488,19.219866 C3.3221651,18.3114775 3.47323554,17.6635063 3.90681143,16.8550315 C4.4824528,15.8755926 5.56330697,14.2435783 6.26575141,13.4180243 C6.70128365,12.683089 7.54734715,12.0748444 8.2228774,11.5651322 C8.76728911,11.1591034 9.32710707,10.7698804 9.86379407,10.3559092 C11.0979771,9.32825451 14.7565227,7.78118977 16.3080227,7.08798113 C17.5640852,6.53166459 18.8237008,5.98251351 20.0766706,5.41962142 C20.4996016,5.22638401 20.9217271,5.03157826 21.3380411,4.82442718 C21.7285917,4.61295955 21.7569444,4.60259984 21.7477668,4.61523293 C21.7853114,4.5692761 21.8230718,4.53386603 21.8715634,4.4982689 C23.0178546,3.67736243 23.9677341,2.7802689 25.0653898,1.92636962 C26.3458491,0.970369622 27.273619,0.533678975 28.8629225,0.266815666 C33.9830624,-0.446666349 31.9176611,0.366571061 35.7075555,1.57376531 C35.7075555,1.57385164 36.2952658,1.74409624 36.2952226,1.74416818 C38.6799836,2.4843984 47.7626224,5.27031207 49.4660847,6.27756387 C49.4660847,6.27756387 49.7342772,6.49047034 49.7341909,6.49047034 C50.74886,7.28478689 52.7392727,8.71503149 53.5283288,9.76267178 C54.4481582,11.009348 55.2691487,12.8348157 55.9765704,14.2127006 C57.3315148,16.9149883 57.5707504,18.5152042 58.523363,21.2252905 C59.9280217,25.9486142 58.9820118,28.696384 59.4421711,33.1335351 C58.8614806,28.6793768 59.7464841,26.1728588 58.2500927,21.3276934 C57.2511463,18.6748013 56.94574,17.0866142 55.5633923,14.4304128 C53.0283665,9.66694516 53.6002534,10.3351898 49.2846765,7.07517538 C49.2845902,7.07517538 49.0108164,6.868643 49.0108164,6.86868617 C44.7436735,5.64929049 40.4397628,3.98733365 36.0106026,2.77982286 C35.9633481,2.75790919 35.4192673,2.62254228 35.4192673,2.62254228 C35.264615,2.57592358 35.1194424,2.53003869 34.9831309,2.48517538 C31.6989816,1.40242718 33.5079717,0.822527896 29.0574642,1.49175092 C27.7038144,1.74449912 26.9577261,2.12703149 25.8824677,2.96670056 C24.795615,3.85221135 23.8770084,4.75493077 22.734745,5.60949192 C22.5168422,5.81280128 22.2686448,5.93883005 21.9974746,6.08350631 C21.5680991,6.31100272 21.1315599,6.52232646 20.6932083,6.73156387 C19.4494161,7.32556387 18.1953099,7.898902 16.9450302,8.47908905 C15.7645173,9.02746315 11.899059,10.769679 11.0381502,11.5296934 C11.0695093,11.572197 9.24869486,12.9060675 9.25578663,12.9141826 C9.02870627,13.0907006 7.90629407,13.9769452 7.82018594,14.2011178 C7.09363236,15.3928013 6.22265419,16.4505567 5.49425935,17.7306286 C5.21939229,18.2604128 5.14228911,18.6882113 5.11846768,19.279938 C5.10685905,19.9656358 5.19191709,20.6014919 5.28557731,21.2781394 C5.55539526,23.1910603 5.74480151,24.4839811 5.24752919,26.4083984 C4.68428762,28.2533768 4.05923405,29.2931754 3.70749397,31.2708157 C3.71789427,31.2731898 3.00451729,35.0148732 3.00451729,35.0148732 C2.91607879,35.5592905 2.86449447,36.0273912 2.87252125,36.5848588 C2.90339129,37.2464991 3.01760756,37.6879236 3.35559566,38.2642401 C3.83715965,39.0169883 4.45349596,39.5023408 5.18420677,40.0025854 C6.45642354,40.8547293 7.59330697,41.5581394 8.36042602,42.9216214 C8.94609367,44.1066718 9.41738683,46.0380243 9.85385409,47.3456646 C10.2007752,48.3015351 10.7915783,48.9821682 11.5097311,49.6836934 C12.4719672,50.583938 13.432362,51.2555639 14.548488,51.9495351 C16.7435981,53.2675495 18.8756879,54.2599955 21.2409141,55.2212473 C23.9513065,56.1687149 26.0524974,55.3813768 29.4222083,56.623161 C29.4222083,56.6232042 30.0860436,56.900384 30.0860436,56.900384 C32.3634211,57.7852042 34.3478784,57.8288444 36.7364225,57.4231754 C39.2734766,56.8983408 41.176055,56.0536214 43.2098814,54.4383121 C43.2098814,54.4382401 43.6633516,54.0620675 43.6633516,54.0620675 C43.7131091,54.0212329 43.7592271,53.9905998 43.8168819,53.9617653 C44.9733288,53.368456 45.8281239,52.6940099 46.729555,51.7611034 C47.5863928,50.8277078 48.2023982,49.9579092 48.6289543,48.7554488 C48.6104841,48.7445567 48.8325009,48.3327006 49.0617534,47.9113768 C47.1369935,48.0929596 45.2399677,48.2217509 43.2979602,48.3470171 C41.0202807,48.5313193 39.0088804,49.1455639 36.7569354,49.4295207 C36.6638075,49.438902 36.5908184,49.4333049 36.5003372,49.4085135 C36.4104171,49.3811466 36.3456706,49.3476646 36.2717465,49.2897797 C36.1994478,49.2300387 36.1525098,49.1740675 36.1063918,49.0922545 C36.0626041,49.0079524 36.0412713,48.9398372 36.0305113,48.8455351 C35.7589816,46.5903408 35.1560664,44.3406142 34.9157663,42.0165711 C34.8593774,41.4589452 34.651055,40.6403984 34.5379032,40.067679 C34.4513347,39.6185423 34.3301849,39.0437078 34.2916477,38.5100099 C33.2536175,38.9457797 33.4952985,39.1024703 31.231932,39.3869596 C31.2036368,39.4004272 31.1752122,39.4139667 31.1488303,39.4250171 C31.1675019,39.4131466 31.1819731,39.402902 31.1957251,39.3915351 L31.1613883,39.3958948 C31.1741046,39.3941826 31.1861448,39.3922977 31.1976383,39.3899811 C31.2108437,39.3790459 31.2236175,39.3670603 31.2390237,39.3515207 C31.2768705,39.310643 31.299613,39.2771178 31.3249736,39.2268732 C31.3481046,39.1743408 31.3603749,39.1400387 31.368934,39.0829739 C31.3768025,38.9963121 31.3772197,38.949938 31.3525927,38.8659524 C31.3204999,38.7821394 31.300433,38.7348732 31.2389087,38.6698229 C31.189928,38.622384 31.1664087,38.602197 31.1078045,38.5702113 L31.0932038,38.5633193 C30.9865828,39.5956214 30.943241,39.5994631 30.8001973,39.5925998 C30.736055,39.583679 30.6869161,39.5684128 30.6274632,39.5418229 C30.5648744,39.5105854 30.5274449,39.4858229 30.4750406,39.4382257 C30.4101215,39.3733337 30.3748928,39.3255351 30.3371755,39.2407869 C30.2999473,39.1381682 30.2861234,39.0819667 30.2915897,38.9725279 C30.2998323,38.8947869 30.3076145,38.854125 30.3367727,38.7822257 C30.3688223,38.7119092 30.3972469,38.6658948 30.4489032,38.6093768 C30.5059969,38.5515351 30.547742,38.5191898 30.6165307,38.480125 L30.6312608,38.4719955 C32.1354057,36.7980099 34.3962837,34.99742 36.0653372,33.3970459 C37.6546696,31.7988013 39.0694265,30.2903552 40.8090237,28.8337221 C40.8092251,28.8340387 40.9916547,28.6835063 40.9916547,28.6835063 C42.237619,27.6152617 43.2882504,26.3298516 44.5803328,25.2250747 C44.6597663,25.1618516 44.7308278,25.13142 44.8318819,25.1193193 C44.9329216,25.1120099 45.0091329,25.1271466 45.0990386,25.1742545 C46.1170163,25.843679 45.8540887,26.1480675 47.5286517,26.911089 C47.8326339,27.0413193 48.3563169,27.2554919 48.6658948,27.3301682 C48.768488,27.3493768 48.8397221,27.3862113 48.9132866,27.4605279 C48.9582251,27.4987437 49.0970684,27.5591898 49.1578159,27.5855351 C49.2016611,27.6147725 49.7270991,27.8032473 49.726236,27.80542 C49.7281205,27.8008444 50.1543888,27.9726718 50.2933903,28.0288013 C50.1364077,27.3858804 50.0012326,26.7207869 49.9188645,26.0845567 C49.9124632,26.027089 49.9155272,25.9813337 49.9304444,25.9254056 C49.9470446,25.8696934 49.9672266,25.8294775 50.0026567,25.7834344 C50.0395252,25.7379524 50.0741066,25.708384 50.1251155,25.6792617 C50.175995,25.6520675 50.2190203,25.6385567 50.2763154,25.6313768 C51.0215406,25.549161 51.859491,25.425866 52.6049607,25.4179524 C52.8678308,25.4195351 53.0861939,25.4342689 53.3365203,25.5216214 C53.5746051,25.6151034 53.7199791,25.7283696 53.8646914,25.9396934 C54.0034915,26.1627006 54.0606284,26.3654488 54.1135074,26.620125 C54.1729602,26.9345854 54.2025644,27.2460675 54.2295505,27.5646142 C54.3087395,28.6001826 54.3739464,29.614197 54.4818333,30.6496502 C54.4860768,30.695161 54.5316339,30.7570315 54.5586631,30.7916646 C54.6410312,30.8923696 54.7317569,30.969607 54.8340193,31.0492617 C55.14049,31.27942 55.4550451,31.4531322 55.7962985,31.6245135 C56.1290793,31.7874631 56.4441522,31.9227006 56.7836939,32.0645998 C57.1298814,32.2097221 57.4728467,32.3443121 57.8274781,32.4669596 C58.2193809,32.5697797 58.8082708,32.6221538 59.1465034,32.8198372 C59.1195173,32.8395063 57.8429419,32.7292185 57.7696651,32.7206862 C57.074672,32.6073049 56.2510346,32.2851322 55.6119845,32.0036214 C55.2355456,31.8310603 54.8949394,31.6570315 54.5534845,31.4202977 C54.4151735,31.3191466 54.2999791,31.2242401 54.1864533,31.0949452 C54.0848814,30.971607 54.0203794,30.8649164 53.9943571,30.7047006 C53.8611383,29.6707725 53.769118,28.6492042 53.6539235,27.6158804 C53.622363,27.3206286 53.5890907,27.0308876 53.5251929,26.7405279 C53.4881661,26.5791322 53.4453134,26.4177365 53.3515669,26.278902 C53.2850222,26.1873768 53.2282593,26.1488732 53.1225733,26.1103408 C52.9557514,26.0588588 52.7824131,26.0562113 52.6092331,26.0585854 C51.986179,26.0852473 51.2925669,26.1906862 50.6500644,26.2770747 C50.7813268,27.0289596 50.9758685,27.8106286 51.1886358,28.5318948 C51.2022584,28.5811322 51.2071061,28.6193912 51.206617,28.6697941 C51.2065738,28.5948301 51.1914841,28.5361394 51.1527455,28.4716934 C51.135052,28.4439667 51.1176463,28.4221826 51.0934652,28.4000387 L50.7046264,29.0662401 C50.6316805,29.0390315 50.5574255,29.0148157 50.4834583,28.9908732 C50.4022698,28.9634631 50.3461254,28.9274056 50.2864999,28.8660962 C50.2828318,28.8672473 50.0617068,28.7503121 50.0339007,28.7383121 C49.9942271,28.7082977 49.462618,28.5287581 49.4638407,28.5255783 C49.4617261,28.531089 48.8554305,28.30142 48.8554305,28.30142 C48.7031229,28.237866 48.5671711,28.1782833 48.4414612,28.0833768 C48.0612246,27.9918516 47.5602985,27.7916646 47.2134493,27.6532473 C45.6501393,26.9579955 45.5798402,26.5407581 44.9162782,26.0698372 C43.7391601,27.1437365 42.751434,28.3527725 41.58112,29.3922401 C41.5208471,29.4431034 41.4605887,29.4939667 41.4004022,29.544902 C39.7079875,30.996902 38.3242445,32.5137365 36.7781388,34.1028157 C35.5065406,35.3691034 33.8133923,36.770643 32.4539022,38.1128732 C32.9680624,38.0029596 33.3864191,37.8283121 34.0779454,37.4162545 C34.2392866,37.3273337 34.3765907,37.2685279 34.5522881,37.2115063 C34.6742579,37.1760962 34.771989,37.1718229 34.8965193,37.1967725 C35.0210064,37.2267149 35.1079488,37.2719955 35.2042559,37.3562113 C35.2975996,37.4444272 35.3514568,37.5274775 35.3928134,37.649348 C35.4295957,37.7719811 35.4341988,37.8725279 35.4089965,37.9979811 C35.3627633,38.3884272 35.5774439,39.435938 35.6592365,39.8434775 C35.791434,40.4875783 35.9960163,41.2732473 36.0734503,41.9120387 C36.3159801,44.0185279 36.8340386,46.0650171 37.1624176,48.1285998 C39.2162678,47.8012473 41.0631765,47.2515783 43.208371,47.0588588 C45.4925669,46.8913912 47.7146343,46.7140531 49.992429,46.4555495 C50.135674,46.4417221 50.2472291,46.458197 50.3808218,46.5116646 C50.5140694,46.5712617 50.603371,46.640384 50.6938953,46.7548301 C50.7803486,46.8719811 50.8237336,46.9767149 50.8461596,47.120643 C50.8628318,47.265679 50.849051,47.3774056 50.7969776,47.5137078 C50.5482911,48.0897365 50.2107777,48.633089 49.9381547,49.179866 C49.4500599,50.6025279 48.7640431,51.6150171 47.7639315,52.7250459 C46.7626691,53.7809308 45.8200108,54.5377941 44.5436368,55.2192905 L44.1463541,55.5554488 C41.9129945,57.3653049 39.8306477,58.3181538 37.0283789,58.9266862 C34.3090679,59.4151754 32.0819513,59.3628444 29.4767271,58.381866 C29.2546959,58.2914344 29.0324632,58.2013337 28.81036,58.1111178 C25.7065976,56.9963984 23.6386358,57.8119092 20.6214419,56.793679 C18.1486596,55.8241106 15.9294979,54.8076358 13.6339667,53.4568301 C12.3950942,52.7023696 11.3460451,51.9761682 10.273678,50.993348 C9.30161699,50.0605711 8.60108574,49.2166142 8.12163633,47.9413049 C7.74102572,46.8244991 7.20951729,44.7868588 6.706865,43.8022833 C6.15810905,42.8526862 5.02518147,42.1857509 4.13287046,41.5951754 C3.13287393,40.9224847 2.38508822,40.3058804 1.71736897,39.2913624 C1.18426381,38.4046574 0.981407662,37.6930315 0.92199794,36.665089 C0.89744288,34.733938 1.4427033,32.8474056 1.76304109,30.9531322 C2.17076729,28.7229883 2.76434665,27.8305854 3.37023951,25.8592905 C3.52861748,25.295348 3.58492006,24.8745998 3.6222777,24.2996646 Z M22.7067375,5.63041279 C22.720432,5.61996674 22.7335654,5.6095207 22.7461234,5.59875811 C22.7790361,5.56747754 22.8112871,5.5343984 22.8428045,5.49916099 C22.8119776,5.53697394 22.7811076,5.568902 22.7461234,5.59875811 L22.7067375,5.63041279 Z M49.5230922,47.0477653 C49.5352906,47.0214631 49.5408719,47.0062401 49.5380525,47.0052185 C49.5324712,47.0196646 49.527494,47.0338516 49.5230922,47.0477653 Z M34.3025803,37.8136646 C34.3051408,37.7947006 34.3078739,37.7759092 34.3108948,37.75742 C34.3070684,37.7769596 34.3042489,37.795607 34.3025803,37.8136646 Z M48.3458447,28.0020099 C48.3555113,28.0117509 48.3652499,28.0206862 48.3750748,28.0289596 C48.4199702,28.0665279 48.4683323,28.0897797 48.5278283,28.1026574 L48.3458447,28.0020099 Z M37.2451884,48.6797078 L37.2511006,48.7215063 C37.249547,48.7070315 37.2474756,48.6932042 37.2451884,48.6797078 L37.2451884,48.6797078 Z" id="Fill-24" fill="#898989"></path>
                    <path d="M124.127146,41.6282545 L122.960255,41.8088876 L122.643053,39.6996646 L123.76338,39.5262113 L123.808103,39.8234488 L123.032669,39.9435351 L123.122373,40.5404416 L123.837016,40.4297797 L123.881509,40.7254775 L123.166866,40.8361826 L123.260613,41.4597653 L124.08261,41.3324272 L124.127146,41.6282545 Z M120.778854,42.0562545 C120.634875,42.1627581 120.446116,42.2341682 120.213484,42.2701826 C119.911616,42.3169308 119.655665,42.2579092 119.445027,42.0927149 C119.234201,41.9275351 119.105197,41.6886574 119.057928,41.3748444 C119.007207,41.0373768 119.068171,40.7489739 119.241797,40.5093624 C119.41489,40.269866 119.65755,40.1259236 119.969774,40.0775926 C120.17076,40.0464272 120.341811,40.0492905 120.482654,40.0865711 L120.534843,40.4339811 C120.382132,40.3713337 120.221352,40.3530603 120.052142,40.3792905 C119.826975,40.4141682 119.655377,40.5151898 119.537781,40.6829452 C119.420184,40.8506142 119.379288,41.0569164 119.41594,41.3008588 C119.450939,41.5333337 119.544182,41.7085135 119.695468,41.8257797 C119.846869,41.943607 120.028407,41.9859092 120.241261,41.9529452 C120.437227,41.9225998 120.600294,41.8491898 120.730161,41.7328301 L120.778854,42.0562545 Z M117.054397,42.7234056 L116.677339,42.7817653 L115.451485,41.3850747 C115.420327,41.3497653 115.393456,41.3123121 115.370742,41.2727149 L115.361824,41.2740531 C115.37654,41.3179811 115.394478,41.4139092 115.416789,41.5620531 L115.624737,42.9447437 L115.291769,42.996384 L114.974524,40.8871178 L115.375806,40.8250027 L116.563411,42.1895495 C116.613528,42.2460387 116.645692,42.2852329 116.661113,42.3069739 L116.666579,42.3061106 C116.648756,42.2518229 116.629553,42.1577365 116.609572,42.0246862 L116.405119,40.6655639 L116.737123,40.6141394 L117.054397,42.7234056 Z M113.148934,43.3281826 L111.982044,43.5088157 L111.664842,41.399607 L112.785168,41.2261394 L112.829862,41.5233912 L112.054428,41.6434631 L112.144133,42.2403696 L112.858776,42.1297078 L112.903297,42.42542 L112.188654,42.5361106 L112.282401,43.1596934 L113.104413,43.0324416 L113.148934,43.3281826 Z M109.738873,43.7087149 C109.540088,43.8617509 109.308031,43.9588588 109.04237,44.0000099 C108.734964,44.047607 108.471504,43.9892042 108.25176,43.8244272 C108.032059,43.6600962 107.898524,43.4177797 107.85032,43.0979811 C107.801225,42.7715639 107.864763,42.4874056 108.041726,42.2457509 C108.218531,42.0041682 108.467592,41.858643 108.788217,41.8090171 C109.019368,41.7732042 109.218974,41.7772329 109.386687,41.8216934 L109.440832,42.181679 C109.265293,42.0988876 109.06717,42.0740387 108.846936,42.1081394 C108.62515,42.1425279 108.455278,42.2448588 108.33597,42.4144416 C108.216661,42.5844416 108.174283,42.7873049 108.209641,43.0226862 C108.246136,43.2647581 108.336085,43.4460531 108.478726,43.5657941 C108.621395,43.6859524 108.797064,43.7297941 109.005962,43.69742 C109.148962,43.6752329 109.268472,43.6278804 109.364463,43.5560531 L109.288985,43.054456 L108.851094,43.1223265 L108.806846,42.8280099 L109.588206,42.7069596 L109.738873,43.7087149 Z M106.150483,44.4118229 L104.999416,44.5900675 L104.682214,42.4808013 L105.027064,42.42742 L105.299773,44.2409308 L106.105962,44.1160819 L106.150483,44.4118229 Z M102.609002,44.0872905 C102.698016,44.6792617 102.465958,45.0183552 101.913232,45.103938 C101.383752,45.185866 101.076102,44.9421682 100.990382,44.3722689 L100.796459,43.0825567 L101.14138,43.029089 L101.324544,44.2471322 C101.386816,44.6608301 101.576179,44.8431898 101.893366,44.7940819 C102.198701,44.7467725 102.321562,44.5233049 102.261664,44.1247006 L102.07512,42.8845423 L102.420085,42.8310747 L102.609002,44.0872905 Z M97.3062167,43.9271178 L97.5343184,45.443348 L97.8099335,45.4006862 C98.0524201,45.3631754 98.2308218,45.2661394 98.345556,45.1102113 C98.4598154,44.9538372 98.4983094,44.7521538 98.4611244,44.5050315 C98.3869845,44.0120387 98.0980059,43.8045279 97.5947926,43.8824703 L97.3062167,43.9271178 Z M97.2353853,45.7922833 L96.9181115,43.6831034 L97.5178908,43.5902257 C98.2844057,43.4715063 98.7194776,43.7544703 98.8226031,44.440384 C98.8714974,44.7656502 98.8044925,45.0437365 98.6214588,45.2745423 C98.4383243,45.5048157 98.1681036,45.6478516 97.8108253,45.703161 L97.2353853,45.7922833 Z M94.9470322,46.1466718 L94.5699746,46.2050315 L93.3441205,44.8083121 C93.3129771,44.7729883 93.2860917,44.7356358 93.2633923,44.6959524 L93.2545312,44.6973337 C93.269175,44.7412185 93.2871993,44.8371898 93.309424,44.9852905 L93.5173868,46.3679811 L93.1844047,46.4196214 L92.8671596,44.3103552 L93.2684414,44.2482401 L94.4560461,45.6128157 C94.5061631,45.6692761 94.5383278,45.7084703 94.5537484,45.7302401 L94.5592147,45.729348 C94.5414781,45.6750603 94.5221879,45.5809739 94.5022073,45.4479236 L94.2977544,44.0888013 L94.6298303,44.0374056 L94.9470322,46.1466718 Z M90.8990148,46.7734344 L90.544182,46.8284128 L90.2269945,44.7191466 L90.581741,44.6642545 L90.8990148,46.7734344 Z M84.9801954,47.689938 L83.813305,47.8706718 L83.4961175,45.7614056 L84.6164295,45.587938 L84.6611666,45.8852329 L83.8856899,46.0052329 L83.9754806,46.6022113 L84.6900371,46.4915639 L84.7345585,46.7873049 L84.0199156,46.8979524 L84.1136621,47.5215351 L84.9357603,47.3942401 L84.9801954,47.689938 Z M81.6704841,48.2024703 L80.5035937,48.3831466 L80.1863918,46.2738804 L81.3067182,46.1004272 L81.3514553,46.3976646 L80.5760074,46.5177509 L80.6657549,47.1147293 L81.3803546,47.0040387 L81.4248471,47.2997797 L80.7102043,47.4104416 L80.8040227,48.0340099 L81.626121,47.9067293 L81.6704841,48.2024703 Z M76.9510074,47.0651322 L77.0540466,47.7505135 L77.3411983,47.7060531 C77.3940485,47.6978516 77.4423675,47.6821106 77.4844434,47.6587437 C77.5268933,47.6345998 77.5623665,47.6049883 77.590302,47.5683121 C77.6187985,47.5320962 77.6382038,47.4895639 77.64987,47.4420387 C77.6618238,47.3938804 77.6631185,47.3417941 77.6547177,47.2860819 C77.6395128,47.1851754 77.5964588,47.1106142 77.525052,47.0635926 C77.4536165,47.0165998 77.3587767,47.0019955 77.2410074,47.0202401 L76.9510074,47.0651322 Z M78.4885108,48.6952042 L78.0851577,48.7576502 L77.6681388,48.2442689 C77.6305798,48.1965854 77.5947757,48.1569883 77.5605684,48.1247293 C77.5262747,48.0925423 77.4930887,48.0668444 77.4598883,48.0478804 C77.4271482,48.0287149 77.3924087,48.016643 77.3555833,48.0110603 C77.3193764,48.0058804 77.2794151,48.0063984 77.2358719,48.0131754 L77.0968273,48.0347149 L77.2255148,48.8907293 L76.8821324,48.9439236 L76.5649449,46.8346574 L77.2488328,46.7287725 C77.3467797,46.7136358 77.4381671,46.7112329 77.5238293,46.7221682 C77.609549,46.7330171 77.6866091,46.7575639 77.7546641,46.795866 C77.822676,46.8335926 77.8790793,46.8854775 77.9239315,46.9514631 C77.9693159,47.01742 77.9986324,47.097607 78.0129454,47.193089 C78.0240793,47.2673912 78.0234607,47.337348 78.0115213,47.4028013 C77.9991934,47.4684703 77.9763645,47.5290459 77.943495,47.5835351 C77.9107549,47.638384 77.8685064,47.6875783 77.8172529,47.7304416 C77.7659563,47.773348 77.7061869,47.8097797 77.6386929,47.8392185 L77.6395128,47.8453049 C77.6804092,47.8610459 77.716616,47.8796358 77.7487951,47.90142 C77.780931,47.9230747 77.8110962,47.9457078 77.8405421,47.9694056 C77.8698586,47.9925711 77.8992613,48.019866 77.9292251,48.0512329 C77.9592465,48.0819811 77.9925907,48.1184416 78.0295743,48.1594344 L78.4885108,48.6952042 Z M74.4663576,47.4638229 L73.6893992,47.5841394 L73.7846562,48.2177221 L74.5007663,48.1068588 L74.5452157,48.4025135 L73.8291487,48.5133768 L73.9618784,49.3961538 L73.6170287,49.4495495 L73.2998268,47.3402833 L74.4217068,47.1665279 L74.4663576,47.4638229 Z M67.8438134,48.4893193 L67.246494,48.5817797 L67.5189588,50.3938229 L67.1740659,50.4472185 L66.9016011,48.635161 L66.3052886,48.7275063 L66.2606091,48.4302545 L67.7990907,48.1920243 L67.8438134,48.4893193 Z M64.8872951,50.8013193 L63.7361562,50.9795639 L63.4189543,48.8702977 L63.7638759,48.816902 L64.0365852,50.6304272 L64.8427737,50.5055783 L64.8872951,50.8013193 Z M61.4508526,51.3334631 L61.0960198,51.3883265 L60.7788179,49.2791466 L61.1335788,49.224197 L61.4508526,51.3334631 Z M58.7071016,50.8853912 C58.7962018,51.4772761 58.564058,51.8163696 58.0112598,51.9019811 C57.481866,51.9839667 57.1742013,51.7402689 57.088496,51.1703552 L56.8945585,49.8805711 L57.2394945,49.8271898 L57.4227008,51.0452329 C57.4848437,51.4588444 57.6742931,51.6412329 57.9915669,51.5920819 C58.2968581,51.5448157 58.4196765,51.3213049 58.3597777,50.9227006 L58.1732197,49.6825567 L58.5181844,49.629161 L58.7071016,50.8853912 Z M54.9934186,52.1858516 C54.794547,52.3389596 54.5625758,52.4359955 54.2968719,52.4771466 C53.9895093,52.5247437 53.7260064,52.4663408 53.5063055,52.3015639 C53.2866046,52.1372329 53.1529111,51.8949308 53.1048655,51.5751178 C53.0557698,51.2487149 53.119308,50.9645567 53.2961562,50.7228876 C53.4730332,50.4813193 53.7220505,50.3357941 54.0427623,50.2861538 C54.2738417,50.2503408 54.4735188,50.254384 54.6412326,50.2988444 L54.6953055,50.6587725 C54.5197951,50.5760243 54.3216284,50.5512617 54.1013953,50.5853624 C53.8796949,50.6196646 53.709737,50.7219955 53.5904285,50.8915783 C53.47112,51.0615783 53.4287564,51.264456 53.4641864,51.4999092 C53.5005227,51.7418948 53.5906299,51.9231898 53.7332708,52.0429452 C53.8758685,52.1631754 54.0515227,52.2069452 54.2605069,52.1745567 C54.4034211,52.152456 54.5229454,52.1050603 54.6189359,52.0331898 L54.5435302,51.531607 L54.1055525,51.5994775 L54.0613189,51.305161 L54.8427509,51.1841826 L54.9934186,52.1858516 Z" id="Fill-25" fill="#A9A9A9"></path>
                    <path d="M110.53013,31.448643 C110.485767,31.5012185 110.389777,31.6109308 110.242662,31.7812617 C110.095461,31.9516646 109.921102,32.1543265 109.710981,32.3871466 C109.500947,32.6199092 109.283476,32.8573624 109.055302,33.1035063 C108.826582,33.3461826 108.60701,33.569866 108.400069,33.7704416 C108.193084,33.9711178 108.015344,34.125089 107.870502,34.2318229 C107.725704,34.3384703 107.629843,34.3707006 107.587105,34.3280387 C107.550495,34.2737509 107.555228,34.1463696 107.601015,33.9459955 C107.646759,33.7453624 107.721676,33.4981106 107.825693,33.2042113 C107.9302,32.9137365 108.043927,32.6042401 108.175233,32.2779524 C108.305991,31.9483265 108.438318,31.6288876 108.568301,31.320456 C108.702253,31.01142 108.817821,30.7403984 108.92286,30.5060819 C109.023526,30.2689883 109.098198,30.0991898 109.146387,29.9933049 C109.204258,29.8717221 109.186881,29.7583408 109.106599,29.6546286 C109.022274,29.5514775 108.892724,29.4692905 108.718206,29.4081106 C108.544163,29.3503121 108.354598,29.3231178 108.141744,29.3275926 C107.929466,29.3355926 107.72346,29.3848157 107.520934,29.4827149 C107.216665,29.8636934 106.933426,30.2765711 106.679186,30.7202113 C106.424875,31.1638372 106.198687,31.6067006 106.001038,32.052197 C105.803404,32.4977941 105.63756,32.9136934 105.499493,33.3008301 C105.364851,33.6838516 105.26617,34.0121106 105.2022,34.2788444 C105.138346,34.5454631 105.109547,34.7258229 105.12281,34.8117653 C105.170798,35.0717797 105.290883,35.3031178 105.484159,35.5127149 C105.677478,35.7223552 105.905954,35.898384 106.169615,36.040902 C106.43319,36.1833624 106.694406,36.2840675 106.949378,36.3434488 C107.204754,36.4062545 107.419679,36.4155639 107.586904,36.3757941 C107.7045,36.3542545 107.86108,36.2457653 108.058326,36.0606718 C108.255069,35.8720819 108.471907,35.6312329 108.70956,35.3414488 C108.947199,35.0517078 109.189485,34.7400962 109.432561,34.4072905 C109.676155,34.0778516 109.901193,33.7582545 110.111975,33.4514631 C110.322829,33.1447006 110.499505,32.8783696 110.642678,32.6557941 C110.785837,32.433348 110.87603,32.2857797 110.913258,32.2132329 C111.12171,31.8645423 111.232791,31.5907006 111.245507,31.3846142 C111.254843,31.182643 111.194167,31.075866 111.061121,31.075161 C110.931369,31.0704703 110.752723,31.1928732 110.53013,31.448643" id="Fill-26" fill="#A9A9A9"></path>
                    <path d="M108.691896,26.2419524 C108.544249,26.3033337 108.416137,26.4145279 108.307876,26.5753049 C108.199615,26.7361682 108.123605,26.9238229 108.075401,27.1352905 C108.027284,27.3467293 108.019501,27.5589883 108.055665,27.7681394 C108.092332,27.9805854 108.176944,28.1646574 108.313457,28.3195639 C108.450632,28.4780243 108.652265,28.5843552 108.914042,28.6356214 C109.191455,28.6317797 109.44814,28.5712617 109.681046,28.4616646 C109.913593,28.3484847 110.118175,28.2115639 110.294448,28.0472761 C110.47121,27.886456 110.619432,27.7229883 110.731721,27.5615926 C110.843909,27.4000387 110.919947,27.2652473 110.960355,27.1604991 C111.016269,26.9478804 110.993354,26.7719667 110.895407,26.632197 C110.797373,26.4924272 110.651884,26.3845854 110.458407,26.3052185 C110.268843,26.2251898 110.059326,26.1728588 109.829916,26.1483121 C109.604518,26.1230171 109.386069,26.1178372 109.183256,26.1348876 C108.976358,26.1526286 108.812643,26.1882833 108.691896,26.2419524" id="Fill-27" fill="#A9A9A9"></path>
                    <path d="M107.438969,27.2153193 C107.431633,27.0617221 107.362154,26.8718229 107.239695,26.6512905 C107.113338,26.4314488 106.937022,26.2016502 106.70308,25.9631322 C106.473511,25.7274775 106.189797,25.5070315 105.856657,25.3048444 C105.52343,25.1026718 105.14433,24.9427006 104.715861,24.8289596 C104.290887,24.7113337 103.820255,24.6638948 103.303448,24.6833049 C102.707884,24.7149596 102.082499,24.8144416 101.426691,24.9784416 C100.771415,25.1458229 100.10722,25.3603552 99.4431686,25.6275926 C98.7789736,25.8948588 98.1318967,26.1946862 97.5075337,26.5368732 C96.878553,26.8761826 96.2971289,27.2362833 95.7593342,27.6178372 C95.2216259,27.9994344 94.7532673,28.3879667 94.3506477,28.7839236 C93.9480138,29.1800387 93.6404498,29.5650171 93.4250213,29.9464128 C93.2088734,30.3242977 93.1104374,30.6808013 93.129555,31.0155783 C93.1362008,31.1377365 93.1806502,31.2962689 93.2703546,31.4866142 C93.3604761,31.6802689 93.4832514,31.8760531 93.6399607,32.0842977 C93.7962961,32.2889308 93.9780351,32.4756934 94.1847177,32.6410747 C94.39199,32.8097653 94.6152727,32.9267869 94.855616,32.99542 C95.0957866,33.0641538 95.3490044,33.0605567 95.6065089,32.9787437 C95.8741547,32.884902 96.1090748,32.7608588 96.3110391,32.6068157 C96.5085585,32.4497941 96.6624915,32.271348 96.7689111,32.0720243 C96.8759062,31.8762545 96.9240669,31.6648157 96.9188883,31.447348 C96.9033958,31.3724128 96.8898883,31.3112042 96.8835733,31.2698804 C96.8773015,31.2285998 96.8549042,31.2144128 96.8131879,31.23142 C96.7709969,31.2449164 96.6907866,31.2994488 96.5724131,31.3949739 C96.4784652,31.4656934 96.3642921,31.5360099 96.234425,31.6086862 C96.1001418,31.6785998 95.9671244,31.7305998 95.8403214,31.7711898 C95.7091021,31.8089596 95.5973744,31.8155639 95.5093819,31.7939092 C95.420929,31.7687437 95.3739622,31.6985423 95.3682514,31.5832473 C95.358297,31.4652042 95.4115932,31.2881538 95.5280967,31.0485711 C95.690301,30.714125 95.9595436,30.3421106 96.3399528,29.9318085 C96.7202613,29.5215783 97.1837722,29.1021682 97.7304568,28.6735495 C98.2771844,28.2448444 98.8871914,27.8344991 99.5529831,27.4473912 C100.219393,27.0636358 100.921277,26.7272329 101.655814,26.4456358 C102.389747,26.1605854 103.136267,25.9579955 103.891605,25.8386142 C104.21387,25.7857221 104.521808,25.7701394 104.815188,25.7919236 C105.108698,25.8137365 105.358248,25.8914775 105.564211,26.0252905 C105.770692,26.2680531 105.820234,26.5912042 105.712347,26.9912042 C105.607884,27.3872329 105.378229,27.834125 105.026863,28.3278804 C104.675568,28.8216502 104.23808,29.3320819 103.709549,29.8529596 C103.177652,30.3779667 102.594718,30.8860387 101.953035,31.3786142 C101.315294,31.8705423 100.649948,32.3138804 99.9654419,32.7110171 C100.270848,32.1540099 100.578383,31.6106574 100.891946,31.0804272 C101.201035,30.5474775 101.504657,30.0576358 101.797261,29.6011178 C102.089879,29.1445135 102.36043,28.7545854 102.607491,28.421161 C102.851043,28.0918085 103.059653,27.8485998 103.233034,27.6919092 C103.265242,27.6658372 103.265242,27.6130603 103.224518,27.5313337 C103.188225,27.4524128 103.111079,27.3693624 102.997265,27.2847006 C102.879625,27.2007581 102.72529,27.1399811 102.530791,27.1064991 C102.33576,27.0696358 102.100265,27.0845998 101.820018,27.1487149 C101.688799,27.2392185 101.489726,27.4386574 101.226194,27.7430459 C100.963108,28.0507006 100.654997,28.4322977 100.30274,28.8944416 C99.9545525,29.3561106 99.5856081,29.8664703 99.1959062,30.4259667 C98.8102033,30.9847869 98.4276507,31.5642401 98.0527509,32.1671034 C97.6733342,32.7671466 97.3293764,33.3618085 97.0119444,33.9452905 C96.7552455,34.0058229 96.519117,34.042125 96.3033719,34.0540387 C96.0240599,34.0722689 95.8135222,34.065866 95.6830366,34.0295639 C95.5481492,33.9904847 95.4535971,33.952197 95.398992,33.9113193 C95.3483571,33.8698804 95.301304,33.8524272 95.2574588,33.855607 C95.2058025,33.8600531 95.1611517,33.8845279 95.1236358,33.9289452 C95.0862494,33.9734056 95.0746983,34.0561106 95.0891408,34.1770027 C95.1049642,34.2801538 95.1651507,34.3834631 95.2731671,34.4830171 C95.3770981,34.5831898 95.5346562,34.6645279 95.7389508,34.7352473 C95.9471438,34.8052761 96.2072231,34.846384 96.5243819,34.8645423 C96.255988,35.426456 96.0480252,35.9368444 95.9043342,36.3917365 C95.7610461,36.8499667 95.7057217,37.224384 95.746618,37.5171178 C95.781559,37.7193768 95.865682,37.8999811 96.0038635,38.0652761 C96.1415272,38.2270747 96.3080614,38.3669308 96.5039121,38.4881106 C96.6993025,38.6060243 96.9037985,38.7047293 97.1090714,38.7823408 C97.3183719,38.8592617 97.5120937,38.9140099 97.6864101,38.9470747 C97.8601224,38.9767293 97.9987643,38.9871322 98.0971572,38.9719667 C98.2461562,38.9455783 98.3493536,38.9086142 98.409425,38.8537221 C98.4699712,38.802125 98.5020208,38.7479667 98.4974895,38.6924128 C98.4930877,38.6368157 98.4665044,38.5951754 98.4213645,38.5634056 C98.4000461,38.5560243 98.3685143,38.5608732 98.3184116,38.5755926 C98.2722936,38.5897941 98.2223779,38.5798372 98.177238,38.5480675 C98.1275381,38.5134056 98.0896482,38.4242401 98.0636835,38.2804703 C98.0055252,38.0325279 98.010301,37.7222257 98.0847142,37.3413193 C98.1598754,36.9638948 98.279745,36.5373049 98.4524359,36.0604272 C98.6211711,35.5842545 98.8254945,35.0778948 99.0611482,34.5385711 C99.6833536,34.3657221 100.32472,34.1335639 100.980715,33.8394631 C101.632165,33.5423696 102.276797,33.2006574 102.909604,32.8080531 C103.539059,32.4194488 104.131171,31.9978372 104.685969,31.5433193 C105.236897,31.0893193 105.724531,30.6168876 106.14155,30.1307149 C106.561964,29.6404272 106.885682,29.1509883 107.115855,28.6546718 C107.346445,28.1619236 107.453973,27.6809739 107.438969,27.2153193" id="Fill-28" fill="#A9A9A9"></path>
                    <path d="M86.2513189,34.2454488 C86.0161973,34.6298948 85.7589087,35.0282545 85.4812509,35.4508013 C85.2030466,35.8699667 84.9188293,36.2759524 84.6285128,36.6689164 C84.3426988,37.0645567 84.0657603,37.4131898 83.8021711,37.7175783 C83.538553,38.0218372 83.3038486,38.251348 83.1012802,38.4020531 C82.8993591,38.5562257 82.741053,38.6016646 82.6304761,38.5376646 C82.5443536,38.5015351 82.5120594,38.369348 82.5304434,38.1483265 C82.5529558,37.9268588 82.6146527,37.6464128 82.7152896,37.3037653 C82.8158834,36.9610315 82.9436358,36.586125 83.0958571,36.1862977 C83.2520629,35.7858948 83.4161517,35.384197 83.5930431,34.987679 C83.7699632,34.5910315 83.9441934,34.2300243 84.1153739,33.9012473 C84.2865545,33.572384 84.4391066,33.3062113 84.5781081,33.1088876 C84.6454726,32.9966142 84.6117832,32.882125 84.4821175,32.7717509 C84.3524087,32.6615063 84.1622688,32.5780962 83.9118705,32.5215351 C83.6648382,32.4609164 83.3931071,32.449866 83.1051929,32.4904991 C83.0624553,32.5006142 82.9648392,32.6000099 82.8130351,32.7922257 C82.6612598,32.9843696 82.4744285,33.2381826 82.2618625,33.5593337 C82.0452112,33.8811466 81.822619,34.2424703 81.5945604,34.6469452 C81.3620138,35.0484847 81.1439816,35.4655207 80.9447504,35.9007149 C80.7450733,36.3324416 80.5841636,36.7546574 80.4588134,37.1715351 C80.3366998,37.5843265 80.2739384,37.9633912 80.2744707,38.3080819 C80.2737802,38.5403984 80.3351463,38.7561538 80.4504989,38.9566286 C80.5658085,39.157089 80.7139588,39.3348732 80.8954533,39.4936214 C81.0769047,39.6521538 81.2630887,39.7889452 81.4528546,39.8970315 C81.647238,40.0078948 81.8210654,40.0903984 81.9783357,40.1435926 C82.1315783,40.1975063 82.2403283,40.2230315 82.3072038,40.2127149 C82.4169751,40.1924847 82.5551998,40.1219667 82.7299335,40.0001826 C82.9006968,39.8789596 83.090434,39.7232042 83.2983824,39.529348 C83.5069637,39.3390315 83.7167966,39.1309883 83.9318511,38.9044128 C84.1469344,38.677938 84.3496755,38.4497797 84.540549,38.2234919 L84.5641547,38.219866 C84.3225599,38.7460819 84.0909196,39.2318516 83.8690466,39.677607 C83.6512589,40.1226574 83.4526031,40.5085423 83.2725758,40.8316502 C83.0884344,41.1554919 82.9316532,41.3941394 82.8025917,41.5512042 C82.6177167,41.7378804 82.4267137,41.91142 82.230302,42.0752617 C82.0332286,42.2357221 81.8548268,42.3862977 81.6946219,42.52342 C81.5343308,42.6606286 81.4123754,42.7848588 81.3292306,42.8995926 C81.2495093,43.0104128 81.2249255,43.1127006 81.2666274,43.2013337 C81.3440327,43.3372329 81.4831492,43.4565711 81.6719945,43.5578516 C81.865184,43.6618948 82.0867261,43.7404416 82.3376567,43.8004416 C82.5841998,43.8575783 82.8353749,43.8929883 83.0863055,43.900125 C83.33387,43.9114631 83.5564191,43.8913624 83.750112,43.8405423 C83.940367,43.7937509 84.0770525,43.7129596 84.1567593,43.6022977 C84.3584072,43.2616934 84.5741091,42.8556358 84.7966725,42.3886718 C85.0226021,41.9177941 85.2590327,41.4099667 85.501361,40.8625711 C85.7726031,40.5817078 86.0695798,40.258197 86.3926507,39.8955207 C86.7157504,39.5327725 87.0436835,39.1482401 87.3777157,38.752125 C87.715301,38.3520099 88.0375089,37.9577221 88.3446413,37.5693624 C88.6517593,37.1809596 88.9270867,36.8219955 89.1701919,36.4891754 C89.4098734,36.1603552 89.5967911,35.8819092 89.7311175,35.6536646 C89.9858744,35.2134631 90.1562782,34.8530747 90.2416239,34.569089 C90.3303933,34.2809739 90.3394558,34.1037078 90.2727817,34.036456 C90.2021517,33.9699667 90.064862,34.0473049 89.8561368,34.2622833 C89.7553705,34.3937797 89.5932524,34.598197 89.3704012,34.8786574 C89.1470322,35.1557509 88.8826373,35.4812329 88.5768139,35.8518085 C88.2710768,36.2225135 87.951559,36.6093337 87.6102192,37.0100243 C87.2732092,37.4135639 86.9418958,37.8022113 86.6130421,38.1798516 C86.8614553,37.5401538 87.0986051,36.9055207 87.3203774,36.2769308 C87.5423223,35.6482113 87.7403739,35.047866 87.9224007,34.4746286 C88.1043843,33.9012905 88.261741,33.3774775 88.3906299,32.903938 C88.4362589,32.7807725 88.4014761,32.6594631 88.2998754,32.5483265 C88.1936428,32.434456 88.0283457,32.3542689 87.8036244,32.3078948 C87.5833913,32.2642545 87.3114588,32.2778372 87.0012767,32.3570459 L86.2513189,34.2454488 Z" id="Fill-29" fill="#A9A9A9"></path>
                    <path d="M81.4385416,34.0762689 C81.5228372,34.0738948 81.5818729,34.0648444 81.618612,34.0415495 C81.6597529,34.0212042 81.6786835,33.9866142 81.6826393,33.9333049 C81.6872425,33.8586286 81.6595515,33.7573193 81.6041408,33.6320962 C81.544242,33.5041106 81.4680307,33.3750171 81.3716373,33.245607 C81.2746686,33.1127293 81.1695436,33.0056646 81.0598154,32.9204991 C80.9461745,32.8359524 80.8397549,32.7994488 80.7369459,32.8117221 C80.645242,32.8187437 80.565492,32.8239236 80.501551,32.8266574 C80.4374518,32.8295495 80.3699721,32.8363552 80.2946527,32.8443984 C80.2193333,32.852384 80.1204225,32.8640962 79.9983665,32.8828588 C80.259424,32.3256358 80.4698754,31.8851466 80.621924,31.5627293 C80.7777703,31.2397365 80.8861175,31.0260243 80.9546185,30.9205854 C81.0085188,30.7996934 80.9921631,30.6932042 80.9021423,30.6049452 C80.8074895,30.513866 80.672933,30.4501538 80.4885902,30.4044847 C80.3048948,30.3623408 80.1056205,30.3506862 79.8830138,30.3707437 C79.6649528,30.3936358 79.4560981,30.4503696 79.2534721,30.5482977 C78.9928318,30.9506862 78.7138794,31.3910171 78.4233471,31.8614056 C78.1334335,32.3351034 77.8169652,32.8728157 77.4790634,33.4805423 L76.627246,33.7589883 C76.3464667,33.872456 76.1396835,33.9956646 76.0098883,34.1211322 C75.8844662,34.2494775 75.8103407,34.3699667 75.7912519,34.4818804 C75.7766081,34.5968157 75.794805,34.6889596 75.8462598,34.7620387 C75.8977579,34.8350027 75.9686324,34.8769308 76.0500654,34.8820819 C76.1106547,34.8832185 76.2028045,34.8796646 76.3214225,34.8649452 C76.4445287,34.853161 76.5980446,34.8296214 76.7854225,34.7902689 C76.464869,35.405938 76.1786234,36.0092905 75.9351587,36.6025567 C75.6911904,37.1924128 75.5094513,37.7409883 75.3960981,38.2369164 C75.283306,38.7362545 75.2594558,39.1585998 75.3312941,39.495938 C75.3897256,39.719161 75.4977851,39.9242401 75.6593422,40.1105135 C75.821302,40.3002833 76.0151964,40.4605423 76.2333437,40.5959524 C76.4515773,40.7313193 76.6689622,40.8352042 76.8929067,40.9029452 C77.117369,40.9739955 77.319175,41.0028732 77.4950451,40.9934919 C77.6974553,40.9729739 77.9225793,40.8645279 78.1715247,40.6749883 C78.4210312,40.4890027 78.6817147,40.244902 78.9469151,39.9508301 C79.2165317,39.6596646 79.4785242,39.3450315 79.7373665,39.0098085 C79.9917638,38.671607 80.2279786,38.3469164 80.4422276,38.0360819 C80.6559731,37.7218229 80.8321596,37.4519811 80.9742251,37.2225998 C81.1163769,36.9932185 81.2054771,36.8388444 81.2451076,36.7552617 C81.4539622,36.4100962 81.5651577,36.1361682 81.5778308,35.9301682 C81.5870947,35.7281826 81.5269945,35.6249164 81.3934449,35.6207581 C81.2637792,35.6160243 81.0856219,35.7417653 80.8623824,35.9942833 C80.8180624,36.0467725 80.7203169,36.1708876 80.5679374,36.3596358 C80.4194707,36.5478229 80.2369116,36.7763121 80.0232524,37.0378372 C79.8055079,37.2998804 79.5810312,37.5700962 79.3452192,37.8455207 C79.1094072,38.1210027 78.8818809,38.3705711 78.666179,38.5936646 C78.4551234,38.8195063 78.2713848,38.9883984 78.1193218,39.0997509 C77.9671438,39.2110459 77.8663055,39.2370315 77.8209211,39.177161 C77.7412861,39.0521394 77.7267717,38.8257797 77.7861095,38.5035351 C77.8449007,38.1778085 77.9538521,37.7846286 78.1100292,37.3314488 C78.2655877,36.8747293 78.4484344,36.3857509 78.663115,35.8673049 C78.8771051,35.3454056 79.0962881,34.8297509 79.3237713,34.3163696 C79.7173858,34.2559667 80.0963997,34.2047437 80.4561234,34.1601538 C80.8204647,34.1183552 81.1464702,34.0894344 81.4385416,34.0762689" id="Fill-30" fill="#A9A9A9"></path>
                    <path d="M76.2779945,36.683607 C76.1424166,36.8768444 75.9654533,37.115161 75.7380852,37.3927581 C75.5112063,37.673938 75.258305,37.9695495 74.968305,38.2849164 C74.6815704,38.5963984 74.377056,38.8964272 74.0552078,39.1885423 C73.7333164,39.4807293 73.4051532,39.731607 73.0795937,39.9470027 C72.7500064,40.1629596 72.4347177,40.3133768 72.1260892,40.402902 C71.8209131,40.4884703 71.5418888,40.4819955 71.2850748,40.3842257 C71.0558799,40.2820531 70.8938338,40.1452185 70.8023744,39.9692185 C70.7070312,39.7939236 70.6607117,39.5969308 70.6565976,39.3864272 C70.6565545,39.1753193 70.6771537,38.9680819 70.7218333,38.7607293 C70.7945778,38.8410027 70.9240421,38.9231322 71.1072916,39.0146574 C71.2905842,39.1061826 71.4943035,39.1734056 71.719557,39.2233193 C71.940797,39.2737797 72.1502271,39.2732905 72.3410575,39.229938 C72.6877772,39.1521106 73.0008218,39.0126286 73.2807092,38.8148588 C73.5605535,38.6171178 73.8066795,38.3822689 74.0198209,38.1173624 C74.2325451,37.8489883 74.4077246,37.5723408 74.5492579,37.2867149 C74.6868784,37.0016934 74.7911403,36.7358948 74.8571095,36.4830603 C74.9230932,36.2301394 74.9515466,36.021679 74.9419662,35.8542113 C74.9174543,35.6152042 74.801742,35.3867293 74.5990009,35.1679811 C74.392304,34.9499811 74.1375758,34.7602833 73.8343273,34.5957221 C73.527684,34.4352185 73.2159483,34.3212185 72.8915396,34.2548588 C72.5670446,34.1885854 72.2767569,34.1873624 72.0133402,34.2559667 C71.6805307,34.3456934 71.3329478,34.5221826 70.9787336,34.7876214 C70.6290793,35.0559524 70.2883437,35.382643 69.9654885,35.77342 C69.6387494,36.1649739 69.3575962,36.5915495 69.1138293,37.0511322 C68.8666532,37.5147869 68.6884528,37.9820387 68.5724816,38.4607006 C68.4565247,38.9393768 68.4306319,39.4008301 68.4941557,39.8413624 C68.5360733,40.0882833 68.6448665,40.3248876 68.8190679,40.5409308 C68.9898313,40.761089 69.2012177,40.957348 69.45386,41.1331466 C69.7064305,41.3089739 69.9711562,41.4583696 70.2473754,41.5779236 C70.5279965,41.700197 70.7910391,41.7864991 71.0453933,41.8424128 C71.2953169,41.895607 71.5108605,41.9082113 71.6846448,41.8851178 C72.055675,41.8352042 72.4235981,41.711866 72.7887881,41.5186142 C73.1500942,41.3258948 73.503992,41.0851322 73.8460654,40.7934344 C74.184672,40.5057221 74.5112097,40.1917078 74.8213055,39.8486142 C75.1279057,39.5095639 75.4177474,39.1659811 75.6794092,38.8231754 C75.9445664,38.4764416 76.1807812,38.1516646 76.3921244,37.848384 C76.599555,37.5456214 76.7773382,37.2860962 76.9176487,37.0710315 C77.0096835,36.909161 77.0623323,36.7532761 77.0795798,36.6028444 C77.0928715,36.4530459 77.0749335,36.3361538 77.0184151,36.2569452 C76.9663417,36.1805135 76.8761482,36.1696646 76.7514454,36.2239811 C76.6267569,36.2783552 76.4691557,36.4325711 76.2779945,36.683607 Z M73.1306026,35.3932473 C73.2256582,35.3822833 73.2721502,35.4490459 73.2651304,35.5873049 C73.2586428,35.7290027 73.2102519,35.912384 73.120864,36.1442113 C73.030987,36.3726574 72.9107435,36.6128013 72.7565659,36.8687293 C72.6018705,37.121161 72.4248928,37.3593912 72.2284379,37.5759667 C72.032429,37.7960962 71.8207549,37.9657221 71.5972995,38.084456 C71.3776418,38.2026142 71.1542727,38.2440099 70.9261711,38.2015063 C70.9496904,38.0923696 71.0181195,37.9340675 71.1308253,37.7233337 C71.2440634,37.5159667 71.3822162,37.2872042 71.5493114,37.0364128 C71.7162484,36.7855351 71.8961463,36.5398372 72.0855525,36.3031178 C72.2749156,36.0664703 72.4617182,35.8653912 72.6458595,35.6999667 C72.8260163,35.5351034 72.9876453,35.432902 73.1306026,35.3932473 L73.1306026,35.3932473 Z" id="Fill-31" fill="#A9A9A9"></path>
                    <path d="M69.2391795,37.7636646 C69.1036016,37.9569883 68.9266239,38.1952329 68.6992559,38.472902 C68.4724201,38.7540387 68.2195763,39.0496934 67.92949,39.3650171 C67.6427554,39.6764991 67.3383129,39.9765279 67.0164647,40.2687149 C66.6945877,40.5608301 66.3663814,40.8117509 66.0408218,41.0271034 C65.7112633,41.2430603 65.3959027,41.3934775 65.087303,41.483089 C64.7821844,41.5685711 64.5031458,41.5621682 64.2463462,41.4643265 C64.0171368,41.3622401 63.8550907,41.2253193 63.7636314,41.0494056 C63.6682593,40.8740243 63.6219831,40.6770747 63.6178114,40.4665279 C63.6177395,40.25542 63.6383243,40.0482689 63.6830614,39.8408301 C63.7558491,39.9211322 63.8853134,40.0033193 64.0685629,40.0947725 C64.2518124,40.1862833 64.4554885,40.2535926 64.6807276,40.3034344 C64.9020252,40.3538804 65.1114841,40.3533912 65.3023288,40.3101106 C65.6489622,40.2322113 65.9619925,40.0927293 66.241923,39.8949596 C66.5218104,39.6972185 66.7679364,39.462456 66.9810778,39.1975495 C67.1937301,38.929089 67.3689384,38.6525279 67.5104285,38.3668157 C67.6480922,38.0818372 67.7523972,37.8160387 67.8182946,37.563161 C67.884307,37.3102401 67.9127747,37.101866 67.9031944,36.9343984 C67.8786393,36.6953912 67.7629989,36.4668301 67.5602147,36.2480531 C67.3535322,36.0300819 67.0987608,35.840384 66.7955411,35.6758229 C66.4889121,35.5153193 66.1772197,35.4013337 65.8527966,35.3349739 C65.5283015,35.2686862 65.2380138,35.2674631 64.9745684,35.3360675 C64.6417445,35.4258372 64.2941329,35.6023265 63.9399905,35.8677941 C63.5902499,36.1360531 63.2495287,36.4627006 62.9267455,36.8535639 C62.6000064,37.2450315 62.3188531,37.6716934 62.0750143,38.1312761 C61.8279101,38.5948876 61.6497097,39.0621394 61.5336666,39.5408013 C61.4177817,40.0194775 61.3918888,40.4809308 61.4553407,40.9214631 C61.4973303,41.168384 61.6060803,41.4049883 61.7802385,41.6210315 C61.9510163,41.8411898 62.1624746,42.0374631 62.4151314,42.2132905 C62.6676874,42.389161 62.9323268,42.5384703 63.2085892,42.6580243 C63.4892102,42.7803408 63.7522961,42.8665998 64.0066646,42.9225998 C64.2565738,42.9757078 64.4721175,42.988384 64.6458298,42.9652185 C65.0168888,42.9153049 65.3848119,42.7919236 65.7500451,42.5986718 C66.1112792,42.4060819 66.465177,42.1652329 66.8072504,41.8734919 C67.145929,41.5858229 67.4724667,41.2718229 67.7825337,40.9287581 C68.0891626,40.5896646 68.3789181,40.2460819 68.6406661,39.9033624 C68.9057514,39.5565567 69.1420525,39.2318516 69.3533958,38.9284847 C69.56074,38.6257221 69.7385664,38.366197 69.8788338,38.1511322 C69.9708685,37.9892617 70.0235029,37.8334488 70.0407504,37.6830315 C70.0540421,37.5332185 70.0361041,37.4163265 69.9795857,37.3370459 C69.9275986,37.2606142 69.8373189,37.2497941 69.7127167,37.3040819 C69.5880138,37.358456 69.4304126,37.5127437 69.2391795,37.7636646 Z M66.0918739,36.4734344 C66.1869151,36.462384 66.2333209,36.5291466 66.2263442,36.66742 C66.2199141,36.8091898 66.1715089,36.9925567 66.082049,37.224384 C65.9922584,37.4527581 65.8719717,37.6929883 65.7177509,37.9488013 C65.5630842,38.2012617 65.3860778,38.4394919 65.1896229,38.6561106 C64.9936859,38.8761538 64.7820118,39.0459092 64.5584845,39.1645998 C64.33887,39.2827149 64.1155297,39.3241106 63.8873417,39.2816934 C63.9109186,39.1725135 63.9793764,39.0142545 64.0920103,38.8034344 C64.2052772,38.5960675 64.3434731,38.3673049 64.5105684,38.1165135 C64.6775054,37.8656358 64.8574176,37.619938 65.0468238,37.3832473 C65.2361869,37.1465711 65.4229751,36.9455783 65.6070446,36.7800675 C65.7872732,36.6152042 65.9489022,36.5130027 66.0918739,36.4734344 L66.0918739,36.4734344 Z" id="Fill-32" fill="#A9A9A9"></path>
                    <path d="M61.3978873,37.2359811 C61.3628169,37.0337941 61.265805,36.8480531 61.1029533,36.6796502 C60.9440431,36.5104703 60.7483938,36.3645279 60.5239315,36.2407149 C60.2999007,36.1202257 60.071799,36.0251178 59.8400292,35.9586286 C59.6087053,35.8955351 59.4024255,35.8638804 59.2254478,35.8663696 C59.049175,35.8724128 58.9268025,35.9157221 58.8631205,35.9994631 C58.8350555,36.0529739 58.8324518,36.0885711 58.8647891,36.1152473 C58.8925952,36.1391898 58.9366706,36.1640675 58.9925847,36.1871898 C59.0485709,36.2102401 59.0981125,36.2448732 59.1499414,36.2932042 C59.346684,36.4987149 59.4601522,36.7662833 59.4866205,37.0965279 C59.5125996,37.4233049 59.4798164,37.787161 59.3797837,38.1859667 C59.2803407,38.5882833 59.1414974,38.9966718 58.9593124,39.4116358 C58.7738189,39.8305998 58.573365,40.2307869 58.346486,40.6174775 C58.1231458,41.0000962 57.9013303,41.3402113 57.6770981,41.6384847 C57.4568218,41.9362689 57.2545842,42.1678085 57.0772469,42.3251178 C56.9004707,42.4860675 56.7656264,42.5524703 56.6721676,42.5210171 C56.5954672,42.4414056 56.5378987,42.3023696 56.5023824,42.0967581 C56.4707355,41.8904991 56.4618025,41.649089 56.4802727,41.3753337 C56.5026269,41.1009596 56.5531467,40.825866 56.6390967,40.5452042 C56.7210619,40.2652473 56.8436358,40.0142113 57.002618,39.7892761 C57.2060927,39.5399092 57.3648015,39.3396502 57.4825133,39.1879236 C57.6003114,39.0360819 57.6779181,38.9116358 57.7233025,38.8131754 C57.7572653,38.719938 57.7488214,38.6122257 57.6983015,38.4932905 C57.647868,38.3743552 57.5614578,38.25742 57.4401497,38.14942 C57.3187985,38.0412617 57.1724895,37.9547437 56.9984607,37.8970027 C56.8243888,37.8392473 56.6285381,37.8235351 56.4154399,37.8527437 C56.3254478,37.8700819 56.18905,37.9790171 56.006304,38.1794488 C55.8195877,38.3805135 55.6186016,38.6470603 55.407618,38.9785279 C55.1926066,39.3106142 54.9996616,39.6814775 54.8248848,40.0918229 C54.6500793,40.5021826 54.5296343,40.9252185 54.4634493,41.3611034 C54.2450862,41.6444847 54.0420718,41.8972329 53.847113,42.1241682 C53.6557504,42.3471466 53.4899642,42.5273768 53.3488338,42.6580243 C53.2082787,42.7922833 53.1098427,42.8601106 53.0502316,42.8657797 C52.9487316,42.860197 52.8974781,42.7624703 52.9000098,42.5685711 C52.9064111,42.3741538 52.9477246,42.1179667 53.0278055,41.7995926 C53.1079295,41.4811754 53.2158164,41.1339524 53.3481001,40.7617078 C53.4837643,40.3855783 53.6290089,40.018456 53.7869697,39.6564416 C53.9450599,39.294456 54.1009925,38.9714344 54.2587951,38.6868588 C54.4127281,38.4028732 54.5534845,38.1912329 54.6818124,38.0555351 C54.7788099,37.9525423 54.7950361,37.8480962 54.7376691,37.7372329 C54.6803308,37.6264272 54.5729761,37.5302833 54.4154612,37.4490027 C54.2540193,37.368197 54.0736324,37.3219524 53.8655113,37.3046574 C53.6618352,37.2901826 53.4536711,37.3256646 53.2529295,37.4091898 C52.9537088,37.7436358 52.6663268,38.1290315 52.3906686,38.5653624 C52.1152261,39.0016934 51.8584697,39.4562545 51.6291453,39.9312473 C51.3953328,40.4034344 51.1963893,40.8667293 51.0314374,41.3143121 C50.8657663,41.7583552 50.7421711,42.1608732 50.6639315,42.517679 C50.5851884,42.8710459 50.559425,43.1494488 50.5860084,43.3494344 C50.6334211,43.6059667 50.7485004,43.8311178 50.9426681,44.0194631 C51.132808,44.2084703 51.3575723,44.3603984 51.6169468,44.47542 C51.8763214,44.5903984 52.1344444,44.670456 52.3861086,44.7092473 C52.6379022,44.7479955 52.8472891,44.7475783 53.0184265,44.7072042 C53.1191785,44.6812185 53.2532603,44.5832473 53.4212474,44.4167293 C53.5850485,44.2508876 53.7731458,44.0320243 53.9823744,43.7676502 C54.1911428,43.4998948 54.4114191,43.2022257 54.6472311,42.8740243 C54.7905912,43.0737078 54.9752648,43.2528876 55.2005614,43.4082833 C55.4253114,43.5602977 55.6548085,43.6905279 55.8924473,43.7947725 C56.1305897,43.9023696 56.3397608,43.9794488 56.5285917,44.027866 C56.7133516,44.0769308 56.8417226,44.0994488 56.9126259,44.0885135 C57.1976487,44.0553912 57.5122469,43.9261826 57.8603476,43.7003552 C58.2050679,43.4785998 58.5583903,43.1816358 58.917553,42.8168876 C59.276054,42.4486574 59.6159697,42.0375783 59.9405798,41.5797078 C60.2647584,41.1182545 60.5457822,40.638902 60.7871324,40.1373912 C61.0324816,39.6353049 61.2099483,39.1366574 61.3231433,38.6407725 C61.4364533,38.1449308 61.4614111,37.6765854 61.3978873,37.2359811" id="Fill-33" fill="#A9A9A9"></path>
                    <path d="M43.4997951,41.1254344 C43.3268739,41.1800531 43.1364464,41.3042833 42.9313462,41.4905567 C42.722808,41.680902 42.5284389,41.9113049 42.3533744,42.1879955 C42.1742102,42.4652617 42.0421711,42.759938 41.9580624,43.0789308 C41.8735222,43.3945423 41.8658982,43.7124272 41.9379523,44.0249739 C42.0318571,44.3483265 42.2008799,44.6356214 42.4482717,44.8826718 C42.6956492,45.1296214 42.9929568,45.3338372 43.3474588,45.4905423 C43.7018025,45.6473337 44.0853908,45.7572905 44.4968571,45.8138229 C44.913056,45.8730747 45.3284925,45.8761394 45.7557822,45.8246718 C46.179116,45.7737221 46.5850872,45.6621682 46.9736815,45.4900531 C47.2072063,45.3838516 47.4535337,45.2298804 47.7088372,45.0288444 C47.9679672,44.8272329 48.21405,44.5924272 48.4552851,44.3267149 C48.6971676,44.064456 48.9082231,43.7857221 49.0886244,43.4907149 C49.2729672,43.1950171 49.4094945,42.9031034 49.4943799,42.615679 C49.5826601,42.3241826 49.6015907,42.0538085 49.5506968,41.8012185 C49.4768591,41.5557653 49.3286368,41.3252042 49.1057425,41.1060675 C48.8832365,40.890384 48.6169285,40.6779667 48.3038839,40.4761106 C47.9948814,40.2737365 47.6700555,40.0738372 47.3334915,39.8756646 C46.9967693,39.6774344 46.6754101,39.4735495 46.3698313,39.267089 C46.0641373,39.0606286 45.8052088,38.8435207 45.5890466,38.616384 C45.3773005,38.3920243 45.2393923,38.1492185 45.1795366,37.8910459 C45.0654498,37.5673193 45.064745,37.2472329 45.173423,36.9313768 C45.2821299,36.6157365 45.4732911,36.3118804 45.7502727,36.0160962 C46.0233129,35.7208876 46.3551587,35.4412185 46.7384017,35.181938 C47.1217455,34.9225711 47.5322767,34.683607 47.9674062,34.4725854 C48.4019171,34.258125 48.8332345,34.0758085 49.2615168,33.9256358 C49.6892092,33.7720819 50.086866,33.6582833 50.4537246,33.5809164 C50.8206264,33.50342 51.1253134,33.4672761 51.3688645,33.4791466 C51.4798586,33.4937509 51.5132603,33.5801394 51.4685232,33.7347149 C51.4236711,33.8893768 51.321236,34.088125 51.1610312,34.3308157 C51.0008263,34.5734919 50.8068025,34.8319955 50.571494,35.1108876 C50.3362142,35.3897797 50.083241,35.657348 49.8166021,35.9163408 C49.5462519,36.175938 49.282303,36.3994488 49.0171026,36.5879236 C48.7558868,36.7757797 48.5176294,36.9038516 48.3018412,36.9685423 C48.1058754,37.0303265 47.9951691,37.0966142 47.9696502,37.1673768 C47.9442752,37.2380962 48.0052385,37.320197 48.1525689,37.413679 C48.4148779,37.5211898 48.7177668,37.5521538 49.0562871,37.5001826 C49.3988065,37.4476214 49.7520138,37.3336214 50.1237202,37.1569308 C50.4955991,36.9802833 50.8605158,36.7589452 51.2181537,36.4894631 C51.5757197,36.2199955 51.9009483,35.9237509 52.1978387,35.6001538 C52.4947291,35.276643 52.7372732,34.9404416 52.9255718,34.591348 C53.1182003,34.2450315 53.2311939,33.9040243 53.2681343,33.5676646 C53.280865,33.3616934 53.2175282,33.1321394 53.0795049,32.8893768 C52.9370798,32.6439236 52.7361368,32.4108013 52.4761869,32.1868444 C52.2166398,31.9662689 51.9147291,31.7839524 51.5701815,31.6397653 C51.2302658,31.4983696 50.8643422,31.424456 50.4729717,31.421161 C50.064555,31.4379955 49.6309791,31.5010171 49.1649508,31.6147725 C48.6988794,31.7285567 48.2317866,31.888125 47.7512871,32.0920962 C47.2753476,32.2988444 46.8175188,32.5449883 46.3704786,32.8352617 C45.9278546,33.1283552 45.5230773,33.457938 45.153241,33.8313049 C44.787303,34.204125 44.483364,34.6131322 44.2375689,35.0590027 C44.0975461,35.3020962 43.9801507,35.5875926 43.8764498,35.9095639 C43.7731661,36.2350315 43.6962643,36.5740962 43.6426805,36.9341106 C43.5852271,37.2948301 43.5636929,37.6535063 43.5735609,38.0073193 C43.5797177,38.3617509 43.6268139,38.6957941 43.7102465,39.0031178 C43.7936358,39.3105279 43.9224816,39.5722977 44.092612,39.7889452 C44.369306,40.1475495 44.6693035,40.4744847 44.9931081,40.773161 C45.3129568,41.0722833 45.6286482,41.3440962 45.9322276,41.5895783 C46.235807,41.8349883 46.5002306,42.0617653 46.7250669,42.2666286 C46.9459186,42.4719524 47.0996071,42.6593624 47.1821334,42.8297653 C47.2651919,43.0034775 47.2456572,43.1647869 47.123371,43.3136934 C46.9757241,43.480643 46.7836711,43.5945998 46.5427668,43.6525854 C46.3023948,43.7140962 46.0428045,43.7293049 45.7577817,43.7098229 C45.4760962,43.6861538 45.1986254,43.6372617 44.9214568,43.563679 C44.6481433,43.4894919 44.4008377,43.4007725 44.183496,43.2968588 C43.9665714,43.1964847 43.8019503,43.095161 43.6900644,42.9961826 C43.5271983,42.8276934 43.4239146,42.6535351 43.3752648,42.46742 C43.3226304,42.2820099 43.3306572,42.097866 43.3953749,41.9155063 C43.4606105,41.7365423 43.5846949,41.573348 43.7630103,41.4228013 C43.8788953,41.2853912 43.9164543,41.1880819 43.882808,41.126456 C43.845177,41.0653624 43.7160436,41.0640531 43.4997951,41.1254344" id="Fill-34" fill="#A9A9A9"></path>
                    <path d="M117.542074,30.3514919 C117.406496,30.5448301 117.229533,30.7830171 117.002165,31.060643 C116.7752,31.3417941 116.522428,31.6374488 116.232385,31.9528444 C115.94565,32.2643265 115.641136,32.5643552 115.319374,32.8564703 C114.997439,33.1486574 114.669276,33.3994919 114.343674,33.6149308 C114.014173,33.8308157 113.698726,33.9812329 113.390169,34.0708444 C113.084964,34.1564128 112.805969,34.1499236 112.549198,34.0521538 C112.320046,33.9500675 112.158,33.8130747 112.066497,33.637161 C111.971125,33.4617797 111.924835,33.2648588 111.920678,33.0543552 C111.920591,32.8432473 111.94119,32.6360243 111.985913,32.4285854 C112.058658,32.5089308 112.188122,32.5910747 112.371415,32.6825135 C112.554664,32.7740387 112.758383,32.8413337 112.983594,32.8912617 C113.204877,32.9417078 113.414393,32.9412185 113.605137,32.897866 C113.951857,32.8200387 114.264902,32.6805567 114.544789,32.4827869 C114.82472,32.2850459 115.070716,32.0502113 115.283901,31.7852905 C115.496582,31.5169308 115.671718,31.2402689 115.813338,30.954643 C115.950958,30.6695926 116.055177,30.4038229 116.121189,30.1509164 C116.187173,29.8979955 116.21567,29.6896214 116.206046,29.5221538 C116.181462,29.2831466 116.065822,29.0546574 115.863081,28.8358804 C115.656384,28.6178372 115.401656,28.4281826 115.098364,28.2636502 C114.791764,28.1030747 114.480028,27.9891178 114.155619,27.9228013 C113.831168,27.8564416 113.540923,27.8552905 113.27742,27.9238229 C112.944611,28.0136214 112.596985,28.1901538 112.242813,28.4555495 C111.893159,28.7238372 111.552424,29.0505423 111.229568,29.4413912 C110.902829,29.8328588 110.621676,30.2594488 110.377909,30.7191034 C110.130733,31.1827149 109.952576,31.6499236 109.836561,32.128643 C109.720677,32.6073049 109.694712,33.0687149 109.758236,33.5092905 C109.800153,33.7562113 109.908946,33.9928157 110.083148,34.2088157 C110.253911,34.4289452 110.465298,34.6252473 110.71794,34.8010315 C110.97051,34.9769883 111.235236,35.1262977 111.511369,35.2458516 C111.792105,35.3680819 112.055119,35.4544272 112.309516,35.5103552 C112.559397,35.5634488 112.77494,35.5761394 112.948638,35.5530171 C113.319712,35.5031322 113.687678,35.3797509 114.052868,35.1864991 C114.414174,34.9938372 114.768043,34.7530315 115.110145,34.4613193 C115.448752,34.1736646 115.775376,33.8596502 116.085385,33.5165135 C116.391942,33.17742 116.681827,32.8339092 116.943532,32.4911898 C117.208646,32.144384 117.444875,31.8195926 117.656247,31.5162257 C117.863635,31.2135495 118.041418,30.9540387 118.181657,30.7389596 C118.273763,30.577089 118.326369,30.4212042 118.343616,30.2707869 C118.356908,30.1209739 118.339013,30.0041682 118.282495,29.9248732 C118.230465,29.8483552 118.140228,29.8375926 118.015525,29.8919236 C117.890923,29.946197 117.733236,30.1005854 117.542074,30.3514919 Z M114.394697,29.0612617 C114.489695,29.0502113 114.53623,29.1169739 114.529253,29.2552473 C114.522766,29.3970171 114.474332,29.5803121 114.384944,29.8122257 C114.295153,30.0405854 114.174823,30.2807293 114.020603,30.5365854 C113.86595,30.7890171 113.688901,31.0273193 113.492518,31.2438948 C113.296581,31.4639811 113.084835,31.6336934 112.861379,31.7524272 C112.641722,31.8705423 112.418396,31.911938 112.190251,31.8694344 C112.213813,31.7602545 112.282286,31.6020099 112.394862,31.3912185 C112.508186,31.1838229 112.646368,30.9550459 112.813391,30.7042545 C112.980415,30.4534631 113.160226,30.207679 113.349632,29.9710027 C113.538995,29.7343984 113.725798,29.5333193 113.909867,29.3678948 C114.090096,29.2030027 114.251725,29.1007437 114.394697,29.0612617 Z M122.052696,28.3927293 C121.626543,29.0035063 121.207482,29.5815351 120.794994,30.1233337 C120.385887,30.6610603 119.991956,31.1402257 119.620681,31.5560387 C119.245335,31.9725423 118.908484,32.2986718 118.601855,32.5322113 C118.29114,32.6080387 118.05002,32.6907581 117.878365,32.7804847 C117.703387,32.8742113 117.580612,32.9669164 117.506644,33.0626862 C117.433281,33.1619524 117.387408,33.2569452 117.369556,33.351089 C117.355775,33.4447293 117.344728,33.5308301 117.341175,33.6123121 C117.348396,33.896197 117.38138,34.1374488 117.440013,34.3360675 C117.498733,34.5346574 117.573103,34.6780243 117.659268,34.7668157 C117.745348,34.8556934 117.833383,34.877348 117.915176,34.833089 C118.029306,34.7627725 118.161547,34.6791178 118.31079,34.5753624 C118.460149,34.4715639 118.609349,34.3676358 118.754148,34.2609883 C118.899522,34.1578372 119.018873,34.0691178 119.116202,33.9943265 C119.568651,33.9495783 120.027745,33.9213624 120.500146,33.9016502 C120.96862,33.8824847 121.415157,33.8773049 121.840044,33.8895063 C122.265061,33.9017365 122.640853,33.9355495 122.959306,33.9887293 C123.281686,34.0413049 123.519541,34.1208876 123.67228,34.2241106 C123.868217,34.3453337 123.999264,34.3850603 124.074785,34.352384 C124.14986,34.3161682 124.167639,34.2219092 124.128656,34.073161 C124.085271,33.9214775 123.987727,33.7323552 123.835635,33.5023984 C123.679545,33.2730171 123.468115,33.0240243 123.205187,32.7547437 C122.991485,32.5693768 122.704463,32.4585998 122.35114,32.4142689 C121.994466,32.3740531 121.591803,32.3760099 121.146691,32.4161826 C121.910545,31.7218804 122.532218,31.0987869 123.010574,30.5397653 C123.488916,29.9808301 123.833794,29.5232905 124.040577,29.1643696 C124.248008,28.8088444 124.322666,28.5862689 124.268506,28.4960531 C124.207514,28.308384 124.12575,28.1168588 124.015418,27.9227149 C123.904956,27.7285279 123.772586,27.5482977 123.618711,27.3853912 C123.464245,27.2191466 123.290418,27.0839811 123.101098,26.9792473 C122.911764,26.8746718 122.705685,26.8182689 122.486272,26.8062689 C122.378615,26.8403696 122.208945,26.9156646 121.980355,27.0281538 C121.751232,27.1371754 121.500704,27.263607 121.219723,27.4017509 C120.938685,27.5398516 120.660553,27.6704991 120.39213,27.7855926 C120.124268,27.9040387 119.895433,27.988456 119.701179,28.0358516 C119.744478,27.9764272 119.730783,27.8870747 119.660642,27.7711466 C119.590473,27.6552042 119.491174,27.5332042 119.363752,27.4121106 C119.236402,27.290902 119.104334,27.1915351 118.967534,27.1140099 C118.835135,27.0393193 118.718631,27.0149308 118.629661,27.0392042 C118.566698,27.0488732 118.476993,27.0943121 118.355973,27.1726574 C118.238981,27.2504416 118.113846,27.3541106 117.988453,27.4824272 C117.859679,27.6147006 117.753259,27.7612473 117.661714,27.9265854 C117.570211,28.0918948 117.524712,28.2677653 117.517246,28.4554631 C117.514959,28.571866 117.55305,28.6892185 117.631664,28.8073337 C117.710205,28.9254056 117.802887,29.0308444 117.90584,29.1240387 C118.004895,29.2179667 118.091823,29.2855063 118.158741,29.3280819 C117.969163,29.6421394 117.7736,29.9430603 117.578741,30.2228157 C117.384473,30.5059524 117.215867,30.7464703 117.076866,30.9436358 C116.933909,31.1415207 116.848966,31.2707006 116.821447,31.327679 C116.722637,31.4976358 116.686517,31.6298229 116.709144,31.7248876 C116.731772,31.8199236 116.793469,31.880902 116.893214,31.9007293 C116.989564,31.9246286 117.100385,31.911161 117.229447,31.8596934 C117.358552,31.8082257 117.477371,31.7160819 117.587056,31.5901394 C117.902503,31.1512329 118.159231,30.8022257 118.351686,30.5334488 C118.548645,30.2674344 118.705714,30.0568588 118.825799,29.8942401 C118.942533,29.7355783 119.042191,29.597161 119.1242,29.4754056 C119.445228,29.4402545 119.749124,29.3725423 120.029098,29.2802833 C120.312495,29.1840675 120.574603,29.0804703 120.818398,28.962197 C121.062165,28.8438804 121.287246,28.7353768 121.49272,28.6299524 C121.698683,28.5280243 121.883674,28.4468157 122.052696,28.3927293 L122.052696,28.3927293 Z" id="Fill-35" fill="#A9A9A9"></path>
                </g>
            </g>
        </g>
    </g>
</svg>