<svg xmlns="http://www.w3.org/2000/svg" xmlns:xlink="http://www.w3.org/1999/xlink" width="170" height="65" viewBox="0 0 170 65">
  <defs>
    <path id="7-a" d="M21.643537,0.259473988 C33.4087304,0.259473988 42.9463548,9.80620809 42.9463548,21.5825549 C42.9463548,33.3589017 33.4087304,42.9055231 21.643537,42.9055231 C9.87838118,42.9055231 0.340869408,33.3589017 0.340869408,21.5825549 C0.340869408,9.80620809 9.87838118,0.259473988 21.643537,0.259473988"/>
    <path id="7-c" d="M42.7193713,21.5825549 C42.7193713,33.3589017 33.1817469,42.9055231 21.4165535,42.9055231 C9.65139766,42.9055231 0.113773282,33.3589017 0.113773282,21.5825549 C0.113773282,9.80620809 9.65139766,0.259473988 21.4165535,0.259473988 C33.1817469,0.259473988 42.7193713,9.80620809 42.7193713,21.5825549 Z"/>
    <path id="7-e" d="M10.83226,0.0681936416 C17.2366335,3.7453526 21.5505215,10.6566185 21.5505215,18.5766618 C21.5505215,26.4969306 17.2366335,33.4080087 10.83226,37.0853555 C4.42796155,33.4080087 0.113773282,26.4969306 0.113773282,18.5766618 C0.113773282,10.6566185 4.42796155,3.7453526 10.83226,0.0681936416 L10.83226,0.0681936416 Z"/>
  </defs>
  <g fill="none" fill-rule="evenodd" transform="translate(53)">
    <mask id="7-b" fill="#fff">
      <use xlink:href="#7-a"/>
    </mask>
    <use fill="#BFBFBF" xlink:href="#7-a"/>
    <path fill="#FEFEFE" d="M14.5489414,10.7899624 C14.4718789,10.5112514 14.0513945,9.97712428 13.4861691,9.94593931 L14.0414848,23.6596994 C14.0423482,24.0088208 13.7586845,24.2921156 13.4100825,24.2921156 C13.0622689,24.2919277 12.7802943,24.0092341 12.7780796,23.6610896 L12.7679448,10.9815809 C12.7679448,10.9414162 12.7667811,10.9027543 12.7643413,10.8652572 L12.7643413,10.563026 C12.7643413,10.225815 12.4888605,9.94995954 12.1516697,9.94995954 L12.1514445,9.94995954 C11.8142537,9.94995954 11.5388105,10.225815 11.5388105,10.563026 L11.5388105,11.0548468 L11.5388105,11.4346272 L11.5388855,11.4504075 L11.5391107,12.1619509 L11.5467682,12.1971936 L11.5564526,23.661315 C11.5576163,24.0097977 11.2742904,24.2941445 10.9262515,24.2943699 C10.5776496,24.2953092 10.294624,24.011789 10.2937606,23.6633439 L10.2838885,11.4628815 L10.2845266,11.4346272 L10.2845266,10.563026 C10.2845266,10.225815 10.0089333,9.94995954 9.67185508,9.94995954 L9.67162986,9.94995954 C9.33443904,9.94995954 9.05884569,10.225815 9.05884569,10.563026 L9.05884569,11.0082948 L9.05884569,11.4346272 L9.05929613,11.4574335 L9.06015947,12.1635665 L9.06109788,12.1707803 L9.07142043,23.6635318 C9.07258406,24.0126532 8.7906095,24.2966994 8.43971784,24.2977514 C8.09231707,24.2975636 7.80989207,24.0140434 7.80947917,23.6653353 L8.33788118,9.95018497 C7.77288103,9.98234682 7.35386053,10.5185029 7.27713582,10.7968006 C7.06475402,11.5841647 5.83933582,18.6231387 5.8772102,23.0006445 C5.88603129,24.1532486 5.98171195,25.1240405 6.20813242,25.7451474 C7.29440263,28.724815 9.47456298,28.3615289 9.5130004,29.2650289 L9.51363852,29.2792688 L9.03290793,57.7481416 C10.2942111,59.1845665 11.5562274,59.0454364 12.8175306,57.7481416 L12.3370252,29.2820491 L12.3378885,29.2607457 C12.37535,28.3569451 14.5676722,28.7173757 15.6459471,25.7363179 C16.7254983,22.7532312 14.820143,11.7829971 14.5489414,10.7899624" mask="url(#7-b)"/>
    <g transform="translate(21.396)">
      <mask id="7-d" fill="#fff">
        <use xlink:href="#7-c"/>
      </mask>
      <use fill="#BFBFBF" xlink:href="#7-c"/>
      <path fill="#FEFEFE" d="M33.5432989,29.0842688 C33.7047061,38.6389682 33.865813,48.1935549 34.0272201,57.7482168 C32.765917,59.0455491 31.5038631,59.1845665 30.24256,57.7482168 L30.7264812,29.0844942 C28.1361214,28.0484017 26.2133117,24.2194884 26.2133117,19.6536705 C26.2133117,14.2921474 28.8646308,9.94593931 32.1346273,9.94593931 C35.4049241,9.94593931 38.0562432,14.2921474 38.0562432,19.6536705 C38.0562432,24.219263 36.1334335,28.047763 33.5432989,29.0842688" mask="url(#7-d)"/>
    </g>
    <path fill="#BFBFBF" d="M6.5444599 53.031922L6.57850556 53.031922C6.62009605 53.0773844 6.70151283 53.1645145 6.81877701 53.2951908 6.93791802 53.4239509 7.08551173 53.586789 7.26152061 53.7799855 7.43749196 53.9731821 7.63613538 54.1853526 7.85373476 54.4201792 8.07133414 54.6531272 8.30210885 54.8955434 8.54429466 55.1473902 8.78648048 55.3992746 9.03245749 55.6473266 9.28027379 55.8954913 9.57737558 56.190922 9.88581341 56.4976618 10.201721 56.8158988 10.5177412 57.1321069 10.826104 57.4445954 11.1288363 57.7495318 11.4316436 58.0544306 11.7135056 58.3347572 11.9707811 58.5903613 12.2281692 58.8479942 12.4475703 59.0619682 12.6293223 59.2361908 12.6916705 59.3006272 12.7560457 59.359315 12.8222226 59.4085347 12.8885122 59.4578295 12.9527747 59.4843555 13.0152356 59.486159 13.0663228 59.486159 13.1041972 59.4596329 13.1268693 59.4028988 13.1514182 59.3479306 13.1628293 59.2570809 13.1628293 59.1339566L13.2877509 51.9637803C13.291467 51.7535636 13.304755 51.5812197 13.3312558 51.4505434 13.3577566 51.3198671 13.3993471 51.2176329 13.4598935 51.1475231 13.52044 51.0756474 13.6036585 51.0263526 13.7077098 50.9979104 13.7739994 50.9808526 13.8345458 50.9714971 13.8875474 50.9676647 13.9385971 50.9638324 13.9934005 50.9620289 14.0483165 50.9638324 14.1844991 50.9638324 14.2525904 50.9297543 14.2525904 50.8615607 14.2507886 50.8180145 14.2262022 50.7895723 14.1769542 50.7763844 14.1296957 50.7630462 14.0672349 50.7574104 13.9915988 50.7593266 13.8061307 50.7593266 13.6359024 50.7630462 13.48448 50.7687948 13.3312558 50.772552 13.2044198 50.7783006 13.1003685 50.7839364 12.9963171 50.7895723 12.9225578 50.7934046 12.879053 50.7934046 12.7976362 50.7934046 12.6879544 50.7895723 12.5479055 50.7839364 12.4098086 50.7783006 12.2508413 50.772552 12.0711163 50.7687948 11.8932306 50.7630462 11.7040463 50.7593266 11.5053654 50.7593266 11.4183557 50.7574104 11.34835 50.7630462 11.293434 50.7763844 11.240545 50.7895723 11.2121299 50.8180145 11.2102155 50.8615607 11.2102155 50.8956763 11.223541 50.9202486 11.2499292 50.9373064 11.2783068 50.9543266 11.3256779 50.9638324 11.3918549 50.9638324 11.4467708 50.9638324 11.5092317 50.9638324 11.5810391 50.9657486 11.6529591 50.9676647 11.7248791 50.9733006 11.7967241 50.9827688 11.8705585 50.9941908 11.9349337 51.0092948 11.9935658 51.0321012 12.0843291 51.0679827 12.1562492 51.1210347 12.2130795 51.1930231 12.2678829 51.2650116 12.3094734 51.3691618 12.3359742 51.5055116 12.362475 51.6437399 12.3757629 51.825552 12.379479 52.0547428L12.4930271 57.1568295 12.4363094 57.1568295C12.3946813 57.1170029 12.3094734 57.0279566 12.1771195 56.8916069 12.0446155 56.7533786 11.8856857 56.5867081 11.6965015 56.3878757 11.5073173 56.190922 11.3086363 55.9807052 11.096705 55.7590665 10.8848487 55.5375405 10.6785103 55.3235665 10.4761507 55.1152283 10.2755929 54.9069277 10.0957553 54.7231994 9.93881502 54.5659971 9.60579075 54.2345723 9.27464331 53.9011936 8.9492765 53.5679653 8.62379708 53.2345867 8.31543432 52.9164624 8.02400055 52.6134798 7.73264185 52.3085434 7.46962325 52.0357688 7.24065029 51.791474 7.00987558 51.5471416 6.82260574 51.3502254 6.67872814 51.1968555 6.53500069 51.0433728 6.4498678 50.9506069 6.41953827 50.9184451 6.32494616 50.8142948 6.24739565 50.7289682 6.18493483 50.6646445 6.12055965 50.6002081 6.06001319 50.5680462 5.99946674 50.5661301 5.94466338 50.5680462 5.90487463 50.6040405 5.88411692 50.6741127 5.86136977 50.7442225 5.85187303 50.8369884 5.85187303 50.9525231L5.74973607 57.679422C5.74782171 58.0071647 5.73656075 58.2685173 5.71951915 58.4635173 5.70056319 58.6604335 5.66651754 58.8063642 5.61726959 58.9029624 5.56809671 58.999448 5.49437493 59.060052 5.39786846 59.0884942 5.31645168 59.111263 5.22944196 59.1264046 5.13867858 59.1339566 5.04588823 59.1415087 4.9626697 59.145341 4.88703355 59.145341 4.83020322 59.145341 4.78478399 59.1510145 4.75456707 59.1661185 4.72243578 59.1794191 4.70539419 59.2021127 4.70539419 59.2361908 4.70719594 59.2854104 4.72998063 59.317685 4.77528724 59.3308728 4.82074401 59.3461272 4.8793761 59.351763 4.95512485 59.3498468 5.15376827 59.3498468 5.34103812 59.3461272 5.51321827 59.3403786 5.6854735 59.3347052 5.83115285 59.3308728 5.9483795 59.325237 6.06767065 59.3196012 6.14522116 59.3157688 6.1811061 59.3157688 6.28898615 59.317685 6.45741265 59.3233208 6.69013925 59.332789 6.92091396 59.3422948 7.22180694 59.3479306 7.58880179 59.3498468 7.67021857 59.3498468 7.73264185 59.3422948 7.77990037 59.3271532 7.82531959 59.3101329 7.84990603 59.2797746 7.84990603 59.2361908 7.84990603 59.2021127 7.83290197 59.1794191 7.80077069 59.1661185 7.76672504 59.1510145 7.71935391 59.145341 7.65689309 59.145341 7.56421535 59.1471821 7.46770888 59.1415087 7.36557193 59.1320405 7.26343498 59.1206561 7.16501414 59.0998786 7.06659331 59.0658006 6.99091963 59.0411908 6.92474269 58.9862225 6.86791235 58.9010462 6.81119463 58.8139162 6.7657754 58.6832399 6.73172975 58.5070636 6.6976841 58.332841 6.67681378 58.0979769 6.66926893 57.8044624L6.5444599 53.031922zM16.1257018 56.259078C16.1276161 56.7230202 16.1674049 57.1170029 16.248709 57.4445954 16.3282114 57.7723006 16.4360915 58.0449624 16.5722741 58.2666012 16.7084942 58.4881272 16.8617935 58.6699393 17.0339736 58.8158324 17.2175274 58.972922 17.4142564 59.0979624 17.6242734 59.1870087 17.8324136 59.2778584 18.0424681 59.3422948 18.2523725 59.3839249 18.4605127 59.4255549 18.6573543 59.4502775 18.8409081 59.4615491 19.0243492 59.4710549 19.1833165 59.4766908 19.315783 59.4748873 19.5333823 59.4766908 19.7585266 59.4615491 19.9950444 59.4255549 20.2296853 59.3914769 20.4699193 59.3233208 20.7101907 59.2248064 20.9523765 59.1244884 21.1927231 58.9767543 21.4273265 58.7816416 21.6354667 58.6074942 21.8037806 58.4085491 21.9306166 58.1870231 22.0573399 57.9635809 22.1538464 57.7268382 22.2200234 57.4730376 22.2843985 57.2174335 22.3279409 56.9560434 22.350613 56.6852225 22.3714458 56.4143642 22.3827443 56.1435434 22.380905 55.872685L22.380905 54.838659C22.380905 54.5470607 22.380905 54.298896 22.3827443 54.092474 22.3827443 53.8860896 22.3846587 53.7137457 22.386573 53.5736012 22.386573 53.4334191 22.3884874 53.3160809 22.3904018 53.2232023 22.3922035 53.1304364 22.3941179 53.0489422 22.3979466 52.9827023 22.3997484 52.9164624 22.4016627 52.852026 22.4035771 52.7933382 22.4111595 52.6797197 22.4244474 52.5869538 22.4471195 52.5168815 22.469754 52.4448555 22.5057516 52.3899249 22.5568013 52.3501734 22.6078885 52.312263 22.6778942 52.2838208 22.7668558 52.2706329 22.8274023 52.2592486 22.8766502 52.2497428 22.9182407 52.2441069 22.9598687 52.2384711 23.0070897 52.2365549 23.0620057 52.2365549 23.1755538 52.2365549 23.2323466 52.2024769 23.2323466 52.1342832 23.2323466 52.1002052 23.2153425 52.0774364 23.1811842 52.0622948 23.1471386 52.0489942 23.0960514 52.0433584 23.0279601 52.0433584 22.9295392 52.0433584 22.8198199 52.0452746 22.6987645 52.0471908 22.5776716 52.0489942 22.4584931 52.0509104 22.3411163 52.0547428 22.2238896 52.0584624 22.1217151 52.0603786 22.0347054 52.0622948 21.9476582 52.064211 21.8889135 52.0661272 21.8586965 52.0661272 21.8548678 52.0661272 21.8151917 52.064211 21.739518 52.0622948 21.6656836 52.0603786 21.5691771 52.0584624 21.4499986 52.0547428 21.3326593 52.0509104 21.203984 52.0489942 21.0678014 52.0471908 20.9297045 52.0452746 20.797238 52.0433584 20.6666483 52.0433584 20.598557 52.0433584 20.5475073 52.0489942 20.5134617 52.0622948 20.479416 52.0774364 20.4623744 52.1002052 20.4623744 52.1342832 20.4623744 52.2024769 20.5190921 52.2365549 20.6326027 52.2365549 20.6931491 52.2365549 20.7575243 52.2384711 20.82753 52.2441069 20.8975732 52.2497428 20.9542909 52.2592486 20.9958814 52.2706329 21.1018471 52.2990751 21.1832639 52.3331532 21.2418959 52.3728671 21.3004905 52.4126936 21.3421185 52.4657457 21.3686193 52.5319855 21.3931682 52.5963092 21.4102098 52.6853555 21.4159529 52.7933382 21.4178673 52.852026 21.4215834 52.9164624 21.4234978 52.9827023 21.4254121 53.0489422 21.4273265 53.1304364 21.4291658 53.2232023 21.4310802 53.3160809 21.4329945 53.4334191 21.4349089 53.5736012 21.4349089 53.7137457 21.4367106 53.8860896 21.4367106 54.092474 21.438625 54.298896 21.438625 54.5470607 21.438625 54.838659L21.438625 56.0544971C21.4405394 56.3026618 21.4367106 56.5394046 21.4273265 56.764763 21.4178673 56.9919624 21.3950826 57.2060116 21.3573208 57.4048815 21.3213608 57.6056301 21.2645305 57.7893584 21.1850656 57.9578324 21.1056758 58.1264191 20.9977958 58.2760694 20.8596988 58.4067457 20.7271948 58.5355058 20.5834673 58.6358237 20.4320449 58.7116821 20.2807351 58.785474 20.1274358 58.838526 19.9703829 58.8706879 19.8152443 58.9029624 19.6657362 58.9199827 19.5200569 58.9180665 19.4065463 58.9199827 19.279823 58.9123179 19.1397741 58.8952977 19.0016771 58.8801561 18.8579121 58.8441618 18.7084416 58.7893064 18.5570192 58.732422 18.4094254 58.6472457 18.2599549 58.5316734 18.1370602 58.4369913 18.0291427 58.3272052 17.9345505 58.2002486 17.8399584 58.0753208 17.7604936 57.9237543 17.6961184 57.7457746 17.6318558 57.5658035 17.5825703 57.3499133 17.550439 57.0961127 17.5163934 56.8424249 17.4993893 56.5412081 17.4993893 56.190922L17.4993893 54.838659C17.4993893 54.5470607 17.4993893 54.298896 17.4993893 54.092474 17.4993893 53.8860896 17.4993893 53.7137457 17.5013037 53.5736012 17.5013037 53.4334191 17.5032181 53.3160809 17.5050198 53.2232023 17.5050198 53.1304364 17.5088485 53.0489422 17.5107629 52.9827023 17.514479 52.9164624 17.5183077 52.852026 17.5220239 52.7933382 17.5315206 52.6247514 17.5618501 52.5016272 17.6148142 52.4202832 17.6678158 52.3407052 17.7566648 52.2914855 17.8854152 52.2706329 17.9459617 52.2592486 17.995097 52.2497428 18.036725 52.2441069 18.0783155 52.2384711 18.1256491 52.2365549 18.1805651 52.2365549 18.2316523 52.2365549 18.2713285 52.2270491 18.2978293 52.2100289 18.3262444 52.1929711 18.3394198 52.1683988 18.3394198 52.1342832 18.3394198 52.1002052 18.3224157 52.0774364 18.2864182 52.0622948 18.2523725 52.0489942 18.1976067 52.0433584 18.1237348 52.0433584 18.031057 52.0433584 17.9250913 52.0452746 17.8059128 52.0471908 17.6848199 52.0489942 17.5637645 52.0509104 17.4407572 52.0547428 17.3158356 52.0584624 17.2004858 52.0603786 17.0964345 52.0622948 16.9904312 52.064211 16.9053359 52.0661272 16.8409607 52.0661272 16.7388238 52.0661272 16.6063197 52.064211 16.4398076 52.0603786 16.2732955 52.056659 16.0954848 52.0528266 15.9024719 52.0489942 15.709459 52.0452746 15.5241035 52.0433584 15.3424641 52.0433584 15.2686297 52.0433584 15.2137513 52.0489942 15.1796681 52.0622948 15.1437081 52.0774364 15.126704 52.1002052 15.126704 52.1342832 15.126704 52.2024769 15.1835344 52.2365549 15.2970449 52.2365549 15.3670505 52.2365549 15.4388955 52.2384711 15.5108155 52.2441069 15.5827356 52.2497428 15.6413677 52.2592486 15.6829582 52.2706329 15.7889614 52.2990751 15.8703406 52.3331532 15.9308871 52.3709509 15.9914335 52.4088613 16.0349384 52.4599971 16.0633535 52.5263497 16.0916561 52.5925896 16.1086977 52.6816358 16.1144408 52.7933382 16.1181569 52.852026 16.1219856 52.9164624 16.1239 52.9827023 16.1257018 53.0489422 16.1276161 53.1304364 16.1276161 53.2232023 16.1295305 53.3160809 16.1295305 53.4334191 16.1276161 53.5736012 16.1276161 53.7137457 16.1276161 53.8860896 16.1276161 54.092474 16.1257018 54.298896 16.1257018 54.5470607 16.1257018 54.838659L16.1257018 56.259078zM24.4016101 55.7363728C24.3089323 55.7344566 24.2426428 55.7420087 24.2066828 55.7590665 24.168921 55.7760867 24.1443346 55.8178671 24.1291323 55.8841069L23.9588665 56.6681647C23.9474929 56.7268526 23.9474929 56.7742688 23.9625826 56.8120665 23.9759081 56.8518931 24.0043232 56.8707543 24.0496299 56.8726705 24.0799594 56.8707543 24.1196355 56.8594451 24.168921 56.8385925 24.2180564 56.8158988 24.2748867 56.791289 24.3391493 56.7628468 24.4035245 56.7344422 24.4735301 56.7117486 24.5492038 56.6908584 24.6172951 56.671922 24.7251751 56.645396 24.8727689 56.6151503 25.0203626 56.5847919 25.1905908 56.5507139 25.3836038 56.5147197 25.5784185 56.4768844 25.7809281 56.438974 25.9928595 56.4011763 26.2028014 56.3632659 26.4071879 56.3272717 26.6058689 56.2912775 26.802598 56.2571618 26.9786068 56.2269162 27.1317935 56.2022312 27.2851303 56.1757052 27.4004801 56.1568439 27.4780306 56.1454595 27.6389123 56.1208497 27.7638339 56.0904913 27.8526829 56.0583295 27.9416446 56.0261676 27.9870638 55.9711994 27.9889781 55.8954913 27.9870638 55.8291387 27.9511038 55.7855925 27.8849268 55.764815 27.8167229 55.7439249 27.7296757 55.7344566 27.6256243 55.7363728L24.4016101 55.7363728zM31.746612 56.0544971C31.746612 56.404896 31.746612 56.7324884 31.7446976 57.0412572 31.7427833 57.3481098 31.7371528 57.6226503 31.7294578 57.8669827 31.7219129 58.111315 31.7087376 58.3138671 31.6897817 58.4749017 31.674692 58.6416098 31.6443624 58.7816416 31.5971039 58.8934566 31.5497703 59.0051965 31.4721823 59.0752688 31.3605861 59.0998786 31.3094989 59.111263 31.2508668 59.1225723 31.1826629 59.1320405 31.1145716 59.1395925 31.0370211 59.145341 30.9518882 59.145341 30.8857112 59.145341 30.8383401 59.1529306 30.8099249 59.1699509 30.7834617 59.1850925 30.7702488 59.2077486 30.7702488 59.2361908 30.7702488 59.2760173 30.7892048 59.3043844 30.8288809 59.3233208 30.8667553 59.3403786 30.923473 59.3498468 30.9973074 59.3498468 31.1127698 59.3498468 31.2394932 59.3479306 31.3756758 59.344211 31.511971 59.3403786 31.6501055 59.3366214 31.7843738 59.332789 31.9205564 59.3289566 32.045478 59.325237 32.1590261 59.3214046 32.2706222 59.317685 32.3614982 59.3157688 32.4276751 59.3157688 32.5355927 59.3157688 32.6812345 59.3196012 32.8647883 59.325237 33.048342 59.3308728 33.2545303 59.3347052 33.4853425 59.3403786 33.7162298 59.3461272 33.9584156 59.3498468 34.2100607 59.3498468 34.2743232 59.3498468 34.325373 59.3403786 34.3651617 59.3233208 34.4048754 59.3043844 34.4237938 59.2760173 34.4257082 59.2361908 34.4257082 59.2077486 34.4106185 59.1850925 34.3822033 59.1699509 34.3518738 59.1529306 34.3065671 59.145341 34.2441063 59.145341 34.187276 59.145341 34.1230134 59.1434249 34.0530077 59.1395925 33.9848789 59.1339566 33.916675 59.1283208 33.8485837 59.1225723 33.7804924 59.1150202 33.7199459 59.1074306 33.66503 59.0998786 33.5534338 59.084737 33.4663865 59.0487428 33.4058401 58.991896 33.3452936 58.9351243 33.3037031 58.8631358 33.2772023 58.7760058 33.2507015 58.6907919 33.2317831 58.5922775 33.2223239 58.486211 33.2034806 58.3214566 33.1901551 58.1169509 33.1826102 57.8707023 33.1750654 57.6245665 33.1694349 57.3481098 33.1675205 57.0412572 33.1656062 56.7324884 33.1656062 56.404896 33.1656062 56.0544971L33.1656062 51.3956879 34.5959739 51.4297659C34.9309126 51.4392717 35.1938561 51.4752659 35.386869 51.5395896 35.5817963 51.6021098 35.7198933 51.6816503 35.8031118 51.7744162 35.8864054 51.8690983 35.9317496 51.9656965 35.9355783 52.0661272L35.9469519 52.1910549C35.9526199 52.2744653 35.9620791 52.3331532 35.9790832 52.3691474 35.9980391 52.4032254 36.0282561 52.4183295 36.0717609 52.4183295 36.1058066 52.4183295 36.1285913 52.4013092 36.1437185 52.3691474 36.1588082 52.338789 36.1682674 52.2933266 36.1739354 52.2365549 36.1739354 52.1588931 36.1758498 52.0603786 36.1796785 51.9391705 36.1833946 51.818 36.1872234 51.6892399 36.1909395 51.5566098 36.1947682 51.4222139 36.1985969 51.2971734 36.202313 51.1835549 36.2061418 51.0698988 36.2079811 50.9808526 36.2079811 50.9184451 36.2098954 50.8331561 36.2042274 50.772552 36.1928538 50.7347168 36.1815929 50.6968064 36.1550921 50.6797861 36.1172177 50.6797861 36.0945456 50.6797861 36.0603874 50.685422 36.0112145 50.6948902 35.9620791 50.7063121 35.8957896 50.7196127 35.8106567 50.7366329 35.7274382 50.7479422 35.6195581 50.7612428 35.4909204 50.772552 35.364197 50.7858526 35.2090584 50.7914884 35.027419 50.7934046L30.5318166 50.7934046C30.4070076 50.7934046 30.2764555 50.7914884 30.1439515 50.7858526 30.011485 50.7820202 29.8809329 50.7744682 29.7542095 50.7668786 29.6274861 50.7574104 29.5081949 50.7479422 29.3965988 50.7366329 29.303921 50.7271647 29.226333 50.711948 29.1638721 50.6911705 29.1033632 50.6702803 29.052276 50.6495405 29.0125999 50.6305665 28.9727736 50.6116301 28.9387279 50.6021243 28.908511 50.6002081 28.8743527 50.6002081 28.8479645 50.6172659 28.8271318 50.6532601 28.8062614 50.6873382 28.7892574 50.7423064 28.7722158 50.8160983 28.7665853 50.8369884 28.7571261 50.8880867 28.7381701 50.9695809 28.7211285 51.0509249 28.7022101 51.1494769 28.679538 51.2630954 28.6549516 51.3767514 28.6341188 51.4922861 28.6114467 51.6096618 28.5886621 51.7271503 28.571658 51.833104 28.5565308 51.9259827 28.5414411 52.0187486 28.5338962 52.083185 28.5338962 52.1228988 28.5338962 52.1854191 28.5395267 52.2309191 28.5546164 52.2611647 28.5698562 52.2895694 28.5962444 52.304711 28.6360332 52.304711 28.6700788 52.304711 28.6965796 52.2933266 28.7154981 52.2706329 28.734454 52.2479393 28.7495437 52.2137486 28.7609548 52.1683988 28.7722158 52.1228988 28.7930861 52.0661272 28.823303 51.9997746 28.8536326 51.9316185 28.8971374 51.8559104 28.9538552 51.7706965 29.0087711 51.6872861 29.0806912 51.6248035 29.1695402 51.5794162 29.2565499 51.5339538 29.3720123 51.5016792 29.5158524 51.4809017 29.657703 51.4600116 29.837428 51.4468237 30.0550274 51.4410751L31.746612 51.3956879 31.746612 56.0544971zM38.0697939 56.5431243C38.0697939 56.8405087 38.0697939 57.1189191 38.0678796 57.3802717 38.0659652 57.6397081 38.0622491 57.8745347 38.056506 58.0809566 38.0508755 58.2892572 38.0394644 58.4616012 38.0243747 58.5998295 38.0092475 58.7419277 37.9827842 58.8574624 37.9410436 58.9445925 37.8994531 59.0317225 37.8294474 59.0884942 37.7292248 59.111263 37.6837681 59.1225723 37.6327183 59.1320405 37.5740863 59.1376763 37.5172559 59.1434249 37.451079 59.145341 37.3772446 59.145341 37.3166981 59.1471821 37.2731557 59.1585665 37.2505212 59.1794191 37.2278491 59.2001965 37.216438 59.2230029 37.2183524 59.2476127 37.2183524 59.2816908 37.235394 59.3063006 37.2675253 59.3233208 37.3015709 59.3403786 37.348942 59.3498468 37.4114029 59.3498468 37.5135398 59.3498468 37.6232216 59.3479306 37.7443145 59.344211 37.8634931 59.3403786 37.9827842 59.3366214 38.1019252 59.332789 38.2191894 59.3289566 38.3251551 59.325237 38.4197472 59.3214046 38.5143393 59.317685 38.5882112 59.3157688 38.6373466 59.3157688 38.6771353 59.3157688 38.7508946 59.317685 38.860689 59.3214046 38.9704084 59.325237 39.1028749 59.3289566 39.2541847 59.332789 39.4055696 59.3366214 39.5626225 59.3403786 39.7272578 59.344211 39.8899412 59.3479306 40.0450798 59.3498468 40.192636 59.3498468 40.2550968 59.3498468 40.306184 59.3403786 40.342144 59.3233208 40.3781041 59.3063006 40.39706 59.2816908 40.39706 59.2476127 40.39706 59.2230029 40.3856489 59.2001965 40.3648161 59.1794191 40.342144 59.1585665 40.3118145 59.1471821 40.2721384 59.145341 40.2305103 59.145341 40.1794606 59.1434249 40.1226303 59.1415087 40.0659126 59.1395925 40.0072054 59.1358728 39.9485733 59.1301243 39.8899412 59.1244884 39.8350253 59.1188526 39.783938 59.111263 39.6837154 59.0960462 39.6079667 59.0658006 39.5550777 59.0222543 39.5039154 58.9767543 39.466116 58.9199827 39.4452833 58.8479942 39.4226112 58.777922 39.407484 58.6946243 39.3980247 58.5998295 39.3828224 58.4616012 39.3715239 58.291211 39.3639791 58.084789 39.3545199 57.8782919 39.3487768 57.6453439 39.3450607 57.3839913 39.3431463 57.1245549 39.3411944 56.8442283 39.3411944 56.5431243L39.3411944 56.4068121C39.3411944 56.3783699 39.3487768 56.3576301 39.3639791 56.3462081 39.3791063 56.3329075 39.3980247 56.3272717 39.4206968 56.3272717L40.3175576 56.3499277C40.3516033 56.3499277 40.3837345 56.3537601 40.4121497 56.3632659 40.4423666 56.3727341 40.4707818 56.3897919 40.499197 56.4181965 40.5313283 56.4560318 40.5786618 56.5223844 40.642962 56.6132341 40.7072996 56.704159 40.7829733 56.8120665 40.8681062 56.9371069 40.9551159 57.0602312 41.0459919 57.192711 41.1443001 57.3309393 41.2427209 57.4693179 41.3411418 57.6037139 41.4414019 57.7363064 41.6249181 57.9862746 41.7933821 58.2040809 41.9466063 58.3897254 42.0979912 58.5752572 42.2436706 58.732422 42.3817675 58.8593786 42.5218164 58.9862225 42.6618277 59.084737 42.8036784 59.1566503 42.8887737 59.2021127 42.9815641 59.2381069 43.0780705 59.2665491 43.1763788 59.2948786 43.2918412 59.3157688 43.4223933 59.3308728 43.5529454 59.344211 43.7099984 59.3498468 43.8935521 59.3498468L44.8471306 59.3498468C44.9095914 59.3498468 44.9568499 59.344211 44.9908956 59.3289566 45.0230269 59.3138526 45.0401435 59.2873266 45.0401435 59.2476127 45.0401435 59.2230029 45.02877 59.2001965 45.0078996 59.1794191 44.9852276 59.1585665 44.9549356 59.1471821 44.9152219 59.145341 44.8773475 59.145341 44.8395857 59.145341 44.8055401 59.1434249 44.7695801 59.1395925 44.7260377 59.1339566 44.6767897 59.1225723 44.6237881 59.1150202 44.5500663 59.0960462 44.4535599 59.0658006 44.3570534 59.0373584 44.2378749 58.9786705 44.097826 58.8915405 43.9578147 58.804448 43.7951312 58.6680983 43.6096632 58.486211 43.3107971 58.1831908 42.9815641 57.8176879 42.6201246 57.3859075 42.2606746 56.9541272 41.8595591 56.4655 41.4187298 55.918185 41.7440966 55.6587486 42.0071528 55.4106965 42.2114267 55.1758324 42.4158132 54.9390896 42.5653213 54.7079827 42.6618277 54.4788671 42.7582216 54.2515925 42.8055927 54.0186821 42.8036784 53.7819017 42.801764 53.6190636 42.7790919 53.4675347 42.7336352 53.3273526 42.6883285 53.1872081 42.6295838 53.0603642 42.5577764 52.9467081 42.4858564 52.8330896 42.4101827 52.7346503 42.3288035 52.6493613 42.2493011 52.5660636 42.1717505 52.5016272 42.0998305 52.4524451 41.9201055 52.3368728 41.7251782 52.2479393 41.5133219 52.1891387 41.301353 52.1304509 41.0837537 52.090737 40.8605238 52.0718006 40.6353796 52.0509104 40.4177802 52.0414422 40.2040471 52.0433584 40.1245447 52.0433584 40.0166646 52.0452746 39.8804445 52.0471908 39.7423475 52.0489942 39.5966682 52.0509104 39.4396528 52.0547428 39.2825999 52.0584624 39.1330918 52.0603786 38.9930804 52.0622948 38.8512298 52.064211 38.7376818 52.0661272 38.6487577 52.0661272 38.5957561 52.0661272 38.5220343 52.064211 38.4235759 52.0622948 38.3251551 52.0603786 38.2135589 52.0584624 38.0868355 52.0547428 37.9599995 52.0509104 37.8294474 52.0489942 37.6913129 52.0471908 37.5532159 52.0452746 37.4189477 52.0433584 37.2864812 52.0433584 37.2126093 52.0433584 37.1559291 52.0489942 37.1180172 52.0622948 37.078341 52.0774364 37.0594226 52.1002052 37.0594226 52.1342832 37.0594226 52.1683988 37.0764267 52.1929711 37.1067562 52.2100289 37.1369731 52.2270491 37.1785636 52.2365549 37.2296509 52.2365549 37.3053996 52.2365549 37.3810733 52.2384711 37.4547951 52.2441069 37.5267151 52.2497428 37.5853472 52.2592486 37.6270503 52.2706329 37.7329409 52.2990751 37.8143202 52.3331532 37.8748666 52.3728671 37.9354131 52.4126936 37.9789555 52.4657457 38.0073331 52.5319855 38.0357483 52.5963092 38.0527899 52.6853555 38.0584204 52.7933382 38.0603347 52.852026 38.0622491 52.9164624 38.0640508 52.9827023 38.0659652 53.0489422 38.0659652 53.1304364 38.0678796 53.2232023 38.0678796 53.3178844 38.0697939 53.4334191 38.0697939 53.5736012 38.0697939 53.7137457 38.0697939 53.8860896 38.0697939 54.092474 38.0697939 54.298896 38.0697939 54.5470607 38.0697939 54.838659L38.0697939 56.5431243zM39.3411944 52.7137977C39.3411944 52.6740462 39.3468624 52.6437254 39.3601504 52.6247514 39.3752776 52.603974 39.3980247 52.5869538 39.4320704 52.577448 39.485072 52.5660636 39.5663762 52.5565954 39.6723418 52.5509595 39.7783075 52.545211 39.8955717 52.5433699 40.0224077 52.5433699 40.1415863 52.5414538 40.270224 52.5585116 40.4064066 52.5906734 40.5446162 52.6228353 40.678922 52.6778035 40.8133028 52.7535116 40.9456567 52.8311734 41.068664 52.9353237 41.1783458 53.066 41.2881777 53.1966763 41.3771393 53.3614306 41.4414019 53.5565434 41.5076914 53.7534971 41.5417371 53.9864075 41.5435389 54.2591821 41.5417371 54.5224509 41.5076914 54.7497254 41.4433163 54.9352572 41.3808554 55.1228179 41.2995513 55.278104 41.2011304 55.4011908 41.1027096 55.5223988 41.0005727 55.6208006 40.8964838 55.6909104 40.8416054 55.7325405 40.7848876 55.764815 40.7262556 55.7875087 40.6675109 55.8102775 40.5975052 55.8273353 40.5142867 55.8366908 40.4311057 55.8461965 40.3231881 55.8500289 40.192636 55.8500289 40.0659126 55.8500289 39.9334461 55.8443555 39.7990652 55.8310549 39.664797 55.8159509 39.5417897 55.7931445 39.4320704 55.7590665 39.3980247 55.7439249 39.3752776 55.723185 39.3601504 55.6984624 39.3468624 55.6757688 39.3411944 55.6378584 39.3411944 55.5886387L39.3411944 52.7137977zM45.8575394 56.5431243C45.8575394 56.8405087 45.8575394 57.1189191 45.8556251 57.3783555 45.8537107 57.6397081 45.8499946 57.8745347 45.8442515 58.0809566 45.8385835 58.2892572 45.8272099 58.4616012 45.8120827 58.5998295 45.796993 58.7419277 45.7704922 58.8574624 45.7287891 58.9445925 45.6871986 59.0317225 45.6171554 59.0884942 45.5169328 59.111263 45.4715136 59.1225723 45.4204263 59.1320405 45.3617942 59.1376763 45.3050014 59.1434249 45.238787 59.145341 45.1649526 59.145341 45.1044061 59.1471821 45.0609012 59.1585665 45.0382292 59.1794191 45.0155571 59.2001965 45.0041835 59.2230029 45.0060979 59.2476127 45.0060979 59.2816908 45.0231395 59.3063006 45.0552708 59.3233208 45.0893164 59.3403786 45.13665 59.3498468 45.1991108 59.3498468 45.3031621 59.3498468 45.4128815 59.3479306 45.53206 59.3422948 45.651201 59.3384624 45.7704922 59.332789 45.8915851 59.3271532 46.012678 59.3271532 46.1223598 59.325237 46.222695 59.3214046 46.3210408 59.317685 46.4005056 59.3157688 46.4591377 59.3157688 46.6067314 59.3157688 46.7751579 59.317685 46.9662565 59.3233208 47.1573551 59.3271532 47.3730401 59.332789 47.6171027 59.3384624 47.8612029 59.3498468 48.1336057 59.3573988 48.4382148 59.3631474 48.7428614 59.3687832 49.0815537 59.3725405 49.4561685 59.3725405 49.5791757 59.3744566 49.6756822 59.3706994 49.7456879 59.3631474 49.8157311 59.3554827 49.8685825 59.3347052 49.9045801 59.298711 49.9405401 59.2627168 49.9689553 59.2040289 49.989788 59.1225723 50.0049153 59.0714364 50.020005 58.999448 50.0351322 58.9047659 50.0503345 58.8100838 50.0654617 58.7078497 50.0786371 58.598026 50.0938394 58.486211 50.1032235 58.3820231 50.1126827 58.2855376 50.1221419 58.1870231 50.1259707 58.111315 50.1259707 58.0544306 50.1279226 57.9995751 50.1221419 57.9502803 50.110881 57.9029769 50.0995074 57.8555983 50.0730066 57.8309884 50.0351322 57.8271561 50.0030009 57.8271561 49.9784145 57.8385405 49.9613729 57.8631503 49.9462832 57.8859566 49.9329577 57.9237543 49.9215841 57.9748902 49.8894529 58.1719191 49.84028 58.3272052 49.7739904 58.4389075 49.7078135 58.5525636 49.6132214 58.6358237 49.4902141 58.6907919 49.40129 58.7287023 49.3010299 58.7552283 49.1875194 58.7740896 49.0758857 58.7911098 48.9623751 58.8025318 48.8507414 58.8081676 48.7372309 58.8139162 48.6368957 58.8158324 48.5480467 58.8158324 48.2093544 58.8176358 47.9444215 58.7968584 47.7496068 58.7533121 47.5546419 58.7097659 47.4146306 58.6282717 47.3294977 58.510896 47.2463167 58.3934451 47.2027743 58.2267746 47.1970312 58.0089682 47.1952295 57.9351387 47.1933151 57.8366243 47.1914007 57.7116965 47.1914007 57.5866561 47.1914007 57.4540636 47.1933151 57.3101994 47.1933151 57.166185 47.1952295 57.0298728 47.1952295 56.8991965 47.1970312 56.7704364 47.1970312 56.6624162 47.1970312 56.5772399L47.1970312 55.8045289C47.1970312 55.7760867 47.2008599 55.7515145 47.2084423 55.7325405 47.2159872 55.7136792 47.2310769 55.7022948 47.2538615 55.7022948 47.3068632 55.7022948 47.386328 55.7022948 47.4960474 55.704211 47.6038148 55.7061272 47.7249077 55.7079306 47.8612029 55.711763 47.9954712 55.7136792 48.1298895 55.7173988 48.262356 55.7212688 48.3947099 55.7249884 48.5120867 55.7288208 48.6123093 55.7344566 48.7126445 55.738289 48.7826501 55.7420087 48.8204119 55.7477572 48.9453336 55.7590665 49.0437544 55.7818353 49.1194281 55.8178671 49.1931499 55.8519451 49.2518946 55.8954913 49.2915707 55.9466272 49.3312844 55.9996416 49.359662 56.0583295 49.3767036 56.1227659 49.3880772 56.1851734 49.395622 56.2476936 49.3975739 56.3063815 49.40129 56.3669855 49.4070331 56.4238699 49.4107492 56.4749682 49.4107492 56.4976618 49.4164923 56.5166358 49.4316196 56.5317399 49.4447949 56.5469942 49.4675796 56.5545462 49.5016252 56.5545462 49.5318421 56.5526301 49.5545893 56.5412081 49.5678022 56.5166358 49.5828918 56.492026 49.5923886 56.4635838 49.5981317 56.4295058 49.6018478 56.3973439 49.6037622 56.3669855 49.6037622 56.3386561 49.6037622 56.3196821 49.6056765 56.285604 49.6075909 56.2363092 49.6093927 56.1851734 49.6132214 56.1264855 49.6188894 56.0621618 49.6227181 55.9958092 49.6264342 55.9295694 49.6321773 55.8632168 49.6378078 55.7988931 49.6434383 55.7402052 49.6491814 55.6909104 49.6681374 55.5299509 49.6832646 55.4011908 49.6946382 55.3045925 49.7058991 55.206078 49.7153959 55.1340896 49.7210264 55.0849075 49.7267694 55.0374913 49.7286838 55.0034133 49.7286838 54.9863555 49.7286838 54.958026 49.7210264 54.933341 49.7058991 54.9144798 49.6908094 54.8955434 49.6718535 54.8841214 49.6491814 54.8841214 49.6283486 54.8841214 49.6056765 54.8974595 49.5828918 54.9201156 49.5602573 54.9447254 49.528126 54.9731676 49.4902141 55.0091618 49.4447949 55.0583815 49.3842484 55.0924595 49.3066979 55.1133121 49.2310242 55.1322861 49.1326034 55.1473902 49.0134249 55.156896 48.9660913 55.1606156 48.8828727 55.164448 48.7656461 55.1681676 48.6501837 55.1700838 48.5158028 55.1739162 48.3664073 55.1739162 48.2149849 55.1758324 48.0636 55.1776358 47.9142045 55.1776358 47.7627821 55.1795896 47.6285139 55.1795896 47.5130514 55.1795896 47.3956746 55.1795896 47.3124936 55.1795896 47.2651225 55.1795896 47.23682 55.1795896 47.2198159 55.1681676 47.2103567 55.1493064 47.2008599 55.1303699 47.1970312 55.1057601 47.1970312 55.0773179L47.1970312 52.691104C47.1970312 52.6626618 47.2027743 52.6398931 47.2140728 52.6247514 47.2254464 52.6076936 47.242488 52.6001416 47.2651225 52.6001416 47.3086649 52.6001416 47.3844137 52.6001416 47.4903793 52.6020578 47.59627 52.603974 47.7192772 52.6057775 47.8554598 52.6096474 47.9936694 52.6115636 48.1298895 52.6152832 48.2660721 52.6191156 48.4022548 52.6228353 48.5215459 52.6266676 48.6236829 52.6323035 48.7258198 52.6361358 48.795863 52.6398931 48.831823 52.6456416 48.9964208 52.6607457 49.1213424 52.6853555 49.2064378 52.7194335 49.2934851 52.7517081 49.3559459 52.7933382 49.395622 52.8406416 49.4353357 52.8880202 49.4656652 52.9410723 49.4902141 52.9978439 49.5091701 53.0357543 49.5242973 53.0793006 49.5337565 53.1248006 49.5432157 53.1701503 49.5488462 53.2137341 49.5526749 53.2535607 49.5564286 53.2932746 49.5583429 53.3255491 49.5583429 53.350159 49.5583429 53.3898728 49.5621717 53.4202312 49.5734326 53.4429249 49.5828918 53.4637775 49.6056765 53.4750867 49.6378078 53.4750867 49.6643086 53.4732832 49.6851789 53.4637775 49.7002686 53.4429249 49.7153959 53.4239509 49.7267694 53.4012572 49.7343143 53.376685 49.7418591 53.3519624 49.7475272 53.331185 49.7513559 53.3160809 49.7569864 53.2857225 49.7627295 53.2421387 49.7683599 53.1834884 49.7739904 53.1248006 49.7797711 53.0603642 49.7834872 52.9941243 49.7892303 52.9259306 49.7929464 52.8634104 49.7967751 52.8065636 49.8024056 52.7497919 49.8062343 52.7062457 49.8080736 52.6797197 49.8157311 52.5339017 49.826992 52.4183295 49.8383656 52.3350694 49.8515785 52.251659 49.862952 52.1891387 49.8724488 52.1494249 49.881908 52.1077948 49.8875385 52.0755202 49.8875385 52.0547428 49.8875385 52.0301329 49.8838224 52.0092803 49.8743632 51.9922225 49.8648664 51.9732861 49.8478624 51.9637803 49.8194472 51.9637803 49.7967751 51.9656965 49.7721887 51.9713324 49.7437735 51.9827543 49.7173102 51.9941387 49.6888951 52.0016908 49.6604799 52.0092803 49.6188894 52.0149162 49.5621717 52.0243844 49.4882997 52.037685 49.414578 52.0489942 49.3331987 52.0584624 49.240521 52.0661272 49.2064378 52.0679682 49.1231442 52.0698844 48.9945064 52.0698844 48.8639543 52.0698844 48.7069014 52.0718006 48.5196315 52.0718006 48.3323617 52.0718006 48.1336057 52.0698844 47.9254655 52.0698844 47.7155236 52.0698844 47.5149658 52.0698844 47.3200385 52.0679682 47.1270255 52.0679682 46.9587117 52.0679682 46.8148341 52.0661272 46.6711066 52.0661272 46.5726858 52.0661272 46.5159681 52.0661272 46.4194616 52.0661272 46.2908238 52.064211 46.1318565 52.0603786 45.9728893 52.056659 45.8026235 52.0528266 45.6171554 52.0489942 45.4317999 52.0452746 45.2519998 52.0433584 45.0741892 52.0433584 45.0003548 52.0433584 44.9436371 52.0489942 44.9057627 52.0622948 44.8660865 52.0774364 44.8471306 52.1002052 44.8471306 52.1342832 44.8471306 52.1683988 44.8641722 52.1929711 44.8944642 52.2100289 44.9247186 52.2270491 44.9663091 52.2365549 45.0173588 52.2365549 45.0931451 52.2365549 45.1687813 52.2384711 45.2425406 52.2441069 45.3144606 52.2497428 45.3730927 52.2592486 45.4147958 52.2706329 45.5206489 52.2990751 45.6020657 52.3331532 45.6626121 52.3728671 45.7231586 52.4126936 45.7666635 52.4657457 45.7950786 52.5319855 45.8234938 52.5963092 45.8404978 52.6853555 45.8461659 52.7933382 45.8480802 52.852026 45.8499946 52.9164624 45.8517963 52.9827023 45.8537107 53.0489422 45.8537107 53.1304364 45.8556251 53.2232023 45.8556251 53.3178844 45.8575394 53.4334191 45.8575394 53.5736012 45.8575394 53.7137457 45.8575394 53.8860896 45.8575394 54.092474 45.8575394 54.298896 45.8575394 54.5470607 45.8575394 54.838659L45.8575394 56.5431243zM55.1777897 56.9181329C55.2005368 56.9181329 55.2212945 56.9219653 55.2383361 56.9313584 55.2553402 56.9408266 55.2686656 56.9578844 55.2799266 56.986289L56.0518658 58.9293757C56.0727361 58.9881387 56.0708217 59.0354422 56.050064 59.0752688 56.0273168 59.1150202 55.9970999 59.1376763 55.9611024 59.145341 55.911967 59.1510145 55.8779214 59.1623988 55.8607672 59.1794191 55.8437631 59.1964769 55.834379 59.2191705 55.8362183 59.2476127 55.8381326 59.2797746 55.8645959 59.3006272 55.9156832 59.3082168 55.9686848 59.317685 56.0406048 59.3233208 56.1313682 59.3271532 56.4133427 59.3347052 56.6781631 59.3403786 56.9241776 59.3422948 57.1701922 59.3461272 57.3895933 59.3479306 57.5826063 59.3479306 57.7756192 59.3498468 57.9307577 59.3498468 58.0498988 59.3498468 58.172906 59.3498468 58.2655838 59.3461272 58.3280446 59.3403786 58.3905054 59.3347052 58.4320959 59.325237 58.4529662 59.3101329 58.4737239 59.2948786 58.4831832 59.2741012 58.4813814 59.2476127 58.4813814 59.1794191 58.4359246 59.145341 58.3450862 59.145341 58.2883685 59.145341 58.2315381 59.1434249 58.1709917 59.1376763 58.1104452 59.1320405 58.0442683 59.1225723 57.9704339 59.111263 57.9250897 59.1017948 57.87404 59.0828208 57.8152953 59.0525 57.7566632 59.0222543 57.692288 58.972922 57.622395 58.9010462 57.550475 58.830974 57.4728869 58.7287023 57.3895933 58.5961098 57.3063748 58.4616012 57.2154988 58.287341 57.1191049 58.0714884 57.0263146 57.8594306 56.9185471 57.6056301 56.7897968 57.3101994 56.6630734 57.0147312 56.5268533 56.6927746 56.3792971 56.3462081 56.2317034 56.0014451 56.0802809 55.6473266 55.9270567 55.2856561 55.7719182 54.923948 55.6224476 54.5716329 55.4767683 54.2288988 55.3311265 53.8860896 55.1967081 53.5697688 55.0737383 53.2800867 54.9507311 52.9902919 54.8448405 52.7459595 54.7596325 52.5433699 54.6725852 52.3426214 54.6120388 52.2024769 54.5761914 52.1228988 54.5439475 52.0509104 54.5137306 51.9922225 54.4872298 51.9467601 54.4607289 51.9012601 54.4323138 51.8690983 54.4001825 51.8483208 54.369853 51.825552 54.3301768 51.8160838 54.2810039 51.8160838 54.231756 51.8141676 54.1825831 51.8444884 54.1371639 51.9070087 54.0917447 51.9676127 54.0406574 52.0661272 53.9858541 52.2024769L51.3747366 58.2817052C51.3085596 58.4445434 51.2404683 58.5866416 51.1704251 58.7040173 51.1004195 58.8233844 51.0152866 58.9199827 50.9168658 58.991896 50.8184449 59.0638844 50.6955503 59.111263 50.5460797 59.1339566 50.500623 59.1339566 50.4514876 59.1358728 50.398486 59.1395925 50.3473988 59.1434249 50.2981508 59.145341 50.2508923 59.145341 50.2111035 59.145341 50.182801 59.1566503 50.1638826 59.1755867 50.146841 59.1945607 50.1373818 59.2191705 50.1373818 59.2476127 50.1373818 59.2873266 50.1524715 59.3138526 50.1808866 59.3289566 50.2111035 59.344211 50.2565603 59.3498468 50.3190211 59.3498468 50.4949925 59.3498468 50.6652207 59.3461272 50.8279417 59.3403786 50.9925394 59.3347052 51.1306364 59.3308728 51.2480132 59.325237 51.3634381 59.3196012 51.4410261 59.3157688 51.4769861 59.3157688 51.5847536 59.3157688 51.7039321 59.3196012 51.8344842 59.325237 51.9632346 59.3308728 52.0937867 59.3347052 52.2261781 59.3403786 52.3567303 59.3461272 52.4778232 59.3498468 52.5894193 59.3498468 52.6406192 59.3498468 52.6802953 59.344211 52.7067961 59.3289566 52.7352113 59.3138526 52.7483866 59.2873266 52.7483866 59.2476127 52.750301 59.2191705 52.7408418 59.1945607 52.7218858 59.1755867 52.7011656 59.1566503 52.6613394 59.145341 52.6008304 59.145341L52.4532367 59.145341C52.3019269 59.145341 52.1978756 59.1206561 52.1391309 59.0733526 52.0804988 59.025974 52.053998 58.9578179 52.0559124 58.872604 52.0559124 58.8139162 52.0673235 58.7305058 52.0918724 58.624552 52.1145444 58.5184855 52.1524188 58.4029133 52.2035061 58.2817052L52.737013 56.986289C52.7464723 56.9578844 52.7578458 56.9408266 52.7692569 56.9313584 52.7805179 56.9219653 52.8013882 56.9181329 52.827889 56.9181329L55.1777897 56.9181329zM53.0321629 56.3840434C53.0151589 56.3840434 53.001946 56.3783699 52.9944012 56.3669855 52.9868563 56.3557139 52.9868563 56.3386561 52.9981173 56.3158497L53.9630694 53.8728642C53.9687374 53.8539277 53.9744805 53.8349538 53.9839397 53.8141012 53.9914845 53.7951272 54.0028957 53.7838179 54.0198997 53.7819017 54.0311982 53.7838179 54.0406574 53.7951272 54.0464005 53.8141012 54.0539454 53.8349538 54.0596134 53.8539277 54.0652439 53.8728642L55.0075239 56.3272717C55.0131919 56.3442919 55.0131919 56.3576301 55.0056095 56.3689017 54.999979 56.3783699 54.9847767 56.3840434 54.9621046 56.3840434L53.0321629 56.3840434zM60.1614798 56.5431243C60.1614798 56.8405087 60.1614798 57.1189191 60.1595655 57.3802717 60.1576511 57.6397081 60.1538224 57.8745347 60.1481919 58.0809566 60.1425239 58.2892572 60.1311503 58.4616012 60.1160606 58.5998295 60.1009334 58.7419277 60.0744326 58.8574624 60.0327295 58.9445925 59.991139 59.0317225 59.9210958 59.0884942 59.8208732 59.111263 59.7810844 59.1225723 59.7299972 59.1320405 59.6714026 59.1376763 59.6108562 59.1434249 59.5427273 59.145341 59.4688929 59.145341 59.4083465 59.1471821 59.3648416 59.1585665 59.3421696 59.1794191 59.3194975 59.2001965 59.3081239 59.2230029 59.3100383 59.2476127 59.3100383 59.2816908 59.3270799 59.3063006 59.3592111 59.3233208 59.3932568 59.3403786 59.4405904 59.3498468 59.5029386 59.3498468 59.6051882 59.3498468 59.7168219 59.3479306 59.8435452 59.344211 59.9684669 59.3403786 60.0932759 59.3366214 60.2201119 59.332789 60.3468353 59.3289566 60.4603458 59.325237 60.5644347 59.3214046 60.668486 59.317685 60.7499028 59.3157688 60.8084973 59.3157688 60.9050038 59.3157688 61.0375078 59.3196012 61.2058217 59.325237 61.3742482 59.3308728 61.5634324 59.3347052 61.773487 59.3403786 61.9835039 59.3461272 62.199189 59.3498468 62.4205045 59.3498468 62.4792492 59.3498468 62.5245933 59.3403786 62.5605533 59.3233208 62.594599 59.3063006 62.6135174 59.2816908 62.6135174 59.2476127 62.6135174 59.2230029 62.6021438 59.2001965 62.5775574 59.1794191 62.5510566 59.1585665 62.5113804 59.1471821 62.4545501 59.145341 62.4054148 59.145341 62.348697 59.1434249 62.2862362 59.1415087 62.2256898 59.1395925 62.1651433 59.1358728 62.1045969 59.1301243 62.0440504 59.1244884 61.9910863 59.1188526 61.9437152 59.111263 61.8472087 59.0960462 61.7715726 59.0658006 61.7204853 59.0222543 61.6675213 58.9786705 61.6296094 58.9217861 61.6069748 58.8517139 61.5843027 58.7835578 61.5672611 58.7021763 61.5578019 58.6112514 61.5425996 58.4691532 61.5313011 58.2950434 61.5237563 58.084789 61.5142971 57.8764509 61.508554 57.6416243 61.5048003 57.3802717 61.502886 57.1189191 61.5009716 56.8405087 61.5009716 56.5431243L61.5009716 52.6342197 62.7611111 52.6569133C63.0581754 52.6626618 63.290902 52.6929075 63.4611302 52.7497919 63.6314711 52.8065636 63.752564 52.8766358 63.824484 52.9600087 63.8982433 53.0433064 63.9361177 53.1285202 63.9417482 53.2137341L63.9531593 53.3160809C63.9587898 53.3879566 63.968249 53.4390925 63.9852906 53.4675347 64.0003803 53.4959393 64.0287955 53.5110809 64.0666698 53.5091647 64.0949724 53.5091647 64.1158427 53.4959393 64.1290181 53.4675347 64.1423435 53.4410087 64.1518027 53.4012572 64.1574332 53.350159 64.1574332 53.2857225 64.1593476 53.1985925 64.161262 53.0907225 64.1631763 52.9827023 64.1649781 52.8690838 64.1688068 52.7478757 64.1725605 52.6266676 64.1744748 52.5168815 64.1763892 52.4144971 64.1783035 52.3103468 64.1802179 52.2327225 64.1802179 52.1796705 64.1820197 52.1058786 64.1763892 52.0547428 64.1668924 52.0225809 64.1555189 51.9903064 64.1347611 51.9752023 64.1007155 51.9752023 64.0837114 51.9752023 64.0552963 51.9808382 64.0117539 51.9883902 63.968249 51.9978584 63.9077026 52.0092803 63.8282377 52.0206647 63.7562801 52.0319364 63.6636024 52.0433584 63.5520062 52.0509104 63.4403725 52.0603786 63.3059917 52.0661272 63.147137 52.0661272L59.0943533 52.0661272C58.9278411 52.0661272 58.7556985 52.0622948 58.581604 52.056659 58.407547 52.0489942 58.244751 52.037685 58.0953555 52.0206647 57.9723482 52.0016908 57.8796705 51.9771185 57.8152953 51.9505925 57.7509201 51.9240665 57.7017473 51.9089249 57.6638729 51.9070087 57.6355703 51.9070087 57.6128232 51.9221503 57.5938672 51.9505925 57.5768632 51.9808382 57.5617359 52.0263006 57.5503624 52.0888208 57.5446943 52.1058786 57.5352351 52.1531445 57.5201454 52.2251329 57.5031038 52.2990751 57.4860998 52.3861676 57.4652295 52.4884393 57.4444717 52.5906734 57.423639 52.6948237 57.404683 52.8009277 57.3839253 52.9069942 57.368723 53.0016763 57.3555101 53.0830578 57.3422222 53.1664306 57.3346773 53.2251185 57.3346773 53.2591965 57.3346773 53.3103324 57.3404204 53.350159 57.3555101 53.376685 57.368723 53.4031734 57.3915077 53.418315 57.4255533 53.418315 57.459599 53.418315 57.4841854 53.4069306 57.4992751 53.3861532 57.5163167 53.3633468 57.5296046 53.3331012 57.5390639 53.2932746 57.5503624 53.2572803 57.5673664 53.2118931 57.5938672 53.1531301 57.620368 53.0963584 57.6582424 53.031922 57.7093296 52.9637659 57.7566632 52.8917399 57.8190114 52.8350058 57.8967121 52.7933382 57.9742626 52.7517081 58.0744852 52.7213497 58.1994068 52.7023757 58.3242159 52.6816358 58.4831832 52.6721301 58.6742817 52.6682977L60.1614798 52.6342197 60.1614798 56.5431243z"/>
    <path fill="#FEFEFE" d="M32.2280933,3.07397399 C38.6324668,6.75113295 42.9463548,13.6623988 42.9463548,21.5824422 C42.9463548,29.502711 38.6324668,36.413789 32.2280933,40.0911358 C25.8237949,36.413789 21.5096066,29.502711 21.5096066,21.5824422 C21.5096066,13.6623988 25.8237949,6.75113295 32.2280933,3.07397399"/>
    <g transform="translate(21.396 3.006)">
      <mask id="7-f" fill="#fff">
        <use xlink:href="#7-e"/>
      </mask>
      <polygon fill="#BFBFBF" points="11.336 -1.013 11.336 38.166 10.329 38.166 10.329 -1.013" mask="url(#7-f)"/>
      <polygon fill="#BFBFBF" points="-.543 -5.378 11.177 6.728 10.457 7.429 -1.263 -4.678" mask="url(#7-f)"/>
      <polygon fill="#BFBFBF" points="-.543 2.879 11.191 15.001 10.472 15.701 -1.263 3.58" mask="url(#7-f)"/>
      <polygon fill="#BFBFBF" points="-.543 11.137 11.247 23.316 10.527 24.016 -1.263 11.838" mask="url(#7-f)"/>
      <polygon fill="#BFBFBF" points="-.543 19.395 11.171 31.496 10.452 32.196 -1.263 20.096" mask="url(#7-f)"/>
      <polygon fill="#BFBFBF" points="23.037 -4.678 11.317 7.429 10.597 6.728 22.318 -5.378" mask="url(#7-f)"/>
      <polygon fill="#BFBFBF" points="23.037 3.58 11.302 15.701 10.583 15.001 22.318 2.879" mask="url(#7-f)"/>
      <polygon fill="#BFBFBF" points="23.037 11.838 11.247 24.016 10.527 23.316 22.318 11.137" mask="url(#7-f)"/>
      <polygon fill="#BFBFBF" points="23.037 20.096 11.323 32.196 10.603 31.496 22.318 19.395" mask="url(#7-f)"/>
    </g>
    <path fill="#BFBFBF" d="M4.6852746,62.3841445 L4.6852746,63.1506561 L5.41498512,63.1506561 L5.41498512,63.3009451 L4.6852746,63.3009451 L4.6852746,64.142526 L5.57109963,64.142526 L5.57109963,64.292815 L4.5051367,64.292815 L4.5051367,62.2338555 L5.5501167,62.2338555 L5.5290587,62.3841445 L4.6852746,62.3841445 Z M7.91555746,63.9441069 C7.91555746,64.026315 7.92599262,64.0854538 7.94705062,64.121448 C7.96814616,64.1575549 8.00162876,64.1846069 8.04761104,64.202604 L8.00868564,64.3258035 C7.93654039,64.3098353 7.88098629,64.2818439 7.84194828,64.2416792 C7.80287273,64.2016272 7.77734788,64.142526 7.76544879,64.0643382 C7.65126261,64.238711 7.48812876,64.3258035 7.27585958,64.3258035 C7.12575091,64.3258035 7.00721049,64.2833092 6.92005062,64.1981329 C6.8330409,64.1129191 6.78938589,63.999263 6.78938589,63.8569769 C6.78938589,63.6926358 6.84696696,63.5664306 6.96209156,63.4782486 C7.07721615,63.3900665 7.23693417,63.3459942 7.441133,63.3459942 L7.74138787,63.3459942 L7.74138787,63.1957052 C7.74138787,63.0695 7.71331053,62.9777861 7.65734353,62.9207139 C7.60126393,62.8635289 7.50813575,62.834974 7.37803406,62.834974 C7.25787957,62.834974 7.11572865,62.8651069 6.95154379,62.925185 L6.90653746,62.7928931 C7.08273403,62.7228208 7.24789485,62.6876908 7.40205746,62.6876908 C7.74435325,62.6876908 7.91555746,62.8540231 7.91555746,63.1866503 L7.91555746,63.9441069 Z M7.30600143,64.1846069 C7.49815102,64.1846069 7.64326732,64.0904509 7.74138787,63.902026 L7.74138787,63.4752803 L7.46815932,63.4752803 C7.30791579,63.4752803 7.18584693,63.5062775 7.1018026,63.5683468 C7.01764565,63.6305665 6.97560471,63.7237457 6.97560471,63.847922 C6.97560471,63.9561301 7.004658,64.039315 7.06276458,64.0974769 C7.12072102,64.155526 7.20179996,64.1846069 7.30600143,64.1846069 Z M10.1757833,64.2266503 C10.0757484,64.292815 9.96561612,64.3258035 9.84549916,64.3258035 C9.7253822,64.3258035 9.63131561,64.2902601 9.56322431,64.219211 C9.495133,64.1480491 9.46116243,64.045289 9.46116243,63.9110809 L9.46116243,62.862026 L9.19686758,62.862026 L9.19686758,62.7207919 L9.46116243,62.7207919 L9.46116243,62.3450694 L9.63525694,62.3240665 L9.63525694,62.7207919 L10.0406517,62.7207919 L10.0196688,62.862026 L9.63525694,62.862026 L9.63525694,63.902026 C9.63525694,63.9942659 9.65428798,64.0628728 9.69238757,64.107922 C9.73037456,64.1530838 9.78848114,64.175552 9.86655716,64.175552 C9.94861206,64.175552 10.0286024,64.1515809 10.106716,64.1034509 L10.1757833,64.2266503 Z M11.3971851,64.292815 L11.3971851,62.7207919 L11.571242,62.7207919 L11.571242,64.292815 L11.3971851,64.292815 Z M11.4812294,62.0295 C11.5212433,62.0295 11.553262,62.0415231 11.577323,62.0654942 C11.6013463,62.0895405 11.6133956,62.1195983 11.6133956,62.1557052 C11.6133956,62.1918121 11.6013463,62.2218324 11.577323,62.2459162 C11.553262,62.2699624 11.5212433,62.2819104 11.4812294,62.2819104 C11.4431298,62.2819104 11.4121621,62.2699624 11.3881387,62.2459162 C11.3640778,62.2218324 11.3520661,62.1918121 11.3520661,62.1557052 C11.3520661,62.1195983 11.3640778,62.0895405 11.3881387,62.0654942 C11.4121621,62.0415231 11.4431298,62.0295 11.4812294,62.0295 Z M13.8135629,62.6876908 C13.9557514,62.6876908 14.0642695,62.7298468 14.1393802,62.8140087 C14.2144157,62.8981329 14.2519523,63.0163353 14.2519523,63.1686532 L14.2519523,64.292815 L14.0777827,64.292815 L14.0777827,63.192737 C14.0777827,63.0664191 14.0527833,62.9742919 14.0027471,62.9161301 C13.9526358,62.8580809 13.8785762,62.829 13.7804932,62.829 C13.6804583,62.829 13.5918345,62.856578 13.5148095,62.911659 C13.4376719,62.9667023 13.3641378,63.0474451 13.2940195,63.1536243 L13.2940195,64.292815 L13.119925,64.292815 L13.119925,62.7207919 L13.2700712,62.7207919 L13.2850858,62.9883439 C13.4272367,62.787896 13.6033207,62.6876908 13.8135629,62.6876908 Z M16.953758,62.7538179 C16.8576645,62.7798931 16.7125106,62.794922 16.5183341,62.7989798 C16.696445,62.883104 16.7855192,63.0253902 16.7855192,63.2257254 C16.7855192,63.3800723 16.7345446,63.5047746 16.6324076,63.5999827 C16.5303458,63.6951908 16.3921362,63.7427197 16.2180792,63.7427197 C16.1399656,63.7427197 16.0718743,63.7326879 16.0137678,63.7126618 C15.9757808,63.7347168 15.946202,63.7612428 15.9252566,63.7923526 C15.9041986,63.8234249 15.8937634,63.8569769 15.8937634,63.8929711 C15.8937634,64.0011792 15.9767567,64.0552832 16.1429686,64.0552832 L16.3982171,64.0552832 C16.5523797,64.0552832 16.6749741,64.0928931 16.7660378,64.1680751 C16.857139,64.2431821 16.9026708,64.3398931 16.9026708,64.4580954 C16.9026708,64.6024104 16.8456528,64.7135867 16.7314666,64.7917746 C16.617393,64.8699624 16.4472774,64.9090376 16.2210446,64.9090376 C15.9867414,64.9090376 15.8191783,64.8734566 15.7180924,64.8023324 C15.6168938,64.7311705 15.5663696,64.6164624 15.5663696,64.4580954 L15.7285275,64.4580954 C15.730517,64.5342543 15.7465826,64.5944075 15.7766118,64.6385173 C15.8066035,64.6825145 15.8566022,64.7145636 15.926758,64.7347023 C15.9967637,64.7546908 16.0948467,64.7647225 16.2210446,64.7647225 C16.3971285,64.7647225 16.5253534,64.7391734 16.6053813,64.6880376 C16.6854843,64.6369017 16.7254983,64.5633353 16.7254983,64.4671503 C16.7254983,64.383026 16.694418,64.3183642 16.6324076,64.273315 C16.5703597,64.2281532 16.4832374,64.205685 16.3711908,64.205685 L16.1159423,64.205685 C15.9917338,64.205685 15.8962033,64.1795723 15.829163,64.1274971 C15.7620101,64.075422 15.7285275,64.0092948 15.7285275,63.929078 C15.7285275,63.8770029 15.7435046,63.827896 15.7736089,63.7817948 C15.8036382,63.7357688 15.8456791,63.6956416 15.8997317,63.6615636 C15.8096065,63.6155376 15.7430917,63.5564364 15.6999997,63.4842225 C15.6570204,63.4121214 15.6353993,63.3239393 15.6353993,63.219789 C15.6353993,63.0613844 15.6885136,62.9331879 15.7945918,62.834974 C15.9006701,62.7367601 16.0398557,62.6876908 16.2119983,62.6876908 C16.4021584,62.6897197 16.5407809,62.6826561 16.6279408,62.6666879 C16.714988,62.6506069 16.8056388,62.6235549 16.8997054,62.5855318 L16.953758,62.7538179 Z M16.2119983,62.8229509 C16.0818591,62.8229509 15.9832505,62.8590578 15.9162103,62.931159 C15.84917,63.0033728 15.8156499,63.0995202 15.8156499,63.219789 C15.8156499,63.3439653 15.851197,63.4412023 15.9222537,63.5112746 C15.9933479,63.5814595 16.0898543,63.6165145 16.2119983,63.6165145 C16.3401105,63.6165145 16.4382311,63.5818728 16.5063224,63.5127775 C16.5744137,63.4436445 16.6083467,63.3469335 16.6083467,63.2227572 C16.6083467,63.096552 16.5748266,62.9983382 16.5078238,62.9281532 C16.4407836,62.8580809 16.3421375,62.8229509 16.2119983,62.8229509 Z M19.0609473,64.292815 L19.0609473,62.2338555 L19.2410852,62.2338555 L19.2410852,64.292815 L19.0609473,64.292815 Z M21.4984207,62.6876908 C21.6405716,62.6876908 21.7490898,62.7298468 21.824238,62.8140087 C21.899236,62.8981329 21.9368101,63.0163353 21.9368101,63.1686532 L21.9368101,64.292815 L21.762603,64.292815 L21.762603,63.192737 C21.762603,63.0664191 21.7376036,62.9742919 21.6876049,62.9161301 C21.6374936,62.8580809 21.563434,62.829 21.4653135,62.829 C21.3653161,62.829 21.2766923,62.856578 21.1996298,62.911659 C21.1224922,62.9667023 21.0489581,63.0474451 20.9788398,63.1536243 L20.9788398,64.292815 L20.8047828,64.292815 L20.8047828,62.7207919 L20.954929,62.7207919 L20.9699061,62.9883439 C21.112057,62.787896 21.2881785,62.6876908 21.4984207,62.6876908 Z M24.1850993,64.2266503 C24.0850644,64.292815 23.9749321,64.3258035 23.8548152,64.3258035 C23.7346982,64.3258035 23.6406316,64.2902601 23.5725403,64.219211 C23.5044115,64.1480491 23.4704784,64.045289 23.4704784,63.9110809 L23.4704784,62.862026 L23.2061836,62.862026 L23.2061836,62.7207919 L23.4704784,62.7207919 L23.4704784,62.3450694 L23.644573,62.3240665 L23.644573,62.7207919 L24.0499677,62.7207919 L24.0289848,62.862026 L23.644573,62.862026 L23.644573,63.902026 C23.644573,63.9942659 23.663604,64.0628728 23.7017036,64.107922 C23.7396906,64.1530838 23.7977971,64.175552 23.8758732,64.175552 C23.9579281,64.175552 24.0379185,64.1515809 24.116032,64.1034509 L24.1850993,64.2266503 Z M26.5205108,63.4482283 C26.5205108,63.4923006 26.5184838,63.5343815 26.5144674,63.5744335 L25.4664845,63.5744335 C25.4765067,63.7788266 25.5250039,63.9305809 25.6121638,64.0298468 C25.6992111,64.129 25.8138102,64.1786329 25.9559611,64.1786329 C26.038091,64.1786329 26.1106492,64.1660462 26.1736355,64.1410231 C26.2367345,64.116 26.3052762,64.0763988 26.3793358,64.0222948 L26.4604148,64.1334711 C26.3824138,64.1975694 26.3022733,64.245737 26.2202559,64.2777861 C26.138126,64.3098353 26.0470247,64.3258035 25.9469148,64.3258035 C25.7387746,64.3258035 25.5755657,64.2547919 25.4574382,64.1125058 C25.3393482,63.9701821 25.2803032,63.7728526 25.2803032,63.5203295 C25.2803032,63.3539595 25.305828,63.2082543 25.3569153,63.083026 C25.407965,62.9577601 25.4809736,62.8605231 25.5760912,62.7914277 C25.6712088,62.7222948 25.7817539,62.6876908 25.9079518,62.6876908 C26.1080967,62.6876908 26.2602699,62.7553208 26.3643212,62.8905809 C26.4684851,63.025841 26.5205108,63.2116734 26.5205108,63.4482283 Z M26.3493066,63.3941243 C26.3493066,63.2177601 26.3128211,63.0799451 26.2397374,62.9807919 C26.1666162,62.8816387 26.058098,62.8320058 25.9139201,62.8320058 C25.7858079,62.8320058 25.6812311,62.882052 25.6001521,62.9822572 C25.5190732,63.0825 25.4735038,63.2347803 25.4635191,63.4391734 L26.3493066,63.4391734 L26.3493066,63.3941243 Z M28.093067,64.0222948 C28.093067,64.0743699 28.1030517,64.1129191 28.1231713,64.1380549 C28.1431783,64.163078 28.1761354,64.175552 28.2222303,64.175552 C28.2622442,64.175552 28.2972283,64.168526 28.3273326,64.1545491 L28.3753418,64.2837601 C28.3132939,64.3118642 28.2512836,64.3258035 28.189123,64.3258035 C28.1030517,64.3258035 28.036537,64.3007803 27.9895037,64.2507341 C27.9423953,64.2006879 27.9188599,64.1245289 27.9188599,64.0222948 L27.9188599,62.0805983 L28.093067,62.0595202 L28.093067,64.0222948 Z M29.8578479,64.0222948 C29.8578479,64.0743699 29.8678326,64.1129191 29.8879522,64.1380549 C29.9079592,64.163078 29.9409538,64.175552 29.9870111,64.175552 C30.0270251,64.175552 30.0620467,64.168526 30.092151,64.1545491 L30.1401227,64.2837601 C30.0781124,64.3118642 30.0160644,64.3258035 29.9539414,64.3258035 C29.8678326,64.3258035 29.8013554,64.3007803 29.7543221,64.2507341 C29.7071762,64.2006879 29.6836783,64.1245289 29.6836783,64.0222948 L29.6836783,62.0805983 L29.8578479,62.0595202 L29.8578479,64.0222948 Z M31.4635864,64.292815 L31.4635864,62.7207919 L31.6376434,62.7207919 L31.6376434,64.292815 L31.4635864,64.292815 Z M31.5476307,62.0295 C31.5876447,62.0295 31.6196634,62.0415231 31.6437243,62.0654942 C31.6677477,62.0895405 31.6797969,62.1195983 31.6797969,62.1557052 C31.6797969,62.1918121 31.6677477,62.2218324 31.6437243,62.2459162 C31.6196634,62.2699624 31.5876447,62.2819104 31.5476307,62.2819104 C31.5095311,62.2819104 31.4785635,62.2699624 31.4545401,62.2459162 C31.4304792,62.2218324 31.4184675,62.1918121 31.4184675,62.1557052 C31.4184675,62.1195983 31.4304792,62.0895405 31.4545401,62.0654942 C31.4785635,62.0415231 31.5095311,62.0295 31.5476307,62.0295 Z M34.3544262,62.7538179 C34.2583327,62.7798931 34.1132164,62.794922 33.9190398,62.7989798 C34.0971507,62.883104 34.186225,63.0253902 34.186225,63.2257254 C34.186225,63.3800723 34.1352503,63.5047746 34.0331134,63.5999827 C33.9310515,63.6951908 33.7928419,63.7427197 33.6187474,63.7427197 C33.5406714,63.7427197 33.4725801,63.7326879 33.4144735,63.7126618 C33.3764865,63.7347168 33.3469077,63.7612428 33.3259248,63.7923526 C33.3048668,63.8234249 33.2944316,63.8569769 33.2944316,63.8929711 C33.2944316,64.0011792 33.3774249,64.0552832 33.5436368,64.0552832 L33.7988853,64.0552832 C33.9530855,64.0552832 34.0756423,64.0928931 34.1667435,64.1680751 C34.2578072,64.2431821 34.3033765,64.3398931 34.3033765,64.4580954 C34.3033765,64.6024104 34.246321,64.7135867 34.1321723,64.7917746 C34.0180988,64.8699624 33.8479456,64.9090376 33.6217503,64.9090376 C33.3874472,64.9090376 33.2198465,64.8734566 33.1187606,64.8023324 C33.0175996,64.7311705 32.9670378,64.6164624 32.9670378,64.4580954 L33.1291957,64.4580954 C33.1312227,64.5342543 33.1472883,64.5944075 33.17728,64.6385173 C33.2073093,64.6825145 33.257308,64.7145636 33.3274262,64.7347023 C33.3974319,64.7546908 33.4955524,64.7647225 33.6217503,64.7647225 C33.7978343,64.7647225 33.9260591,64.7391734 34.0060871,64.6880376 C34.0861901,64.6369017 34.126204,64.5633353 34.126204,64.4671503 C34.126204,64.383026 34.0951238,64.3183642 34.0331134,64.273315 C33.9710655,64.2281532 33.8839056,64.205685 33.771859,64.205685 L33.5166105,64.205685 C33.3924395,64.205685 33.296909,64.1795723 33.2298688,64.1274971 C33.1627159,64.075422 33.1291957,64.0092948 33.1291957,63.929078 C33.1291957,63.8770029 33.1442103,63.827896 33.1743147,63.7817948 C33.2043064,63.7357688 33.2463473,63.6956416 33.3003999,63.6615636 C33.2102747,63.6155376 33.1437974,63.5564364 33.1007055,63.4842225 C33.0576886,63.4121214 33.0361051,63.3239393 33.0361051,63.219789 C33.0361051,63.0613844 33.0891818,62.9331879 33.1952976,62.834974 C33.3013759,62.7367601 33.4405239,62.6876908 33.612704,62.6876908 C33.8028266,62.6897197 33.9414867,62.6826561 34.028609,62.6666879 C34.1156563,62.6506069 34.206307,62.6235549 34.3003736,62.5855318 L34.3544262,62.7538179 Z M33.612704,62.8229509 C33.4825648,62.8229509 33.3839188,62.8590578 33.316916,62.931159 C33.2498757,63.0033728 33.2163556,63.0995202 33.2163556,63.219789 C33.2163556,63.3439653 33.2519027,63.4412023 33.3229594,63.5112746 C33.3940536,63.5814595 33.4905601,63.6165145 33.612704,63.6165145 C33.7408163,63.6165145 33.8388993,63.5818728 33.9069906,63.5127775 C33.9751194,63.4436445 34.0090524,63.3469335 34.0090524,63.2227572 C34.0090524,63.096552 33.9755323,62.9983382 33.908492,62.9281532 C33.8414518,62.8580809 33.7428432,62.8229509 33.612704,62.8229509 Z M36.7228699,63.4482283 C36.7228699,63.4923006 36.7208429,63.5343815 36.716789,63.5744335 L35.6688436,63.5744335 C35.6788283,63.7788266 35.7273631,63.9305809 35.8144854,64.0298468 C35.9015327,64.129 36.0161318,64.1786329 36.1582827,64.1786329 C36.2404126,64.1786329 36.3129708,64.1660462 36.3759947,64.1410231 C36.4390936,64.116 36.5075978,64.0763988 36.5816574,64.0222948 L36.6627364,64.1334711 C36.5847354,64.1975694 36.5046324,64.245737 36.4225775,64.2777861 C36.3404476,64.3098353 36.2493463,64.3258035 36.1492364,64.3258035 C35.9410962,64.3258035 35.7778873,64.2547919 35.6597973,64.1125058 C35.5416698,63.9701821 35.4826248,63.7728526 35.4826248,63.5203295 C35.4826248,63.3539595 35.5081496,63.2082543 35.5592369,63.083026 C35.6102866,62.9577601 35.6832952,62.8605231 35.7784128,62.7914277 C35.8735304,62.7222948 35.9841131,62.6876908 36.1102734,62.6876908 C36.3104183,62.6876908 36.4625915,62.7553208 36.5666428,62.8905809 C36.6708067,63.025841 36.7228699,63.2116734 36.7228699,63.4482283 Z M36.5516657,63.3941243 C36.5516657,63.2177601 36.5151427,63.0799451 36.442059,62.9807919 C36.3689378,62.8816387 36.2604196,62.8320058 36.1162417,62.8320058 C35.9881295,62.8320058 35.8835527,62.882052 35.8024737,62.9822572 C35.7213948,63.0825 35.6758629,63.2347803 35.6658407,63.4391734 L36.5516657,63.4391734 L36.5516657,63.3941243 Z M38.8299466,62.6876908 C38.9720975,62.6876908 39.0806157,62.7298468 39.1557639,62.8140087 C39.2307619,62.8981329 39.268336,63.0163353 39.268336,63.1686532 L39.268336,64.292815 L39.0941288,64.292815 L39.0941288,63.192737 C39.0941288,63.0664191 39.0691295,62.9742919 39.0191308,62.9161301 C38.9690195,62.8580809 38.8949599,62.829 38.7968394,62.829 C38.696842,62.829 38.6082182,62.856578 38.5311557,62.911659 C38.4540181,62.9667023 38.380484,63.0474451 38.3103657,63.1536243 L38.3103657,64.292815 L38.1363087,64.292815 L38.1363087,62.7207919 L38.2864549,62.7207919 L38.301432,62.9883439 C38.4435829,62.787896 38.6197044,62.6876908 38.8299466,62.6876908 Z M41.5166251,64.2266503 C41.4165902,64.292815 41.306458,64.3258035 41.186341,64.3258035 C41.0662241,64.3258035 40.9721575,64.2902601 40.9040662,64.219211 C40.8359749,64.1480491 40.8020043,64.045289 40.8020043,63.9110809 L40.8020043,62.862026 L40.5377095,62.862026 L40.5377095,62.7207919 L40.8020043,62.7207919 L40.8020043,62.3450694 L40.9760988,62.3240665 L40.9760988,62.7207919 L41.3814936,62.7207919 L41.3605106,62.862026 L40.9760988,62.862026 L40.9760988,63.902026 C40.9760988,63.9942659 40.9951299,64.0628728 41.0332295,64.107922 C41.0712164,64.1530838 41.129323,64.175552 41.207399,64.175552 C41.2894539,64.175552 41.3694443,64.1515809 41.4475579,64.1034509 L41.5166251,64.2266503 Z M42.8971068,64.0222948 C42.8971068,64.0743699 42.9070916,64.1129191 42.9272111,64.1380549 C42.9472181,64.163078 42.9801752,64.175552 43.0262701,64.175552 C43.0662841,64.175552 43.1012681,64.168526 43.1313724,64.1545491 L43.1793817,64.2837601 C43.1173338,64.3118642 43.0553234,64.3258035 42.9931629,64.3258035 C42.9070916,64.3258035 42.8405768,64.3007803 42.7935435,64.2507341 C42.7464351,64.2006879 42.7228997,64.1245289 42.7228997,64.0222948 L42.7228997,62.0805983 L42.8971068,62.0595202 L42.8971068,64.0222948 Z M45.0042961,64.2987514 C44.9621426,64.4210491 44.9161978,64.5212543 44.8660865,64.5994422 C44.8160503,64.6774798 44.751037,64.7421416 44.670934,64.7932775 C44.5907935,64.8443757 44.4877181,64.8819855 44.3616329,64.9059566 L44.3436529,64.7706965 C44.4477042,64.7446965 44.5293086,64.7126474 44.5883536,64.6745116 C44.6473986,64.6364884 44.6944319,64.5888844 44.7294535,64.5318121 C44.7645502,64.4745896 44.8000973,64.3950491 44.8360573,64.292815 L44.7760739,64.292815 L44.2294667,62.7207919 L44.4186509,62.7207919 L44.8931129,64.1634913 L45.3586036,62.7207919 L45.5417444,62.7207919 L45.0042961,64.2987514 Z M47.65798,64.292815 L47.65798,62.7207919 L47.832037,62.7207919 L47.832037,64.292815 L47.65798,64.292815 Z M47.7420244,62.0295 C47.7820383,62.0295 47.814057,62.0415231 47.8381179,62.0654942 C47.8621789,62.0895405 47.8741906,62.1195983 47.8741906,62.1557052 C47.8741906,62.1918121 47.8621789,62.2218324 47.8381179,62.2459162 C47.814057,62.2699624 47.7820383,62.2819104 47.7420244,62.2819104 C47.7039248,62.2819104 47.6729947,62.2699624 47.6489337,62.2459162 C47.6248728,62.2218324 47.6128611,62.1918121 47.6128611,62.1557052 C47.6128611,62.1195983 47.6248728,62.0895405 47.6489337,62.0654942 C47.6729947,62.0415231 47.7039248,62.0295 47.7420244,62.0295 Z M49.7650567,62.6876908 C49.8631773,62.6876908 49.9522515,62.7022688 50.0323545,62.7313497 C50.1123824,62.7603179 50.1904584,62.8039769 50.266545,62.862026 L50.1825007,62.979289 C50.1123824,62.9272139 50.0458677,62.889604 49.9827687,62.8666098 C49.9196698,62.8435029 49.8491386,62.8320058 49.771025,62.8320058 C49.6669737,62.8320058 49.5828918,62.856052 49.5188545,62.9041069 C49.4548171,62.952237 49.4227609,63.0163353 49.4227609,63.096552 C49.4227609,63.172711 49.4502377,63.2318121 49.5053413,63.2738931 C49.5603699,63.3159364 49.6599544,63.3559884 49.8041323,63.3941243 C49.9822432,63.4401127 50.110881,63.4982746 50.1899329,63.5683468 C50.2690975,63.6385318 50.308586,63.7387746 50.308586,63.8690376 C50.308586,64.0092948 50.2545333,64.1204711 50.1464281,64.202604 C50.0383228,64.2848121 49.9031912,64.3258035 49.7410333,64.3258035 C49.6208788,64.3258035 49.5158891,64.3083324 49.4257639,64.273315 C49.3356386,64.2381474 49.2535837,64.1886272 49.1795241,64.1245289 L49.278583,64.0102341 C49.3467119,64.0663671 49.4172431,64.108448 49.4903267,64.1364393 C49.5633353,64.1645809 49.6459157,64.1786329 49.7380304,64.1786329 C49.854131,64.1786329 49.9477471,64.1519942 50.0188413,64.0989798 C50.0899356,64.045815 50.1254451,63.9731879 50.1254451,63.8810607 C50.1254451,63.8149335 50.1134334,63.7617688 50.0893725,63.7217168 C50.0653491,63.6816647 50.0242841,63.6475867 49.9662902,63.6194827 C49.9081836,63.5914538 49.8231633,63.5614335 49.7110041,63.5293844 C49.5448298,63.4852746 49.4252383,63.4297052 49.3521171,63.3624884 C49.2791461,63.2953844 49.2425104,63.2066763 49.2425104,63.096552 C49.2425104,63.0183642 49.2656329,62.9481792 49.3115777,62.8861098 C49.3576726,62.8240029 49.4202084,62.775422 49.4992604,62.7402919 C49.5783499,62.705237 49.6669737,62.6876908 49.7650567,62.6876908 Z M53.4997933,63.9441069 C53.4997933,64.026315 53.5102284,64.0854538 53.5312864,64.121448 C53.552382,64.1575549 53.5859021,64.1846069 53.6318469,64.202604 L53.5929215,64.3258035 C53.5207762,64.3098353 53.4652221,64.2818439 53.4261841,64.2416792 C53.3871461,64.2016272 53.3615837,64.142526 53.3496846,64.0643382 C53.2354984,64.238711 53.0724021,64.3258035 52.8601329,64.3258035 C52.7099867,64.3258035 52.5914463,64.2833092 52.5042864,64.1981329 C52.4172767,64.1129191 52.3736592,63.999263 52.3736592,63.8569769 C52.3736592,63.6926358 52.4312028,63.5664306 52.5463274,63.4782486 C52.661452,63.3900665 52.82117,63.3459942 53.0253688,63.3459942 L53.3256237,63.3459942 L53.3256237,63.1957052 C53.3256237,63.0695 53.2975463,62.9777861 53.2415793,62.9207139 C53.1854997,62.8635289 53.0924091,62.834974 52.9622699,62.834974 C52.8421154,62.834974 52.6999645,62.8651069 52.5358171,62.925185 L52.4907733,62.7928931 C52.6670074,62.7228208 52.8321307,62.6876908 52.9862933,62.6876908 C53.3285891,62.6876908 53.4997933,62.8540231 53.4997933,63.1866503 L53.4997933,63.9441069 Z M52.8902372,64.1846069 C53.0823868,64.1846069 53.2275407,64.0904509 53.3256237,63.902026 L53.3256237,63.4752803 L53.0523951,63.4752803 C52.8921516,63.4752803 52.7700827,63.5062775 52.6860384,63.5683468 C52.6018815,63.6305665 52.5598405,63.7237457 52.5598405,63.847922 C52.5598405,63.9561301 52.5888938,64.039315 52.6470004,64.0974769 C52.7049944,64.155526 52.7860733,64.1846069 52.8902372,64.1846069 Z M55.7390737,62.6876908 C55.8812246,62.6876908 55.9897428,62.7298468 56.0648534,62.8140087 C56.139889,62.8981329 56.1774255,63.0163353 56.1774255,63.1686532 L56.1774255,64.292815 L56.0032559,64.292815 L56.0032559,63.192737 C56.0032559,63.0664191 55.9782566,62.9742919 55.9282579,62.9161301 C55.8781091,62.8580809 55.804087,62.829 55.7059664,62.829 C55.6059315,62.829 55.5173077,62.856578 55.4402827,62.911659 C55.3631451,62.9667023 55.289611,63.0474451 55.2194928,63.1536243 L55.2194928,64.292815 L55.0454358,64.292815 L55.0454358,62.7207919 L55.1955444,62.7207919 L55.2105591,62.9883439 C55.35271,62.787896 55.5287939,62.6876908 55.7390737,62.6876908 Z M58.6419252,63.730659 L58.4617873,64.292815 L58.278684,64.292815 L58.966241,62.2338555 L59.1914978,62.2338555 L59.876202,64.292815 L59.6870178,64.292815 L59.5067673,63.730659 L58.6419252,63.730659 Z M59.0774618,62.3811763 L58.6900471,63.5774017 L59.4587956,63.5774017 L59.0774618,62.3811763 Z M61.7671057,62.6876908 C61.8291161,62.6876908 61.8811418,62.6937399 61.9231827,62.7058006 L61.8901881,62.8710809 C61.8461577,62.8590578 61.8000628,62.8530838 61.7519785,62.8530838 C61.6438732,62.8530838 61.557389,62.892159 61.4922631,62.9702341 C61.4272498,63.048422 61.3737227,63.1706821 61.3316067,63.3369393 L61.3316067,64.292815 L61.1575122,64.292815 L61.1575122,62.7207919 L61.3076584,62.7207919 L61.3226355,63.0724682 C61.3646764,62.9422052 61.4222575,62.8455318 61.4953411,62.7823728 C61.5683497,62.7193266 61.6590005,62.6876908 61.7671057,62.6876908 Z M63.9042117,64.2266503 C63.8041768,64.292815 63.6940445,64.3258035 63.5739276,64.3258035 C63.4538106,64.3258035 63.359744,64.2902601 63.2916527,64.219211 C63.2235239,64.1480491 63.1895908,64.045289 63.1895908,63.9110809 L63.1895908,62.862026 L62.925296,62.862026 L62.925296,62.7207919 L63.1895908,62.7207919 L63.1895908,62.3450694 L63.3636853,62.3240665 L63.3636853,62.7207919 L63.7690801,62.7207919 L63.7480971,62.862026 L63.3636853,62.862026 L63.3636853,63.902026 C63.3636853,63.9942659 63.3827164,64.0628728 63.420816,64.107922 C63.458803,64.1530838 63.516872,64.175552 63.5949856,64.175552 C63.6770405,64.175552 63.7570308,64.1515809 63.8351444,64.1034509 L63.9042117,64.2266503 Z"/>
  </g>
</svg>
