<?xml version="1.0" encoding="UTF-8"?>
<svg width="170px" height="65px" viewBox="0 0 170 65" version="1.1" xmlns="http://www.w3.org/2000/svg" xmlns:xlink="http://www.w3.org/1999/xlink">
    <!-- Generator: Sketch 53 (72520) - https://sketchapp.com -->
    <title>8</title>
    <desc>Created with Sketch.</desc>
    <g id="8" stroke="none" stroke-width="1" fill="none" fill-rule="evenodd">
        <g id="Group-20" transform="translate(50.000000, 7.000000)" fill="#B3B3B3">
            <g id="Group-38">
                <path d="M-2.55795385e-13,17.4894449 L37.0269929,17.4894449 L37.0269929,16.100556 L-2.55795385e-13,16.100556 L-2.55795385e-13,13.8580875 L37.0269929,13.8580875 L37.0269929,12.4691986 L-2.55795385e-13,12.4691986 L-2.55795385e-13,10.2266848 L37.0269929,10.2266848 L37.0269929,8.83779586 L-2.55795385e-13,8.83779586 L-2.55795385e-13,6.59519119 L37.0269929,6.59519119 L37.0269929,5.2063023 L-2.55795385e-13,5.2063023 L-2.55795385e-13,-4.26325641e-14 L37.2401737,-4.26325641e-14 C40.2498784,-4.26325641e-14 42.6900645,2.43897569 42.6900645,5.4471875 L42.6900645,17.2492014 C42.6900645,20.2572743 40.2498784,22.69625 37.2401737,22.69625 L-2.55795385e-13,22.69625 L-2.55795385e-13,17.4894449 Z M-2.55795385e-13,44.7250111 L37.0269929,44.7250111 L37.0269929,43.3361223 L-2.55795385e-13,43.3361223 L-2.55795385e-13,41.0936084 L37.0269929,41.0936084 L37.0269929,39.7047195 L-2.55795385e-13,39.7047195 L-2.55795385e-13,37.4621148 L37.0269929,37.4621148 L37.0269929,36.0732259 L-2.55795385e-13,36.0732259 L-2.55795385e-13,33.8307574 L37.0269929,33.8307574 L37.0269929,32.4418685 L-2.55795385e-13,32.4418685 L-2.55795385e-13,27.2355208 L37.2401737,27.2355208 C40.2498784,27.2355208 42.6900645,29.6744965 42.6900645,32.6825694 L42.6900645,44.4847396 C42.6900645,47.4928125 40.2498784,49.9317882 37.2401737,49.9317882 L-2.55795385e-13,49.9317882 L-2.55795385e-13,44.7250111 Z" id="Combined-Shape"></path>
                <path d="M58.1885856,0.729076226 L58.1885856,11.5070492 C57.2810106,11.8042895 56.6253102,12.6578417 56.6253102,13.6643229 C56.6253102,14.9175694 57.6422035,15.9339583 58.896072,15.9339583 C60.1499404,15.9339583 61.1668337,14.9175694 61.1668337,13.6643229 C61.1668337,12.6484784 60.4988766,11.7884215 59.5781638,11.4988983 L59.5781638,0.849175023 L69.9530323,13.5542188 L65.411665,22.6326042 L51.7870943,22.6326042 L47.7667494,13.5542187 L58.1885856,0.729076226 Z" id="Combined-Shape"></path>
                <polygon id="Fill-5-Copy" points="47.5789826 49.9317882 51.7730248 27.2355208 65.3975955 27.2355208 69.9389628 49.9317882"></polygon>
            </g>
        </g>
    </g>
</svg>