<svg xmlns="http://www.w3.org/2000/svg" width="52" height="52" viewBox="0 0 52 52">
  <path stroke="#FFF" stroke-width=".833" d="M15.5339608,15.3576804 L7.43727124,15.3576804 C6.85207353,15.3576804 6.37704575,15.8164948 6.37704575,16.3815464 L6.37704575,23.5606701 C6.37704575,24.1259536 6.85207353,24.5845361 7.43727124,24.5845361 L14.6073644,24.5845361 L14.9222614,24.5866237 L15.1480458,24.5834536 C17.9299967,24.523067 19.5256193,22.8777062 19.5256193,20.0694588 C19.5266601,16.342732 16.9174902,15.3576804 15.5339608,15.3576804 Z M15.1045703,22.5369588 L8.49749673,22.5369588 L8.49749673,17.4054124 L15.5318791,17.4054124 C15.8446144,17.4105155 17.4052484,17.565 17.4052484,20.0703866 C17.4062092,22.1948969 16.2983448,22.5122938 15.1045703,22.5369588 Z M7.43727124,13.2650258 L15.0325114,13.2650258 C17.4073301,13.2650258 18.5619526,11.8828608 18.5619526,9.04167526 C18.5619526,6.02141753 16.5815359,5.22378866 15.5340408,5.22378866 L7.43727124,5.22378866 C6.85207353,5.22378866 6.37704575,5.68244845 6.37704575,6.24765464 L6.37704575,12.2411598 C6.37704575,12.8073711 6.85207353,13.2650258 7.43727124,13.2650258 Z M8.49741667,7.27152062 L15.5338807,7.27152062 C15.5434886,7.27152062 16.4414216,7.29092784 16.4414216,9.04175258 C16.4414216,11.2173711 15.7883284,11.2173711 15.0324314,11.2173711 L8.49741667,11.2173711 L8.49741667,7.27152062 Z M22.3350327,13.5138402 C23.5055082,12.5780412 24.4650114,11.0372165 24.4650114,8.625 C24.4650114,3.65729381 20.9589493,0.448608247 15.5339608,0.448608247 L1.06022549,0.448608247 C0.474947712,0.448685567 0,0.907345361 0,1.47247423 L0,28.3328351 C0,28.8979639 0.474947712,29.3565464 1.06022549,29.3565464 L15.5000931,29.3565464 C15.5117827,29.3565464 15.6209118,29.358634 15.6315605,29.358634 L15.6315605,29.358634 C16.2888971,29.358634 18.6075098,29.2716495 20.8445359,28.1657474 C22.9363235,27.1317526 25.4288382,24.9449227 25.4266765,20.4635567 C25.4350833,20.3078351 25.6217958,16.6170619 23.4271242,14.3747938 C23.097335,14.0359794 22.7326373,13.7492784 22.3350327,13.5138402 Z M23.3094281,20.4062629 C23.3094281,23.2198454 22.1559265,25.2173196 19.8796683,26.3424742 C18.0179886,27.2639691 16.0152337,27.3100515 15.6325212,27.3100515 L15.6325212,27.3100515 L15.5339608,27.3089691 L2.12037092,27.3089691 L2.12037092,2.49634021 L15.5338807,2.49634021 C19.7990425,2.49634021 22.3445605,4.78762887 22.3445605,8.625 C22.3445605,12.3251289 19.4077631,12.6875258 19.0812565,12.7162113 C18.5119118,12.7571907 18.0793987,13.2250515 18.1005359,13.7748711 C18.1217533,14.3256959 18.5903758,14.7608505 19.1607614,14.7608505 C20.3205882,14.7608505 21.2111552,15.0926289 21.8833039,15.7755155 C23.4504232,17.3705412 23.3125507,20.3212113 23.3094281,20.4062629 Z M48.913049,19.1203608 C48.9458758,18.8798196 49.6731895,13.1657474 46.2625654,9.41234536 C44.3881552,7.3503866 41.6687353,6.3039433 38.1796471,6.3039433 C32.1131748,6.3039433 29.2284199,9.41845361 27.8766765,12.0303093 C26.446469,14.7957216 26.4326977,17.5333763 26.4347794,17.583634 C26.4198873,17.8087887 26.1156389,23.1368814 29.6281062,26.7499485 C31.6700131,28.8497938 34.5441993,29.9156443 38.1106307,29.9156443 L38.1191176,29.9156443 C38.1191176,29.9156443 38.2802892,29.9248454 38.5633203,29.9248454 C43.4922239,29.9248454 48.7592435,27.7778351 48.7592435,21.7516237 C48.7592435,21.1863402 48.2842157,20.7277577 47.699098,20.7277577 L42.8021405,20.7277577 C42.5179886,20.7277577 42.2466471,20.8464433 42.0472042,21.041134 C41.8479216,21.2365206 41.7387124,21.51 41.7429559,21.7834021 C41.7440768,21.8110052 41.7471993,22.4560052 41.2383039,22.9557216 C40.7039477,23.4809536 39.7699052,23.7091237 38.4171209,23.6180412 C36.6996389,23.5023711 34.878232,23.1020103 34.5580507,20.0110825 L47.8613105,20.0110825 C48.393585,20.0120876 48.8430719,19.6312113 48.913049,19.1203608 Z M46.8690605,17.9645103 L33.4480245,17.9645103 C32.8627467,17.9645103 32.3878791,18.4231701 32.3878791,18.9882216 C32.3878791,25.2663402 36.8152533,25.5643299 38.2698007,25.6626031 C40.3457353,25.8028608 41.8013235,25.3534794 42.7894101,24.354201 C43.3047108,23.833067 43.5739706,23.2585825 43.7139248,22.7774227 L46.5711373,22.7774227 C46.3029183,24.6991237 45.2406111,26.0639691 43.3439428,26.9321134 C41.4769788,27.7870361 39.378866,27.8791237 38.5634804,27.8791237 C38.369482,27.8791237 38.2528268,27.8740206 38.1797271,27.8720103 C35.1645458,27.8720103 32.8108644,27.0272165 31.1834559,25.3605155 C28.298701,22.4036598 28.5489052,17.7596134 28.5531487,17.6521392 C28.5552304,17.2723454 28.6951846,8.35360825 38.1796471,8.35360825 C41.0262908,8.35360825 43.2071111,9.16244845 44.6616585,10.7565464 C46.730067,13.0244072 46.9125359,16.3785309 46.8690605,17.9645103 Z M38.2889363,10.2395876 C34.1605261,10.2395876 32.5946078,13.5250515 32.3432827,15.2625 C32.3009281,15.5563918 32.3920425,15.8522165 32.5934869,16.0754381 C32.7950114,16.2986598 33.0865294,16.4276289 33.3928595,16.4276289 L42.529598,16.4276289 C43.1095114,16.4276289 43.5823775,15.9771649 43.5897435,15.4172165 C43.5908644,15.3251289 43.6024739,13.1340464 42.0545703,11.6207474 C41.119567,10.7034278 39.8515719,10.2395876 38.2889363,10.2395876 Z M34.8252288,14.3799742 C35.2832827,13.4441753 36.2596797,12.2873196 38.2888562,12.2873196 C39.2716585,12.2873196 40.0064183,12.5371392 40.536451,13.0490722 C40.9447042,13.4432474 41.1736912,13.9438918 41.3029967,14.3800515 L34.8252288,14.3800515 L34.8252288,14.3799742 Z M32.1959624,5.43061856 L43.6714101,5.43061856 C44.2566879,5.43061856 44.7316356,4.97195876 44.7316356,4.40675258 L44.7316356,1.09878866 C44.7316356,0.533582474 44.2566078,0.0749226804 43.6714101,0.0749226804 L32.1959624,0.0749226804 C31.6106846,0.0749226804 31.1357369,0.533582474 31.1357369,1.09878866 L31.1357369,4.40675258 C31.1357369,4.97195876 31.6107647,5.43061856 32.1959624,5.43061856 Z M33.2561078,2.12265464 L42.6112647,2.12265464 L42.6112647,3.38304124 L33.2561078,3.38304124 L33.2561078,2.12265464 Z" opacity=".2" transform="translate(2 11)"/>
</svg>
