<svg xmlns="http://www.w3.org/2000/svg" width="52" height="52" viewBox="0 0 52 52">
  <path d="M25.2655791,4.1121044 L24.5823817,3.46487765 L24.5598695,3.50388254 C21.8644698,1.24570962 18.5015824,0 14.9759217,0 C13.0612072,0 11.1975367,0.379477977 9.41931485,1.0941925 L9.39905383,1.07393148 L8.92507341,1.28314845 C4.51522023,3.23466558 1.29709625,7.20650897 0.317618271,11.9074062 L0.196101142,12.4908646 L0.225367047,12.5043719 C0.0881402936,13.3233279 0.000391517129,14.1505546 0.000391517129,14.9755302 C0.000391517129,19.3606688 1.89557912,23.4585318 5.21422512,26.3136705 L5.20747145,26.329429 L5.65898858,26.6886949 C8.33941272,28.8230995 11.5613051,29.9518434 14.9759217,29.9518434 C16.7788581,29.9518434 18.5577651,29.6195922 20.2827896,28.9633605 L20.75677,28.7796411 L20.75677,28.7668679 C25.6766232,26.7718923 29.0530669,22.3891028 29.7797227,17.0762153 L29.8202447,17.0904568 L29.8944861,16.1185155 C29.923752,15.7405057 29.9515008,15.3625449 29.9515008,14.9770962 C29.9514519,10.8341599 28.2872594,6.9762969 25.2655791,4.1121044 Z M28.2564763,14.9755302 L28.2564763,15.0505057 C26.7565742,14.5397716 24.7968842,14.2810277 22.9661501,14.2810277 C21.3777162,14.2810277 19.8200163,14.4782545 18.2765579,14.8682545 C17.9788091,14.0710277 17.6810604,13.2925449 17.3420555,12.5388254 L17.3907993,12.5170962 L17.3743067,12.4818108 C20.4116966,10.9623817 22.9174062,8.69593801 24.7855791,5.8587602 C27.0940131,8.35473083 28.2564763,11.5579282 28.2564763,14.9755302 Z M23.7671452,4.79911909 C22.0271941,7.52980424 19.6115334,9.70399674 16.718124,11.1446819 C15.0929364,7.90928222 13.0215171,4.9303752 10.5443393,2.26722675 C11.9723002,1.76623165 13.4564927,1.5 14.9759706,1.5 C18.2217945,1.49995106 21.3139967,2.6751876 23.7671452,4.79911909 Z M9.0630832,2.87393148 C11.6039804,5.5228385 13.718907,8.51001631 15.3613703,11.7664111 C13.2749266,12.5973573 11.0760196,13.0180914 8.8148124,13.0180914 C6.42391517,13.0180914 4.10872757,12.5493475 1.92254486,11.625367 C2.8967863,7.82075041 5.51647635,4.6093801 9.0630832,2.87393148 Z M1.50034258,14.9755302 C1.50034258,14.3605546 1.55882545,13.744845 1.64358891,13.1313377 C3.92500816,14.0515498 6.33244698,14.5180424 8.81486134,14.5180424 C11.2980587,14.5180424 13.709217,14.0455302 15.9966558,13.1215987 C16.3161338,13.8273083 16.6161338,14.554062 16.898124,15.3010277 C12.0938173,16.9231811 8.14517129,20.3558564 5.86898858,24.8901631 C3.08280587,22.3373246 1.50034258,18.7764274 1.50034258,14.9755302 Z M7.05763458,25.86969 C9.13507341,21.5265416 12.8564437,18.2341272 17.4088091,16.7072104 C18.5915334,20.2681077 19.2177651,23.9722023 19.2717455,27.7363458 C17.8700163,28.2110604 16.4270799,28.4517945 14.9758728,28.4517945 C12.0990049,28.4518434 9.37360522,27.5608972 7.05763458,25.86969 Z M20.7334747,27.1506362 C20.6277162,23.4525122 19.9939967,19.8136052 18.837553,16.3067374 C21.96646,15.5410277 25.2596085,15.6415008 28.3254812,16.59323 C27.7742741,21.2963295 24.9393475,25.2276998 20.7334747,27.1506362 Z" opacity=".2" transform="translate(11 11)"/>
</svg>
