<svg xmlns="http://www.w3.org/2000/svg" width="52" height="52" viewBox="0 0 52 52">
  <path d="M18.2617257,0.00484237074 L13.4361667,0.00696090794 C13.4361667,0.00696090794 13.3384008,0 13.1625506,0 C12.1724262,0 7.16524473,0.2596343 5.80293671,5.3269483 C5.78161181,5.3831652 5.323327,6.65156368 5.31599156,9.60139975 L0.73835443,9.60139975 C0.332339662,9.60139975 0.00276582278,9.91240858 0.00276582278,10.2956368 L0.00276582278,14.2764439 C0.00276582278,14.6596721 0.332339662,14.970681 0.73835443,14.970681 L5.74481435,14.970681 L5.74481435,29.2679319 C5.74481435,29.6511602 6.0743481,29.9622068 6.48040295,29.9622068 L12.2129114,29.9622068 C12.6189262,29.9622068 12.9485401,29.6511602 12.9485401,29.2679319 L12.9485401,14.9852081 L17.971154,14.9852081 C18.3772489,14.9852081 18.7067827,14.6741992 18.7067827,14.290971 L18.7067827,10.2956368 C18.7067827,9.91240858 18.3772489,9.60139975 17.971154,9.60139975 L12.9587616,9.60139975 L12.9587616,7.89283733 C12.9587616,6.75495586 13.7238122,5.53936948 15.8717743,5.53936948 L18.2617257,5.53936948 C18.6677405,5.53936948 18.9972743,5.22836066 18.9972743,4.84513241 L18.9972743,0.699079445 C18.9972743,0.315889029 18.668462,0.00484237074 18.2617257,0.00484237074 Z M17.526097,4.15089533 L15.8717743,4.15089533 C12.8432785,4.15089533 11.4876245,6.03022699 11.4876245,7.89287516 L11.4876245,10.2956747 C11.4876245,10.6789029 11.8171582,10.9899117 12.223173,10.9899117 L17.2354852,10.9899117 L17.2354852,13.5968096 L12.2129114,13.5968096 C11.8068165,13.5968096 11.4772827,13.9078184 11.4772827,14.2910467 L11.4772827,28.5737327 L7.21599156,28.5737327 L7.21599156,14.2764439 C7.21599156,13.8932156 6.88645781,13.5822068 6.48040295,13.5822068 L1.47394304,13.5822068 L1.47394304,10.9899117 L6.05743249,10.9899117 C6.25528903,10.9899117 6.444327,10.9149306 6.58265823,10.781652 C6.72098945,10.6483733 6.79670886,10.4685624 6.79306118,10.2817907 C6.72760338,7.12437579 7.18733122,5.7948802 7.20941772,5.72754098 C8.29438186,1.70160151 12.0407489,1.38847415 13.1625506,1.38847415 C13.2648059,1.38847415 13.3258544,1.39127364 13.3854599,1.39335435 L17.526097,1.39335435 L17.526097,4.15089533 L17.526097,4.15089533 Z" opacity=".2" transform="translate(17 11)"/>
</svg>
