<svg xmlns="http://www.w3.org/2000/svg" xmlns:xlink="http://www.w3.org/1999/xlink" width="500" height="500" viewBox="0 0 500 500">
  <defs>
    <linearGradient id="hire-us_visual-a" x1="18.926%" y1="0%" y2="0%">
      <stop offset="0%" stop-color="#FFF"/>
      <stop offset="100%" stop-color="#E0E0E0"/>
    </linearGradient>
    <linearGradient id="hire-us_visual-b" x1="88.354%" x2="10.008%" y1="45.377%" y2="50%">
      <stop offset="0%" stop-color="#FFF"/>
      <stop offset="100%" stop-color="#D8D8D8"/>
    </linearGradient>
    <linearGradient id="hire-us_visual-c" x1="83.037%" x2="29.404%" y1="8.232%" y2="50%">
      <stop offset="0%" stop-color="#FFF"/>
      <stop offset="100%" stop-color="#D8D8D8"/>
    </linearGradient>
    <linearGradient id="hire-us_visual-d" x1="57.334%" x2="41.333%" y1="20.321%" y2="88.209%">
      <stop offset="0%" stop-color="#FD427C"/>
      <stop offset="100%" stop-color="#FA311F"/>
    </linearGradient>
    <linearGradient id="hire-us_visual-e" x1="70.98%" x2="27.621%" y1="100%" y2="0%">
      <stop offset="0%" stop-color="#FB3848"/>
      <stop offset="43.151%" stop-color="#FFF"/>
      <stop offset="100%" stop-color="#FD3E68"/>
    </linearGradient>
    <linearGradient id="hire-us_visual-f" x1="54.611%" x2="45.082%" y1="100%" y2="0%">
      <stop offset="0%" stop-color="#FFF"/>
      <stop offset="100%" stop-color="#FD3E68"/>
    </linearGradient>
    <linearGradient id="hire-us_visual-g" x1="51.409%" x2="48.497%" y1="100%" y2="0%">
      <stop offset="0%" stop-color="#FFF"/>
      <stop offset="100%" stop-color="#FD3E68"/>
    </linearGradient>
    <linearGradient id="hire-us_visual-h" x1="100%" x2="-3.335%" y1="61.287%" y2="38.713%">
      <stop offset="0%" stop-color="#FFF"/>
      <stop offset="100%" stop-color="#FD3E68"/>
    </linearGradient>
    <linearGradient id="hire-us_visual-i" x1="100%" x2="-3.335%" y1="52.937%" y2="47.063%">
      <stop offset="0%" stop-color="#FFF"/>
      <stop offset="100%" stop-color="#FD3E68"/>
    </linearGradient>
    <linearGradient id="hire-us_visual-j" x1="4.207%" x2="60.698%" y1="78.516%" y2="78.516%">
      <stop offset="0%" stop-color="#FEC0A4"/>
      <stop offset="100%" stop-color="#FFAD86"/>
    </linearGradient>
    <linearGradient id="hire-us_visual-k" x1="4.207%" x2="73.098%" y1="78.516%" y2="78.516%">
      <stop offset="0%" stop-color="#FEC0A4"/>
      <stop offset="100%" stop-color="#FFAD86"/>
    </linearGradient>
    <linearGradient id="hire-us_visual-l" x1="0%" y1="53.408%" y2="46.592%">
      <stop offset="0%" stop-color="#E6E6E6"/>
      <stop offset="100%" stop-color="#D8D8D8"/>
    </linearGradient>
    <linearGradient id="hire-us_visual-m" x1="34.651%" x2="62.666%" y1="78.516%" y2="41.915%">
      <stop offset="0%" stop-color="#FEC0A4"/>
      <stop offset="100%" stop-color="#FFAD86"/>
    </linearGradient>
    <linearGradient id="hire-us_visual-n" x1="4.207%" x2="87.79%" y1="75.509%" y2="42.768%">
      <stop offset="0%" stop-color="#FEC0A4"/>
      <stop offset="100%" stop-color="#FFAD86"/>
    </linearGradient>
    <path id="hire-us_visual-o" d="M26.3441983,0.0135651639 C28.9632596,0.291050447 28.7784693,4.28806717 30.0962366,6.38007115 C30.9747482,7.77474047 32.4845892,9.66102062 34.6257597,12.0389116 C35.0063625,17.8012458 35.0063625,21.6804707 34.6257597,23.6765861 C33.7105642,28.476434 31.136704,30.8414064 30.1437787,31.7706319 C27.7253017,34.0339547 24.6029101,28.6299147 17.4112118,28.8745355 C10.2195135,29.1191562 7.76702161,33.5414727 4.33498612,32.9678514 C0.902950627,32.3942301 -0.408663846,15.781079 0.109091763,12.4640053 C0.626847373,9.14693167 0.626847373,8.01720891 2.7168372,6.38007115 C4.80682703,4.74293339 11.8019062,5.9967522 16.0892064,4.8960491 C20.3765065,3.79534599 23.7251369,-0.263920119 26.3441983,0.0135651639 Z"/>
    <linearGradient id="hire-us_visual-p" x1="41.343%" x2="53.519%" y1="22.241%" y2="25.962%">
      <stop offset="0%" stop-color="#FEC0A4"/>
      <stop offset="100%" stop-color="#FFAD86"/>
    </linearGradient>
    <linearGradient id="hire-us_visual-q" x1="-2.849%" x2="125.198%" y1="52.787%" y2="50%">
      <stop offset="0%" stop-color="#FFF"/>
      <stop offset="100%" stop-color="#DFDFDF"/>
    </linearGradient>
    <linearGradient id="hire-us_visual-r" x1="50%" x2="39.596%" y1="0%" y2="54.554%">
      <stop offset="0%" stop-color="#565557"/>
      <stop offset="100%" stop-color="#38373A"/>
    </linearGradient>
    <linearGradient id="hire-us_visual-s" x1="53.294%" x2="75.679%" y1="76.649%" y2="3.034%">
      <stop offset="0%" stop-color="#FFF"/>
      <stop offset="100%" stop-color="#DFDFDF"/>
    </linearGradient>
    <linearGradient id="hire-us_visual-t" x1="52.686%" x2="70.934%" y1="76.649%" y2="3.034%">
      <stop offset="0%" stop-color="#FFF"/>
      <stop offset="100%" stop-color="#DFDFDF"/>
    </linearGradient>
    <linearGradient id="hire-us_visual-u" x1="48.576%" x2="48.13%" y1="8.098%" y2="100%">
      <stop offset="0%" stop-color="#FD427C"/>
      <stop offset="100%" stop-color="#FA311F"/>
    </linearGradient>
    <linearGradient id="hire-us_visual-v" x1="49.358%" x2="51.457%" y1="72.86%" y2="4.128%">
      <stop offset="0%" stop-color="#FA3229" stop-opacity=".36"/>
      <stop offset="100%" stop-color="#EB2E1D"/>
    </linearGradient>
    <linearGradient id="hire-us_visual-w" x1="47.323%" x2="46.485%" y1="8.098%" y2="100%">
      <stop offset="0%" stop-color="#FD427C"/>
      <stop offset="100%" stop-color="#FA311F"/>
    </linearGradient>
    <linearGradient id="hire-us_visual-x" x1="48.927%" x2="50%" y1="39.488%" y2="-23.19%">
      <stop offset="0%" stop-color="#FA3229" stop-opacity=".36"/>
      <stop offset="100%" stop-color="#EB2E1D"/>
    </linearGradient>
    <linearGradient id="hire-us_visual-y" x1="48.217%" x2="54.049%" y1="72.86%" y2="4.128%">
      <stop offset="0%" stop-color="#FA3229" stop-opacity=".36"/>
      <stop offset="100%" stop-color="#EB2E1D"/>
    </linearGradient>
    <linearGradient id="hire-us_visual-z" x1="37.112%" x2="62.888%" y1="54.365%" y2="86.534%">
      <stop offset="0%" stop-color="#FA3229" stop-opacity=".36"/>
      <stop offset="100%" stop-color="#C11A0B"/>
    </linearGradient>
    <linearGradient id="hire-us_visual-A" x1="25.93%" x2="44.546%" y1="78.516%" y2="93.6%">
      <stop offset="0%" stop-color="#FEC0A4"/>
      <stop offset="100%" stop-color="#FFAD86"/>
    </linearGradient>
    <linearGradient id="hire-us_visual-B" x1="16.685%" x2="77.493%" y1="78.516%" y2="41.915%">
      <stop offset="0%" stop-color="#FEC0A4"/>
      <stop offset="100%" stop-color="#FFAD86"/>
    </linearGradient>
    <linearGradient id="hire-us_visual-C" x1="4.207%" x2="87.79%" y1="59.867%" y2="47.202%">
      <stop offset="0%" stop-color="#FEC0A4"/>
      <stop offset="100%" stop-color="#FFAD86"/>
    </linearGradient>
    <linearGradient id="hire-us_visual-D" x1="53.384%" x2="76.378%" y1="76.649%" y2="3.034%">
      <stop offset="0%" stop-color="#FFF"/>
      <stop offset="100%" stop-color="#DFDFDF"/>
    </linearGradient>
    <linearGradient id="hire-us_visual-E" x1="79.892%" x2="14.675%" y1="41.741%" y2="60.632%">
      <stop offset="0%" stop-color="#FD427C"/>
      <stop offset="100%" stop-color="#FA311F"/>
    </linearGradient>
    <linearGradient id="hire-us_visual-F" x1="100%" x2="-3.335%" y1="50.402%" y2="49.598%">
      <stop offset="0%" stop-color="#FFF"/>
      <stop offset="100%" stop-color="#FD3E68"/>
    </linearGradient>
    <linearGradient id="hire-us_visual-G" x1="100%" x2="28.362%" y1="55.851%" y2="47.357%">
      <stop offset="0%" stop-color="#FB3848"/>
      <stop offset="43.151%" stop-color="#FFF"/>
      <stop offset="100%" stop-color="#FD3E68"/>
    </linearGradient>
    <linearGradient id="hire-us_visual-H" x1="79.573%" x2="18.455%" y1="100%" y2="0%">
      <stop offset="0%" stop-color="#FFF"/>
      <stop offset="100%" stop-color="#FD3E68"/>
    </linearGradient>
    <linearGradient id="hire-us_visual-I" x1="80.84%" x2="17.103%" y1="100%" y2="0%">
      <stop offset="0%" stop-color="#FFF"/>
      <stop offset="100%" stop-color="#FD3E68"/>
    </linearGradient>
    <linearGradient id="hire-us_visual-J" x1="100%" x2="50%" y1="100%" y2="100%">
      <stop offset="0%" stop-color="#FFF" stop-opacity=".802"/>
      <stop offset="100%" stop-color="#FD3E68" stop-opacity="0"/>
    </linearGradient>
    <linearGradient id="hire-us_visual-K" x1="100%" x2="-3.335%" y1="97.643%" y2="2.357%">
      <stop offset="0%" stop-color="#FFF" stop-opacity=".508"/>
      <stop offset="100%" stop-color="#FD3E68"/>
    </linearGradient>
    <linearGradient id="hire-us_visual-L" x1="8.07%" x2="73.138%" y1="38.319%" y2="53.385%">
      <stop offset="0%" stop-color="#CDCDCD" stop-opacity="0"/>
      <stop offset="100%" stop-color="#838383"/>
    </linearGradient>
    <linearGradient id="hire-us_visual-M" x1="116.299%" x2="22.86%" y1="48.397%" y2="44.823%">
      <stop offset="0%" stop-color="#F93127"/>
      <stop offset="100%" stop-color="#D62A1A"/>
    </linearGradient>
    <linearGradient id="hire-us_visual-N" x1="98.355%" x2="2.107%" y1="49.264%" y2="50.904%">
      <stop offset="0%" stop-color="#FD427C"/>
      <stop offset="100%" stop-color="#FA311F"/>
    </linearGradient>
  </defs>
  <g fill="none" fill-rule="evenodd" transform="translate(1 9)">
    <g transform="translate(221)">
      <path fill="#F9F9FB" d="M11.378506,0 L264.621494,0 C270.905669,-1.15438428e-15 276,5.09433066 276,11.378506 L276,158.621494 C276,164.905669 270.905669,170 264.621494,170 L11.378506,170 C5.09433066,170 -9.88855151e-15,164.905669 -1.0658141e-14,158.621494 L0,11.378506 C-7.69589522e-16,5.09433066 5.09433066,2.93074112e-15 11.378506,1.77635684e-15 Z"/>
      <polygon fill="#F4F5FA" fill-rule="nonzero" points="55.801 23.787 51.798 26.847 49.275 24.282 44.346 27.582 41.082 25.694 36.689 28.358 33.148 23 32 23.554 36.26 30 41.1 27.065 44.402 28.976 49.086 25.84 51.663 28.461 55.964 25.174 60.645 27.514 64 24.897 63.111 24.064 60.473 26.122"/>
      <polygon fill="#F2F3F8" points="19 16.769 72 16 72 75 19 73.689"/>
      <polygon fill="#FFF" points="21 15.769 74 15 74 74 21 72.689"/>
      <polygon fill="#F4F5FA" fill-rule="nonzero" points="32 41 66 41 66 39 32 39"/>
      <polygon fill="#F4F5FA" fill-rule="nonzero" points="26 51 64 51 64 49 26 49"/>
      <polygon fill="#F4F5FA" fill-rule="nonzero" points="26 59 64 59 64 57 26 57"/>
      <polygon fill="#F4F5FA" fill-rule="nonzero" points="26 64 64 64 64 62 26 62"/>
      <g transform="translate(121 13)">
        <polygon fill="#EBEEF5" points="0 2.068 52.49 1.303 52.49 59.947 0 58.644"/>
        <polygon fill="#FFF" points="1.312 .618 53.22 0 54.603 49.754 47.281 56.917 2.425 57.647"/>
        <polygon fill="#F4F5F9" points="54.616 49.733 47.241 49.522 47.241 56.953"/>
        <polygon fill="#F4F5FA" fill-rule="nonzero" points="45.746 39.096 7.874 39.096 7.874 41.703 45.746 41.703"/>
        <polygon fill="#F4F5FA" fill-rule="nonzero" points="45.746 32.58 7.874 32.58 7.874 35.186 45.746 35.186"/>
        <polygon fill="#F4F5FA" fill-rule="nonzero" points="30.182 24.761 7.874 24.761 7.874 27.367 30.182 27.367"/>
        <path fill="#F4F5FA" fill-rule="nonzero" d="M40.6798115,27.3672663 C36.331391,27.3672663 32.8062996,23.8664828 32.8062996,19.5480474 C32.8062996,15.229612 36.331391,11.7288284 40.6798115,11.7288284 C45.0282321,11.7288284 48.5533234,15.229612 48.5533234,19.5480474 C48.5533234,23.8664828 45.0282321,27.3672663 40.6798115,27.3672663 Z M40.6798115,24.76086 C43.5787585,24.76086 45.9288194,22.4270043 45.9288194,19.5480474 C45.9288194,16.6690905 43.5787585,14.3352348 40.6798115,14.3352348 C37.7808645,14.3352348 35.4308036,16.6690905 35.4308036,19.5480474 C35.4308036,22.4270043 37.7808645,24.76086 40.6798115,24.76086 Z"/>
        <polygon fill="#F4F5FA" fill-rule="nonzero" points="28.87 18.245 7.874 18.245 7.874 20.851 28.87 20.851"/>
        <polygon fill="#F4F5FA" fill-rule="nonzero" points="26.245 11.729 7.874 11.729 7.874 14.335 26.245 14.335"/>
        <polygon fill="#F4F5FA" fill-rule="nonzero" points="45.746 45.612 7.874 45.612 7.874 48.219 45.746 48.219"/>
      </g>
      <g transform="rotate(14 -432.081 152.679)">
        <path fill="#EBEEF5" d="M0,0.842013301 L21.5704035,0.530712841 C21.7277645,7.67424813 21.806445,13.0262843 21.806445,16.5868212 C21.806445,20.1473582 21.7277645,22.7560147 21.5704035,24.4127907 L0,23.8820779 C0.208488973,20.3085693 0.312733459,17.6514664 0.312733459,15.9107692 C0.312733459,14.170072 0.208488973,9.14715336 0,0.842013301 Z"/>
        <path fill="#FFF" d="M0.539260088,0.25175926 L21.8705384,-8.58967218e-13 C22.3010839,6.34218056 22.5560669,10.9291612 22.6354872,13.7609418 C22.7149076,16.5927225 22.6493431,18.7595681 22.4387936,20.2614787 L19.429596,23.1785672 L0.996678288,23.4759182 C1.26968297,20.0874968 1.38090707,17.1098527 1.3303506,14.542986 C1.27979412,11.9761192 1.01609729,7.212377 0.539260088,0.25175926 Z"/>
        <polygon fill="#F4F5F9" points="22.444 20.253 19.413 20.167 19.413 23.193"/>
        <polygon fill="#F4F5FA" fill-rule="nonzero" points="18.799 15.921 3.236 15.921 3.236 16.983 18.799 16.983"/>
        <polygon fill="#F4F5FA" fill-rule="nonzero" points="18.799 13.268 3.236 13.268 3.236 14.329 18.799 14.329"/>
        <polygon fill="#F4F5FA" fill-rule="nonzero" points="12.403 10.084 3.236 10.084 3.236 11.145 12.403 11.145"/>
        <path fill="#F4F5FA" fill-rule="nonzero" d="M16.7170627,11.1449697 C14.930112,11.1449697 13.4815022,9.71932027 13.4815022,7.96069262 C13.4815022,6.20206497 14.930112,4.77641557 16.7170627,4.77641557 C18.5040135,4.77641557 19.9526232,6.20206497 19.9526232,7.96069262 C19.9526232,9.71932027 18.5040135,11.1449697 16.7170627,11.1449697 Z M16.7170627,10.083544 C17.9083632,10.083544 18.8741031,9.13311105 18.8741031,7.96069262 C18.8741031,6.78827418 17.9083632,5.83784125 16.7170627,5.83784125 C15.5257622,5.83784125 14.5600224,6.78827418 14.5600224,7.96069262 C14.5600224,9.13311105 15.5257622,10.083544 16.7170627,10.083544 Z"/>
        <polygon fill="#F4F5FA" fill-rule="nonzero" points="11.864 7.43 3.236 7.43 3.236 8.491 11.864 8.491"/>
        <polygon fill="#F4F5FA" fill-rule="nonzero" points="10.785 4.776 3.236 4.776 3.236 5.838 10.785 5.838"/>
        <polygon fill="#F4F5FA" fill-rule="nonzero" points="18.799 18.575 3.236 18.575 3.236 19.636 18.799 19.636"/>
      </g>
      <g transform="translate(142 90)">
        <path fill="#EBEEF5" d="M0,0.85725336 L21.8699924,0.540318504 C22.029539,7.81314855 22.1093123,13.2620541 22.1093123,16.8870352 C22.1093123,20.5120163 22.029539,23.1678883 21.8699924,24.8546512 L0,24.3143327 C0.211384653,20.6761452 0.317076979,17.97095 0.317076979,16.1987469 C0.317076979,14.4265439 0.211384653,9.31271269 0,0.85725336 Z"/>
        <path fill="#FFF" d="M0.546749811,0.256315989 L22.1742959,-8.74514136e-13 C22.6108212,6.45697116 22.8693456,11.126974 22.949869,14.0100086 C23.0303924,16.8930432 22.9639173,19.0991078 22.7504435,20.6282023 L19.6994515,23.5980888 L1.01052104,23.9008217 C1.28731745,20.4510714 1.40008633,17.4195333 1.34882769,14.8062075 C1.29756904,12.1928816 1.03020975,7.34291776 0.546749811,0.256315989 Z"/>
        <polygon fill="#F4F5F9" points="22.756 20.62 19.683 20.532 19.683 23.613"/>
        <polygon fill="#F4F5FA" fill-rule="nonzero" points="19.06 16.21 3.28 16.21 3.28 17.29 19.06 17.29"/>
        <polygon fill="#F4F5FA" fill-rule="nonzero" points="19.06 13.508 3.28 13.508 3.28 14.589 19.06 14.589"/>
        <polygon fill="#F4F5FA" fill-rule="nonzero" points="12.575 10.266 3.28 10.266 3.28 11.347 12.575 11.347"/>
        <path fill="#F4F5FA" fill-rule="nonzero" d="M16.9492441,11.3466886 C15.1374746,11.3466886 13.6687453,9.89523557 13.6687453,8.10477755 C13.6687453,6.31431954 15.1374746,4.86286653 16.9492441,4.86286653 C18.7610136,4.86286653 20.229743,6.31431954 20.229743,8.10477755 C20.229743,9.89523557 18.7610136,11.3466886 16.9492441,11.3466886 Z M16.9492441,10.2660516 C18.1570905,10.2660516 19.1362434,9.29841623 19.1362434,8.10477755 C19.1362434,6.91113887 18.1570905,5.94350354 16.9492441,5.94350354 C15.7413978,5.94350354 14.7622449,6.91113887 14.7622449,8.10477755 C14.7622449,9.29841623 15.7413978,10.2660516 16.9492441,10.2660516 Z"/>
        <polygon fill="#F4F5FA" fill-rule="nonzero" points="12.028 7.564 3.28 7.564 3.28 8.645 12.028 8.645"/>
        <polygon fill="#F4F5FA" fill-rule="nonzero" points="10.935 4.863 3.28 4.863 3.28 5.944 10.935 5.944"/>
        <polygon fill="#F4F5FA" fill-rule="nonzero" points="19.06 18.911 3.28 18.911 3.28 19.992 19.06 19.992"/>
      </g>
      <g transform="translate(151 126)">
        <path fill="#EBEEF5" d="M0,0.85725336 L21.8699924,0.540318504 C22.029539,7.81314855 22.1093123,13.2620541 22.1093123,16.8870352 C22.1093123,20.5120163 22.029539,23.1678883 21.8699924,24.8546512 L0,24.3143327 C0.211384653,20.6761452 0.317076979,17.97095 0.317076979,16.1987469 C0.317076979,14.4265439 0.211384653,9.31271269 0,0.85725336 Z"/>
        <path fill="#FFF" d="M0.546749811,0.256315989 L22.1742959,-8.74514136e-13 C22.6108212,6.45697116 22.8693456,11.126974 22.949869,14.0100086 C23.0303924,16.8930432 22.9639173,19.0991078 22.7504435,20.6282023 L19.6994515,23.5980888 L1.01052104,23.9008217 C1.28731745,20.4510714 1.40008633,17.4195333 1.34882769,14.8062075 C1.29756904,12.1928816 1.03020975,7.34291776 0.546749811,0.256315989 Z"/>
        <polygon fill="#F4F5F9" points="22.756 20.62 19.683 20.532 19.683 23.613"/>
        <polygon fill="#F4F5FA" fill-rule="nonzero" points="19.06 16.21 3.28 16.21 3.28 17.29 19.06 17.29"/>
        <polygon fill="#F4F5FA" fill-rule="nonzero" points="19.06 13.508 3.28 13.508 3.28 14.589 19.06 14.589"/>
        <polygon fill="#F4F5FA" fill-rule="nonzero" points="12.575 10.266 3.28 10.266 3.28 11.347 12.575 11.347"/>
        <path fill="#F4F5FA" fill-rule="nonzero" d="M16.9492441,11.3466886 C15.1374746,11.3466886 13.6687453,9.89523557 13.6687453,8.10477755 C13.6687453,6.31431954 15.1374746,4.86286653 16.9492441,4.86286653 C18.7610136,4.86286653 20.229743,6.31431954 20.229743,8.10477755 C20.229743,9.89523557 18.7610136,11.3466886 16.9492441,11.3466886 Z M16.9492441,10.2660516 C18.1570905,10.2660516 19.1362434,9.29841623 19.1362434,8.10477755 C19.1362434,6.91113887 18.1570905,5.94350354 16.9492441,5.94350354 C15.7413978,5.94350354 14.7622449,6.91113887 14.7622449,8.10477755 C14.7622449,9.29841623 15.7413978,10.2660516 16.9492441,10.2660516 Z"/>
        <polygon fill="#F4F5FA" fill-rule="nonzero" points="12.028 7.564 3.28 7.564 3.28 8.645 12.028 8.645"/>
        <polygon fill="#F4F5FA" fill-rule="nonzero" points="10.935 4.863 3.28 4.863 3.28 5.944 10.935 5.944"/>
        <polygon fill="#F4F5FA" fill-rule="nonzero" points="19.06 18.911 3.28 18.911 3.28 19.992 19.06 19.992"/>
      </g>
      <g transform="translate(176 90)">
        <path fill="#EBEEF5" d="M0,0.85725336 L21.8699924,0.540318504 C22.029539,7.81314855 22.1093123,13.2620541 22.1093123,16.8870352 C22.1093123,20.5120163 22.029539,23.1678883 21.8699924,24.8546512 L0,24.3143327 C0.211384653,20.6761452 0.317076979,17.97095 0.317076979,16.1987469 C0.317076979,14.4265439 0.211384653,9.31271269 0,0.85725336 Z"/>
        <path fill="#FFF" d="M0.546749811,0.256315989 L22.1742959,-8.74514136e-13 C22.6108212,6.45697116 22.8693456,11.126974 22.949869,14.0100086 C23.0303924,16.8930432 22.9639173,19.0991078 22.7504435,20.6282023 L19.6994515,23.5980888 L1.01052104,23.9008217 C1.28731745,20.4510714 1.40008633,17.4195333 1.34882769,14.8062075 C1.29756904,12.1928816 1.03020975,7.34291776 0.546749811,0.256315989 Z"/>
        <polygon fill="#F4F5F9" points="22.756 20.62 19.683 20.532 19.683 23.613"/>
        <polygon fill="#F4F5FA" fill-rule="nonzero" points="19.06 16.21 3.28 16.21 3.28 17.29 19.06 17.29"/>
        <polygon fill="#F4F5FA" fill-rule="nonzero" points="19.06 13.508 3.28 13.508 3.28 14.589 19.06 14.589"/>
        <polygon fill="#F4F5FA" fill-rule="nonzero" points="12.575 10.266 3.28 10.266 3.28 11.347 12.575 11.347"/>
        <path fill="#F4F5FA" fill-rule="nonzero" d="M16.9492441,11.3466886 C15.1374746,11.3466886 13.6687453,9.89523557 13.6687453,8.10477755 C13.6687453,6.31431954 15.1374746,4.86286653 16.9492441,4.86286653 C18.7610136,4.86286653 20.229743,6.31431954 20.229743,8.10477755 C20.229743,9.89523557 18.7610136,11.3466886 16.9492441,11.3466886 Z M16.9492441,10.2660516 C18.1570905,10.2660516 19.1362434,9.29841623 19.1362434,8.10477755 C19.1362434,6.91113887 18.1570905,5.94350354 16.9492441,5.94350354 C15.7413978,5.94350354 14.7622449,6.91113887 14.7622449,8.10477755 C14.7622449,9.29841623 15.7413978,10.2660516 16.9492441,10.2660516 Z"/>
        <polygon fill="#F4F5FA" fill-rule="nonzero" points="12.028 7.564 3.28 7.564 3.28 8.645 12.028 8.645"/>
        <polygon fill="#F4F5FA" fill-rule="nonzero" points="10.935 4.863 3.28 4.863 3.28 5.944 10.935 5.944"/>
        <polygon fill="#F4F5FA" fill-rule="nonzero" points="19.06 18.911 3.28 18.911 3.28 19.992 19.06 19.992"/>
      </g>
      <g transform="translate(208 62)">
        <polygon fill="#EBEEF5" points="0 2.068 52.49 1.303 52.49 59.947 0 58.644"/>
        <polygon fill="#FFF" points="1.312 .618 53.22 0 54.603 49.754 47.281 56.917 2.425 57.647"/>
        <polygon fill="#F4F5F9" points="54.616 49.733 47.241 49.522 47.241 56.953"/>
        <polygon fill="#F4F5FA" fill-rule="nonzero" points="45.746 39.096 7.874 39.096 7.874 41.703 45.746 41.703"/>
        <polygon fill="#F4F5FA" fill-rule="nonzero" points="45.746 32.58 7.874 32.58 7.874 35.186 45.746 35.186"/>
        <polygon fill="#F4F5FA" fill-rule="nonzero" points="38.055 6.516 7.874 6.516 7.874 9.122 38.055 9.122"/>
        <polygon fill="#F4F5FA" fill-rule="nonzero" points="45.746 45.612 7.874 45.612 7.874 48.219 45.746 48.219"/>
        <polygon fill="#F4F5FA" points="16.622 14.556 20.231 14.556 20.231 28.67 16.622 28.67"/>
        <polygon fill="#F4F5FA" points="25.37 20.811 28.979 20.811 28.979 28.67 25.37 28.67"/>
        <polygon fill="#F4F5FA" points="34.119 22.19 37.727 22.19 37.727 28.67 34.119 28.67"/>
        <polygon fill="#F4F5FA" points="7.874 14.335 11.482 14.335 11.482 28.67 7.874 28.67"/>
      </g>
      <g transform="translate(67 94)">
        <polygon fill="#EBEEF5" points="0 2.068 52.49 1.303 52.49 59.947 0 58.644"/>
        <polygon fill="#FFF" points="1.312 .618 53.22 0 54.603 49.754 47.281 56.917 2.425 57.647"/>
        <polygon fill="#F4F5F9" points="54.616 49.733 47.241 49.522 47.241 56.953"/>
        <polygon fill="#F4F5FA" fill-rule="nonzero" points="45.746 39.096 7.874 39.096 7.874 41.703 45.746 41.703"/>
        <polygon fill="#F4F5FA" fill-rule="nonzero" points="38.055 32.58 7.874 32.58 7.874 35.186 38.055 35.186"/>
        <path fill="#F4F5FA" fill-rule="nonzero" d="M15.7470238,27.3672663 C11.3986033,27.3672663 7.8735119,23.8664828 7.8735119,19.5480474 C7.8735119,15.229612 11.3986033,11.7288284 15.7470238,11.7288284 C20.0954444,11.7288284 23.6205357,15.229612 23.6205357,19.5480474 C23.6205357,23.8664828 20.0954444,27.3672663 15.7470238,27.3672663 Z M15.7470238,24.76086 C18.6459708,24.76086 20.9960317,22.4270043 20.9960317,19.5480474 C20.9960317,16.6690905 18.6459708,14.3352348 15.7470238,14.3352348 C12.8480768,14.3352348 10.4980159,16.6690905 10.4980159,19.5480474 C10.4980159,22.4270043 12.8480768,24.76086 15.7470238,24.76086 Z"/>
        <polygon fill="#F4F5FA" fill-rule="nonzero" points="45.746 45.612 7.874 45.612 7.874 48.219 45.746 48.219"/>
        <ellipse cx="38.055" cy="19.548" fill="#F4F5FA" rx="7.874" ry="7.819"/>
      </g>
    </g>
    <g transform="translate(0 92)">
      <path fill="url(#hire-us_visual-a)" d="M50.6841174,387.665252 C68.8416665,387.665252 108.409109,389.158743 123.798905,387.418527 C127.984201,386.94527 128.865936,383.696624 128.865936,383.165252 C128.865936,380.679971 73.7796615,377.665252 50.6841174,378.665252 C27.5885734,379.665252 8.86593562,380.679971 8.86593562,383.165252 C8.86593562,385.650534 27.5885734,387.665252 50.6841174,387.665252 Z"/>
      <path fill="url(#hire-us_visual-b)" d="M137.865936,340.165252 L130.994255,380.753927 C130.342752,384.602133 127.009465,387.418527 123.106499,387.418527 L106.587841,387.418527 C102.684875,387.418527 99.3515873,384.602133 98.7000844,380.753927 L91.828404,340.165252 L137.865936,340.165252 Z"/>
      <ellipse cx="114.866" cy="340.165" fill="#838383" rx="23" ry="3.5"/>
      <path fill="url(#hire-us_visual-c)" d="M136.471,348.404659 L130.994255,380.753927 C130.342752,384.602133 127.009465,387.418527 123.106499,387.418527 L112.659063,387.418527 C114.272244,385.888623 115.299356,382.033496 115.740399,375.853144 C116.401963,366.582617 105.690316,365.502509 114.84717,355.753083 C120.951739,349.253466 128.159682,346.803992 136.471,348.404659 Z"/>
      <g transform="scale(-1 1) rotate(17 -759.03 -362.134)">
        <path fill="url(#hire-us_visual-d)" d="M59.6311819,124.665252 C60.2418088,113.84514 60.2418088,105.837627 59.6311819,100.642712 C59.020555,95.4477973 57.537623,90.8392506 55.1823858,86.8170722 C47.7949498,79.9295522 42.460274,74.3398074 39.1783584,70.0478378 C34.2554849,63.6098834 37.6880787,62.9012069 30.013146,53.9016581 C22.3382133,44.9021093 17.1364549,46.0928482 13.4934078,39.9299237 C9.8503608,33.7669992 12.2906156,28.7345075 9.15579165,18.6173758 C6.02096772,8.50024414 -3.40053062,3.04711292 1.28141526,0.51771444 C5.96336114,-2.01168404 12.4398415,5.25216607 23.3690006,10.9387588 C34.2981597,16.6253515 40.4418953,17.4625649 45.1021261,23.3182368 C49.0136228,28.2331095 47.9727367,38.71539 50.165587,43.3971017 C52.7627173,48.941947 58.2586454,54.84122 59.6311819,62.5914834 C60.4092211,66.9848158 59.9632249,74.6214991 58.2931934,85.5015332 C60.1474515,91.0721255 61.248015,96.46158 61.5948838,101.669897 C61.9417526,106.878214 61.710611,114.543332 60.9014589,124.665252 L59.6311819,124.665252 Z"/>
        <path stroke="url(#hire-us_visual-e)" d="M56.4961347,85.7572612 C53.7320492,71.0523447 51.5852046,62.7029398 50.0556011,60.7090465 C41.0433921,48.9613077 36.7119213,38.1132342 32.1823858,31.3123548 C28.3937864,25.6239552 21.5576083,22.5338818 15.7252798,16.907695 C12.5264581,13.8219346 7.71183657,8.35860772 1.28141526,0.51771444"/>
        <path stroke="url(#hire-us_visual-f)" d="M35.713793,36.6281843 C35.6001554,32.1701573 35.1559897,28.6655821 34.3812961,26.114459 C33.6066025,23.5633358 31.9223158,20.0587607 29.328436,15.6007337"/>
        <path stroke="url(#hire-us_visual-g)" d="M51.443259,62.3326262 C51.8551679,59.7873877 51.8551679,57.1614357 51.443259,54.4547704 C51.0313501,51.7481051 50.0318282,47.8061701 48.4446933,42.6289656"/>
        <path stroke="url(#hire-us_visual-h)" d="M51.443259,63.4451563 C48.1075254,60.6240919 45.291017,58.6678112 42.9937337,57.5763142 C40.6964504,56.4848173 37.2055773,55.4443027 32.5211145,54.4547704"/>
        <path stroke="url(#hire-us_visual-i)" d="M34.3812961,35.5080707 C31.1125416,36.1271035 28.0742335,36.1271035 25.2663718,35.5080707 C22.4585101,34.8890378 18.4357109,33.3323166 13.197974,30.8379072"/>
      </g>
      <g transform="scale(-1 1) rotate(-60 194.865 397.162)">
        <path fill="#4A4A4A" d="M57.5320115,2.50334715 L59.2273107,28.5482851 L0.00220287957,28.5482851 L0.00220287957,25.4286229 C-0.038056189,23.427415 0.473505399,22.0663195 1.53688764,21.3453367 C3.13196101,20.2638624 20.2264725,15.0739751 25.3217454,12.3418508 C28.718594,10.5204347 32.5224771,7.92251693 36.7333948,4.54809764 C37.5362112,3.71263959 38.131117,3.03105609 38.5181123,2.50334715 C38.9051075,1.9756382 39.4219839,1.14118915 40.0687414,-1.24344979e-14 L57.5320115,-1.24344979e-14 L57.5320115,2.50334715 Z"/>
        <path fill="url(#hire-us_visual-j)" d="M57.5320115,2.50334715 L57.6560634,4.40916095 L36.7333948,4.54809764 C37.5362112,3.71263959 38.131117,3.03105609 38.5181123,2.50334715 C38.9051075,1.9756382 39.4219839,1.14118915 40.0687414,1.81765714e-12 L57.5320115,1.81765714e-12 L57.5320115,2.50334715 Z"/>
        <polygon fill="#A9A8A9" points="59 25.054 59.227 28.548 .002 28.548 .002 25.429"/>
        <path stroke="#979797" stroke-linecap="round" stroke-width="2" d="M36.9521291 10.8850257C36.508831 9.88217336 35.9944136 9.10309838 35.408877 8.54780072 34.6044241 7.78489235 33.8569465 7.35963874 33.1664442 7.2720399M32.9521291 13.8850257C32.508831 12.8821734 31.9944136 12.1030984 31.408877 11.5478007 30.6044241 10.7848923 29.8569465 10.3596387 29.1664442 10.2720399M28.3585768 16.907695C27.9152786 15.9048427 27.4008612 15.1257677 26.8153246 14.57047 26.0108717 13.8075616 25.2633941 13.382308 24.5728919 13.2947092"/>
      </g>
      <path fill="#E2E2E2" d="M287.381524,388.465312 C324.366643,388.465312 361.337482,389.668359 391.521757,388.465312 C431.727784,386.862831 459.881524,382.395456 459.881524,378.732656 C459.881524,372.320047 373.631524,369 287.381524,369 C242.383519,369 197.385514,373.050858 164.635407,374.948695 C134.611693,376.68854 114.881524,376.161785 114.881524,378.732656 C114.881524,384.107854 201.131524,388.465312 287.381524,388.465312 Z" opacity=".3"/>
      <g transform="translate(179.882 360)">
        <path fill="#4A4A4A" d="M57.5320115,2.50334715 L59.2273107,28.5482851 L0.00220287957,28.5482851 L0.00220287957,25.4286229 C-0.038056189,23.427415 0.473505399,22.0663195 1.53688764,21.3453367 C3.13196101,20.2638624 20.2264725,15.0739751 25.3217454,12.3418508 C28.718594,10.5204347 32.5224771,7.92251693 36.7333948,4.54809764 C37.5362112,3.71263959 38.131117,3.03105609 38.5181123,2.50334715 C38.9051075,1.9756382 39.4219839,1.14118915 40.0687414,-1.24344979e-14 L57.5320115,-1.24344979e-14 L57.5320115,2.50334715 Z"/>
        <path fill="url(#hire-us_visual-k)" d="M57.5320115,2.50334715 L57.6560634,4.40916095 L36.7333948,4.54809764 C37.5362112,3.71263959 38.131117,3.03105609 38.5181123,2.50334715 C38.9051075,1.9756382 39.4219839,1.14118915 40.0687414,1.81765714e-12 L57.5320115,1.81765714e-12 L57.5320115,2.50334715 Z"/>
        <polygon fill="#A9A8A9" points="59 25.054 59.227 28.548 .002 28.548 .002 25.429"/>
        <path stroke="#979797" stroke-linecap="round" stroke-width="2" d="M36.9521291 10.8850257C36.508831 9.88217336 35.9944136 9.10309838 35.408877 8.54780072 34.6044241 7.78489235 33.8569465 7.35963874 33.1664442 7.2720399M32.9521291 13.8850257C32.508831 12.8821734 31.9944136 12.1030984 31.408877 11.5478007 30.6044241 10.7848923 29.8569465 10.3596387 29.1664442 10.2720399M28.3585768 16.907695C27.9152786 15.9048427 27.4008612 15.1257677 26.8153246 14.57047 26.0108717 13.8075616 25.2633941 13.382308 24.5728919 13.2947092"/>
      </g>
      <g transform="translate(265.882 137)">
        <path fill="#D8D8D8" d="M79.1620649,64 C122.79256,64 158.162065,52.3594035 158.162065,38 C158.162065,35.8047844 158.752754,25.9415307 157.196352,23.9052757 C148.57198,12.6219239 116.122482,12 79.1620649,12 C41.5973756,12 8.82497735,12.3415565 0.808757285,23.9052757 C-0.485672042,25.7725419 0.162064868,36.0036588 0.162064868,38 C0.162064868,52.3594035 35.5315696,64 79.1620649,64 Z"/>
        <ellipse cx="79.162" cy="26" fill="#E6E6E6" rx="79" ry="26"/>
        <polygon fill="url(#hire-us_visual-l)" points="50.876 20 3 32.5 5 25"/>
        <rect width="6" height="179" x="74.162" y="64" fill="#4A4A4A"/>
      </g>
      <path fill="url(#hire-us_visual-m)" d="M263.414718,6 C266.382823,6.6246172 268.644448,8.12078161 270.199591,10.4884932 C271.754734,12.8562049 273.035161,16.7528275 274.040872,22.1783611 L274.040872,29.4524512 C276.481409,29.8721156 277.349361,31.7629817 276.644728,35.1250492 C275.940095,38.4871168 274.628726,40.2172308 272.71062,40.3153912 C271.633474,44.3884202 270.796464,47.4147017 270.199591,49.3942356 C269.602717,51.3737696 268.916297,53.3999495 268.14033,55.4727754 C267.61908,61.715499 267.570251,66.1556345 267.993843,68.7931819 C268.264304,70.4772386 268.674294,71.6921473 269.48093,72.5072758 C269.785401,72.8149525 270.370901,73.1487537 271.237428,73.5086796 C266.649127,80.5581049 260.165179,83.2182484 251.785585,81.4891102 C243.405991,79.759972 238.727027,74.1514956 237.748695,64.6636808 C239.562565,65.3754635 240.800509,65.6268107 241.462524,65.4177222 C242.12454,65.2086338 242.446909,64.4644839 242.42963,63.1852725 L242.42963,53.4354721 C241.569515,52.5165037 240.740996,51.1694249 239.944071,49.3942356 C239.147146,47.6190464 238.098587,44.784841 236.798395,40.8916195 C234.790797,40.0762961 233.540909,38.3477058 233.048732,35.7058486 C232.556555,33.0639915 233.15092,31.1893579 234.831826,30.0819479 C234.748198,19.9615843 236.452279,13.4304328 239.944071,10.4884932 C243.435862,7.54655372 251.259411,6.05038931 263.414718,6 Z"/>
      <path fill="#1B2149" d="M264.920661,5.22574094 C259.593426,-1.96410438 251.583188,-1.73482823 240.889945,5.91356937 C234.770151,10.2907841 234.355439,14.4127822 233.940876,19.255077 C233.734335,21.6675748 234.066853,25.5787781 234.93843,30.9886866 C236.328788,36.385304 237.203955,40.205844 237.563933,42.4503066 C239.660782,55.5241583 249.068699,62 255.20054,62 C261.33238,62 271.799655,54.8921386 273.5444,41.1339891 C273.821366,38.9499757 274.273296,35.3601833 274.90019,30.3646118 C276.208635,21.7972676 276.208635,15.8655798 274.90019,12.5695483 C273.591744,9.27351676 270.265235,6.82558098 264.920661,5.22574094 Z"/>
      <use fill="url(#hire-us_visual-n)" transform="translate(237.97 11)" xlink:href="#hire-us_visual-o"/>
      <path fill="url(#hire-us_visual-p)" d="M254.031895,26 L251.881524,37.1329697 C253.432588,38.3776566 254.599255,39 255.381524,39 C256.163793,39 257.330459,38.3776566 258.881524,37.1329697 L256.957704,26 L254.031895,26 Z"/>
      <circle cx="262.882" cy="28" r="1" fill="#EB9E7A"/>
      <circle cx="245.882" cy="28" r="1" fill="#EB9E7A"/>
      <path stroke="#EB9E7A" stroke-linecap="round" d="M268.881524,24 C268.094856,22.6239741 267.337093,21.693008 266.608233,21.207102 C265.879374,20.7211959 264.637138,20.3188286 262.881524,20"/>
      <path stroke="#EB9E7A" stroke-linecap="round" d="M247.881524,24 C247.094856,22.6239741 246.337093,21.693008 245.608233,21.207102 C244.879374,20.7211959 243.637138,20.3188286 241.881524,20" transform="matrix(-1 0 0 1 489.763 0)"/>
      <path fill="#FFF" stroke="#DADADA" d="M271.302823,72.4349246 C266.173856,79.8687143 259.231726,82.0934828 250.47643,79.1092301 C241.721135,76.1249775 237.780022,71.11748 238.653091,64.0867378 C235.735056,63.7708802 233.713623,63.3948828 232.588793,62.9587455 C221.315726,58.5877718 214.485581,56.8445484 206.322004,62.9587455 C198.463434,68.844504 189.640765,84.0228661 179.853995,108.493832 L168.188583,64.0867378 C164.671263,64.6356318 161.173697,64.6356318 157.695884,64.0867378 C154.218072,63.5378438 151.613285,62.5131357 149.881524,61.0126134 C152.524589,78.6102573 154.444487,90.890718 155.641218,97.8539954 C160.41779,125.646877 165.382822,140.680122 172.112787,143.301836 C181.371958,146.908825 190.845645,140.229874 200.533848,123.264983 L194.98456,176.861896 C208.837619,180.268743 221.840846,182.256123 233.994242,182.824036 C246.147637,183.391948 257.295351,182.585188 267.437383,180.403756 C270.175507,164.298855 272.404201,152.507614 274.123464,145.030033 C275.842727,137.552452 278.391857,128.563532 281.770854,118.063273 L298.420215,154.066173 C312.868878,145.379065 319.665396,139.860993 318.80977,137.511956 C310.658478,115.133392 304.228839,100.459174 299.520854,93.4893041 C296.194763,88.5652402 290.567178,86.248193 284.292869,82.1058752 C281.622773,80.3430699 277.292758,77.1194197 271.302823,72.4349246 Z"/>
      <path fill="url(#hire-us_visual-q)" d="M206.881524,147.80003 L210.703347,163.06476 C214.617533,165.769296 218.004872,166.877019 220.865361,166.387929 C233.933915,164.153453 246.866683,157.366166 251.522758,158.002666 C257.707538,158.848145 262.934947,166.180589 267.204984,180 C269.926751,163.966603 272.142131,152.227714 273.851123,144.783332 C274.480436,142.042042 265.195959,147.411562 259.307843,146.961861 C252.573218,146.447509 235.097779,146.726899 206.881524,147.80003 Z"/>
      <path fill="url(#hire-us_visual-r)" d="M227.299538,136.088768 L232.701499,154.320824 C233.144221,155.815051 232.678797,157.430369 231.508885,158.459944 C229.888599,159.88587 227.167446,161.235642 223.345426,162.50926 C219.096408,163.925168 215.797697,164.332452 213.449296,163.731111 L213.449295,163.731113 C212.097247,163.384903 211.023416,162.359003 210.61587,161.024162 L204.902313,142.310448 C204.589727,139.136362 207.802197,136.459659 214.539726,134.280341 C221.277254,132.101023 225.530525,132.703831 227.299538,136.088768 Z"/>
      <path fill="#6D7278" d="M216.567009,144.39693 C222.089856,144.39693 226.567009,142.382211 226.567009,139.89693 C226.567009,137.411648 222.089856,135.39693 216.567009,135.39693 C211.044161,135.39693 206.567009,137.411648 206.567009,139.89693 C206.567009,142.382211 211.044161,144.39693 216.567009,144.39693 Z" transform="rotate(-16 216.567 139.897)"/>
      <path stroke="#38373A" stroke-width="2" d="M227.881524,140.607709 L230.826353,140.020137 C231.853373,139.815219 232.864563,140.437267 233.144773,141.446347 L235.816064,151.066062 C236.064537,151.96085 235.664407,152.90896 234.849991,153.355178 L231.847934,155"/>
      <path fill="url(#hire-us_visual-s)" d="M183.441245,118.210571 C163.918922,127.254078 165.844343,140.403016 172.647812,143.044276 C182.00811,146.678155 191.585267,139.949412 201.379283,122.858048 C205.733624,104.394763 208.401452,91.9747192 209.382767,85.5979151 C212.207471,67.2423552 202.963569,109.167064 183.441245,118.210571 Z"/>
      <path fill="url(#hire-us_visual-t)" d="M285.881524,107 L281.590474,117.77462 L298.475634,154 L309.881524,139.615015 C304.091891,138.455464 299.425224,135.417126 295.881524,130.5 C292.337824,125.582874 289.00449,117.749541 285.881524,107 Z"/>
      <path fill="#DADADA" d="M159.580503,64.7118071 C164.827208,64.7118071 168.702055,63.946055 168.702055,62.5653431 C168.702055,61.1846313 164.827208,59.7118071 159.580503,59.7118071 C154.333798,59.7118071 149.16707,59.0592734 149.16707,60.4399853 C149.16707,61.8206971 154.333798,64.7118071 159.580503,64.7118071 Z" transform="rotate(4 158.935 62.135)"/>
      <path fill="url(#hire-us_visual-u)" d="M195.423664,176 L235.632265,182.62302 C235.069184,205.100374 234.818937,221.565756 234.881524,232.019164 C234.94003,241.790973 234.425656,251.515099 234.67769,260.341748 C235.334145,283.331883 237.068757,317.884634 239.881524,364 C231.075362,362.400805 224.55231,361.51537 220.312369,361.343697 C216.072428,361.172024 212.781384,361.66009 210.439239,362.807896 C205.632607,320.28503 202.362409,290.970297 200.628645,274.863696 C198.560329,255.649112 196.33454,239.122023 195.423664,226.734654 C193.367477,198.771739 193.367477,181.860188 195.423664,176 Z"/>
      <path fill="url(#hire-us_visual-v)" d="M234.263619,242.733262 C234.346377,248.745307 234.468722,254.565478 234.630652,260.193773 C235.293041,283.216727 237.043332,317.818803 239.881524,364 C230.995763,362.398522 224.413749,361.511823 220.135482,361.339905 C213.718083,361.082028 234.007849,224.1526 234.263619,242.733262 Z"/>
      <path fill="url(#hire-us_visual-w)" d="M253.775882,180 L286.177273,182.728533 C286.710582,205.111851 286.940996,221.304914 286.868516,231.307724 C286.831468,236.420661 269.976117,257.266586 269.269447,273.196699 C269.077753,277.517961 274.600224,284.669825 285.83686,294.652294 L283.650593,335 C270.012062,324.363133 260.749963,316.75346 255.864297,312.170981 C243.53715,300.608813 236.106127,290.741664 235.015632,280.705782 C234.164701,272.874616 237.450936,257.422405 242.382738,233.808318 C244.438104,223.96697 248.235818,206.030864 253.775882,180 Z" transform="matrix(-1 0 0 1 521.763 0)"/>
      <path fill="url(#hire-us_visual-x)" d="M286.430692,312.741839 C273.770794,301.115231 266.139183,291.193089 265.019253,281.101272 C264.145352,273.226461 267.520293,257.688128 272.585221,233.94243 C273.775937,228.360045 275.536037,220.187536 277.865522,209.424903 C278.535452,206.329707 281.69514,220.54753 280.966851,238.952454 C280.463825,251.664649 275.731094,266.102331 276.74292,279.323572 C278.202483,298.395264 289.2214,315.304772 286.430692,312.741839 Z" transform="matrix(-1 0 0 1 551.763 0)"/>
      <path fill="url(#hire-us_visual-y)" d="M269.760961,212.693918 C269.867684,220.430782 269.903553,226.717255 269.868568,231.553338 C269.831667,236.654128 253.043366,257.450525 252.339507,273.342791 C252.148575,277.653786 257.647693,284.767483 268.83686,294.683884 L266.650593,335 C253.074884,324.387909 243.853913,316.796068 238.987681,312.224476 C226.709571,300.689778 245.283252,264.147045 251.520095,251.197752 C253.986824,246.076186 252.960295,240.303475 255.165384,235.24654 C261.536436,220.635794 269.709864,208.989718 269.760961,212.693918 Z" transform="matrix(-1 0 0 1 504.763 0)"/>
      <path fill="url(#hire-us_visual-z)" d="M252.442127,273.46072 C252.251866,277.763469 257.731665,284.863561 268.881524,294.760995 L266.702937,335 C253.17492,324.408207 243.986344,316.830886 239.137207,312.268037 C226.902231,300.755401 253.143513,257.598851 252.442127,273.46072 Z" transform="matrix(-1 0 0 1 504.763 0)"/>
      <path fill="#AFAFAF" d="M270.881524,72.071602 C270.485727,72.0238673 270.168355,72 269.929409,72 C269.690464,72 269.341168,72.0238673 268.881524,72.071602 L270.494164,73 L270.881524,72.071602 Z"/>
      <path fill="#AFAFAF" d="M241.172024,64.7151963 C240.578328,64.619727 240.102271,64.5719923 239.743853,64.5719923 C239.385434,64.5719923 238.861491,64.619727 238.172024,64.7151963 L240.590984,66.5719923 L241.172024,64.7151963 Z" transform="scale(-1 1) rotate(-27 0 1063.878)"/>
      <path stroke="#FFF" d="M235.632265 183L235.130783 198M231.881524 183L231.881524 186.576844C231.881524 189.646289 232.941219 192.621616 234.881524 195L234.881524 195M239.881524 210.827221C238.156497 211.763857 236.23222 212.139462 234.108692 211.954037 231.985165 211.768612 230.242775 211.117266 228.881524 210M202.881524 178C202.604644 187.314003 201.906768 193.99896 200.787896 198.054871 199.669024 202.110783 197.700233 205.092492 194.881524 207M261.881524 181C263.024575 189.59004 264.681609 196.323885 266.852627 201.201535 269.023646 206.079185 271.366611 208.332183 273.881524 207.96053M277.881524 282.757455C275.504932 283.080848 273.671599 283.080848 272.381524 282.757455 271.091449 282.434062 269.258116 281.51491 266.881524 280M228.881524 280C226.724881 281.333333 224.077762 282 220.940168 282 217.802574 282 214.783026 281.333333 211.881524 280"/>
      <path fill="url(#hire-us_visual-A)" d="M156.472837,63.2846859 L156.472837,59.7257568 C153.716438,55.3752368 151.954872,51.6443485 151.188137,48.5330917 C150.421403,45.421835 150.234614,41.7245384 150.627769,37.4412021 C149.755564,33.1595036 149.647928,30.8290382 150.304863,30.4498058 C150.961798,30.0705735 151.782966,31.5954437 152.768368,35.0244164 C151.438414,29.1481084 151.16698,26.0222599 151.954067,25.646871 C152.741153,25.2714822 153.357058,25.3370388 153.801781,25.8435409 C154.132899,24.6145136 154.681737,24 155.448296,24 C156.214856,24 156.832264,24.6145136 157.300521,25.8435409 C157.743359,25.3660701 158.225268,25.1273346 158.74625,25.1273346 C159.267232,25.1273346 159.749997,25.4882079 160.194544,26.2099543 C162.501715,32.6618906 164.288046,37.4864176 165.553535,40.6835354 C167.451768,45.479212 168.755556,44.6846866 169.388412,44.5641134 C169.810317,44.4837313 170.395215,44.2497965 171.143106,43.8623091 L176.795661,39.5865668 C177.57103,39.2783109 178.163783,39.3550679 178.573921,39.8168376 C178.984058,40.2786074 178.984058,40.8619746 178.573921,41.5669393 L173.078822,47.8555303 C171.77224,51.2249101 170.617849,53.5785101 169.615651,54.9163305 C168.613452,56.2541509 167.259413,57.2490155 165.553535,57.9009243 L165.84202,63.942423 C163.692214,64.0191923 162.070538,64.0191923 160.976992,63.942423 C159.883445,63.8656536 158.38206,63.646408 156.472837,63.2846859 Z"/>
      <path fill="url(#hire-us_visual-B)" d="M151.188137,48.4727019 C150.421403,45.3691037 150.234614,41.6809083 150.627769,37.4081157 C149.755564,33.1369569 149.647928,30.812228 150.304863,30.4339292 C150.961798,30.0556304 151.782966,31.576747 152.768368,34.9972791 C151.438414,29.135436 151.16698,26.017282 151.954067,25.6428172 C152.741153,25.2683524 153.357058,25.3337476 153.801781,25.8390029 C154.132899,24.613001 154.681737,24 155.448296,24 C156.214856,24 156.832264,24.613001 157.300521,25.8390029 C157.743359,25.3627074 158.225268,25.1245596 158.74625,25.1245596 C159.267232,25.1245596 159.749997,25.4845445 160.194544,26.2045144 C162.501715,32.6405688 164.288046,37.4532199 165.553535,40.6424678 C167.451768,45.4263395 168.755556,44.6337699 169.388412,44.5134935 C169.810317,44.4333093 170.395215,44.1999504 171.143106,43.8134167 L176.795661,39.5481995 C177.57103,39.2407024 178.163783,39.3172704 178.573921,39.7779034 C178.984058,40.2385365 178.984058,40.8204678 178.573921,41.5236971 L173.078822,47.7968084 C171.77224,51.1578942 170.617849,53.5057007 169.615651,54.840228 C168.613452,56.1747552 167.259413,57.1671709 165.553535,57.817475 C165.145039,58.0608417 163.358709,58.0608417 160.194544,57.817475 C155.448296,57.4524249 151.880706,51.2760901 151.188137,48.4727019 Z"/>
      <path stroke="#EB9E7A" stroke-linecap="round" d="M160.881524 37.5869443L157.381524 25.5869443M156.801262 37.5869443L153.301262 25.5869443M153.881524 38.1190427L151.381524 31.1190427M162.881524 38.1538626C160.437221 37.9487125 158.603887 37.9487125 157.381524 38.1538626 156.15916 38.3590127 154.325827 38.9743919 151.881524 40"/>
      <ellipse cx="261.382" cy="153" fill="#C3B2B2" rx="1.5" ry="9"/>
      <path fill="url(#hire-us_visual-C)" d="M261.578633,143.746414 L256.547702,143.746414 C256.411411,143.746414 256.276558,143.718554 256.151425,143.664545 L240.903012,137.083149 C240.724631,137.006157 240.527685,136.982796 240.336243,137.015921 L231.683389,138.513091 C231.13919,138.607252 230.774362,139.124744 230.868523,139.668943 C230.902212,139.863649 230.992829,140.044009 231.128937,140.187257 L233.05555,142.21502 C233.435949,142.615376 233.41977,143.248302 233.019414,143.628701 C233.019318,143.628793 233.019222,143.628884 233.019126,143.628976 C232.266821,144.343209 231.852365,144.937471 231.775757,145.411762 C231.676616,146.025561 232.061199,146.946756 232.929506,148.175347 L240.197156,155.508851 C241.33548,156.657492 242.959052,157.184661 244.555024,156.923838 C245.97201,156.692266 247.080843,156.482025 247.881524,156.293115 C248.903912,156.051895 250.696387,155.545219 253.258949,154.773086 L253.258949,154.773086 C254.368769,154.438682 255.54426,154.385106 256.679899,154.617167 L264.881524,156.293115 L263.791284,144.851356 L261.578633,143.746414 Z"/>
      <path fill="#FFF" d="M320.145262,146.418289 C320.350963,148.395256 320.694209,154.899316 311.486736,157.33755 C304.495528,159.188894 287.960458,160.743044 261.881524,162 C262.889833,160.047318 263.393988,156.805851 263.393988,152.275597 C263.393988,147.745344 262.889833,144.901259 261.881524,143.743342 C275.017103,141.7222 284.917012,140.445992 291.581249,139.914716 C298.245487,139.38344 304.354133,139.38344 309.907188,139.914716 L294.415763,106 L306.354118,107.651658 C314.705629,125.398099 319.302677,138.32031 320.145262,146.418289 Z"/>
      <path stroke="#EB9E7A" stroke-linecap="round" d="M232.381524 143.5L241.381524 143.5M233.290855 148.5L241.381524 148.5M235.898012 151.5L241.381524 151.5M238.639768 154.5L241.381524 154.5"/>
      <path fill="url(#hire-us_visual-D)" d="M260.881524,144 L285.881524,107 C283.370396,113.411579 281.422951,118.750968 280.039188,123.018167 C278.655426,127.285366 276.790714,133.701772 274.445054,142.267387 L260.881524,144 Z"/>
      <g transform="rotate(20 -683.34 185.873)">
        <path fill="url(#hire-us_visual-E)" d="M118.177483,62.3399796 C116.491128,55.3178002 114.341275,50.1804871 111.727924,46.9280401 C109.093523,43.6493962 107.531199,42.9786038 103.656664,40.3662456 C101.765833,39.0913764 99.1790359,37.7066706 95.9286954,34.6502448 C86.0180214,25.3308398 84.537622,20.6477267 78.1716349,15.3737131 C73.9276434,11.857704 69.4009652,9.62929278 64.5916002,8.68847933 C45.124474,3.06770304 32.05077,0.173994378 25.3704885,0.00735335667 C15.3500661,-0.242608176 -4.06301172,5.95554989 0.75572877,7.09608016 C5.57446926,8.23661043 45.1763485,28.7801819 57.8741278,34.6502448 C81.6947454,45.6622904 90.7903767,34.4657771 102.731142,41.76331 C110.691652,46.628332 115.109409,53.4872219 115.984412,62.3399796 L118.177483,62.3399796 Z"/>
        <path stroke="url(#hire-us_visual-F)" d="M78.9985657,31.3783878 C75.7065357,32.629943 73.0941562,33.2557206 71.1614271,33.2557206 C69.228698,33.2557206 64.8599127,32.9428318 58.0550713,32.3170542"/>
        <path stroke="url(#hire-us_visual-G)" d="M95.1833221,36.9149438 C70.8388459,29.3106618 57.4609933,24.5639229 55.0497644,22.6747271 C44.0013439,14.0182989 27.4944777,8.54223444 5.52916562,6.24653369"/>
        <path stroke="url(#hire-us_visual-H)" d="M78.9985657,31.3783878 C75.5270866,27.5532871 73.5853926,24.2874041 73.1734837,21.5807388 C72.7615748,18.8740734 69.4785097,15.3462606 63.3242885,10.9973002"/>
        <path stroke="url(#hire-us_visual-I)" d="M52.9985657,20.3783878 C49.5270866,16.5532871 47.5853926,13.2874041 47.1734837,10.5807388 C46.7615748,7.87407343 44.091101,5.26729088 39.1620623,2.76039111"/>
        <path stroke="url(#hire-us_visual-J)" d="M52.9985657,20.3783878 C46.3331551,21.4255997 42.1679112,21.7051113 40.5028339,21.2169226 C38.8377566,20.7287338 36.0847675,19.410857 32.2438666,17.2632922"/>
        <path stroke="url(#hire-us_visual-K)" d="M27.1734837,10.5807388 C26.7615748,7.87407343 24.091101,5.26729088 19.1620623,2.76039111"/>
        <path fill="url(#hire-us_visual-L)" d="M3.40226793,8.16544271 C8.24555316,9.32174958 48.0491484,30.149494 60.8116051,36.1007558 C69.664692,40.2290391 52.7739751,27.7190123 46.4002375,19.669146 C35.98451,6.51435043 1.47023861,7.70418166 3.40226793,8.16544271 Z" style="mix-blend-mode:multiply"/>
      </g>
      <path stroke="#B9B9B9" stroke-linecap="round" stroke-linejoin="round" stroke-width="1.564" d="M130.844667,343.978973 C125.50048,336.166724 123.007396,324.880328 123.365414,310.119786 C123.90244,287.978973 137.830047,275.305132 142.678228,260.675878 C147.526409,246.046623 142.678228,233.301414 132.169741,232.080642 C121.661253,230.859869 117.550881,240.926853 120.489798,246.501096 C122.449076,250.217257 125.622429,251.933023 130.009859,251.648393 C133.57203,251.084878 135.652146,249.482756 136.250207,246.842025 C137.012505,243.476105 134.179298,240.337382 131.341315,240.455118 C128.683569,240.565377 127.18,241.825486 126.830608,244.235444" transform="rotate(13 132.065 287.979)"/>
      <path fill="#FB8885" d="M262.881524,46 L248.881524,46 C251.093316,48.6666667 253.426649,50 255.881524,50 C258.336399,50 260.669732,48.6666667 262.881524,46 Z"/>
      <polygon fill="#FFF" points="263.882 45 247.882 45 249.555 46.896 262.165 47"/>
      <polygon fill="url(#hire-us_visual-M)" points="210.875 362.844 238.806 364 239.369 354.093 209.495 353.534"/>
      <polygon fill="url(#hire-us_visual-N)" points="209.882 362.844 240.326 364 240.889 355.093 208.502 354.534"/>
      <g transform="translate(318.882 120)">
        <polygon fill="#EFEFEF" points="55.763 55 97 38.224 35.614 24 0 41.148" transform="matrix(-1 0 0 1 97 0)"/>
        <polygon fill="#444" points="57.667 53 87 41.095 43.334 31 18 43.17" transform="matrix(-1 0 0 1 105 0)"/>
        <path fill="#FFF" stroke="#EBEBEB" stroke-width=".5" d="M111,55 L89.6980824,8.34543625 C89.4179061,7.73180589 88.8472786,7.30075492 88.1804295,7.19900405 L44.2649994,0.49818843 C43.173068,0.331576576 42.1528171,1.08169631 41.9862052,2.17362775 C41.9375184,2.49270872 41.966782,2.81883304 42.071497,3.12414902 L54.8033394,40.2462057 C55.0241178,40.8899262 55.5570704,41.3772106 56.2179421,41.5395923 L111,55 Z" transform="matrix(-1 0 0 1 152 0)"/>
        <path fill="#DDD" d="M81.3421554,26.7382371 L80.1738716,25.1443719 C79.8473706,24.6989333 79.2215899,24.6025154 78.7761513,24.9290164 C78.6837284,24.9967613 78.6036369,25.0798878 78.5393749,25.1747654 L77.7950204,26.2737439 C77.4853052,26.731013 77.6049213,27.3527765 78.0621904,27.6624917 C78.1568488,27.7266052 78.2618006,27.7740118 78.3724831,27.8026504 L80.2851214,28.2975371 C80.8197979,28.4358823 81.3653899,28.1145923 81.5037351,27.5799157 C81.5789242,27.2893248 81.5196052,26.9803281 81.3421554,26.7382371 Z" transform="matrix(-1 0 0 1 160 0)"/>
      </g>
      <g transform="translate(301.882 165)">
        <polygon fill="#FF767B" points="17 .585 5.922 0 0 8.179 13.284 9" transform="matrix(-1 0 0 1 17 0)"/>
        <polygon fill="#F0F0F0" points="46 9 31.702 9 24 18.425 41.406 19" transform="matrix(-1 0 0 1 70 0)"/>
      </g>
      <g transform="scale(-1 1) rotate(-8 1018.567 2477.815)">
        <path fill="#0B1D5E" d="M4.81952953,0.881418715 L0.817670099,9.219292e-13 C0.478802642,0.0731322368 0.240620266,0.349330001 0.103122971,0.828593291 C-0.0343743237,1.30785658 -0.0343743237,1.68858081 0.103122971,1.97076596 L4.41106336,2.96221571 L4.81952953,0.881418715 Z"/>
        <path fill="#FFF" d="M33.7697696,7.22064429 L1.73562786,0.0855362393 C1.35519813,0.168563452 1.08780256,0.482131471 0.933441155,1.0262403 C0.779079747,1.57034912 0.779079747,2.00258629 0.933441155,2.32295181 L32.9940377,9.78468379 C33.6894273,9.92320585 34.1581003,9.61223879 34.4000569,8.85178261 C34.6420135,8.09132642 34.4319177,7.54761365 33.7697696,7.22064429 Z"/>
        <path fill="#0B1D5E" d="M33.7697696,7.22064429 L26.3363501,5.56496544 C25.9724035,5.56496544 25.6958721,5.88566691 25.5067559,6.52706986 C25.3176398,7.1684728 25.3176398,7.67348478 25.5067559,8.04210579 L32.9940377,9.78468379 C33.6894273,9.92320585 34.1581003,9.61223879 34.4000569,8.85178261 C34.6420135,8.09132642 34.4319177,7.54761365 33.7697696,7.22064429 Z"/>
      </g>
    </g>
  </g>
</svg>
