<svg xmlns="http://www.w3.org/2000/svg" width="52" height="52" viewBox="0 0 52 52">
  <path d="M26.0045931,3.9062709 L23.1599886,3.9062709 C22.2306977,3.9062709 21.4741863,4.65556856 21.4741863,5.57588629 L21.4741863,8.39247492 C21.4741863,9.31279264 22.2307484,10.0620903 23.1599886,10.0620903 L26.0045931,10.0620903 C26.9338333,10.0620903 27.6903954,9.31279264 27.6903954,8.39247492 L27.6903954,5.57588629 C27.6903954,4.65551839 26.9338333,3.9062709 26.0045931,3.9062709 Z M26.2141977,8.39247492 C26.2141977,8.50725753 26.1204379,8.60006689 26.0045931,8.60006689 L23.1599886,8.60006689 C23.0440931,8.60006689 22.9503333,8.50720736 22.9503333,8.39247492 L22.9503333,5.57588629 C22.9503333,5.46110368 23.0448023,5.36829431 23.1599886,5.36829431 L26.0045931,5.36829431 C26.1196781,5.36829431 26.2141977,5.46115385 26.2141977,5.57588629 L26.2141977,8.39247492 Z M24.3571356,0.0143478261 L6.64286438,0.0143478261 C2.98040686,0.0143478261 0,2.96613712 0,6.59342809 L0,23.4065719 C0,27.033913 2.98040686,29.9856522 6.64286438,29.9856522 L24.3571356,29.9856522 C28.0195425,29.9856522 31,27.033913 31,23.4065719 L31,6.59342809 C31,2.96613712 28.0195425,0.0143478261 24.3571356,0.0143478261 Z M29.5238023,23.4065719 C29.5238023,26.2282776 27.2061471,28.5236288 24.3571356,28.5236288 L6.64286438,28.5236288 C3.79380229,28.5236288 1.47619771,26.2282776 1.47619771,23.4065719 L1.47619771,12.4414716 L8.91695752,12.4414716 C7.50868627,13.995602 6.64286438,16.0416722 6.64286438,18.2895151 C6.64286438,23.1266388 10.616031,27.0616054 15.5,27.0616054 C20.383969,27.0616054 24.3571356,23.1265886 24.3571356,18.2895151 C24.3571356,16.0416722 23.4913137,13.995602 22.0830425,12.4414716 L29.5238023,12.4414716 L29.5238023,23.4065719 Z M15.5,10.9794482 C19.5698644,10.9794482 22.8809379,14.2587793 22.8809379,18.2895151 C22.8809379,22.3203512 19.5698644,25.5996321 15.5,25.5996321 C11.4301356,25.5996321 8.11906209,22.3203512 8.11906209,18.2895151 C8.11906209,14.2587793 11.4301356,10.9794482 15.5,10.9794482 Z M29.5238023,10.9794482 L20.3854379,10.9794482 C18.9838023,10.0576254 17.3053448,9.51742475 15.5,9.51742475 C13.6953644,9.51742475 12.0161977,10.0576254 10.6145621,10.9794482 L1.47619771,10.9794482 L1.47619771,6.59342809 C1.47619771,3.77172241 3.79380229,1.47637124 6.64286438,1.47637124 L24.3571356,1.47637124 C27.2061471,1.47637124 29.5238023,3.77172241 29.5238023,6.59342809 L29.5238023,10.9794482 Z M15.5,23.4065719 C18.3490621,23.4065719 20.6666667,21.1112207 20.6666667,18.2895151 C20.6666667,15.4679097 18.3490621,13.1724582 15.5,13.1724582 C12.6509379,13.1724582 10.3333333,15.4678595 10.3333333,18.2895151 C10.3333333,21.1112207 12.6509379,23.4065719 15.5,23.4065719 Z M15.5,14.6345318 C17.5349575,14.6345318 19.190469,16.2742475 19.190469,18.2895151 C19.190469,20.3049331 17.5349069,21.9445485 15.5,21.9445485 C13.4650931,21.9445485 11.809531,20.3048829 11.809531,18.2895151 C11.809531,16.2741973 13.4650931,14.6345318 15.5,14.6345318 Z" opacity=".2" transform="translate(11 11)"/>
</svg>
