<svg xmlns="http://www.w3.org/2000/svg" width="52" height="52" viewBox="0 0 52 52">
  <path d="M6.54764706,8.39034653 L0.864656863,8.39034653 C0.475980392,8.39034653 0.160539216,8.70891089 0.160539216,9.10143564 L0.160539216,29.1643564 C0.160539216,29.5568317 0.475980392,29.875396 0.864656863,29.875396 L6.54838235,29.875396 C6.93705882,29.875396 7.2525,29.5567822 7.2525,29.1643564 L7.2525,9.10148515 C7.25181373,8.70821782 6.93705882,8.39034653 6.54764706,8.39034653 Z M5.84352941,28.4532673 L1.56808824,28.4532673 L1.56808824,9.81257426 L5.84352941,9.81257426 L5.84352941,28.4532673 Z M22.3933333,8.14648515 C19.6338235,8.14648515 17.8284804,9.3489604 16.78,10.3949505 L16.6504412,9.03321782 C16.6151961,8.66772277 16.3110294,8.39039604 15.9498039,8.39039604 L15.9357353,8.39039604 L10.7548039,8.49064356 C10.5647059,8.49420792 10.3844118,8.57524752 10.2548529,8.71534653 C10.1246078,8.85544554 10.0562745,9.04242574 10.0647549,9.23376238 C10.1295588,10.6986139 10.127451,12.4109406 10.1246078,14.3934653 L10.1238725,29.265396 C10.1238725,29.6579703 10.4393627,29.9764356 10.8279902,29.9764356 L16.5117647,29.9764356 C16.9004412,29.9764356 17.2158824,29.6579208 17.2158824,29.265396 L17.2158824,17.6673762 C17.2158824,17.0750495 17.2665686,16.6469307 17.3672549,16.3916337 C17.7214706,15.4807426 18.8902941,14.5392079 20.2323529,14.5392079 C21.9708333,14.5392079 23.0079902,15.8746535 23.0079902,18.1125248 L23.0079902,29.2653465 C23.0079902,29.6579208 23.3234804,29.9763861 23.7121078,29.9763861 L29.2958333,29.9763861 C29.6845098,29.9763861 29.999951,29.6578713 29.999951,29.2653465 L29.999951,17.3843564 C30,11.5995545 27.1560294,8.14648515 22.3933333,8.14648515 Z M28.5917157,28.5543069 L24.4162255,28.5543069 L24.4162255,18.1125248 C24.4162255,15.0775248 22.7734804,13.1170297 20.2323039,13.1170297 C18.2156863,13.1170297 16.5757843,14.5363861 16.0582843,15.8682673 C15.8871569,16.299901 15.807598,16.8723762 15.807598,17.6673762 L15.807598,28.5543069 L11.5321569,28.5543069 L11.5328922,14.3955941 C11.535,12.7116832 11.5371078,11.2212376 11.4983824,9.89861386 L15.3112255,9.82465347 L15.5302451,12.1179703 C15.5654412,12.4827723 15.8689216,12.7607921 16.2315686,12.7607921 L16.3512255,12.7607921 C16.5941667,12.7607921 16.8195098,12.6349505 16.9483824,12.4265842 C17.3638235,11.7560396 18.9839706,9.56871287 22.3940686,9.56871287 C26.3336765,9.56871287 28.5925,12.4173267 28.5925,17.3844059 L28.5925,28.5543564 L28.5917157,28.5543564 L28.5917157,28.5543069 Z M3.9445098,0.0236138614 C1.65892157,0.0236138614 0,1.61430693 0,3.80663366 C0,5.99752475 1.62583333,7.58752475 3.86563725,7.58752475 C6.17446078,7.58752475 7.85029412,5.99752475 7.85029412,3.78955446 C7.79892157,1.57237624 6.19279412,0.0236138614 3.9445098,0.0236138614 Z M3.86563725,6.16534653 C2.41862745,6.16534653 1.40823529,5.19539604 1.40823529,3.80663366 C1.40823529,2.39440594 2.42779412,1.44579208 3.9445098,1.44579208 C5.42808824,1.44579208 6.40892157,2.37876238 6.44205882,3.80663366 C6.44205882,5.21747525 5.40627451,6.16534653 3.86563725,6.16534653 Z" opacity=".2" transform="translate(11 11)"/>
</svg>
